<svg width="15" height="15" viewBox="0 0 15 15" fill="none" xmlns="http://www.w3.org/2000/svg">
<mask id="mask0" mask-type="alpha" maskUnits="userSpaceOnUse" x="0" y="0" width="15" height="15">
<circle cx="7.5" cy="7.5" r="7.5" fill="#C4C4C4"/>
</mask>
<g mask="url(#mask0)">
<circle cx="7.5" cy="7.5" r="7.5" fill="#2DA5EC"/>
<path d="M7.58426 11.6491V11.0239C8.98264 10.9045 9.78922 10.1743 9.78922 9.00503C9.78922 8.01709 9.22605 7.41097 8.02812 7.11984L7.58426 7.01961V4.9626C8.21425 5.03896 8.64379 5.44941 8.66288 5.9744H9.66036C9.63172 4.9101 8.82037 4.15602 7.58426 4.04625V3.38763H6.93041V4.04625C5.64179 4.16557 4.85908 4.89578 4.85908 5.99826C4.85908 6.92893 5.44134 7.56847 6.50564 7.84051L6.93041 7.95028V10.1266C6.21928 10.0455 5.76111 9.64934 5.71338 9.0814H4.70158C4.70635 10.1886 5.56543 10.938 6.93041 11.0286V11.6491H7.58426ZM8.77265 9.1148C8.77265 9.72093 8.33834 10.0932 7.58426 10.1362V8.07437C8.39561 8.23664 8.77265 8.56595 8.77265 9.1148ZM5.88042 5.91236C5.88042 5.39214 6.31951 4.99124 6.93041 4.95783V6.8812C6.24314 6.7428 5.88042 6.40394 5.88042 5.91236Z" fill="white"/>
</g>
</svg>
