<svg width="158" height="48" viewBox="0 0 158 48" fill="none" xmlns="http://www.w3.org/2000/svg">
<path d="M0 29.3623V23.3916C0 22.8447 0.449292 22.3974 0.999654 22.3974H11.5504L6.95686 30.3579H0.999654C0.449292 30.3579 0 29.9114 0 29.3623ZM7.51571 41.5884L4.14858 43.8697C3.69551 44.1776 3.37511 43.9827 3.43792 43.439L3.88721 39.536C3.94972 38.9923 4.39062 38.7702 4.86743 39.0419L7.47326 40.5305C7.94925 40.8036 7.96879 41.2814 7.51571 41.5884ZM8.32428 39.3884L5.71844 37.8992C5.24204 37.6271 5.07417 37.0169 5.3513 36.5424L17.4177 15.6256C17.6915 15.1504 18.3085 14.9837 18.7846 15.2594L21.3905 16.7447C21.8672 17.0204 22.0307 17.6311 21.7576 18.1046L9.69138 39.0228C9.41804 39.4973 8.80047 39.6601 8.32428 39.3884ZM17.5076 30.3579L22.1012 22.3974H24.7462L28.4763 30.3579H17.5076ZM32.4687 32.7334C31.4256 32.2125 26.2302 20.2785 24.8991 17.1647C23.5665 14.0509 19.543 5.76241 20.8445 5.11742C21.7702 4.65503 25.0943 11.1817 27.5861 15.1C30.0744 19.0186 35.2779 29.1218 35.9182 30.2723C36.5552 31.4258 35.3052 32.3874 34.6101 32.6753C33.9143 32.9632 33.5114 33.2501 32.4687 32.7334ZM35.8828 38.2188L34.313 35.75C33.9883 35.2362 34.1569 34.6022 34.6834 34.3315L36.1797 33.5653C36.7073 33.297 37.3676 33.5147 37.6483 34.0518L38.8866 36.4232C39.1684 36.9593 38.9765 37.6479 38.4685 37.951L37.3985 38.588C36.8906 38.8948 36.2074 38.7277 35.8828 38.2188ZM41.6601 44.6946C41.3322 43.6485 38.828 43.5793 37.707 42.0042C36.5822 40.4344 37.5118 39.6256 37.9022 39.2523C42.4494 36.7024 41.6601 44.6946 41.6601 44.6946ZM44 29.3623C44 29.9113 43.5508 30.3578 43.0003 30.3578H37.719C37.6608 30.0508 37.5663 29.7438 37.4067 29.4559C37.2692 29.2109 36.9217 28.5502 36.4375 27.6293C35.7385 26.3001 34.7346 24.3992 33.6598 22.3974H42.9998C43.5504 22.3974 43.9996 22.8447 43.9996 23.3916V29.3623H44Z" fill="white"/>
<path d="M53.1426 14.8799V4.6626H56.5923C57.9839 4.6626 59.085 4.87256 59.8955 5.29248C60.7061 5.70752 61.3506 6.32031 61.8291 7.13086C62.3076 7.94141 62.5469 8.8252 62.5469 9.78223C62.5469 10.4658 62.415 11.1201 62.1514 11.7451C61.8877 12.3701 61.5117 12.9194 61.0234 13.3931C60.5254 13.8813 59.9468 14.25 59.2876 14.499C58.9019 14.6504 58.5479 14.7529 58.2256 14.8066C57.9033 14.8555 57.2881 14.8799 56.3799 14.8799H53.1426ZM56.4385 5.96631H54.6074V13.5762H56.4824C57.2148 13.5762 57.7837 13.5273 58.189 13.4297C58.5942 13.3271 58.9312 13.2002 59.1997 13.0488C59.4731 12.8926 59.7222 12.7021 59.9468 12.4775C60.6694 11.7451 61.0308 10.8198 61.0308 9.70166C61.0308 8.60303 60.6597 7.70703 59.9175 7.01367C59.644 6.75488 59.3291 6.54248 58.9727 6.37646C58.6211 6.21045 58.2866 6.10059 57.9692 6.04688C57.6519 5.99316 57.1416 5.96631 56.4385 5.96631ZM67.1175 8.1416C68.1429 8.1416 68.9949 8.47363 69.6736 9.1377C70.3523 9.79688 70.6917 10.627 70.6917 11.6279C70.6917 12.5996 70.3475 13.4077 69.659 14.0522C68.9705 14.6919 68.1038 15.0117 67.0589 15.0117C66.0481 15.0117 65.2034 14.687 64.5247 14.0376C63.846 13.3833 63.5066 12.5679 63.5066 11.5913C63.5066 10.605 63.8484 9.78467 64.532 9.13037C65.2205 8.47119 66.0823 8.1416 67.1175 8.1416ZM67.0442 9.34277C66.4046 9.34277 65.8797 9.55273 65.4695 9.97266C65.0594 10.3926 64.8543 10.9272 64.8543 11.5767C64.8543 12.2212 65.0643 12.7485 65.4842 13.1587C65.9041 13.564 66.4437 13.7666 67.1028 13.7666C67.7571 13.7666 68.2918 13.5615 68.7068 13.1514C69.1268 12.7363 69.3367 12.2065 69.3367 11.562C69.3367 10.9224 69.1194 10.3926 68.6849 9.97266C68.2503 9.55273 67.7034 9.34277 67.0442 9.34277ZM80.1402 8.15625H81.5685L78.5948 15.0117H78.1773L76.1778 10.3169L74.2149 15.0117H73.7828L70.7799 8.15625H72.2081L73.9732 12.2432L75.6871 8.15625H76.6759L78.3824 12.2432L80.1402 8.15625ZM83.5536 8.15625V9.01318C84.1493 8.354 84.8256 8.02441 85.5824 8.02441C86.0023 8.02441 86.393 8.13428 86.7543 8.354C87.1156 8.56885 87.3891 8.8667 87.5746 9.24756C87.765 9.62354 87.8603 10.2217 87.8603 11.042V14.8945H86.5272V11.0566C86.5272 10.3682 86.4223 9.87744 86.2123 9.58447C86.0023 9.28662 85.6508 9.1377 85.1576 9.1377C84.5277 9.1377 83.9931 9.45264 83.5536 10.0825V14.8945H82.1913V8.15625H83.5536ZM89.4499 4.6626H90.7829V14.8945H89.4499V4.6626ZM95.6392 8.1416C96.6646 8.1416 97.5166 8.47363 98.1953 9.1377C98.874 9.79688 99.2134 10.627 99.2134 11.6279C99.2134 12.5996 98.8691 13.4077 98.1807 14.0522C97.4922 14.6919 96.6255 15.0117 95.5806 15.0117C94.5698 15.0117 93.7251 14.687 93.0464 14.0376C92.3677 13.3833 92.0283 12.5679 92.0283 11.5913C92.0283 10.605 92.3701 9.78467 93.0537 9.13037C93.7422 8.47119 94.604 8.1416 95.6392 8.1416ZM95.5659 9.34277C94.9263 9.34277 94.4014 9.55273 93.9912 9.97266C93.5811 10.3926 93.376 10.9272 93.376 11.5767C93.376 12.2212 93.5859 12.7485 94.0059 13.1587C94.4258 13.564 94.9653 13.7666 95.6245 13.7666C96.2788 13.7666 96.8135 13.5615 97.2285 13.1514C97.6484 12.7363 97.8584 12.2065 97.8584 11.562C97.8584 10.9224 97.6411 10.3926 97.2065 9.97266C96.772 9.55273 96.2251 9.34277 95.5659 9.34277ZM104.626 10.8442V13.708C104.626 13.9375 104.704 14.0522 104.861 14.0522C105.022 14.0522 105.273 13.9326 105.615 13.6934V14.5063C105.312 14.7017 105.068 14.8335 104.883 14.9019C104.702 14.9751 104.512 15.0117 104.311 15.0117C103.74 15.0117 103.403 14.7871 103.301 14.3379C102.734 14.7773 102.131 14.9971 101.492 14.9971C101.023 14.9971 100.632 14.8433 100.32 14.5356C100.007 14.2231 99.8509 13.8325 99.8509 13.3638C99.8509 12.939 100.002 12.5605 100.305 12.2285C100.613 11.8916 101.047 11.6255 101.609 11.4302L103.315 10.8442V10.4854C103.315 9.6748 102.91 9.26953 102.099 9.26953C101.372 9.26953 100.664 9.64551 99.9754 10.3975V8.93994C100.493 8.32959 101.238 8.02441 102.209 8.02441C102.937 8.02441 103.52 8.21484 103.96 8.5957C104.106 8.71777 104.238 8.88135 104.355 9.08643C104.472 9.28662 104.546 9.48926 104.575 9.69434C104.609 9.89453 104.626 10.2778 104.626 10.8442ZM103.315 13.5615V11.562L102.422 11.9062C101.968 12.0869 101.645 12.27 101.455 12.4556C101.269 12.6362 101.177 12.8633 101.177 13.1367C101.177 13.415 101.264 13.6421 101.44 13.8179C101.621 13.9937 101.853 14.0815 102.136 14.0815C102.561 14.0815 102.954 13.9082 103.315 13.5615ZM110.991 4.6626H112.332V14.8945H109.483C108.486 14.8945 107.691 14.5796 107.095 13.9497C106.504 13.3198 106.209 12.4751 106.209 11.4155C106.209 10.4243 106.519 9.60889 107.139 8.96924C107.764 8.32959 108.56 8.00977 109.526 8.00977C109.976 8.00977 110.464 8.10498 110.991 8.29541V4.6626ZM110.991 13.752V9.48193C110.576 9.27197 110.156 9.16699 109.732 9.16699C109.067 9.16699 108.538 9.38428 108.142 9.81885C107.752 10.2534 107.556 10.8394 107.556 11.5767C107.556 12.27 107.727 12.8047 108.069 13.1807C108.274 13.4053 108.491 13.5566 108.721 13.6348C108.95 13.7129 109.363 13.752 109.959 13.752H110.991ZM120.938 8.1416C121.964 8.1416 122.816 8.47363 123.494 9.1377C124.173 9.79688 124.512 10.627 124.512 11.6279C124.512 12.5996 124.168 13.4077 123.48 14.0522C122.791 14.6919 121.925 15.0117 120.88 15.0117C119.869 15.0117 119.024 14.687 118.345 14.0376C117.667 13.3833 117.327 12.5679 117.327 11.5913C117.327 10.605 117.669 9.78467 118.353 9.13037C119.041 8.47119 119.903 8.1416 120.938 8.1416ZM120.865 9.34277C120.225 9.34277 119.7 9.55273 119.29 9.97266C118.88 10.3926 118.675 10.9272 118.675 11.5767C118.675 12.2212 118.885 12.7485 119.305 13.1587C119.725 13.564 120.264 13.7666 120.924 13.7666C121.578 13.7666 122.113 13.5615 122.528 13.1514C122.947 12.7363 123.157 12.2065 123.157 11.562C123.157 10.9224 122.94 10.3926 122.506 9.97266C122.071 9.55273 121.524 9.34277 120.865 9.34277ZM127.025 8.15625V9.01318C127.621 8.354 128.297 8.02441 129.054 8.02441C129.474 8.02441 129.864 8.13428 130.226 8.354C130.587 8.56885 130.86 8.8667 131.046 9.24756C131.236 9.62354 131.332 10.2217 131.332 11.042V14.8945H129.999V11.0566C129.999 10.3682 129.894 9.87744 129.684 9.58447C129.474 9.28662 129.122 9.1377 128.629 9.1377C127.999 9.1377 127.464 9.45264 127.025 10.0825V14.8945H125.663V8.15625H127.025ZM135.822 9.22559L138.327 6.76465V8.15625H140.458V9.35742H138.327V12.6606C138.327 13.4321 138.647 13.8179 139.286 13.8179C139.765 13.8179 140.27 13.6567 140.802 13.3345V14.5796C140.29 14.8677 139.731 15.0117 139.125 15.0117C138.515 15.0117 138.007 14.8335 137.602 14.4771C137.475 14.3696 137.37 14.25 137.287 14.1182C137.204 13.9814 137.133 13.8057 137.074 13.5908C137.021 13.3711 136.994 12.9561 136.994 12.3457V9.35742H135.822V9.22559ZM141.433 4.6626H142.766V9.04248C143.322 8.36377 144.013 8.02441 144.838 8.02441C145.287 8.02441 145.69 8.13672 146.047 8.36133C146.403 8.58594 146.667 8.896 146.838 9.2915C147.014 9.68701 147.101 10.2754 147.101 11.0566V14.8945H145.768V10.7271C145.768 10.2339 145.646 9.83838 145.402 9.54053C145.163 9.23779 144.846 9.08643 144.45 9.08643C144.157 9.08643 143.881 9.16211 143.622 9.31348C143.364 9.46484 143.078 9.71631 142.766 10.0679V14.8945H141.433V4.6626ZM154.404 11.6426H149.665C149.699 12.2871 149.914 12.7998 150.31 13.1807C150.71 13.5615 151.225 13.752 151.855 13.752C152.734 13.752 153.545 13.4785 154.287 12.9316V14.2354C153.877 14.5088 153.469 14.7041 153.064 14.8213C152.663 14.9385 152.192 14.9971 151.65 14.9971C150.908 14.9971 150.307 14.8433 149.848 14.5356C149.389 14.228 149.021 13.8154 148.742 13.2979C148.469 12.7754 148.332 12.1724 148.332 11.4888C148.332 10.4634 148.623 9.63086 149.204 8.99121C149.785 8.34668 150.539 8.02441 151.467 8.02441C152.361 8.02441 153.073 8.33691 153.606 8.96191C154.138 9.58691 154.404 10.4243 154.404 11.4741V11.6426ZM149.695 10.8442H153.086C153.051 10.312 152.893 9.90186 152.61 9.61377C152.326 9.32568 151.946 9.18164 151.467 9.18164C150.988 9.18164 150.595 9.32568 150.288 9.61377C149.985 9.90186 149.787 10.312 149.695 10.8442Z" fill="white"/>
<path d="M60.2031 21.6855H62.1309L70.6758 40.8945H67.873L65.3301 35.2344H57.209L54.8027 40.8945H52L60.2031 21.6855ZM64.209 32.8008L61.1328 25.8828L58.2754 32.8008H64.209ZM71.7154 47.3066V28.3164H76.0767C78.3098 28.3164 80.0461 28.8724 81.2857 29.9844C82.5344 31.0964 83.1588 32.6504 83.1588 34.6465C83.1588 36.5332 82.5709 38.0827 81.3951 39.2949C80.2284 40.5072 78.7382 41.1133 76.9244 41.1133C76.1223 41.1133 75.2336 40.9355 74.2584 40.5801V47.3066H71.7154ZM76.022 30.6406H74.2584V38.3789C75.024 38.7708 75.8261 38.9668 76.6646 38.9668C77.8313 38.9668 78.7838 38.5612 79.522 37.75C80.2694 36.9388 80.6431 35.8952 80.6431 34.6191C80.6431 33.7988 80.4654 33.0742 80.1099 32.4453C79.7636 31.8164 79.2851 31.3607 78.6744 31.0781C78.0728 30.7865 77.1887 30.6406 76.022 30.6406ZM85.1554 47.3066V28.3164H89.5167C91.7498 28.3164 93.4861 28.8724 94.7257 29.9844C95.9744 31.0964 96.5987 32.6504 96.5987 34.6465C96.5987 36.5332 96.0109 38.0827 94.8351 39.2949C93.6684 40.5072 92.1782 41.1133 90.3644 41.1133C89.5623 41.1133 88.6736 40.9355 87.6984 40.5801V47.3066H85.1554ZM89.462 30.6406H87.6984V38.3789C88.464 38.7708 89.2661 38.9668 90.1046 38.9668C91.2713 38.9668 92.2237 38.5612 92.962 37.75C93.7094 36.9388 94.0831 35.8952 94.0831 34.6191C94.0831 33.7988 93.9054 33.0742 93.5499 32.4453C93.2036 31.8164 92.7251 31.3607 92.1144 31.0781C91.5128 30.7865 90.6287 30.6406 89.462 30.6406ZM103.832 32.8828L101.754 31.625C100.45 30.832 99.5205 30.0527 98.9645 29.2871C98.4177 28.5124 98.1442 27.6237 98.1442 26.6211C98.1442 25.1172 98.6637 23.8958 99.7028 22.957C100.751 22.0182 102.109 21.5488 103.777 21.5488C105.372 21.5488 106.835 21.9954 108.166 22.8887V25.9922C106.789 24.6706 105.308 24.0098 103.722 24.0098C102.829 24.0098 102.095 24.2194 101.521 24.6387C100.947 25.0488 100.66 25.5775 100.66 26.2246C100.66 26.7988 100.869 27.3366 101.289 27.8379C101.708 28.3392 102.387 28.8633 103.326 29.4102L105.418 30.6406C107.751 32.026 108.918 33.7943 108.918 35.9453C108.918 37.4766 108.403 38.7207 107.373 39.6777C106.352 40.6348 105.021 41.1133 103.381 41.1133C101.494 41.1133 99.7757 40.5345 98.2262 39.377V35.9043C99.7028 37.7728 101.412 38.707 103.353 38.707C104.21 38.707 104.921 38.4701 105.486 37.9961C106.06 37.513 106.347 36.9115 106.347 36.1914C106.347 35.0247 105.509 33.9219 103.832 32.8828ZM109.26 30.3125L113.936 25.7188V28.3164H117.914V30.5586H113.936V36.7246C113.936 38.1647 114.533 38.8848 115.727 38.8848C116.62 38.8848 117.563 38.584 118.557 37.9824V40.3066C117.6 40.8444 116.556 41.1133 115.426 41.1133C114.287 41.1133 113.339 40.7806 112.582 40.1152C112.345 39.9147 112.149 39.6914 111.994 39.4453C111.839 39.1901 111.707 38.862 111.598 38.4609C111.498 38.0508 111.447 37.276 111.447 36.1367V30.5586H109.26V30.3125ZM125.804 28.2891C127.718 28.2891 129.308 28.9089 130.575 30.1484C131.842 31.3789 132.475 32.9284 132.475 34.7969C132.475 36.6107 131.833 38.1191 130.548 39.3223C129.262 40.5163 127.645 41.1133 125.694 41.1133C123.807 41.1133 122.231 40.5072 120.964 39.2949C119.697 38.0736 119.063 36.5514 119.063 34.7285C119.063 32.8874 119.701 31.3561 120.977 30.1348C122.262 28.9043 123.871 28.2891 125.804 28.2891ZM125.667 30.5312C124.473 30.5312 123.493 30.9232 122.727 31.707C121.962 32.4909 121.579 33.4889 121.579 34.7012C121.579 35.9043 121.971 36.8887 122.755 37.6543C123.539 38.4108 124.546 38.7891 125.776 38.7891C126.998 38.7891 127.996 38.4062 128.77 37.6406C129.554 36.8659 129.946 35.877 129.946 34.6738C129.946 33.4798 129.54 32.4909 128.729 31.707C127.918 30.9232 126.897 30.5312 125.667 30.5312ZM137.343 28.3164V31.2012L137.48 30.9824C138.683 29.041 139.886 28.0703 141.089 28.0703C142.028 28.0703 143.008 28.5443 144.029 29.4922L142.716 31.6797C141.85 30.8594 141.048 30.4492 140.31 30.4492C139.508 30.4492 138.811 30.832 138.218 31.5977C137.635 32.3633 137.343 33.2702 137.343 34.3184V40.8945H134.841V28.3164H137.343ZM155.363 34.8242H146.518C146.581 36.0273 146.982 36.9844 147.721 37.6953C148.468 38.4062 149.43 38.7617 150.605 38.7617C152.246 38.7617 153.759 38.2513 155.144 37.2305V39.6641C154.379 40.1745 153.618 40.5391 152.861 40.7578C152.114 40.9766 151.234 41.0859 150.223 41.0859C148.837 41.0859 147.716 40.7988 146.859 40.2246C146.003 39.6504 145.314 38.8802 144.795 37.9141C144.284 36.9388 144.029 35.8132 144.029 34.5371C144.029 32.623 144.572 31.069 145.656 29.875C146.741 28.6719 148.149 28.0703 149.881 28.0703C151.549 28.0703 152.879 28.6536 153.873 29.8203C154.866 30.987 155.363 32.5501 155.363 34.5098V34.8242ZM146.572 33.334H152.902C152.838 32.3405 152.542 31.5749 152.014 31.0371C151.485 30.4993 150.774 30.2305 149.881 30.2305C148.988 30.2305 148.254 30.4993 147.68 31.0371C147.115 31.5749 146.745 32.3405 146.572 33.334Z" fill="white"/>
</svg>
