<svg width="160" height="44" viewBox="0 0 160 44" fill="none" xmlns="http://www.w3.org/2000/svg">
<path d="M0 26.4678V20.4971C0 19.9502 0.449292 19.5028 0.999654 19.5028H11.5504L6.95686 27.4633H0.999654C0.449292 27.4633 0 27.0169 0 26.4678ZM7.51571 38.6939L4.14858 40.9751C3.69551 41.283 3.37511 41.0882 3.43792 40.5444L3.88721 36.6415C3.94972 36.0978 4.39062 35.8757 4.86743 36.1474L7.47326 37.636C7.94925 37.909 7.96879 38.3869 7.51571 38.6939ZM8.32428 36.4939L5.71844 35.0047C5.24204 34.7326 5.07417 34.1224 5.3513 33.6478L17.4177 12.7311C17.6915 12.2558 18.3085 12.0892 18.7846 12.3649L21.3905 13.8502C21.8672 14.1258 22.0307 14.7366 21.7576 15.2101L9.69138 36.1283C9.41804 36.6028 8.80047 36.7656 8.32428 36.4939ZM17.5076 27.4633L22.1012 19.5028H24.7462L28.4763 27.4633H17.5076ZM32.4687 29.8389C31.4256 29.318 26.2302 17.3839 24.8991 14.2702C23.5665 11.1563 19.543 2.86788 20.8445 2.22289C21.7702 1.7605 25.0943 8.2872 27.5861 12.2055C30.0744 16.124 35.2779 26.2273 35.9182 27.3778C36.5552 28.5313 35.3052 29.4929 34.6101 29.7808C33.9143 30.0686 33.5114 30.3556 32.4687 29.8389ZM35.8828 35.3243L34.313 32.8554C33.9883 32.3417 34.1569 31.7077 34.6834 31.437L36.1797 30.6708C36.7073 30.4024 37.3676 30.6201 37.6483 31.1573L38.8866 33.5287C39.1684 34.0648 38.9765 34.7534 38.4685 35.0565L37.3985 35.6935C36.8906 36.0003 36.2074 35.8331 35.8828 35.3243ZM41.6601 41.8C41.3322 40.754 38.828 40.6848 37.707 39.1097C36.5822 37.5399 37.5118 36.7311 37.9022 36.3578C42.4494 33.8078 41.6601 41.8 41.6601 41.8ZM44 26.4678C44 27.0168 43.5508 27.4632 43.0003 27.4632H37.719C37.6608 27.1562 37.5663 26.8492 37.4067 26.5614C37.2692 26.3164 36.9217 25.6556 36.4375 24.7347C35.7385 23.4056 34.7346 21.5047 33.6598 19.5028H42.9998C43.5504 19.5028 43.9996 19.9502 43.9996 20.4971V26.4678H44Z" fill="white"/>
<path d="M60.9243 14.2189C62.9004 14.2189 64.368 13.1181 64.677 11.4123H63.499C63.2029 12.4873 62.2181 13.1503 60.9243 13.1503C59.1348 13.1503 58.0148 11.6891 58.0148 9.35896C58.0148 7.02879 59.1348 5.56117 60.9178 5.56117C62.1988 5.56117 63.1901 6.31429 63.499 7.51156H64.677C64.4002 5.72209 62.8747 4.49263 60.9178 4.49263C58.3945 4.49263 56.8239 6.35935 56.8239 9.35896C56.8239 12.3521 58.401 14.2189 60.9243 14.2189ZM69.0673 14.1223C71.0434 14.1223 72.2664 12.7577 72.2664 10.5305C72.2664 8.29687 71.0434 6.93867 69.0673 6.93867C67.0911 6.93867 65.8681 8.29687 65.8681 10.5305C65.8681 12.7577 67.0911 14.1223 69.0673 14.1223ZM69.0673 13.1246C67.7541 13.1246 67.0139 12.1719 67.0139 10.5305C67.0139 8.88263 67.7541 7.9364 69.0673 7.9364C70.3804 7.9364 71.1206 8.88263 71.1206 10.5305C71.1206 12.1719 70.3804 13.1246 69.0673 13.1246ZM73.7407 14H74.8479V9.70012C74.8479 8.72171 75.5495 7.9364 76.4571 7.9364C77.3325 7.9364 77.9054 8.46423 77.9054 9.28816V14H79.0126V9.5392C79.0126 8.65734 79.6563 7.9364 80.6218 7.9364C81.6002 7.9364 82.083 8.43848 82.083 9.46195V14H83.1902V9.20448C83.1902 7.74973 82.3984 6.93867 80.9823 6.93867C80.0232 6.93867 79.2314 7.42144 78.8581 8.15526H78.7551C78.4333 7.43432 77.7767 6.93867 76.8369 6.93867C75.91 6.93867 75.2148 7.38282 74.8994 8.15526H74.7964V7.06097H73.7407V14ZM84.9735 14H86.0806V7.06097H84.9735V14ZM85.527 5.65128C85.9519 5.65128 86.2995 5.30369 86.2995 4.87885C86.2995 4.45401 85.9519 4.10642 85.527 4.10642C85.1022 4.10642 84.7546 4.45401 84.7546 4.87885C84.7546 5.30369 85.1022 5.65128 85.527 5.65128ZM87.9283 14H89.0354V9.89323C89.0354 8.67665 89.7499 7.9364 90.8571 7.9364C91.9642 7.9364 92.4921 8.5286 92.4921 9.77737V14H93.5992V9.50701C93.5992 7.85916 92.7302 6.93867 91.1725 6.93867C90.1104 6.93867 89.4345 7.38926 89.0869 8.15526H88.9839V7.06097H87.9283V14ZM98.1697 12.9186C96.8823 12.9186 96.1614 11.9402 96.1614 10.4275C96.1614 8.91481 96.8823 7.9364 98.1697 7.9364C99.4507 7.9364 100.23 8.91481 100.23 10.4275C100.23 11.9402 99.4571 12.9186 98.1697 12.9186ZM98.2212 16.6649C100.114 16.6649 101.311 15.6736 101.311 14.1223V7.06097H100.255V8.16169H100.152C99.7532 7.41501 98.8971 6.93867 97.9251 6.93867C96.1421 6.93867 95.0156 8.34836 95.0156 10.4275C95.0156 12.5066 96.1292 13.897 97.9251 13.897C98.8778 13.897 99.6631 13.4657 100.101 12.6997H100.204V14.0644C100.204 15.0878 99.4635 15.6994 98.2212 15.6994C97.2235 15.6994 96.6055 15.3324 96.4832 14.766H95.3117C95.4791 15.9118 96.5476 16.6649 98.2212 16.6649ZM106.429 8.95987C106.429 9.96404 107.021 10.5241 108.321 10.8395L109.512 11.1291C110.252 11.3094 110.613 11.6312 110.613 12.1075C110.613 12.7448 109.943 13.1889 109.01 13.1889C108.122 13.1889 107.568 12.8156 107.381 12.2298H106.242C106.364 13.3821 107.427 14.1223 108.971 14.1223C110.548 14.1223 111.752 13.2662 111.752 12.0239C111.752 11.0261 111.121 10.4597 109.815 10.1443L108.746 9.88679C107.929 9.68725 107.542 9.39115 107.542 8.91481C107.542 8.29687 108.186 7.87847 109.01 7.87847C109.847 7.87847 110.388 8.24537 110.536 8.79895H111.63C111.482 7.65961 110.471 6.93867 109.016 6.93867C107.542 6.93867 106.429 7.80766 106.429 8.95987ZM116.078 14.1223C118.054 14.1223 119.277 12.7577 119.277 10.5305C119.277 8.29687 118.054 6.93867 116.078 6.93867C114.102 6.93867 112.879 8.29687 112.879 10.5305C112.879 12.7577 114.102 14.1223 116.078 14.1223ZM116.078 13.1246C114.765 13.1246 114.025 12.1719 114.025 10.5305C114.025 8.88263 114.765 7.9364 116.078 7.9364C117.391 7.9364 118.131 8.88263 118.131 10.5305C118.131 12.1719 117.391 13.1246 116.078 13.1246ZM123.603 14.1223C125.579 14.1223 126.802 12.7577 126.802 10.5305C126.802 8.29687 125.579 6.93867 123.603 6.93867C121.627 6.93867 120.404 8.29687 120.404 10.5305C120.404 12.7577 121.627 14.1223 123.603 14.1223ZM123.603 13.1246C122.29 13.1246 121.55 12.1719 121.55 10.5305C121.55 8.88263 122.29 7.9364 123.603 7.9364C124.916 7.9364 125.656 8.88263 125.656 10.5305C125.656 12.1719 124.916 13.1246 123.603 13.1246ZM128.277 14H129.384V9.89323C129.384 8.67665 130.098 7.9364 131.205 7.9364C132.313 7.9364 132.84 8.5286 132.84 9.77737V14H133.948V9.50701C133.948 7.85916 133.079 6.93867 131.521 6.93867C130.459 6.93867 129.783 7.38926 129.435 8.15526H129.332V7.06097H128.277V14ZM142.02 14.1223C143.996 14.1223 145.219 12.7577 145.219 10.5305C145.219 8.29687 143.996 6.93867 142.02 6.93867C140.044 6.93867 138.821 8.29687 138.821 10.5305C138.821 12.7577 140.044 14.1223 142.02 14.1223ZM142.02 13.1246C140.707 13.1246 139.967 12.1719 139.967 10.5305C139.967 8.88263 140.707 7.9364 142.02 7.9364C143.333 7.9364 144.073 8.88263 144.073 10.5305C144.073 12.1719 143.333 13.1246 142.02 13.1246ZM146.693 14H147.801V9.89323C147.801 8.67665 148.515 7.9364 149.622 7.9364C150.729 7.9364 151.257 8.5286 151.257 9.77737V14H152.364V9.50701C152.364 7.85916 151.495 6.93867 149.938 6.93867C148.876 6.93867 148.2 7.38926 147.852 8.15526H147.749V7.06097H146.693V14Z" fill="white"/>
<path d="M57.746 36.7756H60.5284V24.4521H57.746V36.7756ZM59.1316 22.447C60.1567 22.447 60.8551 21.7936 60.8551 20.9037C60.8551 20.0138 60.1567 19.3605 59.1316 19.3605C58.1178 19.3605 57.4081 20.0138 57.4081 20.9037C57.4081 21.7936 58.1178 22.447 59.1316 22.447ZM70.8473 20.1152C66.1274 20.1152 63.1422 23.3932 63.1422 28.6426C63.1422 33.8919 66.071 37.1812 70.8473 37.1812C75.5897 37.1812 78.5185 33.8806 78.5185 28.6426C78.5185 23.3932 75.5672 20.1152 70.8473 20.1152ZM70.8473 22.6948C73.731 22.6948 75.5446 25.0041 75.5446 28.6426C75.5446 32.2698 73.7423 34.6016 70.8473 34.6016C67.9072 34.6016 66.1161 32.2698 66.1161 28.6426C66.1161 25.0041 67.9522 22.6948 70.8473 22.6948ZM80.648 32.3599C80.7944 35.3112 83.2614 37.1812 86.99 37.1812C90.9326 37.1812 93.377 35.2098 93.377 32.0445C93.377 29.5663 91.9915 28.192 88.6909 27.4485L86.821 27.0204C84.8046 26.5586 83.9823 25.9165 83.9823 24.8238C83.9823 23.4383 85.2214 22.5371 87.0913 22.5371C88.8712 22.5371 90.1328 23.4383 90.3356 24.8689H93.1179C92.9828 22.0753 90.5158 20.1152 87.1026 20.1152C83.4641 20.1152 81.0535 22.0753 81.0535 25.0266C81.0535 27.4485 82.439 28.9129 85.3904 29.5775L87.4969 30.0619C89.5808 30.5463 90.4707 31.2334 90.4707 32.4049C90.4707 33.768 89.0852 34.748 87.1702 34.748C85.1088 34.748 83.6669 33.813 83.4867 32.3599H80.648ZM101.128 32.3599C101.274 35.3112 103.741 37.1812 107.47 37.1812C111.413 37.1812 113.857 35.2098 113.857 32.0445C113.857 29.5663 112.472 28.192 109.171 27.4485L107.301 27.0204C105.285 26.5586 104.462 25.9165 104.462 24.8238C104.462 23.4383 105.701 22.5371 107.571 22.5371C109.351 22.5371 110.613 23.4383 110.816 24.8689H113.598C113.463 22.0753 110.996 20.1152 107.583 20.1152C103.944 20.1152 101.534 22.0753 101.534 25.0266C101.534 27.4485 102.919 28.9129 105.87 29.5775L107.977 30.0619C110.061 30.5463 110.951 31.2334 110.951 32.4049C110.951 33.768 109.565 34.748 107.65 34.748C105.589 34.748 104.147 33.813 103.967 32.3599H101.128ZM117.259 21.4332V24.531H115.311V26.7614H117.259V33.4864C117.259 35.8745 118.386 36.832 121.213 36.832C121.754 36.832 122.272 36.7756 122.678 36.6968V34.5114C122.34 34.5452 122.126 34.5678 121.731 34.5678C120.56 34.5678 120.042 34.0271 120.042 32.8105V26.7614H122.678V24.531H120.042V21.4332H117.259ZM130.214 37.0235C133.898 37.0235 136.139 34.6128 136.139 30.6139C136.139 26.6262 133.887 24.2043 130.214 24.2043C126.553 24.2043 124.289 26.6374 124.289 30.6139C124.289 34.6128 126.519 37.0235 130.214 37.0235ZM130.214 34.6804C128.265 34.6804 127.15 33.1935 127.15 30.6139C127.15 28.0455 128.265 26.5473 130.214 26.5473C132.152 26.5473 133.267 28.0455 133.267 30.6139C133.267 33.1935 132.163 34.6804 130.214 34.6804ZM138.494 36.7756H141.288V29.6564C141.288 27.9329 142.549 26.8064 144.363 26.8064C144.836 26.8064 145.58 26.8853 145.794 26.9641V24.3733C145.535 24.2944 145.039 24.2493 144.633 24.2493C143.045 24.2493 141.716 25.1505 141.378 26.3671H141.186V24.4521H138.494V36.7756ZM152.485 26.4234C154.164 26.4234 155.268 27.5949 155.324 29.4198H149.523C149.647 27.6175 150.818 26.4234 152.485 26.4234ZM155.347 33.385C154.941 34.2974 153.984 34.8043 152.598 34.8043C150.762 34.8043 149.579 33.5202 149.511 31.47V31.3235H158.118V30.4224C158.118 26.5361 156.011 24.2043 152.497 24.2043C148.926 24.2043 146.707 26.6938 146.707 30.6589C146.707 34.6241 148.892 37.0235 152.519 37.0235C155.425 37.0235 157.464 35.6266 157.994 33.385H155.347Z" fill="white"/>
</svg>
