<svg width="144" height="42" viewBox="0 0 144 42" fill="none" xmlns="http://www.w3.org/2000/svg">
<g clip-path="url(#clip0)">
<path d="M0 25.915V20.4797C0 19.9818 0.409002 19.5746 0.910011 19.5746H10.5147L6.33301 26.8212H0.910011C0.409002 26.8212 0 26.4148 0 25.915ZM6.84175 37.0447L3.77656 39.1214C3.36412 39.4017 3.07245 39.2243 3.12963 38.7293L3.53863 35.1764C3.59553 34.6814 3.9969 34.4792 4.43095 34.7266L6.8031 36.0817C7.23641 36.3303 7.2542 36.7652 6.84175 37.0447ZM7.5778 35.042L5.20565 33.6864C4.77197 33.4387 4.61915 32.8832 4.87143 32.4512L15.8558 13.4101C16.105 12.9775 16.6667 12.8258 17.1001 13.0767L19.4723 14.4288C19.9063 14.6798 20.0552 15.2357 19.8065 15.6668L8.82232 34.7091C8.57349 35.1412 8.0113 35.2893 7.5778 35.042ZM15.9377 26.8212L20.1193 19.5746H22.5271L25.9227 26.8212H15.9377ZM29.5571 28.9838C28.6075 28.5096 23.878 17.6457 22.6663 14.8112C21.4532 11.9766 17.7905 4.43136 18.9753 3.84421C19.818 3.42329 22.844 9.36471 25.1124 12.9317C27.3775 16.4988 32.1144 25.696 32.6972 26.7434C33.2771 27.7935 32.1392 28.6688 31.5065 28.9309C30.873 29.1929 30.5063 29.4541 29.5571 28.9838ZM32.665 33.9773L31.236 31.7298C30.9405 31.2622 31.0939 30.685 31.5732 30.4386L32.9354 29.7411C33.4156 29.4968 34.0167 29.695 34.2723 30.184L35.3995 32.3427C35.656 32.8307 35.4813 33.4576 35.0188 33.7335L34.0448 34.3134C33.5825 34.5927 32.9605 34.4405 32.665 33.9773ZM37.9243 39.8723C37.6258 38.92 35.3462 38.8571 34.3256 37.4233C33.3017 35.9942 34.1479 35.2579 34.5034 34.9181C38.6428 32.5968 37.9243 39.8723 37.9243 39.8723ZM40.0543 25.915C40.0543 26.4148 39.6454 26.8211 39.1443 26.8211H34.3366C34.2836 26.5417 34.1976 26.2622 34.0523 26.0002C33.9271 25.7771 33.6108 25.1756 33.17 24.3373C32.5337 23.1274 31.6198 21.3969 30.6414 19.5746H39.1439C39.6451 19.5746 40.054 19.9818 40.054 20.4797V25.915H40.0543Z" fill="#293D4A"/>
</g>
<path d="M48.377 12.9867V3.6856H51.5174C52.7842 3.6856 53.7865 3.87674 54.5244 4.259C55.2623 4.63682 55.849 5.19467 56.2846 5.93253C56.7202 6.67039 56.938 7.47493 56.938 8.34614C56.938 8.96843 56.818 9.56405 56.578 10.133C56.3379 10.702 55.9957 11.202 55.5512 11.6332C55.0978 12.0777 54.5711 12.4133 53.971 12.64C53.6199 12.7778 53.2976 12.8711 53.0042 12.92C52.7109 12.9644 52.1508 12.9867 51.324 12.9867H48.377ZM51.3774 4.87241H49.7105V11.7999H51.4174C52.0841 11.7999 52.602 11.7554 52.9709 11.6665C53.3398 11.5732 53.6465 11.4576 53.891 11.3198C54.1399 11.1776 54.3666 11.0042 54.5711 10.7997C55.2289 10.133 55.5579 9.29069 55.5579 8.27279C55.5579 7.27268 55.22 6.45703 54.5444 5.82585C54.2955 5.59027 54.0088 5.39691 53.6843 5.24578C53.3643 5.09465 53.0598 4.99464 52.7709 4.94575C52.4819 4.89685 52.0174 4.87241 51.3774 4.87241ZM61.0988 6.85263C62.0322 6.85263 62.8078 7.15489 63.4257 7.7594C64.0435 8.35947 64.3525 9.11511 64.3525 10.0263C64.3525 10.9109 64.0391 11.6465 63.4123 12.2332C62.7856 12.8155 61.9966 13.1067 61.0454 13.1067C60.1253 13.1067 59.3563 12.8111 58.7385 12.2199C58.1206 11.6243 57.8117 10.882 57.8117 9.99299C57.8117 9.09511 58.1229 8.34836 58.7451 7.75273C59.3719 7.15267 60.1564 6.85263 61.0988 6.85263ZM61.0321 7.94609C60.4498 7.94609 59.972 8.13722 59.5986 8.51949C59.2252 8.90175 59.0385 9.38848 59.0385 9.97966C59.0385 10.5664 59.2296 11.0464 59.6119 11.4198C59.9942 11.7888 60.4853 11.9732 61.0854 11.9732C61.681 11.9732 62.1678 11.7865 62.5456 11.4132C62.9278 11.0353 63.119 10.5531 63.119 9.96632C63.119 9.38403 62.9212 8.90175 62.5256 8.51949C62.13 8.13722 61.6321 7.94609 61.0321 7.94609ZM73.0871 6.86597H74.3872L71.6802 13.1067H71.3002L69.48 8.83286L67.6931 13.1067H67.2997L64.5661 6.86597H65.8662L67.4731 10.5864L69.0333 6.86597H69.9334L71.4869 10.5864L73.0871 6.86597ZM76.1943 6.86597V7.64606C76.7366 7.04599 77.3522 6.74595 78.0412 6.74595C78.4235 6.74595 78.7791 6.84596 79.108 7.04599C79.4369 7.24157 79.6858 7.51271 79.8548 7.85941C80.0281 8.20167 80.1148 8.74618 80.1148 9.49293V13H78.9013V9.50627C78.9013 8.87953 78.8057 8.43281 78.6146 8.16612C78.4235 7.89497 78.1034 7.7594 77.6545 7.7594C77.0811 7.7594 76.5944 8.0461 76.1943 8.6195V13H74.9542V6.86597H76.1943ZM81.5619 3.6856H82.7754V13H81.5619V3.6856ZM87.1961 6.85263C88.1296 6.85263 88.9052 7.15489 89.5231 7.7594C90.1409 8.35947 90.4498 9.11511 90.4498 10.0263C90.4498 10.9109 90.1365 11.6465 89.5097 12.2332C88.883 12.8155 88.094 13.1067 87.1428 13.1067C86.2227 13.1067 85.4537 12.8111 84.8359 12.2199C84.218 11.6243 83.9091 10.882 83.9091 9.99299C83.9091 9.09511 84.2202 8.34836 84.8425 7.75273C85.4693 7.15267 86.2538 6.85263 87.1961 6.85263ZM87.1295 7.94609C86.5472 7.94609 86.0693 8.13722 85.696 8.51949C85.3226 8.90175 85.1359 9.38848 85.1359 9.97966C85.1359 10.5664 85.327 11.0464 85.7093 11.4198C86.0916 11.7888 86.5827 11.9732 87.1828 11.9732C87.7784 11.9732 88.2651 11.7865 88.643 11.4132C89.0252 11.0353 89.2164 10.5531 89.2164 9.96632C89.2164 9.38403 89.0186 8.90175 88.623 8.51949C88.2274 8.13722 87.7295 7.94609 87.1295 7.94609ZM95.3773 9.31291V11.9199C95.3773 12.1288 95.4484 12.2332 95.5907 12.2332C95.7374 12.2332 95.9663 12.1243 96.2774 11.9065V12.6466C96.0018 12.8244 95.7796 12.9444 95.6107 13.0067C95.4462 13.0733 95.2729 13.1067 95.0906 13.1067C94.5706 13.1067 94.2639 12.9022 94.1705 12.4933C93.6549 12.8933 93.106 13.0933 92.5237 13.0933C92.097 13.0933 91.7414 12.9533 91.4569 12.6733C91.1724 12.3888 91.0302 12.0332 91.0302 11.6065C91.0302 11.2198 91.168 10.8753 91.4435 10.5731C91.7236 10.2664 92.1192 10.0241 92.6303 9.84631L94.1839 9.31291V8.98621C94.1839 8.24835 93.8149 7.87942 93.0771 7.87942C92.4148 7.87942 91.7702 8.22168 91.1435 8.9062V7.57938C91.6147 7.02376 92.2925 6.74595 93.1771 6.74595C93.8394 6.74595 94.3705 6.91931 94.7706 7.26601C94.9039 7.37714 95.024 7.52604 95.1306 7.71273C95.2373 7.89497 95.304 8.07944 95.3307 8.26613C95.3618 8.44837 95.3773 8.7973 95.3773 9.31291ZM94.1839 11.7865V9.96632L93.3704 10.2797C92.9571 10.4442 92.6637 10.6108 92.4903 10.7797C92.3214 10.9442 92.237 11.1509 92.237 11.3998C92.237 11.6532 92.317 11.8599 92.477 12.0199C92.6415 12.1799 92.8526 12.2599 93.1104 12.2599C93.4971 12.2599 93.8549 12.1021 94.1839 11.7865ZM101.172 3.6856H102.392V13H99.7981C98.8913 13 98.1668 12.7133 97.6245 12.1399C97.0867 11.5665 96.8178 10.7975 96.8178 9.83297C96.8178 8.93065 97.1 8.18834 97.6645 7.60605C98.2335 7.02376 98.958 6.73262 99.8381 6.73262C100.247 6.73262 100.692 6.81929 101.172 6.99265V3.6856ZM101.172 11.9599V8.07277C100.794 7.88164 100.412 7.78607 100.025 7.78607C99.4203 7.78607 98.938 7.98387 98.578 8.37947C98.2224 8.77507 98.0446 9.30847 98.0446 9.97966C98.0446 10.6108 98.2001 11.0976 98.5113 11.4398C98.698 11.6443 98.8958 11.7821 99.1047 11.8532C99.3136 11.9243 99.6892 11.9599 100.231 11.9599H101.172ZM110.226 6.85263C111.16 6.85263 111.936 7.15489 112.553 7.7594C113.171 8.35947 113.48 9.11511 113.48 10.0263C113.48 10.9109 113.167 11.6465 112.54 12.2332C111.913 12.8155 111.124 13.1067 110.173 13.1067C109.253 13.1067 108.484 12.8111 107.866 12.2199C107.248 11.6243 106.939 10.882 106.939 9.99299C106.939 9.09511 107.251 8.34836 107.873 7.75273C108.5 7.15267 109.284 6.85263 110.226 6.85263ZM110.16 7.94609C109.578 7.94609 109.1 8.13722 108.726 8.51949C108.353 8.90175 108.166 9.38848 108.166 9.97966C108.166 10.5664 108.357 11.0464 108.74 11.4198C109.122 11.7888 109.613 11.9732 110.213 11.9732C110.809 11.9732 111.295 11.7865 111.673 11.4132C112.056 11.0353 112.247 10.5531 112.247 9.96632C112.247 9.38403 112.049 8.90175 111.653 8.51949C111.258 8.13722 110.76 7.94609 110.16 7.94609ZM115.767 6.86597V7.64606C116.31 7.04599 116.925 6.74595 117.614 6.74595C117.997 6.74595 118.352 6.84596 118.681 7.04599C119.01 7.24157 119.259 7.51271 119.428 7.85941C119.601 8.20167 119.688 8.74618 119.688 9.49293V13H118.474V9.50627C118.474 8.87953 118.379 8.43281 118.188 8.16612C117.997 7.89497 117.676 7.7594 117.228 7.7594C116.654 7.7594 116.167 8.0461 115.767 8.6195V13H114.527V6.86597H115.767ZM123.775 7.83941L126.056 5.59916V6.86597H127.996V7.95942H126.056V10.9664C126.056 11.6687 126.347 12.0199 126.929 12.0199C127.365 12.0199 127.825 11.8732 128.309 11.5798V12.7133C127.843 12.9756 127.334 13.1067 126.783 13.1067C126.227 13.1067 125.765 12.9444 125.396 12.62C125.28 12.5222 125.185 12.4133 125.109 12.2933C125.033 12.1688 124.969 12.0088 124.916 11.8132C124.867 11.6132 124.842 11.2354 124.842 10.6797V7.95942H123.775V7.83941ZM128.883 3.6856H130.096V7.67273C130.603 7.05488 131.232 6.74595 131.983 6.74595C132.392 6.74595 132.759 6.84819 133.083 7.05265C133.408 7.25712 133.648 7.53938 133.804 7.89942C133.964 8.25946 134.044 8.79508 134.044 9.50627V13H132.83V9.20623C132.83 8.75729 132.719 8.39725 132.497 8.12611C132.279 7.85052 131.99 7.71273 131.63 7.71273C131.363 7.71273 131.112 7.78163 130.877 7.91942C130.641 8.05721 130.381 8.28613 130.096 8.60617V13H128.883V3.6856ZM140.691 10.0397H136.377C136.409 10.6264 136.604 11.0931 136.964 11.4398C137.329 11.7865 137.798 11.9599 138.371 11.9599C139.171 11.9599 139.909 11.711 140.585 11.2131V12.3999C140.211 12.6488 139.84 12.8266 139.471 12.9333C139.107 13.04 138.678 13.0933 138.184 13.0933C137.509 13.0933 136.962 12.9533 136.544 12.6733C136.126 12.3933 135.791 12.0177 135.537 11.5465C135.288 11.0709 135.164 10.5219 135.164 9.89965C135.164 8.96621 135.428 8.20834 135.957 7.62605C136.486 7.03932 137.173 6.74595 138.018 6.74595C138.831 6.74595 139.48 7.03043 139.965 7.59938C140.449 8.16834 140.691 8.93065 140.691 9.88631V10.0397ZM136.404 9.31291H139.491C139.46 8.82841 139.316 8.45504 139.058 8.19278C138.8 7.93053 138.453 7.79941 138.018 7.79941C137.582 7.79941 137.224 7.93053 136.944 8.19278C136.669 8.45504 136.489 8.82841 136.404 9.31291Z" fill="#293D4A"/>
<path d="M54.8044 18.2582H56.5593L64.338 35.7446H61.7866L59.4716 30.592H52.0788L49.8883 35.7446H47.3369L54.8044 18.2582ZM58.4511 28.3767L55.6508 22.0791L53.0496 28.3767H58.4511ZM65.2843 41.5817V24.2944H69.2546C71.2874 24.2944 72.868 24.8006 73.9965 25.8128C75.1332 26.8251 75.7015 28.2398 75.7015 30.0569C75.7015 31.7744 75.1664 33.1849 74.096 34.2885C73.034 35.392 71.6774 35.9438 70.0262 35.9438C69.2961 35.9438 68.4871 35.782 67.5993 35.4584V41.5817H65.2843ZM69.2048 26.4102H67.5993V33.4546C68.2962 33.8114 69.0264 33.9898 69.7898 33.9898C70.8518 33.9898 71.7189 33.6205 72.3909 32.8821C73.0713 32.1436 73.4115 31.1936 73.4115 30.032C73.4115 29.2852 73.2497 28.6256 72.9261 28.0531C72.6108 27.4806 72.1752 27.0657 71.6193 26.8085C71.0717 26.543 70.2668 26.4102 69.2048 26.4102ZM77.5191 41.5817V24.2944H81.4894C83.5222 24.2944 85.1028 24.8006 86.2312 25.8128C87.368 26.8251 87.9363 28.2398 87.9363 30.0569C87.9363 31.7744 87.4011 33.1849 86.3308 34.2885C85.2688 35.392 83.9122 35.9438 82.261 35.9438C81.5308 35.9438 80.7219 35.782 79.8341 35.4584V41.5817H77.5191ZM81.4396 26.4102H79.8341V33.4546C80.531 33.8114 81.2612 33.9898 82.0245 33.9898C83.0866 33.9898 83.9536 33.6205 84.6257 32.8821C85.3061 32.1436 85.6463 31.1936 85.6463 30.032C85.6463 29.2852 85.4845 28.6256 85.1609 28.0531C84.8456 27.4806 84.41 27.0657 83.8541 26.8085C83.3065 26.543 82.5016 26.4102 81.4396 26.4102ZM94.5207 28.4514L92.6289 27.3063C91.4424 26.5845 90.5961 25.8751 90.09 25.1781C89.5921 24.4728 89.3432 23.6638 89.3432 22.7511C89.3432 21.3821 89.8161 20.2703 90.762 19.4157C91.7162 18.561 92.9525 18.1337 94.4709 18.1337C95.9229 18.1337 97.2546 18.5403 98.466 19.3534V22.1786C97.2131 20.9755 95.8648 20.374 94.4211 20.374C93.608 20.374 92.9401 20.5648 92.4173 20.9465C91.8946 21.3199 91.6332 21.8011 91.6332 22.3902C91.6332 22.9129 91.8241 23.4025 92.2057 23.8588C92.5874 24.3152 93.2056 24.7923 94.0602 25.2901L95.9644 26.4102C98.0885 27.6714 99.1505 29.2811 99.1505 31.2392C99.1505 32.6332 98.6817 33.7657 97.7442 34.6369C96.8149 35.5082 95.6035 35.9438 94.11 35.9438C92.3924 35.9438 90.8284 35.4169 89.4179 34.3631V31.2019C90.762 32.9028 92.3178 33.7533 94.0851 33.7533C94.865 33.7533 95.5122 33.5376 96.0266 33.1061C96.5494 32.6664 96.8107 32.1187 96.8107 31.4633C96.8107 30.4012 96.0474 29.3972 94.5207 28.4514ZM99.4622 26.1115L103.719 21.9297V24.2944H107.34V26.3356H103.719V31.9486C103.719 33.2596 104.262 33.9151 105.349 33.9151C106.162 33.9151 107.021 33.6413 107.925 33.0937V35.2095C107.054 35.699 106.104 35.9438 105.075 35.9438C104.038 35.9438 103.175 35.6409 102.487 35.0352C102.271 34.8527 102.092 34.6494 101.951 34.4254C101.81 34.193 101.69 33.8943 101.59 33.5293C101.499 33.1559 101.454 32.4506 101.454 31.4135V26.3356H99.4622V26.1115ZM114.522 24.2695C116.265 24.2695 117.712 24.8338 118.866 25.9622C120.019 27.0823 120.596 28.4928 120.596 30.1938C120.596 31.8449 120.011 33.2181 118.841 34.3134C117.671 35.4003 116.198 35.9438 114.423 35.9438C112.705 35.9438 111.27 35.392 110.116 34.2885C108.963 33.1766 108.386 31.791 108.386 30.1315C108.386 28.4555 108.967 27.0616 110.129 25.9497C111.299 24.8296 112.763 24.2695 114.522 24.2695ZM114.398 26.3107C113.311 26.3107 112.419 26.6674 111.722 27.381C111.025 28.0946 110.676 29.0031 110.676 30.1067C110.676 31.2019 111.033 32.098 111.747 32.795C112.46 33.4836 113.377 33.828 114.497 33.828C115.609 33.828 116.518 33.4795 117.223 32.7825C117.936 32.0772 118.293 31.177 118.293 30.0818C118.293 28.9948 117.924 28.0946 117.186 27.381C116.447 26.6674 115.518 26.3107 114.398 26.3107ZM125.027 24.2944V26.9205L125.151 26.7214C126.247 24.9541 127.342 24.0704 128.437 24.0704C129.292 24.0704 130.184 24.5019 131.113 25.3648L129.918 27.3561C129.13 26.6094 128.4 26.236 127.728 26.236C126.998 26.236 126.363 26.5845 125.824 27.2814C125.293 27.9784 125.027 28.804 125.027 29.7582V35.7446H122.749V24.2944H125.027ZM141.954 30.2187H133.901C133.959 31.3139 134.325 32.1851 134.997 32.8323C135.677 33.4795 136.552 33.8031 137.623 33.8031C139.116 33.8031 140.494 33.3384 141.755 32.4091V34.6245C141.058 35.0891 140.365 35.421 139.676 35.6202C138.996 35.8193 138.195 35.9189 137.274 35.9189C136.013 35.9189 134.992 35.6575 134.213 35.1348C133.433 34.6121 132.806 33.9109 132.333 33.0314C131.869 32.1436 131.636 31.1189 131.636 29.9573C131.636 28.2149 132.13 26.8002 133.117 25.7133C134.105 24.618 135.387 24.0704 136.963 24.0704C138.481 24.0704 139.693 24.6014 140.597 25.6635C141.502 26.7255 141.954 28.1485 141.954 29.9324V30.2187ZM133.951 28.8621H139.714C139.656 27.9577 139.386 27.2607 138.905 26.7712C138.423 26.2816 137.776 26.0369 136.963 26.0369C136.15 26.0369 135.482 26.2816 134.959 26.7712C134.445 27.2607 134.109 27.9577 133.951 28.8621Z" fill="#293D4A"/>
<defs>
<clipPath id="clip0">
<rect width="40.0543" height="40.0543" fill="white" transform="translate(0 1.8208)"/>
</clipPath>
</defs>
</svg>
