<svg width="166" height="47" viewBox="0 0 166 47" fill="none" xmlns="http://www.w3.org/2000/svg">
<path fill-rule="evenodd" clip-rule="evenodd" d="M24.7824 26.08C22.6503 21.0614 19.5612 17.9059 16.1052 16.0538C17.516 12.388 20.3444 8.88947 25.1589 6.04626C28.1115 8.17139 31.5226 11.6959 33.4426 16.0629C29.9935 17.9162 26.9109 21.0696 24.7824 26.08ZM25.085 39.9071C32.9472 43.1326 54.1147 36.0768 48.8732 15.7157C39.8014 14.2373 22.3433 17.0059 25.085 39.9071ZM24.11 28.6355C23.285 31.8925 22.9458 35.7591 23.258 40.3327C14.5832 42.3486 -4.13991 34.9993 0.824183 15.716C8.11661 14.5276 20.8282 16.0835 24.11 28.6355Z" fill="#22A4EF"/>
<path d="M59.8801 27.4767C59.8801 25.9177 60.1221 24.4662 60.6059 23.1223C61.0897 21.7514 61.7751 20.5687 62.6622 19.5742C63.576 18.5797 64.6781 17.8002 65.9683 17.2357C67.2585 16.6712 68.71 16.389 70.3228 16.389C72.3118 16.389 74.1934 16.7519 75.9674 17.4776L74.9191 21.4692C74.3547 21.2273 73.7096 21.0257 72.9838 20.8644C72.285 20.7031 71.5323 20.6225 70.726 20.6225C68.8175 20.6225 67.366 21.2273 66.3715 22.4369C65.377 23.6195 64.8797 25.2995 64.8797 27.4767C64.8797 29.5733 65.3501 31.2398 66.2909 32.4763C67.2316 33.6859 68.8175 34.2906 71.0485 34.2906C71.8818 34.2906 72.7016 34.21 73.508 34.0487C74.3143 33.8875 75.0132 33.6859 75.6046 33.4439L76.29 37.4759C75.7524 37.7446 74.9326 37.9866 73.8305 38.2016C72.7553 38.4166 71.6399 38.5241 70.484 38.5241C68.6831 38.5241 67.1107 38.2554 65.7667 37.7178C64.4496 37.1533 63.3476 36.3872 62.4606 35.4196C61.6004 34.425 60.9553 33.2558 60.5252 31.9118C60.0952 30.541 59.8801 29.0626 59.8801 27.4767ZM80.0671 38V7.51881L84.9457 6.71243V17.1551C85.4832 16.9669 86.1015 16.8056 86.8003 16.6712C87.5261 16.5368 88.2384 16.4696 88.9372 16.4696C90.6306 16.4696 92.0284 16.7116 93.1304 17.1954C94.2594 17.6523 95.1598 18.3109 95.8318 19.171C96.5038 20.0043 96.9742 21.0122 97.243 22.1949C97.5386 23.3776 97.6865 24.6947 97.6865 26.1462V38H92.8079V26.9123C92.8079 25.7833 92.7272 24.8291 92.566 24.0496C92.4316 23.2432 92.1896 22.5981 91.8402 22.1143C91.5177 21.6036 91.0742 21.2407 90.5097 21.0257C89.9452 20.7838 89.2464 20.6628 88.4131 20.6628C87.768 20.6628 87.1094 20.73 86.4375 20.8644C85.7655 20.9988 85.2682 21.1198 84.9457 21.2273V38H80.0671ZM110.953 34.5729C112.458 34.5729 113.6 34.4922 114.38 34.331V28.9282C114.111 28.8476 113.721 28.7669 113.211 28.6863C112.7 28.6057 112.135 28.5653 111.517 28.5653C110.98 28.5653 110.429 28.6057 109.864 28.6863C109.326 28.7669 108.829 28.9148 108.372 29.1298C107.942 29.3448 107.593 29.654 107.324 30.0572C107.055 30.4335 106.921 30.9173 106.921 31.5086C106.921 32.6644 107.284 33.4708 108.009 33.9278C108.735 34.3578 109.716 34.5729 110.953 34.5729ZM110.55 16.389C112.162 16.389 113.52 16.5906 114.622 16.9938C115.724 17.397 116.597 17.9614 117.242 18.6872C117.914 19.4129 118.385 20.2999 118.654 21.3482C118.949 22.3697 119.097 23.4986 119.097 24.735V37.5162C118.345 37.6774 117.202 37.8656 115.67 38.0806C114.165 38.3226 112.458 38.4435 110.55 38.4435C109.286 38.4435 108.13 38.3226 107.082 38.0806C106.034 37.8387 105.133 37.449 104.381 36.9114C103.655 36.3738 103.077 35.6749 102.647 34.8148C102.244 33.9547 102.042 32.8929 102.042 31.6296C102.042 30.42 102.271 29.3986 102.728 28.5653C103.211 27.7321 103.857 27.0601 104.663 26.5494C105.469 26.0118 106.397 25.6355 107.445 25.4205C108.52 25.1785 109.636 25.0576 110.791 25.0576C111.329 25.0576 111.893 25.0979 112.485 25.1785C113.076 25.2323 113.708 25.3398 114.38 25.5011V24.6947C114.38 24.1303 114.313 23.5927 114.178 23.082C114.044 22.5713 113.802 22.1277 113.452 21.7514C113.13 21.3482 112.686 21.0391 112.122 20.8241C111.584 20.6091 110.899 20.5015 110.066 20.5015C108.937 20.5015 107.902 20.5822 106.961 20.7435C106.02 20.9047 105.254 21.0929 104.663 21.3079L104.058 17.3567C104.676 17.1416 105.577 16.9266 106.76 16.7116C107.942 16.4965 109.206 16.389 110.55 16.389ZM129.95 25.1382C130.568 24.4931 131.227 23.8077 131.926 23.082C132.625 22.3293 133.31 21.5902 133.982 20.8644C134.654 20.1118 135.286 19.3995 135.877 18.7275C136.495 18.0286 137.019 17.4239 137.45 16.9131H143.215C141.871 18.4184 140.447 19.9774 138.941 21.5902C137.463 23.2029 135.971 24.7754 134.466 26.3075C135.272 26.9795 136.119 27.7993 137.006 28.7669C137.893 29.7077 138.753 30.7157 139.586 31.7909C140.42 32.866 141.199 33.9412 141.925 35.0164C142.651 36.0916 143.255 37.0861 143.739 38H138.095C137.611 37.1667 137.046 36.2932 136.401 35.3793C135.783 34.4654 135.111 33.5783 134.385 32.7182C133.66 31.8581 132.92 31.0517 132.168 30.2991C131.415 29.5196 130.676 28.861 129.95 28.3234V38H125.072V7.51881L129.95 6.71243V25.1382ZM154.697 34.5729C156.203 34.5729 157.345 34.4922 158.124 34.331V28.9282C157.856 28.8476 157.466 28.7669 156.955 28.6863C156.444 28.6057 155.88 28.5653 155.262 28.5653C154.724 28.5653 154.173 28.6057 153.609 28.6863C153.071 28.7669 152.574 28.9148 152.117 29.1298C151.687 29.3448 151.337 29.654 151.069 30.0572C150.8 30.4335 150.665 30.9173 150.665 31.5086C150.665 32.6644 151.028 33.4708 151.754 33.9278C152.48 34.3578 153.461 34.5729 154.697 34.5729ZM154.294 16.389C155.907 16.389 157.264 16.5906 158.366 16.9938C159.468 17.397 160.342 17.9614 160.987 18.6872C161.659 19.4129 162.129 20.2999 162.398 21.3482C162.694 22.3697 162.842 23.4986 162.842 24.735V37.5162C162.089 37.6774 160.947 37.8656 159.415 38.0806C157.909 38.3226 156.203 38.4435 154.294 38.4435C153.031 38.4435 151.875 38.3226 150.827 38.0806C149.778 37.8387 148.878 37.449 148.125 36.9114C147.4 36.3738 146.822 35.6749 146.392 34.8148C145.988 33.9547 145.787 32.8929 145.787 31.6296C145.787 30.42 146.015 29.3986 146.472 28.5653C146.956 27.7321 147.601 27.0601 148.407 26.5494C149.214 26.0118 150.141 25.6355 151.19 25.4205C152.265 25.1785 153.38 25.0576 154.536 25.0576C155.074 25.0576 155.638 25.0979 156.229 25.1785C156.821 25.2323 157.452 25.3398 158.124 25.5011V24.6947C158.124 24.1303 158.057 23.5927 157.923 23.082C157.788 22.5713 157.546 22.1277 157.197 21.7514C156.874 21.3482 156.431 21.0391 155.867 20.8241C155.329 20.6091 154.644 20.5015 153.81 20.5015C152.681 20.5015 151.646 20.5822 150.706 20.7435C149.765 20.9047 148.999 21.0929 148.407 21.3079L147.803 17.3567C148.421 17.1416 149.321 16.9266 150.504 16.7116C151.687 16.4965 152.95 16.389 154.294 16.389Z" fill="white"/>
</svg>
