
						<svg width="146" height="41" fill="none" xmlns="http://www.w3.org/2000/svg">
							<title>Chaka Logo</title>
							<path
								fill-rule="evenodd"
								clip-rule="evenodd"
								d="M21.797 22.94c-1.875-4.415-4.593-7.19-7.632-8.819 1.24-3.224 3.728-6.301 7.963-8.802 2.597 1.87 5.597 4.97 7.285 8.81-3.033 1.63-5.744 4.404-7.616 8.81zm-.592 2.246c-.725 2.865-1.024 6.265-.75 10.288-7.629 1.773-24.096-4.69-19.73-21.65 6.414-1.046 17.594.322 20.48 11.362zm.858 9.914c6.915 2.837 25.532-3.369 20.922-21.277-7.979-1.3-23.334 1.135-20.922 21.277z"
								fill="#fff"
							/>
							<path
								d="M52.665 25.745c0-1.372.213-2.648.638-3.83.426-1.206 1.029-2.246 1.809-3.12a8.551 8.551 0 0 1 2.908-2.058c1.134-.496 2.411-.744 3.83-.744 1.749 0 3.404.319 4.964.957l-.922 3.51a9.638 9.638 0 0 0-1.702-.531 8.822 8.822 0 0 0-1.986-.213c-1.678 0-2.955.532-3.83 1.596-.874 1.04-1.312 2.518-1.312 4.433 0 1.844.414 3.31 1.241 4.397.828 1.064 2.223 1.596 4.185 1.596.733 0 1.454-.071 2.163-.213.71-.142 1.324-.32 1.844-.532l.603 3.546c-.473.236-1.194.45-2.163.638-.946.19-1.927.284-2.944.284-1.584 0-2.967-.236-4.149-.71-1.158-.496-2.127-1.17-2.907-2.02-.757-.875-1.324-1.904-1.703-3.086-.378-1.205-.567-2.506-.567-3.9zM70.42 35V8.191l4.29-.709v9.184a11.594 11.594 0 0 1 1.632-.425 10.309 10.309 0 0 1 1.88-.177c1.489 0 2.718.212 3.687.638.993.402 1.785.981 2.376 1.738.591.732 1.005 1.619 1.241 2.66.26 1.04.39 2.198.39 3.474V35h-4.29v-9.752c0-.993-.071-1.832-.213-2.518-.118-.709-.331-1.276-.638-1.702a2.331 2.331 0 0 0-1.17-.957c-.497-.213-1.112-.32-1.845-.32-.567 0-1.146.06-1.737.178-.591.118-1.029.225-1.312.32V35H70.42zm27.164-3.014c1.324 0 2.329-.071 3.014-.213v-4.752a8.348 8.348 0 0 0-1.028-.213 10.28 10.28 0 0 0-2.943 0c-.473.071-.91.201-1.312.39a2.36 2.36 0 0 0-.922.816c-.237.331-.355.757-.355 1.277 0 1.016.32 1.726.958 2.127.638.379 1.5.568 2.588.568zm-.354-15.993c1.418 0 2.612.177 3.581.532.97.354 1.738.85 2.305 1.489.591.638 1.005 1.419 1.241 2.34.26.899.39 1.892.39 2.98v11.24c-.661.142-1.666.308-3.014.497-1.324.213-2.825.32-4.503.32-1.112 0-2.128-.107-3.05-.32-.922-.213-1.714-.556-2.376-1.029A5.077 5.077 0 0 1 90.28 32.2c-.354-.757-.532-1.69-.532-2.802 0-1.064.201-1.962.603-2.695a5.095 5.095 0 0 1 1.702-1.773c.71-.473 1.525-.804 2.447-.993.946-.213 1.927-.32 2.943-.32.473 0 .97.036 1.49.107.52.048 1.075.142 1.666.284v-.71c0-.496-.059-.969-.177-1.418a2.702 2.702 0 0 0-.638-1.17c-.284-.354-.674-.626-1.17-.816-.473-.189-1.076-.283-1.809-.283-.993 0-1.903.07-2.73.213-.828.141-1.502.307-2.022.496l-.532-3.475c.544-.19 1.336-.378 2.376-.568 1.04-.189 2.152-.283 3.334-.283zm17.063 7.695l1.738-1.809 1.808-1.95c.591-.662 1.147-1.288 1.667-1.88a94.976 94.976 0 0 0 1.383-1.595h5.071a251.86 251.86 0 0 1-3.759 4.113 166.323 166.323 0 0 1-3.936 4.15 23.52 23.52 0 0 1 2.234 2.162c.78.828 1.536 1.714 2.269 2.66a53.186 53.186 0 0 1 2.057 2.837c.638.946 1.17 1.82 1.596 2.624h-4.965a31.035 31.035 0 0 0-1.489-2.305 27.787 27.787 0 0 0-1.773-2.34 34.35 34.35 0 0 0-1.951-2.128 15.905 15.905 0 0 0-1.95-1.738V35h-4.291V8.191l4.291-.709v16.206zm21.765 8.298c1.324 0 2.329-.071 3.015-.213v-4.752a8.412 8.412 0 0 0-1.029-.213 10.273 10.273 0 0 0-2.943 0c-.473.071-.91.201-1.312.39-.378.19-.686.462-.922.816-.237.331-.355.757-.355 1.277 0 1.016.319 1.726.958 2.127.638.379 1.501.568 2.588.568zm-.354-15.993c1.418 0 2.612.177 3.581.532.97.354 1.738.85 2.305 1.489.591.638 1.005 1.419 1.242 2.34.26.899.39 1.892.39 2.98v11.24c-.662.142-1.667.308-3.015.497-1.324.213-2.825.32-4.503.32-1.111 0-2.128-.107-3.05-.32-.922-.213-1.714-.556-2.376-1.029a5.087 5.087 0 0 1-1.525-1.843c-.354-.757-.532-1.69-.532-2.802 0-1.064.201-1.962.603-2.695a5.101 5.101 0 0 1 1.702-1.773c.71-.473 1.525-.804 2.447-.993.946-.213 1.927-.32 2.944-.32.472 0 .969.036 1.489.107.52.048 1.076.142 1.667.284v-.71c0-.496-.059-.969-.178-1.418a2.703 2.703 0 0 0-.638-1.17c-.284-.354-.674-.626-1.17-.816-.473-.189-1.076-.283-1.809-.283-.993 0-1.903.07-2.73.213-.828.141-1.501.307-2.022.496l-.531-3.475c.543-.19 1.335-.378 2.375-.568a18.648 18.648 0 0 1 3.334-.283z"
								fill="#fff"
							/>
						</svg>