<svg width="48" height="48" viewBox="0 0 48 48" fill="none" xmlns="http://www.w3.org/2000/svg">
<path fill-rule="evenodd" clip-rule="evenodd" d="M24.3768 25.4306C23.0538 22.3165 21.1369 20.3585 18.9924 19.2094C19.8678 16.9348 21.6228 14.7641 24.61 13C26.4421 14.3186 28.5587 16.5056 29.75 19.2154C27.61 20.3653 25.6975 22.3219 24.3768 25.4306ZM23.9599 27.0158C23.4481 29.0367 23.2377 31.4357 23.4313 34.2734C18.0489 35.5244 6.43122 30.9643 9.51139 18.9992C14.0363 18.2618 21.9237 19.2273 23.9599 27.0158ZM24.5648 34.0096C29.4432 36.011 42.5773 31.6329 39.325 18.9993C33.6961 18.082 22.8637 19.7998 24.5648 34.0096Z" fill="#22A4EF"/>
</svg>
