<svg width="250" height="250" viewBox="0 0 250 250" fill="none" xmlns="http://www.w3.org/2000/svg">
<path fill-rule="evenodd" clip-rule="evenodd" d="M125.254 133.557C118.277 117.134 108.168 106.809 96.8594 100.748C101.476 88.7521 110.731 77.3039 126.486 68C136.148 74.9541 147.31 86.4874 153.593 100.778C142.306 106.842 132.219 117.161 125.254 133.557ZM123.053 141.912C120.353 152.57 119.244 165.223 120.265 180.189C91.8784 186.786 30.6099 162.736 46.854 99.6346C70.7173 95.7458 112.314 100.837 123.053 141.912ZM126.243 178.799C151.971 189.354 221.238 166.265 204.086 99.6366C174.4 94.7989 117.272 103.859 126.243 178.799Z" fill="white"/>
</svg>
