<svg width="12" height="12" viewBox="0 0 12 12" fill="none" xmlns="http://www.w3.org/2000/svg">
<g clip-path="url(#clip0)">
<path d="M5.52797 0C2.47502 0 0.000976562 2.4747 0.000976562 5.52699C0.000976562 8.57964 2.47533 11.054 5.52797 11.054C8.58026 11.054 11.0546 8.57964 11.0546 5.52699C11.0546 2.47505 8.58026 0 5.52797 0ZM5.52797 10.0177C3.04775 10.0177 1.0373 8.00722 1.0373 5.52699C1.0373 3.04677 3.04809 1.03633 5.52797 1.03633C8.00785 1.03633 10.0183 3.04677 10.0183 5.52699C10.0183 8.00722 8.00788 10.0177 5.52797 10.0177ZM7.70009 3.17595C7.46518 3.03572 7.165 3.11895 7.02995 3.36248L5.17667 6.69146L4.14451 5.4351C3.95763 5.2199 3.70928 5.10834 3.47471 5.24857C3.2398 5.38915 3.14273 5.72736 3.29475 5.9443L4.73107 7.69255C4.8385 7.83209 4.96112 7.91571 5.08929 7.93955L5.09034 7.94164L5.10348 7.94234C5.1325 7.94682 5.56638 8.02696 5.75326 7.69259L7.88048 3.87172C8.01546 3.62777 7.935 3.31654 7.70009 3.17595Z" fill="#3DB39E"/>
</g>
<defs>
<clipPath id="clip0">
<rect width="11.054" height="11.054" fill="white"/>
</clipPath>
</defs>
</svg>
