<?xml version="1.0"?>
<svg xmlns="http://www.w3.org/2000/svg" id="Layer_1" enable-background="new 0 0 511.334 511.334" height="512px" viewBox="0 0 511.334 511.334" width="512px" class=""><g><path d="m0 224.667v132.333c0 38.108 30.892 69 69 69h373.334c38.108 0 69-30.892 69-69v-132.333c0-6.627-5.373-12-12-12h-487.334c-6.627 0-12 5.373-12 12zm127.667 84h-32c-11.598 0-21-9.402-21-21s9.402-21 21-21h32c11.598 0 21 9.402 21 21s-9.402 21-21 21z" data-original="#000000" class="active-path" data-old_color="#000000" fill="#293D4A"/><path d="m511.334 158.667v-4.333c0-38.108-30.892-69-69-69h-373.334c-38.108 0-69 30.892-69 69v4.333c0 6.627 5.373 12 12 12h487.334c6.627 0 12-5.373 12-12z" data-original="#000000" class="active-path" data-old_color="#000000" fill="#293D4A"/></g> </svg>
