<svg width="160" height="142" viewBox="0 0 160 142" fill="none" xmlns="http://www.w3.org/2000/svg">
<g clip-path="url(#clip0)">
<path opacity="0.1" d="M51.0124 139.989C58.8129 139.989 65.1366 138.136 65.1366 135.851C65.1366 133.565 58.8129 131.712 51.0124 131.712C43.2118 131.712 36.8882 133.565 36.8882 135.851C36.8882 138.136 43.2118 139.989 51.0124 139.989Z" fill="#22A4EF"/>
<path opacity="0.1" d="M84.1161 118.767C117.715 118.767 144.952 117.453 144.952 115.833C144.952 114.212 117.715 112.898 84.1161 112.898C50.5174 112.898 23.2803 114.212 23.2803 115.833C23.2803 117.453 50.5174 118.767 84.1161 118.767Z" fill="#22A4EF"/>
<path opacity="0.1" d="M49.3763 5.51159C54.8029 0.677222 63.319 -0.304456 71.0702 0.0762307C95.42 1.28526 117.399 13.0407 136.411 26.3366C143.284 31.1498 150.07 36.3366 154.538 42.9652C163.632 56.4584 160.935 75.1526 148.288 86.2683C143.986 90.0505 138.771 92.9497 133.415 95.5211C123.898 100.091 113.621 103.759 102.815 104.804C95.1099 105.548 87.3058 104.943 79.648 103.903C58.2432 101.002 37.2331 94.5835 19.6246 83.6017C11.9016 78.785 4.62272 72.798 1.43799 65.008C-1.74673 57.218 0.292407 47.3431 8.17932 42.7308C11.4398 40.8221 15.3401 39.962 19.1575 39.153C24.778 37.9616 30.4883 36.7878 35.5588 34.3662C40.7985 31.8671 47.0006 27.031 45.9572 21.5004C44.8504 15.5557 43.9568 10.3407 49.3763 5.51159Z" fill="#22A4EF"/>
<path d="M142.73 19.3005H26.4477C24.2264 19.3005 22.4258 21.1012 22.4258 23.3224V111.811C22.4258 114.032 24.2264 115.833 26.4477 115.833H142.73C144.951 115.833 146.752 114.032 146.752 111.811V23.3224C146.752 21.1012 144.951 19.3005 142.73 19.3005Z" fill="#474157"/>
<path d="M136.931 28.0085H32.4307V106.754H136.931V28.0085Z" fill="#EDEDF4"/>
<path d="M28.3542 69.0946C29.3003 69.0946 30.0673 68.3277 30.0673 67.3815C30.0673 66.4354 29.3003 65.6685 28.3542 65.6685C27.4081 65.6685 26.6411 66.4354 26.6411 67.3815C26.6411 68.3277 27.4081 69.0946 28.3542 69.0946Z" fill="#E6E8EC"/>
<path d="M141.563 70.3918C143.123 70.3918 144.388 69.127 144.388 67.5666C144.388 66.0063 143.123 64.7415 141.563 64.7415C140.003 64.7415 138.738 66.0063 138.738 67.5666C138.738 69.127 140.003 70.3918 141.563 70.3918Z" fill="#E6E8EC"/>
<path d="M92.2802 62.7586C92.302 62.7414 92.3282 62.7307 92.3559 62.7277C92.3835 62.7247 92.4114 62.7296 92.4364 62.7417C92.4615 62.7539 92.4825 62.7728 92.4973 62.7964C92.512 62.8199 92.5199 62.8472 92.5198 62.875V67.9437C92.5198 68.2592 92.3945 68.5618 92.1714 68.7849C91.9483 69.008 91.6457 69.1334 91.3302 69.1334H81.0129C80.6974 69.1334 80.3948 69.008 80.1717 68.7849C79.9486 68.5618 79.8232 68.2592 79.8232 67.9437V62.8767C79.8236 62.8489 79.8318 62.8217 79.8468 62.7983C79.8617 62.7748 79.8829 62.756 79.908 62.7439C79.9331 62.7319 79.961 62.727 79.9887 62.7299C80.0164 62.7328 80.0427 62.7434 80.0647 62.7604C80.6199 63.1922 81.3548 63.7403 83.8839 65.5803C84.4126 65.961 85.2938 66.7647 86.1751 66.7594C87.0563 66.7541 87.9604 65.9469 88.4662 65.5803C90.9901 63.7403 91.725 63.1904 92.2802 62.7586ZM86.1751 65.961C86.7496 65.961 87.585 65.2366 87.9939 64.9353C91.2826 62.5471 91.5329 62.3392 92.2925 61.7452C92.3633 61.6893 92.4206 61.6181 92.46 61.5369C92.4994 61.4557 92.5198 61.3667 92.5198 61.2764V60.8059C92.5198 60.4903 92.3945 60.1878 92.1714 59.9646C91.9483 59.7415 91.6457 59.6162 91.3302 59.6162H81.0129C80.6974 59.6162 80.3948 59.7415 80.1717 59.9646C79.9486 60.1878 79.8232 60.4903 79.8232 60.8059V61.2764C79.8235 61.3666 79.8441 61.4556 79.8835 61.5368C79.9228 61.6179 79.9799 61.6892 80.0506 61.7452C80.8102 62.3374 81.0605 62.5471 84.3492 64.9353C84.7651 65.2366 85.5935 65.9698 86.168 65.961H86.1751Z" fill="#22A4EF"/>
<path opacity="0.2" d="M67.6179 45.6523H57.8469C57.5481 45.6528 57.2616 45.7719 57.0505 45.9833C56.8393 46.1948 56.7207 46.4815 56.7207 46.7803V53.5516C56.7207 53.8504 56.8393 54.1371 57.0505 54.3486C57.2616 54.56 57.5481 54.6791 57.8469 54.6796H67.6179C67.9169 54.6791 68.2035 54.5601 68.4149 54.3487C68.6264 54.1372 68.7454 53.8506 68.7458 53.5516V46.7803C68.7454 46.4813 68.6264 46.1947 68.4149 45.9832C68.2035 45.7718 67.9169 45.6528 67.6179 45.6523ZM67.6179 46.7803V47.7355C67.0891 48.1638 66.2502 48.8318 64.456 50.2364C64.0595 50.5484 63.277 51.2939 62.7306 51.2939C62.1843 51.2939 61.4017 50.5555 61.007 50.2364C59.211 48.8265 58.3633 48.1638 57.8434 47.7355V46.7768L67.6179 46.7803ZM57.8469 53.5516V49.186C58.3862 49.6143 59.1493 50.2171 60.3143 51.1247C60.8289 51.5283 61.7243 52.4201 62.7359 52.4148C63.7475 52.4095 64.627 51.5336 65.1575 51.1247C66.3207 50.2135 67.0838 49.6108 67.6249 49.186V53.5516H57.8469Z" fill="#22A4EF"/>
<path opacity="0.1" d="M58.1013 64.4788H48.3303C48.1823 64.4788 48.0357 64.5079 47.8989 64.5647C47.7622 64.6214 47.6379 64.7045 47.5333 64.8092C47.4287 64.914 47.3458 65.0384 47.2893 65.1752C47.2328 65.312 47.2039 65.4587 47.2041 65.6067V72.3745C47.2041 72.6733 47.3227 72.96 47.5339 73.1715C47.745 73.3829 48.0315 73.502 48.3303 73.5024H58.1013C58.4003 73.502 58.6869 73.383 58.8983 73.1716C59.1098 72.9601 59.2288 72.6735 59.2292 72.3745V65.6085C59.2295 65.4602 59.2005 65.3133 59.1439 65.1763C59.0873 65.0392 59.0042 64.9147 58.8995 64.8098C58.7947 64.7048 58.6703 64.6216 58.5333 64.5648C58.3964 64.508 58.2495 64.4788 58.1013 64.4788ZM58.1013 65.6067V66.5655C57.5725 66.9938 56.7336 67.6617 54.9394 69.0664C54.5429 69.3783 53.7604 70.1239 53.214 70.1239C52.6677 70.1239 51.8851 69.3854 51.4904 69.0664C49.6944 67.6564 48.8467 66.9938 48.3268 66.5655V65.6067H58.1013ZM48.3303 72.3745V68.0142C48.8696 68.4425 49.6327 69.0435 50.7977 69.9529C51.3123 70.3583 52.2077 71.2501 53.2193 71.2448C54.2309 71.2395 55.1104 70.3635 55.6409 69.9547C56.8041 69.0435 57.5672 68.4407 58.1083 68.016V72.3745H48.3303Z" fill="#22A4EF"/>
<path opacity="0.2" d="M68.7494 81.5198H58.982C58.683 81.5203 58.3963 81.6392 58.1849 81.8507C57.9735 82.0621 57.8545 82.3487 57.854 82.6478V89.4137C57.8545 89.7128 57.9735 89.9994 58.1849 90.2108C58.3963 90.4223 58.683 90.5412 58.982 90.5417H68.7565C69.0553 90.5412 69.3417 90.4222 69.5529 90.2107C69.764 89.9992 69.8826 89.7126 69.8826 89.4137V82.6478C69.8826 82.4992 69.8533 82.3521 69.7963 82.2149C69.7393 82.0777 69.6557 81.9531 69.5504 81.8483C69.4451 81.7435 69.3201 81.6605 69.1827 81.6041C69.0452 81.5477 68.898 81.5191 68.7494 81.5198ZM68.7494 82.6478V83.6065C68.2207 84.0348 67.3817 84.7027 65.5876 86.1074C65.191 86.4194 64.4068 87.1649 63.8622 87.1649C63.3176 87.1649 62.5333 86.4264 62.1367 86.1074C60.3426 84.7027 59.5107 84.0418 58.982 83.6065V82.6478H68.7494ZM58.982 89.4137V85.0535C59.5213 85.4817 60.2844 86.0845 61.4494 86.9922C61.9622 87.3958 62.8593 88.2876 63.871 88.2823C64.8826 88.277 65.7621 87.401 66.2926 86.9922C67.4558 86.081 68.2189 85.4782 68.76 85.0535V89.4137H58.982Z" fill="#22A4EF"/>
<path opacity="0.2" d="M88.4147 34.2969H78.6438C78.4957 34.2969 78.3492 34.3261 78.2124 34.3828C78.0756 34.4395 77.9514 34.5226 77.8468 34.6274C77.7422 34.7321 77.6593 34.8565 77.6028 34.9933C77.5463 35.1302 77.5173 35.2768 77.5176 35.4248V42.1908C77.5176 42.4897 77.6362 42.7763 77.8473 42.9878C78.0585 43.1993 78.3449 43.3183 78.6438 43.3188H88.4147C88.7138 43.3183 89.0004 43.1993 89.2118 42.9879C89.4233 42.7765 89.5422 42.4899 89.5427 42.1908V35.4248C89.5427 35.1257 89.4239 34.8388 89.2123 34.6272C89.0008 34.4157 88.7139 34.2969 88.4147 34.2969ZM88.4147 35.4248V36.3836C87.886 36.8119 87.0471 37.4781 85.2529 38.8845C84.8564 39.1965 84.0739 39.942 83.5275 39.942C82.9811 39.942 82.1986 39.2035 81.8038 38.8845C80.0079 37.4746 79.1602 36.8119 78.6314 36.3836V35.4248H88.4147ZM78.6403 42.1908V37.8306C79.1796 38.2588 79.9427 38.8598 81.1077 39.7692C81.6223 40.1746 82.5176 41.0664 83.5293 41.0611C84.5409 41.0558 85.4204 40.1799 85.9509 39.7692C87.1141 38.8581 87.8772 38.2571 88.4183 37.8306V42.1908H78.6403Z" fill="#22A4EF"/>
<path opacity="0.2" d="M88.4147 92.6443H78.6438C78.3449 92.6448 78.0585 92.7638 77.8473 92.9753C77.6362 93.1868 77.5176 93.4734 77.5176 93.7723V100.538C77.5176 100.837 77.6362 101.124 77.8473 101.335C78.0585 101.547 78.3449 101.666 78.6438 101.666H88.4147C88.7138 101.666 89.0004 101.547 89.2118 101.335C89.4233 101.124 89.5422 100.837 89.5427 100.538V93.7723C89.5422 93.4732 89.4233 93.1866 89.2118 92.9752C89.0004 92.7637 88.7138 92.6448 88.4147 92.6443ZM88.4147 93.7723V94.731C87.886 95.1593 87.0471 95.8273 85.2529 97.2319C84.8564 97.5439 84.0739 98.2894 83.5275 98.2894C82.9811 98.2894 82.1986 97.5509 81.8038 97.2319C80.0079 95.822 79.1602 95.1593 78.6314 94.731V93.7723H88.4147ZM78.6438 100.538V96.178C79.1831 96.6062 79.9462 97.209 81.1112 98.1167C81.6258 98.5203 82.5211 99.4121 83.5328 99.4068C84.5444 99.4015 85.4239 98.5255 85.9544 98.1167C87.1176 97.2055 87.8807 96.6027 88.4218 96.178V100.538H78.6438Z" fill="#22A4EF"/>
<path opacity="0.2" d="M99.7241 46.7803V53.5516C99.7241 53.8504 99.8427 54.1371 100.054 54.3486C100.265 54.56 100.551 54.6791 100.85 54.6796H110.621C110.92 54.6791 111.207 54.5601 111.418 54.3487C111.63 54.1372 111.749 53.8506 111.749 53.5516V46.7803C111.749 46.4813 111.63 46.1947 111.418 45.9832C111.207 45.7718 110.92 45.6528 110.621 45.6523H100.85C100.551 45.6528 100.265 45.7719 100.054 45.9833C99.8427 46.1948 99.7241 46.4815 99.7241 46.7803ZM110.625 46.7803V47.7355C110.096 48.1638 109.257 48.8318 107.463 50.2364C107.066 50.5484 106.282 51.2939 105.738 51.2939C105.193 51.2939 104.409 50.5555 104.014 50.2364C102.218 48.8265 101.37 48.1638 100.842 47.7355V46.7768L110.625 46.7803ZM100.85 53.5516V49.186C101.39 49.6143 102.153 50.2171 103.318 51.1247C103.846 51.5407 104.736 52.4201 105.739 52.4148C106.742 52.4095 107.648 51.5336 108.161 51.1247C109.324 50.2135 110.087 49.6108 110.628 49.186V53.5516H100.85Z" fill="#22A4EF"/>
<path opacity="0.2" d="M108.583 64.8894V71.6554C108.583 71.9546 108.701 72.2415 108.913 72.453C109.124 72.6646 109.411 72.7834 109.71 72.7834H119.483C119.782 72.7829 120.069 72.6639 120.28 72.4525C120.492 72.2411 120.611 71.9545 120.611 71.6554V64.8894C120.611 64.5904 120.492 64.3038 120.28 64.0924C120.069 63.8809 119.782 63.7619 119.483 63.7615H109.71C109.562 63.7615 109.416 63.7907 109.279 63.8473C109.142 63.904 109.018 63.9871 108.913 64.0918C108.808 64.1966 108.725 64.3209 108.668 64.4578C108.612 64.5946 108.583 64.7413 108.583 64.8894ZM119.483 64.8894V65.8482C118.954 66.2765 118.116 66.9444 116.321 68.3491C115.927 68.6611 115.142 69.4066 114.596 69.4066C114.05 69.4066 113.267 68.6681 112.872 68.3491C111.076 66.9392 110.237 66.2765 109.71 65.8482V64.8894H119.483ZM109.71 71.6554V67.2987C110.239 67.727 111.011 68.3297 112.178 69.2374C112.707 69.6533 113.588 70.5328 114.598 70.5275C115.608 70.5222 116.506 69.6463 117.019 69.2374C118.183 68.3262 118.947 67.7234 119.487 67.2987V71.659L109.71 71.6554Z" fill="#22A4EF"/>
<path opacity="0.2" d="M98.5962 82.6477V89.4137C98.5962 89.7129 98.715 89.9998 98.9266 90.2113C99.1381 90.4229 99.425 90.5417 99.7241 90.5417H109.497C109.796 90.5412 110.083 90.4222 110.294 90.2108C110.505 89.9994 110.624 89.7127 110.625 89.4137V82.6477C110.624 82.3487 110.505 82.0621 110.294 81.8507C110.083 81.6392 109.796 81.5202 109.497 81.5198H99.7241C99.425 81.5198 99.1381 81.6386 98.9266 81.8501C98.715 82.0617 98.5962 82.3486 98.5962 82.6477ZM109.497 82.6477V83.6065C108.968 84.0348 108.129 84.7027 106.335 86.1074C105.939 86.4193 105.156 87.1649 104.61 87.1649C104.063 87.1649 103.281 86.4264 102.886 86.1074C101.09 84.6974 100.242 84.0348 99.7241 83.6065V82.6477H109.497ZM99.7241 89.4137V85.0535C100.262 85.4817 101.025 86.0845 102.192 86.9921C102.72 87.4081 103.602 88.2875 104.611 88.2823C105.621 88.277 106.52 87.401 107.033 86.9921C108.196 86.081 108.959 85.4782 109.5 85.0535V89.4137H99.7241Z" fill="#22A4EF"/>
<path d="M77.4699 61.9374L77.306 61.8704C77.1556 61.6549 76.9851 61.4543 76.7966 61.2712C76.7966 61.2712 72.3077 59.766 71.3947 59.2109C70.8292 58.8754 70.1841 58.6977 69.5266 58.6962L67.8981 58.4195C67.8981 58.4195 66.9834 58.2221 66.5463 58.067C66.1092 57.9119 65.3126 57.5929 65.3126 57.5929C65.3126 57.5929 64.3591 57.1964 64.1987 56.9585C64.0383 56.7205 63.2452 56.5231 63.2452 56.5231L61.6167 55.2894C61.6167 55.2894 60.3055 54.4963 60.1063 53.7438C59.9072 52.9912 59.1528 50.8922 56.6114 52.2387C56.6114 52.2387 55.3389 51.8862 55.0252 51.4861C54.7115 51.086 51.7295 51.5249 51.7295 51.5249L50.8007 49.9387C50.688 49.0509 50.6632 48.1542 50.7266 47.2615C50.7266 47.1769 50.7407 47.0853 50.7495 47.006C51.5916 46.3601 52.1916 45.4494 52.4528 44.4208C52.7141 43.3922 52.6213 42.3056 52.1895 41.3362C52.163 41.2763 52.1331 41.2164 52.1049 41.16C52.1772 41.022 52.2289 40.8741 52.2582 40.7211C52.2582 40.6824 52.2705 40.6436 52.2758 40.6048C52.2847 40.5146 52.2876 40.424 52.2846 40.3334C52.2835 40.1621 52.261 39.9915 52.2177 39.8258L52.1806 39.7024C52.0597 39.3322 51.836 39.004 51.5356 38.756C51.2413 38.5163 50.8712 38.3524 50.6544 38.051C50.3354 37.5963 50.4182 36.953 50.1256 36.486C50.0965 36.4424 50.0647 36.4006 50.0305 36.3608L50.004 36.3326C49.9741 36.3009 49.9423 36.2727 49.9106 36.2445L49.8912 36.2287C49.4594 35.8762 48.7862 35.8462 48.224 35.989C47.5454 36.1652 46.9162 36.5177 46.2218 36.6199C45.6702 36.6939 45.1133 36.59 44.5581 36.5547C44.0029 36.5195 43.409 36.5547 42.9525 36.879C42.3903 37.272 42.1612 37.9964 41.6695 38.4758C41.1777 38.9552 40.3935 39.1808 39.9634 39.7465C39.8085 39.9548 39.7081 40.1986 39.6715 40.4557C39.6348 40.7127 39.6631 40.9748 39.7537 41.2181C39.9299 41.6711 40.3159 42.0359 40.404 42.5135C40.5027 43.0423 40.2278 43.6274 40.4128 44.1085C40.4271 44.143 40.4436 44.1766 40.4622 44.209C40.4857 44.2072 40.5092 44.2072 40.5327 44.209H40.5873H40.6014L40.6684 44.2213C40.6905 44.2255 40.7123 44.2314 40.7336 44.2389C40.8746 44.2922 41.0012 44.3776 41.1033 44.4884C41.2055 44.5991 41.2805 44.7322 41.3223 44.877C41.4368 45.2524 41.3734 45.6577 41.3223 46.0472C41.2711 46.4367 41.2148 46.8456 41.354 47.2122C41.3602 47.2304 41.3679 47.2481 41.3769 47.2651C41.3888 47.2924 41.4035 47.3184 41.421 47.3426L41.4315 47.3567C41.4487 47.3803 41.4689 47.4016 41.4915 47.4202C41.5949 47.4805 41.7119 47.5138 41.8316 47.5171C41.8721 47.5171 41.9127 47.5312 41.9514 47.54C41.9902 47.5488 42.0043 47.5541 42.029 47.5611L42.066 47.5717C42.0995 47.5823 42.1312 47.5929 42.1647 47.607H42.1735C42.2088 47.6228 42.244 47.6369 42.2775 47.6546C42.459 47.7392 42.622 47.859 42.7569 48.007C42.8115 48.067 42.8626 48.1322 42.9155 48.1939L42.9913 48.2732C43.0185 48.2986 43.0473 48.3221 43.0776 48.3437C43.2076 48.427 43.3606 48.4671 43.5147 48.4582C43.7127 48.446 43.9082 48.408 44.0963 48.3454L44.1122 48.4935C44.1439 48.7755 44.1721 49.0539 44.195 49.3253C44.195 49.3641 44.195 49.4011 44.2038 49.4381C43.6216 49.9262 43.1423 50.5254 42.7939 51.2006L42.8468 51.3768C42.8268 51.3992 42.8092 51.4221 42.7939 51.4456V52.2369C42.7939 52.2369 38.5817 52.9895 38.104 53.3472C37.6264 53.705 36.754 53.742 36.754 53.742C36.754 53.742 34.3694 53.6239 34.3694 55.8411C34.3694 55.8411 34.2901 56.8703 33.8143 56.9109C33.3384 56.9514 33.0987 57.5841 33.0987 57.5841L30.6754 60.1978L27.1382 63.0495C27.1382 63.0495 25.5678 64.5264 25.166 65.1397C25.1181 65.2003 25.0861 65.2717 25.0726 65.3477C25.0726 65.3477 20.7863 70.1186 25.4779 72.1207L25.6242 72.1807L29.7254 75.2526L34.8365 78.143L34.9898 77.9262L35.0709 77.9808L35.686 78.3862L36.472 77.119L36.576 77.1419C36.865 77.2089 37.2105 77.3499 37.3691 77.6425C37.6035 78.076 39.0187 78.9942 39.8806 79.0841L39.8489 79.1793L39.366 80.7179C39.366 80.7179 38.4125 81.8265 38.6116 82.223C38.8108 82.6196 38.2591 85.5505 38.2591 85.5505C38.2591 85.5505 39.1404 85.903 39.5704 86.1445C39.6535 86.1768 39.7397 86.2004 39.8277 86.215C39.8277 86.2925 39.8118 86.3718 39.803 86.4476C39.7893 86.7245 39.6943 86.9911 39.5299 87.2143C39.0522 87.6884 39.0928 88.6401 39.0928 88.6401C39.0928 88.6401 38.8531 90.0253 39.0928 90.184C39.3325 90.3426 38.9853 90.6986 38.9853 90.6986C38.9853 90.6986 39.3554 91.8865 38.9853 92.3623C38.6152 92.8382 37.852 99.2535 39.2655 102.382C39.2655 102.382 40.5256 105.075 39.8489 106.027C39.1721 106.978 38.3138 110.027 38.4389 110.581C38.564 111.134 38.2539 112.482 38.2539 112.482C38.2539 112.482 38.7702 115.302 38.4125 115.887C38.0547 116.473 37.1012 125.512 38.2539 127.696C38.2539 127.696 37.1012 129.162 36.5055 129.162C35.9098 129.162 37.0219 131.453 37.4978 131.896C37.9736 132.338 38.1886 134.469 38.1886 134.469L38.2574 134.5C38.2768 134.585 38.2997 134.677 38.3226 134.767C38.5746 135.748 39.0064 137.097 39.4858 137.123C40.2401 137.162 43.1411 136.964 43.2592 136.251C43.3773 135.537 43.2186 134.349 43.8143 133.993C44.4101 133.637 46.4774 132.608 45.2067 130.153C45.0516 130.135 44.8954 130.131 44.7396 130.138H44.7291L44.967 124.851L45.9205 117.128C45.9205 117.128 46.7559 114.474 46.8757 114.118C46.9955 113.762 46.6765 113.168 46.6765 113.168L46.9004 111.028C46.9004 111.028 46.7559 108.653 47.2317 108.335C47.7076 108.018 47.4309 106.832 47.4309 106.832C47.4309 106.832 47.8292 105.445 47.868 104.692C47.912 104.143 48.0052 103.6 48.1464 103.067C48.1464 103.067 48.305 102.362 48.5835 101.405C48.7664 100.705 48.8844 99.9883 48.936 99.2658C48.936 99.2658 50.0076 97.9193 49.8895 96.8495C49.7714 95.7797 49.9688 94.0772 50.3653 94.4332C50.7619 94.7892 51.0016 96.0194 51.0016 96.0194L51.5973 99.3469C51.5973 99.3469 52.6301 102.634 52.5102 103.11C52.3904 103.586 52.8292 105.327 52.8292 105.327C52.8292 105.327 52.7499 107.347 52.9878 107.822C53.2258 108.298 52.9878 109.248 52.9878 109.248C52.9878 109.248 53.7827 111.268 53.6629 111.665C53.543 112.061 53.6752 114.396 53.6752 114.396L53.9025 116.139C53.9025 116.139 54.1405 117.526 53.9025 118.279C53.6646 119.032 54.9424 128.854 55.2966 129.647C55.6509 130.44 55.094 132.061 55.094 132.061C55.094 132.061 54.6569 133.369 56.5233 134.352L57.0802 136.61L57.1208 136.622C57.1208 136.702 57.1331 136.785 57.1454 136.866C57.3023 137.909 58.0936 138.981 61.014 138.076C61.014 138.076 61.8952 137.77 62.1261 137.132C62.357 136.494 64.1917 135.819 64.1917 135.819C64.1917 135.819 65.799 133.984 64.3908 132.69C64.2042 132.496 63.962 132.363 63.6973 132.312C63.4326 132.26 63.1583 132.291 62.9121 132.401C62.8553 131.89 62.9407 131.373 63.1589 130.907C63.596 129.997 62.7218 128.055 62.4451 127.734C62.1684 127.414 62.7976 125.953 62.7976 125.953C62.6779 125.548 62.5319 125.151 62.3605 124.765C62.2019 124.486 62.0433 117.278 62.0433 117.278C62.0433 117.278 61.726 113.318 60.8906 111.654C60.8906 111.654 61.0898 110.466 61.1691 109.951C61.2484 109.437 61.0898 100.882 61.0898 100.882C61.0898 100.882 62.7976 98.0621 61.6062 93.871C61.6118 93.2603 61.6648 92.6511 61.7648 92.0486C61.9234 91.178 61.5269 89.6323 61.5269 89.6323C61.5269 89.6323 61.9639 87.4539 61.1303 86.8124C60.7778 86.5516 60.6298 85.9541 60.5663 85.3408C60.5663 85.2632 60.554 85.1857 60.5487 85.1099C61.6626 84.8156 62.4768 84.4895 62.5596 84.16C62.8381 83.0514 61.0105 77.8152 61.0105 77.8152L58.8057 71.4105C58.8057 71.4105 59.641 68.4795 59.2833 67.5684C58.9255 66.6572 60.0781 64.359 60.0781 64.359C60.0781 64.359 59.56 62.8556 59.9177 62.459C59.9445 62.4255 59.9659 62.388 59.9812 62.348L60.8325 62.9737C60.8325 62.9737 62.2636 63.3702 62.609 63.765C62.9544 64.1598 64.4878 64.0435 64.4878 64.0435C64.4878 64.0435 65.9946 63.9994 66.9552 64.1915C67.2121 64.2208 67.4559 64.3202 67.6601 64.4788C68.1378 64.9952 69.7275 65.1838 70.0447 64.9547C70.1646 64.863 70.3972 64.8648 70.6598 64.9C70.95 64.9479 71.2359 65.0192 71.5146 65.1133L76.8019 65.7865C76.9215 65.6876 77.0356 65.5823 77.1438 65.4711L77.2126 65.5239C81.49 68.6381 81.6504 65.5891 81.6504 65.5891C81.6504 65.5891 83.159 65.9839 83.159 65.0604C83.1537 64.3255 79.19 62.6353 77.4699 61.9374ZM38.1675 74.5811L38.0547 74.5723L38.1305 74.4507L37.7093 74.2533L37.6194 74.211L37.778 73.9836L33.6028 71.4863C33.3215 71.3244 33.0988 71.0776 32.9665 70.7813C32.7286 70.2666 31.6958 70.1486 31.6958 70.1486L30.5238 69.1175C30.5238 69.1175 31.895 67.4538 32.2862 67.4538C32.6775 67.4538 33.3596 66.9621 33.3596 66.9621L35.0356 65.8306L35.0674 65.8711C35.0674 65.8711 36.5372 67.6917 36.6536 68.009C36.7699 68.3262 38.0829 69.7115 38.0829 69.7115C38.0829 69.7115 39.4752 71.4545 40.1097 73.395C40.3422 73.7154 40.6106 74.0081 40.9098 74.2674C39.8207 74.3872 38.52 74.6199 38.52 74.6199L38.1675 74.5811Z" fill="url(#paint0_linear)"/>
<path d="M51.0508 47.8731C50.8499 50.3581 51.5707 52.9013 51.5707 52.9013C51.5707 52.9013 43.9394 53.3737 44.4892 52.3515C44.5632 52.1844 44.6056 52.0052 44.6144 51.8227C44.6548 51.1924 44.6418 50.5598 44.5756 49.9316C44.5527 49.662 44.5245 49.3853 44.4945 49.1033C44.3923 48.1815 44.2566 47.2333 44.142 46.4878C44.1226 46.3733 44.105 46.2622 44.0892 46.1582C43.9817 45.5009 43.9023 45.0673 43.9023 45.0673C43.9023 45.0673 49.7695 43.3419 51.5443 43.9305C52.0448 44.0962 52.2211 44.4434 51.8492 45.0673C51.4129 45.8506 51.1502 46.7185 51.079 47.6123C51.0596 47.7039 51.0508 47.7885 51.0508 47.8731Z" fill="#BE6F72"/>
<path d="M83.1535 65.5503C83.1535 66.4739 81.659 66.0791 81.659 66.0791C81.659 66.0791 81.5003 69.1087 77.2652 66.0139C77.1577 65.9346 77.0467 65.8517 76.9321 65.7636L76.7559 62.3409V62.1436C76.7559 62.1436 77.0555 62.2616 77.526 62.452C79.2286 63.1481 83.1535 64.8313 83.1535 65.5503Z" fill="#BE6F72"/>
<path d="M44.2097 134.017C43.6193 134.37 43.7779 135.553 43.6598 136.259C43.5417 136.966 40.6637 137.165 39.9217 137.126C39.4476 137.1 39.0193 135.761 38.7708 134.786C38.6281 134.225 38.5435 133.785 38.5435 133.785C38.5435 133.785 43.302 131.894 43.6986 130.949C43.9489 130.346 44.6521 130.209 45.1244 130.189C45.2784 130.182 45.4328 130.186 45.5862 130.202C46.8463 132.641 44.7984 133.663 44.2097 134.017Z" fill="#464A5F"/>
<path d="M64.3891 135.828C64.3891 135.828 62.5809 136.495 62.3447 137.132C62.1085 137.768 61.2432 138.071 61.2432 138.071C58.351 138.972 57.5685 137.904 57.4134 136.867C57.3535 136.388 57.3846 135.902 57.505 135.434L61.7543 133.658C61.7543 133.658 62.3306 132.766 63.1078 132.438C63.3529 132.325 63.6273 132.291 63.8925 132.342C64.1577 132.392 64.4004 132.525 64.5865 132.72C65.9806 134.005 64.3891 135.828 64.3891 135.828Z" fill="#464A5F"/>
<path opacity="0.1" d="M45.124 130.189L45.0341 132.17C43.7775 133.034 43.6242 134.726 43.6242 134.726C42.8613 135.06 42.0389 135.238 41.206 135.248C40.3731 135.259 39.5466 135.101 38.7757 134.786C38.6329 134.225 38.5483 133.785 38.5483 133.785C38.5483 133.785 43.3069 131.894 43.7035 130.949C43.9485 130.346 44.6517 130.218 45.124 130.189Z" fill="black"/>
<path opacity="0.1" d="M63.1695 132.957C61.675 137.733 57.9509 137 57.4134 136.867C57.3535 136.388 57.3846 135.902 57.505 135.435L61.7543 133.658C61.7543 133.658 62.3306 132.766 63.1078 132.438C63.1096 132.613 63.1303 132.787 63.1695 132.957Z" fill="black"/>
<path d="M63.367 130.949C63.1085 131.502 63.0391 132.124 63.1696 132.72C61.557 137.874 57.3536 136.614 57.3536 136.614L56.802 134.372C54.9532 133.388 55.392 132.091 55.392 132.091C55.392 132.091 55.9436 130.477 55.5929 129.691C55.2422 128.905 53.975 119.148 54.2112 118.401C54.4473 117.653 54.2112 116.277 54.2112 116.277L53.9873 114.544C53.9873 114.544 53.8569 112.225 53.975 111.83C54.0931 111.435 53.307 109.432 53.307 109.432C53.307 109.432 53.5432 108.487 53.307 108.022C53.0709 107.556 53.1502 105.544 53.1502 105.544C53.1502 105.544 52.7166 103.813 52.8347 103.341C52.9528 102.868 51.9306 99.6042 51.9306 99.6042L51.3402 96.2996C51.3402 96.2996 51.104 95.08 50.7092 94.7257C50.3144 94.3715 50.1205 96.0634 50.2386 97.1262C50.3567 98.1889 49.2887 99.5178 49.2887 99.5178C49.237 100.236 49.119 100.947 48.9362 101.643C48.6612 102.586 48.5044 103.295 48.5044 103.295C48.3642 103.823 48.2716 104.363 48.2277 104.907C48.1889 105.655 47.7959 107.033 47.7959 107.033C47.7959 107.033 48.0708 108.212 47.5985 108.526C47.1262 108.839 47.2707 111.201 47.2707 111.201L47.0486 113.327C47.0486 113.327 47.3623 113.917 47.2442 114.269C47.1262 114.622 46.3013 117.266 46.3013 117.266L45.3496 124.93L45.0341 131.934C43.7775 132.798 43.6242 134.49 43.6242 134.49C42.8394 134.836 41.9909 135.015 41.133 135.015C40.2751 135.015 39.4266 134.836 38.6418 134.49C38.6418 134.49 38.4303 132.375 37.9597 131.934C37.4891 131.494 36.3859 129.22 36.9763 129.22C37.5667 129.22 38.707 127.763 38.707 127.763C37.5667 125.6 38.5096 116.631 38.8639 116.041C39.2181 115.45 38.707 112.657 38.707 112.657C38.707 112.657 39.0207 111.319 38.8921 110.769C38.7634 110.219 39.6111 107.19 40.2809 106.245C40.9506 105.3 39.7045 102.625 39.7045 102.625C38.3034 99.5178 39.0612 93.1448 39.4278 92.6725C39.7944 92.2002 39.4278 91.0211 39.4278 91.0211C39.4278 91.0211 39.7697 90.6686 39.5318 90.51C39.2939 90.3514 39.5318 88.9767 39.5318 88.9767C39.5318 88.9767 39.4913 88.032 39.9636 87.5667C40.1273 87.3454 40.2212 87.0803 40.2333 86.8053C40.2878 86.2344 40.2878 85.6596 40.2333 85.0887L45.6616 81.9022L52.4664 81.3506L60.8062 83.9467C60.7538 84.533 60.7538 85.1228 60.8062 85.7091C60.8679 86.3171 61.0212 86.9111 61.3631 87.1702C62.1897 87.8011 61.7562 89.9636 61.7562 89.9636C61.7562 89.9636 62.1492 91.4987 61.9923 92.3641C61.8934 92.9624 61.841 93.5676 61.8355 94.1741C63.0145 98.344 61.3226 101.137 61.3226 101.137C61.3226 101.137 61.4812 109.634 61.4019 110.145C61.3226 110.656 61.127 111.835 61.127 111.835C61.9536 113.489 62.2673 117.422 62.2673 117.422C62.2673 117.422 62.4241 124.581 62.5828 124.858C62.7523 125.242 62.8965 125.636 63.0145 126.039C63.0145 126.039 62.3854 127.493 62.6621 127.801C62.9388 128.11 63.7988 130.041 63.367 130.949Z" fill="#5F5D7E"/>
<path opacity="0.1" d="M51.8409 45.0744C51.4046 45.8576 51.1419 46.7256 51.0707 47.6193C51.0601 47.7039 51.0531 47.7956 51.046 47.8731C50.2564 48.4759 49.0386 48.171 47.967 48.171C47.5899 48.171 47.6798 47.6158 47.3273 47.533C46.0636 47.2281 44.77 47.5894 44.1337 46.4949C44.1143 46.3803 44.0967 46.2693 44.0809 46.1653C43.9734 45.5079 43.894 45.0744 43.894 45.0744C43.894 45.0744 49.7612 43.349 51.536 43.9376C52.0365 44.1033 52.2128 44.4505 51.8409 45.0744Z" fill="black"/>
<path d="M52.8996 43.8971C52.8996 44.5146 52.778 45.126 52.5417 45.6965C52.3054 46.267 51.959 46.7854 51.5224 47.222C51.0857 47.6586 50.5674 48.005 49.9969 48.2413C49.4264 48.4776 48.8149 48.5992 48.1974 48.5992C47.8271 48.5987 47.4581 48.5555 47.0977 48.4706C46.2388 48.2644 45.4554 47.8206 44.837 47.19C44.2186 46.5594 43.7903 45.7674 43.601 44.9047C43.4117 44.0419 43.4691 43.1434 43.7667 42.3118C44.0643 41.4802 44.59 40.7492 45.2836 40.2024C45.9772 39.6556 46.8108 39.3152 47.6889 39.22C48.567 39.1249 49.4541 39.2788 50.2488 39.6644C51.0435 40.0499 51.7135 40.6513 52.1823 41.3999C52.6511 42.1484 52.8997 43.0138 52.8996 43.8971Z" fill="#BE6F72"/>
<path opacity="0.1" d="M50.4767 50.7089C48.6579 50.1502 46.157 51.0896 44.6096 51.8298C44.65 51.1994 44.637 50.5668 44.5708 49.9387C45.6106 49.0698 47.2515 48.4283 49.5426 49.5862C49.7524 49.6937 49.9674 49.8153 50.1895 49.951L50.4767 50.7089Z" fill="black"/>
<path d="M50.4763 50.8269C48.0371 50.0761 44.3695 52.0254 43.4266 52.5682L43.2503 51.969L43.1992 51.8016C43.1992 51.8016 45.2031 47.503 49.5546 49.7043C49.7643 49.8118 49.9793 49.9334 50.2014 50.0691L50.4763 50.8269Z" fill="#22A4EF"/>
<path opacity="0.1" d="M60.8047 85.7038C58.1945 86.3982 53.8995 86.9181 53.651 86.8899C53.2985 86.8511 50.149 87.5596 50.149 87.5596C50.2671 87.1648 49.2061 82.9174 49.2061 82.9174L48.457 87.7958C48.457 87.7958 41.6294 87.0908 40.23 86.7983C40.2845 86.2274 40.2845 85.6525 40.23 85.0816L45.6583 81.8952L52.4631 81.3435L60.8029 83.9396C60.751 84.5265 60.7516 85.1169 60.8047 85.7038Z" fill="black"/>
<path d="M62.7767 84.5299C62.507 85.6279 54.0033 86.6853 53.6508 86.6536C53.2983 86.6219 50.1488 87.3233 50.1488 87.3233C50.2669 86.9286 49.2059 82.6811 49.2059 82.6811L48.4569 87.5666C48.4569 87.5666 40.4325 86.74 39.9971 86.5091C39.5618 86.2782 38.6982 85.9204 38.6982 85.9204C38.6982 85.9204 39.2481 83.0089 39.0507 82.6159C38.8533 82.2228 39.798 81.1196 39.798 81.1196L40.2774 79.5933L41.7243 74.9828C41.6398 74.9347 41.5586 74.8811 41.4811 74.8224C41.1254 74.5405 40.8105 74.2107 40.5453 73.8425C39.9214 71.902 38.5378 70.1713 38.5378 70.1713C38.5378 70.1713 37.2407 68.7948 37.1279 68.4794C37.0151 68.1639 35.554 66.3556 35.554 66.3556L31.1885 60.7299L33.5872 58.1338C33.5872 58.1338 33.8233 57.5046 34.2921 57.4659C34.7609 57.4271 34.8438 56.4084 34.8438 56.4084C34.8438 54.2054 37.2037 54.3234 37.2037 54.3234C37.2037 54.3234 38.069 54.2847 38.5396 53.9304C39.0102 53.5762 43.1836 52.8271 43.1836 52.8271V52.1592C46.6838 47.5169 51.1146 50.5342 51.1146 50.5342L52.0364 52.1204C52.0364 52.1204 54.9849 51.6886 55.2986 52.0816C55.6124 52.4746 56.8725 52.8271 56.8725 52.8271C59.391 51.4912 60.1365 53.5762 60.3339 54.3234C60.5313 55.0707 61.8302 55.8568 61.8302 55.8568C61.8302 55.8568 60.4908 62.584 60.1365 62.977C59.7823 63.37 60.2952 64.8664 60.2952 64.8664C60.2952 64.8664 59.1584 67.1434 59.5109 68.0458C59.8634 68.9482 59.0385 71.8632 59.0385 71.8632L61.2416 78.2362C61.2416 78.2362 63.0516 83.4284 62.7767 84.5299Z" fill="#464A5F"/>
<path opacity="0.1" d="M52.0397 52.3514C49.8385 48.9675 43.187 53.0564 43.187 53.0564V52.3884C46.6872 47.7462 51.118 50.7634 51.118 50.7634L52.0397 52.3514Z" fill="black"/>
<path opacity="0.1" d="M50.4762 50.8269C48.037 50.0761 44.3694 52.0254 43.4265 52.5682L43.1938 52.7039V52.036L43.245 51.969C45.4269 49.1297 47.9577 49.2302 49.5492 49.7043C49.7589 49.8118 49.9739 49.9334 50.196 50.0691L50.4762 50.8269Z" fill="black"/>
<path d="M52.0397 52.1153C49.8385 48.7332 43.187 52.8203 43.187 52.8203V52.1523C46.6872 47.5101 51.118 50.5274 51.118 50.5274L52.0397 52.1153Z" fill="#464A5F"/>
<path opacity="0.1" d="M50.3846 77.5667L49.2056 82.6777L49.4312 83.603C49.4312 83.603 50.6984 78.2752 50.3846 77.5667Z" fill="black"/>
<path opacity="0.1" d="M58.9222 69.0701C58.9222 69.0701 58.3318 73.8287 54.4756 75.2069C54.4756 75.2069 57.6621 72.3359 58.9222 69.0701Z" fill="black"/>
<path opacity="0.1" d="M42.9438 73.3192C42.9438 73.3192 47.6249 71.3118 47.6249 72.1384C47.6249 72.9649 42.9438 73.3192 42.9438 73.3192Z" fill="black"/>
<path opacity="0.1" d="M52.9424 69.2673C52.9424 69.2673 56.2082 66.9462 56.9149 67.5366C57.6217 68.127 52.9424 69.2673 52.9424 69.2673Z" fill="black"/>
<path opacity="0.1" d="M77.2652 66.0156C77.1577 65.9363 77.0467 65.8534 76.9321 65.7653L76.7559 62.3427V62.1453C76.7559 62.1453 77.0555 62.2633 77.526 62.4537C78.0654 63.2538 78.6293 64.655 77.2652 66.0156Z" fill="black"/>
<path d="M76.8604 66.2764L71.6277 65.6084C71.3518 65.5156 71.0689 65.4448 70.7817 65.3969C70.5315 65.3617 70.2918 65.3599 70.1719 65.4498C69.8582 65.686 68.2844 65.4903 67.812 64.9775C67.6076 64.8195 67.3638 64.7207 67.1071 64.6919C66.1536 64.5034 64.6626 64.5457 64.6626 64.5457C64.6626 64.5457 63.1451 64.6638 62.8014 64.2707C62.4577 63.8777 61.039 63.4847 61.039 63.4847L59.5444 62.3814L60.4873 55.5378L61.8268 55.8516L63.4377 57.0712C63.4377 57.0712 64.2255 57.2686 64.3823 57.5047C64.5392 57.7409 65.4839 58.1339 65.4839 58.1339C65.4839 58.1339 66.2699 58.4476 66.7035 58.6062C67.137 58.7649 68.0412 58.9587 68.0412 58.9587L69.6538 59.2354C70.3053 59.2368 70.9445 59.4133 71.5043 59.7465C72.4067 60.2982 76.8533 61.7927 76.8533 61.7927C76.8533 61.7927 79.4265 64.1526 76.8604 66.2764Z" fill="#464A5F"/>
<path opacity="0.1" d="M71.4956 64.2761C71.3498 64.665 71.1072 65.0102 70.7906 65.2789C70.5403 65.2437 70.3006 65.2419 70.1808 65.3318C69.8671 65.568 68.2932 65.3723 67.8209 64.8612C67.6171 64.7019 67.373 64.6024 67.1159 64.5739C66.9943 63.6927 66.6735 60.0885 69.712 60.3229C73.1576 60.5873 71.4956 64.2761 71.4956 64.2761Z" fill="black"/>
<path d="M71.4956 64.3942C71.3498 64.7831 71.1072 65.1283 70.7906 65.3971C70.5403 65.3618 70.3006 65.36 70.1808 65.4499C69.8671 65.6861 68.2932 65.4905 67.8209 64.9776C67.6165 64.8196 67.3726 64.7209 67.1159 64.6921C66.9943 63.8197 66.6735 60.2067 69.712 60.4411C73.1576 60.7054 71.4956 64.3942 71.4956 64.3942Z" fill="#5F5D7E"/>
<path d="M76.0473 64.2603C76.1447 64.2603 76.2236 64.1285 76.2236 63.966C76.2236 63.8034 76.1447 63.6716 76.0473 63.6716C75.95 63.6716 75.8711 63.8034 75.8711 63.966C75.8711 64.1285 75.95 64.2603 76.0473 64.2603Z" fill="#22A4EF"/>
<path d="M76.4018 64.3784C76.4992 64.3784 76.5781 64.2467 76.5781 64.0841C76.5781 63.9216 76.4992 63.7898 76.4018 63.7898C76.3045 63.7898 76.2256 63.9216 76.2256 64.0841C76.2256 64.2467 76.3045 64.3784 76.4018 64.3784Z" fill="#22A4EF"/>
<path d="M76.7558 64.4893C76.8532 64.4893 76.9321 64.3575 76.9321 64.195C76.9321 64.0324 76.8532 63.9006 76.7558 63.9006C76.6585 63.9006 76.5796 64.0324 76.5796 64.195C76.5796 64.3575 76.6585 64.4893 76.7558 64.4893Z" fill="#22A4EF"/>
<path opacity="0.1" d="M63.628 57.5789C63.628 57.5789 63.9223 57.7851 63.3777 58.4195C62.8331 59.054 63.628 57.5789 63.628 57.5789Z" fill="black"/>
<path opacity="0.1" d="M66.4455 59.1279C66.4455 59.1279 67.2421 62.0324 66.5636 62.5347C65.885 63.037 66.4455 59.1279 66.4455 59.1279Z" fill="black"/>
<path d="M43.58 88.1678C43.7425 88.1678 43.8743 88.036 43.8743 87.8734C43.8743 87.7109 43.7425 87.5791 43.58 87.5791C43.4174 87.5791 43.2856 87.7109 43.2856 87.8734C43.2856 88.036 43.4174 88.1678 43.58 88.1678Z" fill="#22A4EF"/>
<path d="M57.6337 87.854C57.7962 87.854 57.928 87.7223 57.928 87.5597C57.928 87.3972 57.7962 87.2654 57.6337 87.2654C57.4711 87.2654 57.3394 87.3972 57.3394 87.5597C57.3394 87.7223 57.4711 87.854 57.6337 87.854Z" fill="#22A4EF"/>
<path opacity="0.1" d="M41.6904 94.7927C41.6904 94.7927 44.6866 97.5457 48.615 94.7927C48.615 94.7927 44.2601 95.6739 41.6904 94.7927Z" fill="black"/>
<path opacity="0.1" d="M52.7446 95.6228C52.7446 95.6228 57.8205 95.9383 59.0788 94.798C60.3372 93.6577 52.7446 95.6228 52.7446 95.6228Z" fill="black"/>
<path opacity="0.1" d="M40.5894 101.996C40.6687 102.193 42.3606 107.19 44.7593 107.229L40.5894 101.996Z" fill="black"/>
<path opacity="0.1" d="M61.0068 96.9216C61.0068 96.9216 58.8425 106.248 56.4033 107.465L61.0068 96.9216Z" fill="black"/>
<path opacity="0.1" d="M37.8325 130.006C37.8325 130.006 42.3955 130.949 41.8456 131.383C41.2957 131.816 38.5375 131.696 38.5375 131.696L37.8325 130.006Z" fill="black"/>
<path opacity="0.1" d="M59.6694 128.078C59.6694 128.078 61.2821 129.927 61.8319 128.905C62.3818 127.882 59.6694 128.078 59.6694 128.078Z" fill="black"/>
<path opacity="0.1" d="M56.7576 132.012C57.1101 131.973 58.5288 132.209 59.6691 132.012C60.8094 131.814 57.0255 131.384 56.5602 132.091C56.0949 132.798 56.7576 132.012 56.7576 132.012Z" fill="black"/>
<path opacity="0.1" d="M52.4944 41.9866C52.4454 42.0689 52.3862 42.1447 52.3181 42.2121C52.1613 42.3672 51.9656 42.4747 51.8176 42.6422C51.518 42.9859 51.5444 43.4635 51.5321 43.9376C51.5326 44.1283 51.5131 44.3185 51.4739 44.5051C51.4058 44.7802 51.2653 45.032 51.067 45.2344C50.8686 45.4368 50.6196 45.5824 50.3459 45.656C50.1322 45.2352 49.7944 44.8901 49.3784 44.6672C49.3064 44.6197 49.2213 44.5963 49.1351 44.6002C49.0352 44.6271 48.9486 44.6899 48.8919 44.7765C48.5164 45.2372 48.282 45.7966 48.2169 46.3874C48.1843 46.6748 48.1914 46.9654 48.2381 47.251C48.2733 47.4483 48.5024 47.8766 48.4143 48.0599C48.2768 48.3349 47.5912 48.4124 47.096 48.4723C46.9198 48.4917 46.777 48.5093 46.6836 48.5305C45.9868 48.6856 45.2971 48.8677 44.6145 49.0768L44.4876 49.1121C44.3713 48.0546 44.2056 46.9496 44.0787 46.1671C43.7701 45.6113 43.5773 44.9987 43.5121 44.3664C43.4469 43.734 43.5106 43.0951 43.6993 42.488C43.8881 41.881 44.1979 41.3185 44.6102 40.8346C45.0225 40.3507 45.5286 39.9554 46.0979 39.6727C46.6673 39.3899 47.288 39.2255 47.9227 39.1895C48.5574 39.1534 49.1928 39.2464 49.7905 39.4628C50.3882 39.6793 50.9359 40.0147 51.4003 40.4488C51.8647 40.8828 52.2363 41.4066 52.4926 41.9883L52.4944 41.9866Z" fill="black"/>
<path d="M48.7812 44.6567C48.8375 44.5697 48.9242 44.5069 49.0244 44.4804C49.1104 44.4758 49.1956 44.4987 49.2677 44.5457C49.6834 44.7695 50.0214 45.1143 50.237 45.5344C50.5097 45.46 50.7576 45.3141 50.9549 45.1117C51.1523 44.9094 51.2921 44.658 51.3597 44.3835C51.506 43.7579 51.2821 43.007 51.7033 42.5189C51.8461 42.3532 52.047 42.2457 52.2039 42.0906C52.4175 41.8608 52.5499 41.5674 52.581 41.2552C52.6215 40.9152 52.5763 40.5706 52.4495 40.2526C52.3226 39.9346 52.1182 39.6534 51.8549 39.4346C51.5623 39.1949 51.1975 39.0327 50.9737 38.7296C50.6565 38.2784 50.7411 37.6387 50.445 37.1751C50.0696 36.5918 49.2342 36.5089 48.5609 36.6817C47.8877 36.8544 47.2673 37.2104 46.5799 37.3073C46.0336 37.3813 45.4819 37.2791 44.9321 37.2439C44.3822 37.2086 43.7935 37.2439 43.3459 37.5646C42.7889 37.9559 42.5633 38.675 42.0769 39.1508C41.5905 39.6267 40.8115 39.8558 40.385 40.4127C40.2318 40.6203 40.1327 40.8627 40.0967 41.1181C40.0607 41.3735 40.0889 41.6338 40.1788 41.8756C40.355 42.325 40.7357 42.688 40.822 43.1621C40.9278 43.7244 40.5947 44.3588 40.882 44.8541C41.2697 44.8083 41.6204 45.1431 41.7332 45.5168C41.846 45.8904 41.7843 46.2922 41.7332 46.6782C41.6821 47.0642 41.6275 47.4713 41.765 47.8361C41.791 47.9157 41.8379 47.9869 41.9007 48.0423C42.0027 48.1026 42.1187 48.1354 42.2373 48.1375C42.5909 48.1904 42.915 48.3649 43.1538 48.631C43.2459 48.7564 43.353 48.87 43.4728 48.9694C43.7671 49.1703 44.1636 49.0681 44.5055 48.9694C45.1882 48.7614 45.8779 48.5793 46.5746 48.423C46.9395 48.3402 48.1221 48.3208 48.3071 47.9525C48.3988 47.7762 48.1697 47.3409 48.1309 47.1435C48.0591 46.7095 48.0802 46.2652 48.1926 45.8399C48.305 45.4146 48.5062 45.018 48.783 44.6761L48.7812 44.6567Z" fill="#464A5F"/>
<path opacity="0.1" d="M40.9683 79.4701C40.8291 79.6181 40.5806 79.6463 40.2827 79.5811L41.7297 74.9706C41.6452 74.9225 41.5639 74.8689 41.4865 74.8102C42.1262 74.7414 42.6867 74.7115 42.8576 74.7943C43.3141 75.0164 41.5147 78.8955 40.9683 79.4701Z" fill="black"/>
<path d="M40.8518 79.352C40.3002 79.9283 38.1218 78.5995 37.8327 78.0496C37.6759 77.7588 37.334 77.6195 37.0485 77.5526C36.8992 77.5176 36.7469 77.4969 36.5938 77.4909L38.1288 74.9671L38.6223 75.0094L38.9836 75.0411C38.9836 75.0411 42.2882 74.4507 42.7464 74.6727C43.2047 74.8948 41.3964 78.7775 40.8518 79.352Z" fill="#BE6F72"/>
<path opacity="0.1" d="M38.6155 75.0128L37.0416 77.556C36.8924 77.5209 36.7401 77.5003 36.5869 77.4943L38.122 74.9705L38.6155 75.0128Z" fill="black"/>
<path d="M38.5783 74.8824L36.1585 78.7915L35.5504 78.3879L35.1997 78.157L37.3534 74.3079L38.1606 74.685L38.5783 74.8824Z" fill="#22A4EF"/>
<path opacity="0.1" d="M38.1606 74.685L35.5504 78.3879L35.1997 78.157L37.3534 74.3079L38.1606 74.685Z" fill="black"/>
<path d="M38.2293 74.419L35.3177 78.5502L30.2437 75.6791L26.1901 72.6284L26.0455 72.5684C21.3997 70.5839 25.6384 65.8447 25.6384 65.8447C25.652 65.7696 25.6834 65.6989 25.7301 65.6385C26.1284 65.0287 27.6846 63.5624 27.6846 63.5624L31.1866 60.7301L32.5965 60.2983L35.8623 66.0809L33.8567 67.4397C33.8567 67.4397 33.1869 67.9297 32.7992 67.9297C32.4115 67.9297 31.0473 69.5811 31.0473 69.5811L32.2088 70.6051C32.2088 70.6051 33.231 70.7232 33.4672 71.2325C33.5973 71.5285 33.8183 71.7754 34.0981 71.9375L38.2293 74.419Z" fill="#464A5F"/>
<path opacity="0.1" d="M28.7085 67.7322C28.7085 67.7322 31.7381 67.2264 31.895 67.4397C32.0518 67.6529 28.7085 67.7322 28.7085 67.7322Z" fill="black"/>
<path opacity="0.1" d="M28.7085 69.2673C29.1196 69.376 29.5435 69.4288 29.9686 69.4242C30.7159 69.4242 28.7085 69.2673 28.7085 69.2673Z" fill="black"/>
<path opacity="0.1" d="M26.1656 72.5685C21.5199 70.584 25.7585 65.8448 25.7585 65.8448C25.7721 65.7697 25.8035 65.699 25.8502 65.6386C26.7085 65.4958 28.0127 65.8377 28.2083 69.1441C28.3246 71.1215 27.3659 72.1032 26.1656 72.5685Z" fill="black"/>
<path d="M26.0475 72.5685C21.4017 70.584 25.6404 65.8448 25.6404 65.8448C25.6539 65.7697 25.6854 65.699 25.732 65.6386C26.5903 65.4958 27.8945 65.8377 28.0901 69.1441C28.2065 71.1215 27.2477 72.1032 26.0475 72.5685Z" fill="#5F5D7E"/>
<g opacity="0.1">
<path opacity="0.1" d="M40.7959 44.644C40.8147 44.7168 40.8432 44.7868 40.8805 44.852C40.9714 44.8418 41.0634 44.8514 41.1502 44.8802C41.0537 44.773 40.9319 44.6918 40.7959 44.644Z" fill="black"/>
<path opacity="0.1" d="M41.8759 47.8993L41.7808 47.887C41.8052 47.9466 41.8439 47.9993 41.8936 48.0403C41.9957 48.1006 42.1116 48.1334 42.2302 48.1355C42.384 48.1587 42.5332 48.2057 42.6726 48.2747C42.4491 48.0748 42.1723 47.9443 41.8759 47.8993Z" fill="black"/>
<path opacity="0.1" d="M51.8553 39.4379C51.5628 39.1982 51.1979 39.036 50.9741 38.7329C50.6569 38.2817 50.7415 37.6419 50.4454 37.1784C50.3211 36.9898 50.1439 36.842 49.936 36.7537C49.9947 36.8104 50.0467 36.8737 50.0911 36.9422C50.3907 37.4058 50.3061 38.0455 50.6199 38.4967C50.8384 38.8051 51.2032 38.9673 51.5011 39.2017C51.7644 39.4205 51.9688 39.7017 52.0956 40.0197C52.2225 40.3377 52.2677 40.6823 52.2272 41.0223C52.1961 41.3345 52.0636 41.6279 51.85 41.8577C51.6932 42.0128 51.4976 42.1203 51.3495 42.286C50.93 42.7742 51.1521 43.5197 51.0058 44.1506C50.9458 44.3949 50.8284 44.6214 50.6636 44.8114C50.4987 45.0014 50.291 45.1494 50.0576 45.2433C50.1234 45.3371 50.1823 45.4354 50.2339 45.5377C50.5066 45.4633 50.7545 45.3173 50.9518 45.115C51.1492 44.9127 51.2889 44.6612 51.3566 44.3868C51.5028 43.7611 51.279 43.0103 51.7002 42.5221C51.843 42.3565 52.0439 42.2489 52.2008 42.0938C52.4143 41.864 52.5468 41.5706 52.5779 41.2585C52.6188 40.9188 52.5742 40.5743 52.448 40.2563C52.3217 39.9384 52.118 39.657 51.8553 39.4379Z" fill="black"/>
<path opacity="0.1" d="M48.9136 44.3129C48.8415 44.2659 48.7564 44.243 48.6704 44.2477C48.5702 44.2741 48.4835 44.3369 48.4272 44.4239C48.1504 44.7658 47.9492 45.1625 47.8368 45.5877C47.7244 46.013 47.7034 46.4573 47.7751 46.8913C47.8086 47.0905 48.0377 47.5187 47.9513 47.7003C47.7663 48.0686 46.5837 48.088 46.2189 48.1708C45.5221 48.3259 44.8324 48.5081 44.1498 48.7172C43.883 48.8231 43.5926 48.8554 43.3091 48.8106C43.3566 48.8667 43.4111 48.9164 43.4712 48.9587C43.7656 49.1596 44.1621 49.0574 44.504 48.9587C45.1867 48.7507 45.8764 48.5686 46.5731 48.4123C46.9379 48.3295 48.1205 48.3101 48.3056 47.9417C48.3972 47.7655 48.1681 47.3302 48.1294 47.1328C48.0576 46.6988 48.0786 46.2545 48.191 45.8292C48.3034 45.4039 48.5047 45.0072 48.7815 44.6654C48.8377 44.5784 48.9245 44.5155 49.0247 44.4891C49.1099 44.4837 49.1946 44.506 49.2661 44.5526C49.1561 44.4622 49.0381 44.3819 48.9136 44.3129Z" fill="black"/>
</g>
<path opacity="0.1" d="M15.2626 133.046C18.5156 133.046 21.1527 132.601 21.1527 132.051C21.1527 131.501 18.5156 131.055 15.2626 131.055C12.0096 131.055 9.37256 131.501 9.37256 132.051C9.37256 132.601 12.0096 133.046 15.2626 133.046Z" fill="#22A4EF"/>
<path d="M16.4792 119.476C16.4792 119.476 17.5613 120.886 15.9804 123.025C14.3995 125.165 13.0953 126.964 13.6223 128.295C13.6223 128.295 16.0086 124.329 17.9491 124.273C19.8895 124.217 18.6223 121.86 16.4792 119.476Z" fill="#22A4EF"/>
<path opacity="0.1" d="M16.4792 119.476C16.5738 119.612 16.6486 119.762 16.7013 119.92C18.5942 122.146 19.604 124.222 17.7834 124.273C16.0862 124.322 14.0524 127.354 13.5659 128.12C13.5818 128.179 13.6012 128.237 13.6223 128.297C13.6223 128.297 16.0087 124.331 17.9491 124.275C19.8895 124.218 18.6224 121.86 16.4792 119.476Z" fill="black"/>
<path d="M18.49 121.279C18.49 121.776 18.4336 122.179 18.3649 122.179C18.2961 122.179 18.2397 121.776 18.2397 121.279C18.2397 120.782 18.3102 121.014 18.379 121.014C18.4477 121.014 18.49 120.782 18.49 121.279Z" fill="#FFD037"/>
<path d="M19.1788 121.873C18.7417 122.11 18.361 122.255 18.3275 122.195C18.2941 122.135 18.6236 121.892 19.0607 121.654C19.4978 121.416 19.3251 121.589 19.3586 121.654C19.392 121.719 19.6159 121.635 19.1788 121.873Z" fill="#FFD037"/>
<path d="M10.7673 119.476C10.7673 119.476 9.68516 120.886 11.2661 123.025C12.847 125.165 14.1494 126.964 13.6225 128.295C13.6225 128.295 11.2379 124.329 9.29743 124.273C7.35698 124.217 8.63122 121.86 10.7673 119.476Z" fill="#22A4EF"/>
<path opacity="0.1" d="M10.7667 119.476C10.6721 119.612 10.5974 119.762 10.5447 119.92C8.65181 122.146 7.64193 124.225 9.45725 124.273C11.1527 124.322 13.1883 127.354 13.6748 128.12C13.6586 128.18 13.6392 128.239 13.6166 128.297C13.6166 128.297 11.232 124.331 9.29158 124.275C7.35113 124.218 8.63066 121.86 10.7667 119.476Z" fill="black"/>
<path d="M8.75244 121.279C8.75244 121.776 8.80884 122.179 8.87758 122.179C8.94631 122.179 9.00271 121.776 9.00271 121.279C9.00271 120.782 8.93221 121.014 8.86348 121.014C8.79474 121.014 8.75244 120.782 8.75244 121.279Z" fill="#FFD037"/>
<path d="M8.06702 121.873C8.5041 122.11 8.88479 122.255 8.91651 122.195C8.94824 122.135 8.62219 121.892 8.1851 121.654C7.74802 121.416 7.92074 121.589 7.88725 121.654C7.85376 121.719 7.62993 121.635 8.06702 121.873Z" fill="#FFD037"/>
<path d="M9.10498 128.103C9.10498 128.103 12.1293 128.01 13.0405 127.361C13.9517 126.712 17.6916 125.937 17.9189 126.979C18.1463 128.02 22.4625 132.153 19.0487 132.181C15.6348 132.209 11.1177 131.653 10.2065 131.096C9.29532 130.539 9.10498 128.103 9.10498 128.103Z" fill="#5F5D7E"/>
<path opacity="0.2" d="M19.1049 131.827C15.691 131.853 11.1739 131.298 10.2627 130.74C9.57007 130.318 9.29337 128.801 9.20525 128.106H9.10303C9.10303 128.106 9.29513 130.546 10.2046 131.103C11.114 131.66 15.6329 132.216 19.0467 132.188C20.0319 132.188 20.3721 131.836 20.3544 131.307C20.2082 131.628 19.838 131.82 19.1049 131.827Z" fill="black"/>
<path opacity="0.1" d="M124.291 137.267C127.717 137.267 130.494 136.798 130.494 136.219C130.494 135.64 127.717 135.17 124.291 135.17C120.864 135.17 118.087 135.64 118.087 136.219C118.087 136.798 120.864 137.267 124.291 137.267Z" fill="#22A4EF"/>
<path d="M120.126 131.347C120.126 131.347 123.664 131.238 124.73 130.479C125.796 129.719 130.174 128.813 130.438 130.031C130.703 131.249 135.756 136.088 131.76 136.12C127.765 136.152 122.479 135.498 121.415 134.849C120.35 134.201 120.126 131.347 120.126 131.347Z" fill="#5F5D7E"/>
<path opacity="0.2" d="M131.832 135.695C127.837 135.729 122.55 135.073 121.485 134.425C120.674 133.931 120.352 132.16 120.251 131.342H120.133C120.133 131.342 120.357 134.195 121.422 134.844C122.486 135.493 127.766 136.146 131.767 136.115C132.922 136.115 133.32 135.695 133.297 135.087C133.13 135.459 132.691 135.681 131.832 135.695Z" fill="black"/>
<path d="M147.097 141.293C150.829 141.293 153.854 140.782 153.854 140.151C153.854 139.52 150.829 139.009 147.097 139.009C143.365 139.009 140.34 139.52 140.34 140.151C140.34 140.782 143.365 141.293 147.097 141.293Z" fill="#22A4EF"/>
<path d="M149.891 138.283C150.199 138.031 150.423 137.691 150.536 137.31C150.618 136.924 150.455 136.462 150.084 136.319C149.672 136.162 149.23 136.448 148.895 136.739C148.56 137.03 148.176 137.357 147.737 137.296C147.962 137.091 148.131 136.832 148.226 136.543C148.321 136.255 148.341 135.946 148.281 135.648C148.263 135.524 148.21 135.408 148.13 135.313C147.901 135.068 147.485 135.172 147.21 135.366C146.329 135.981 146.093 137.167 146.087 138.237C145.999 137.851 146.073 137.449 146.071 137.054C146.07 136.659 145.96 136.221 145.627 136.007C145.419 135.896 145.186 135.841 144.95 135.849C144.557 135.835 144.12 135.873 143.851 136.161C143.518 136.513 143.604 137.118 143.895 137.511C144.186 137.904 144.626 138.149 145.032 138.42C145.357 138.614 145.635 138.88 145.844 139.196C145.869 139.24 145.889 139.286 145.904 139.335H148.371C148.923 139.055 149.434 138.701 149.891 138.283Z" fill="#22A4EF"/>
</g>
<defs>
<linearGradient id="paint0_linear" x1="53.217" y1="138.41" x2="53.217" y2="35.9079" gradientUnits="userSpaceOnUse">
<stop stop-color="#808080" stop-opacity="0.25"/>
<stop offset="0.54" stop-color="#808080" stop-opacity="0.12"/>
<stop offset="1" stop-color="#808080" stop-opacity="0.1"/>
</linearGradient>
<clipPath id="clip0">
<rect width="159.91" height="141.293" fill="white"/>
</clipPath>
</defs>
</svg>
