<svg width="163" height="130" viewBox="0 0 163 130" fill="none" xmlns="http://www.w3.org/2000/svg">
<g clip-path="url(#clip0)">
<g opacity="0.5">
<path opacity="0.5" d="M66.2018 0.851685H10.0299C9.60079 0.851685 9.25293 1.19955 9.25293 1.62866V87.3343C9.25293 87.7634 9.60079 88.1113 10.0299 88.1113H66.2018C66.6309 88.1113 66.9788 87.7634 66.9788 87.3343V1.62866C66.9788 1.19955 66.6309 0.851685 66.2018 0.851685Z" fill="url(#paint0_linear)"/>
</g>
<path d="M65.4614 1.49231H10.7692C10.3401 1.49231 9.99219 1.84017 9.99219 2.26929V86.2103C9.99219 86.6394 10.3401 86.9873 10.7692 86.9873H65.4614C65.8905 86.9873 66.2383 86.6394 66.2383 86.2103V2.26929C66.2383 1.84017 65.8905 1.49231 65.4614 1.49231Z" fill="#F2F2F2"/>
<g opacity="0.5">
<path opacity="0.5" d="M26.0893 17.2424H16.3944C15.9653 17.2424 15.6174 17.5903 15.6174 18.0194V26.5903C15.6174 27.0194 15.9653 27.3673 16.3944 27.3673H26.0893C26.5185 27.3673 26.8663 27.0194 26.8663 26.5903V18.0194C26.8663 17.5903 26.5185 17.2424 26.0893 17.2424Z" fill="#22A4EF"/>
</g>
<path d="M60.1281 17.2424H30.7291C30.4602 17.2424 30.2422 17.4604 30.2422 17.7293V17.8813C30.2422 18.1502 30.4602 18.3682 30.7291 18.3682H60.1281C60.397 18.3682 60.615 18.1502 60.615 17.8813V17.7293C60.615 17.4604 60.397 17.2424 60.1281 17.2424Z" fill="#E0E0E0"/>
<path d="M55.0035 20.6162H30.7291C30.4602 20.6162 30.2422 20.8342 30.2422 21.1031V21.2551C30.2422 21.524 30.4602 21.742 30.7291 21.742H55.0035C55.2725 21.742 55.4904 21.524 55.4904 21.2551V21.1031C55.4904 20.8342 55.2725 20.6162 55.0035 20.6162Z" fill="#E0E0E0"/>
<g opacity="0.5">
<path opacity="0.5" d="M26.0893 32.9907H16.3944C15.9653 32.9907 15.6174 33.3386 15.6174 33.7677V42.3386C15.6174 42.7677 15.9653 43.1156 16.3944 43.1156H26.0893C26.5185 43.1156 26.8663 42.7677 26.8663 42.3386V33.7677C26.8663 33.3386 26.5185 32.9907 26.0893 32.9907Z" fill="#22A4EF"/>
</g>
<path d="M60.1281 32.9907H30.7291C30.4602 32.9907 30.2422 33.2087 30.2422 33.4776V33.6296C30.2422 33.8985 30.4602 34.1165 30.7291 34.1165H60.1281C60.397 34.1165 60.615 33.8985 60.615 33.6296V33.4776C60.615 33.2087 60.397 32.9907 60.1281 32.9907Z" fill="#E0E0E0"/>
<path d="M60.1281 36.3646H30.7291C30.4602 36.3646 30.2422 36.5826 30.2422 36.8515V37.0035C30.2422 37.2724 30.4602 37.4904 30.7291 37.4904H60.1281C60.397 37.4904 60.615 37.2724 60.615 37.0035V36.8515C60.615 36.5826 60.397 36.3646 60.1281 36.3646Z" fill="#E0E0E0"/>
<g opacity="0.5">
<path opacity="0.5" d="M26.0893 48.7393H16.3944C15.9653 48.7393 15.6174 49.0871 15.6174 49.5162V58.0871C15.6174 58.5162 15.9653 58.8641 16.3944 58.8641H26.0893C26.5185 58.8641 26.8663 58.5162 26.8663 58.0871V49.5162C26.8663 49.0871 26.5185 48.7393 26.0893 48.7393Z" fill="#22A4EF"/>
</g>
<path d="M60.1281 48.7393H30.7291C30.4602 48.7393 30.2422 48.9573 30.2422 49.2262V49.3781C30.2422 49.647 30.4602 49.865 30.7291 49.865H60.1281C60.397 49.865 60.615 49.647 60.615 49.3781V49.2262C60.615 48.9573 60.397 48.7393 60.1281 48.7393Z" fill="#E0E0E0"/>
<path d="M33.1308 52.1147H30.7291C30.4602 52.1147 30.2422 52.3327 30.2422 52.6017V52.7536C30.2422 53.0225 30.4602 53.2405 30.7291 53.2405H33.1308C33.3997 53.2405 33.6177 53.0225 33.6177 52.7536V52.6017C33.6177 52.3327 33.3997 52.1147 33.1308 52.1147Z" fill="#E0E0E0"/>
<g opacity="0.5">
<path opacity="0.5" d="M101.258 28.947H45.951C45.5219 28.947 45.1741 29.2949 45.1741 29.724V79.4608C45.1741 79.8899 45.5219 80.2378 45.951 80.2378H101.258C101.687 80.2378 102.035 79.8899 102.035 79.4608V29.724C102.035 29.2949 101.687 28.947 101.258 28.947Z" fill="url(#paint1_linear)"/>
</g>
<path d="M100.476 29.4617H46.8297C46.4006 29.4617 46.0527 29.8095 46.0527 30.2386V78.3645C46.0527 78.7936 46.4006 79.1415 46.8297 79.1415H100.476C100.905 79.1415 101.253 78.7936 101.253 78.3645V30.2386C101.253 29.8095 100.905 29.4617 100.476 29.4617Z" fill="white"/>
<g opacity="0.5">
<path opacity="0.5" d="M62.5555 40.1355H52.2494C51.8203 40.1355 51.4724 40.4834 51.4724 40.9125V50.0324C51.4724 50.4616 51.8203 50.8094 52.2494 50.8094H62.5555C62.9847 50.8094 63.3325 50.4616 63.3325 50.0324V40.9125C63.3325 40.4834 62.9847 40.1355 62.5555 40.1355Z" fill="#22A4EF"/>
</g>
<path d="M98.3979 40.1355H67.4052C67.121 40.1355 66.8906 40.3659 66.8906 40.65V40.8072C66.8906 41.0913 67.121 41.3217 67.4052 41.3217H98.3979C98.682 41.3217 98.9124 41.0913 98.9124 40.8072V40.65C98.9124 40.3659 98.682 40.1355 98.3979 40.1355Z" fill="#E0E0E0"/>
<path d="M98.3979 43.6942H67.4052C67.121 43.6942 66.8906 43.9246 66.8906 44.2087V44.3659C66.8906 44.65 67.121 44.8804 67.4052 44.8804H98.3979C98.682 44.8804 98.9124 44.65 98.9124 44.3659V44.2087C98.9124 43.9246 98.682 43.6942 98.3979 43.6942Z" fill="#E0E0E0"/>
<path d="M98.3984 56.6074H50.8009C50.5167 56.6074 50.2864 56.8378 50.2864 57.1219V57.2791C50.2864 57.5632 50.5167 57.7936 50.8009 57.7936H98.3984C98.6826 57.7936 98.913 57.5632 98.913 57.2791V57.1219C98.913 56.8378 98.6826 56.6074 98.3984 56.6074Z" fill="#E0E0E0"/>
<path d="M98.3984 60.166H50.8009C50.5167 60.166 50.2864 60.3964 50.2864 60.6805V60.8377C50.2864 61.1218 50.5167 61.3522 50.8009 61.3522H98.3984C98.6826 61.3522 98.913 61.1218 98.913 60.8377V60.6805C98.913 60.3964 98.6826 60.166 98.3984 60.166Z" fill="#E0E0E0"/>
<path d="M98.3984 64.9089H50.8009C50.5167 64.9089 50.2864 65.1393 50.2864 65.4235V65.5806C50.2864 65.8648 50.5167 66.0951 50.8009 66.0951H98.3984C98.6826 66.0951 98.913 65.8648 98.913 65.5806V65.4235C98.913 65.1393 98.6826 64.9089 98.3984 64.9089Z" fill="#E0E0E0"/>
<path d="M86.5383 68.4675H50.8009C50.5167 68.4675 50.2864 68.6979 50.2864 68.9821V69.1392C50.2864 69.4234 50.5167 69.6537 50.8009 69.6537H86.5383C86.8225 69.6537 87.0529 69.4234 87.0529 69.1392V68.9821C87.0529 68.6979 86.8225 68.4675 86.5383 68.4675Z" fill="#E0E0E0"/>
<g opacity="0.5">
<path opacity="0.5" d="M103.409 48.1401L103.611 47.2388L103.328 48.1194C95.9633 46.1303 88.3717 45.1065 80.7435 45.0736C25.782 44.749 0.219482 93.3238 0.219482 93.3238L52.3045 120.805C52.3045 120.805 58.693 100.993 81.3824 101.639C82.9431 101.682 84.4998 101.818 86.0442 102.047L79.1413 123.548C78.8462 123.968 78.6385 124.443 78.5305 124.945C78.4224 125.446 78.4162 125.964 78.5121 126.469C78.6081 126.973 78.8043 127.452 79.0891 127.879C79.3739 128.306 79.7415 128.671 80.1701 128.954C80.5988 129.236 81.0797 129.429 81.5844 129.522C82.0891 129.615 82.6073 129.605 83.1082 129.494C83.6092 129.383 84.0827 129.172 84.5008 128.874C84.9188 128.577 85.2728 128.198 85.5418 127.761V127.751C85.9001 127.168 86.0951 126.501 86.1064 125.817C86.1064 125.701 86.1064 125.586 86.0943 125.472L91.0842 103.174C105.95 107.746 110.455 120.803 110.455 120.803L162.866 94.6015C162.866 94.6015 143.183 58.9418 103.409 48.1401Z" fill="url(#paint2_linear)"/>
</g>
<path d="M80.7541 45.6124C26.4935 45.2964 1.25562 93.2479 1.25562 93.2479L52.6776 120.375C52.6776 120.375 58.9867 100.816 81.386 101.446C82.9637 101.489 84.5373 101.628 86.0979 101.864L103.126 48.6409C95.8319 46.6634 88.3112 45.6453 80.7541 45.6124Z" fill="#22A4EF"/>
<path d="M103.126 48.6409L86.0979 101.869C104.68 104.692 110.093 120.375 110.093 120.375L161.831 94.5101C161.831 94.5101 142.391 59.3044 103.126 48.6409Z" fill="#E0E0E0"/>
<path d="M86.0429 124.986L103.33 47.7499L79.171 123.087C78.875 123.501 78.6657 123.971 78.5555 124.468C78.4453 124.965 78.4366 125.48 78.5298 125.98C78.623 126.481 78.8162 126.957 79.098 127.381C79.3797 127.806 79.7441 128.168 80.1693 128.448C80.5946 128.728 81.072 128.92 81.5729 129.011C82.0739 129.102 82.588 129.091 83.0847 128.979C83.5813 128.867 84.0502 128.656 84.4633 128.358C84.8763 128.06 85.2251 127.682 85.4887 127.247V127.236C85.8423 126.662 86.0349 126.003 86.0464 125.328C86.0567 125.209 86.0516 125.099 86.0429 124.986Z" fill="#535461"/>
<g opacity="0.7">
<path opacity="0.7" d="M92.291 45.5208L91.8386 45.4362L92.7313 42.1556C94.1367 31.6233 88.8274 30.5545 86.8366 30.5183C86.6077 30.4345 86.3742 30.3636 86.1373 30.3059V29.0627C87.3899 28.7537 88.5244 28.0842 89.4005 27.1372C90.2766 26.1902 90.856 25.0072 91.0668 23.7344H91.0841C91.4001 23.7344 91.6573 23.2527 91.6573 22.6587C91.6697 22.3439 91.5821 22.0332 91.407 21.7712C91.43 21.541 91.4415 21.3108 91.4415 21.0806C91.4421 20.151 91.2536 19.231 90.8877 18.3764C90.5217 17.5219 89.9858 16.7507 89.3126 16.1097C89.2207 15.6504 89.0563 15.2086 88.8257 14.8009C88.3371 13.9376 87.5238 13.0432 87.8553 12.1091L85.7092 12.3301L85.6884 10.916C85.0185 11.0369 84.7371 11.8121 84.34 12.3646C83.3834 13.6941 81.4651 13.8789 80.1961 14.9149C79.7644 15.2602 78.7941 16.3376 78.9788 17.0403C78.1264 18.2129 77.6682 19.6257 77.67 21.0754C77.67 21.3056 77.6816 21.5358 77.7046 21.7661C77.5295 22.028 77.4419 22.3387 77.4542 22.6535C77.4542 23.2475 77.7115 23.7292 78.0275 23.7292H78.0447C78.2556 25.002 78.8349 26.185 79.711 27.132C80.5871 28.079 81.7216 28.7485 82.9742 29.0575V30.3007C82.7373 30.3584 82.5039 30.4293 82.2749 30.5131C80.2841 30.5493 74.9748 31.6112 76.3803 42.1504L77.2729 45.431L77.0605 45.4707C76.7447 45.5297 76.4435 45.6502 76.1743 45.8256C75.905 46.0009 75.6729 46.2276 75.4913 46.4926C75.3096 46.7576 75.182 47.0558 75.1156 47.3702C75.0492 47.6846 75.0453 48.009 75.1043 48.3248L78.6318 67.1777C78.6678 67.3707 78.779 67.5414 78.9409 67.6525C79.1027 67.7635 79.3021 67.8058 79.4951 67.7699L80.1149 67.6542V68.0203C79.7709 68.1902 79.4813 68.453 79.2787 68.7788C79.0761 69.1046 78.9687 69.4806 78.9685 69.8643V70.0974H83.1261V69.8643C83.126 69.5083 83.0335 69.1584 82.8576 68.8488C82.6818 68.5392 82.4287 68.2805 82.123 68.098V67.2778L82.6893 67.1725C82.8823 67.1365 83.053 67.0253 83.1641 66.8634C83.2751 66.7015 83.3174 66.5022 83.2815 66.3092L79.9768 48.5976H89.1399L85.8386 66.3109C85.8028 66.5039 85.8451 66.7033 85.9561 66.8652C86.0672 67.027 86.2379 67.1382 86.4309 67.1743L86.9972 67.2796V68.0997C86.6915 68.2822 86.4384 68.5409 86.2625 68.8505C86.0867 69.1601 85.9942 69.51 85.994 69.866V70.0991H90.1517V69.866C90.1515 69.4824 90.044 69.1064 89.8415 68.7805C89.6389 68.4547 89.3492 68.192 89.0053 68.022V67.656L89.6251 67.7717C89.8181 67.8075 90.0174 67.7652 90.1793 67.6542C90.3412 67.5431 90.4524 67.3724 90.4884 67.1794L94.0521 48.09C94.1054 47.8056 94.102 47.5136 94.0423 47.2305C93.9825 46.9475 93.8676 46.679 93.7041 46.4404C93.5405 46.2018 93.3315 45.9977 93.089 45.84C92.8466 45.6822 92.5754 45.5737 92.291 45.5208Z" fill="url(#paint3_linear)"/>
</g>
<path d="M82.2165 65.2543H80.2861V67.8753H82.2165V65.2543Z" fill="#FDB797"/>
<path d="M88.8366 65.2543H86.9062V67.8753H88.8366V65.2543Z" fill="#FDB797"/>
<path d="M90.9067 43.7407H78.2178V48.2921H90.9067V43.7407Z" fill="#4D8AF0"/>
<g opacity="0.05">
<path opacity="0.05" d="M90.9067 43.7407H78.2178V48.2921H90.9067V43.7407Z" fill="black"/>
</g>
<path opacity="0.1" d="M78.2178 44.5678C78.2178 44.5678 82.9521 45.6711 84.5613 45.6711C86.1706 45.6711 90.9049 44.5678 90.9049 44.5678V43.8772H78.2178V44.5678Z" fill="black"/>
<path d="M90.9049 44.4297C90.9049 44.4297 86.1706 45.533 84.5613 45.533C82.9521 45.533 78.2178 44.4297 78.2178 44.4297V36.8447C78.2178 35.1623 78.8861 33.5487 80.0758 32.3591C81.2654 31.1694 82.8789 30.5011 84.5613 30.5011C86.2438 30.5011 87.8573 31.1694 89.0469 32.3591C90.2366 33.5487 90.9049 35.1623 90.9049 36.8447V44.4297Z" fill="#F55F44"/>
<path d="M83.0454 27.3275H86.0791V30.9776C86.0791 31.3261 85.9406 31.6603 85.6942 31.9067C85.4478 32.1531 85.1136 32.2915 84.7651 32.2915H84.3611C84.0126 32.2915 83.6784 32.1531 83.432 31.9067C83.1856 31.6603 83.0471 31.3261 83.0471 30.9776V27.3275H83.0454Z" fill="#A0616A"/>
<path d="M82.5788 66.1971L79.8594 66.7047C79.6275 66.7466 79.3885 66.6952 79.1945 66.5616C79.0004 66.428 78.867 66.2231 78.8234 65.9916L75.5808 48.615C75.5096 48.2346 75.5141 47.844 75.5939 47.4653C75.6737 47.0866 75.8274 46.7274 76.0461 46.4082C76.2648 46.0889 76.5443 45.8159 76.8685 45.6047C77.1928 45.3935 77.5555 45.2483 77.9359 45.1773L78.6369 45.0461C78.8688 45.0042 79.1078 45.0556 79.3018 45.1892C79.4959 45.3228 79.6293 45.5277 79.6729 45.7592L83.2988 65.1542C83.3204 65.27 83.319 65.389 83.2945 65.5042C83.27 65.6194 83.2229 65.7287 83.156 65.8256C83.089 65.9225 83.0036 66.0053 82.9045 66.069C82.8054 66.1328 82.6947 66.1763 82.5788 66.1971Z" fill="#4D8AF0"/>
<path d="M86.5364 66.1971L89.2558 66.7047C89.4877 66.7466 89.7267 66.6952 89.9207 66.5616C90.1148 66.428 90.2482 66.2231 90.2918 65.9916L93.5897 48.3249C93.7183 47.6337 93.5673 46.9197 93.1697 46.3398C92.7721 45.7599 92.1605 45.3617 91.4694 45.2325L90.4783 45.0478C90.2465 45.0059 90.0075 45.0573 89.8134 45.1909C89.6193 45.3245 89.486 45.5294 89.4423 45.7609L85.8164 65.1559C85.795 65.2716 85.7967 65.3904 85.8213 65.5054C85.8459 65.6204 85.8931 65.7294 85.96 65.8262C86.0269 65.923 86.1123 66.0055 86.2112 66.0692C86.3101 66.1328 86.4206 66.1763 86.5364 66.1971Z" fill="#4D8AF0"/>
<path opacity="0.1" d="M83.0454 29.6273C84.0418 29.8724 85.0827 29.8724 86.0791 29.6273V27.4656H83.0454V29.6273Z" fill="black"/>
<path d="M84.561 28.4308C88.217 28.4308 91.1808 25.467 91.1808 21.811C91.1808 18.155 88.217 15.1912 84.561 15.1912C80.905 15.1912 77.9412 18.155 77.9412 21.811C77.9412 25.467 80.905 28.4308 84.561 28.4308Z" fill="#333333"/>
<path d="M84.5614 29.6723C88.0648 29.6723 90.9049 26.8321 90.9049 23.3287C90.9049 19.8252 88.0648 16.9851 84.5614 16.9851C81.0579 16.9851 78.2178 19.8252 78.2178 23.3287C78.2178 26.8321 81.0579 29.6723 84.5614 29.6723Z" fill="#A0616A"/>
<path d="M80.3726 15.8835C81.5934 14.8873 83.4391 14.7094 84.3577 13.43C84.7393 12.8982 85.0103 12.1506 85.6544 12.0349L85.6734 13.3955L87.7453 13.1831C87.4259 14.0809 88.208 14.9443 88.6794 15.773C89.0258 16.3855 89.215 17.0742 89.2302 17.7776C88.5136 18.2076 87.6244 17.7379 86.8267 17.4876C86.029 17.2372 85.2262 17.2182 84.4095 17.1958C83.9927 17.1668 83.5739 17.19 83.1629 17.2648C82.8071 17.3603 82.4605 17.4868 82.1269 17.643C81.5778 17.8726 79.8426 18.7411 79.3332 18.1817C78.76 17.548 79.9013 16.2686 80.3726 15.8835Z" fill="#333333"/>
<path opacity="0.1" d="M80.7181 20.1465C81.0648 20.3367 81.4467 20.4542 81.8404 20.4918C83.4655 20.7141 85.1204 20.5284 86.6559 19.9514C86.908 20.5885 87.5192 21.0271 88.1736 21.2343C88.828 21.4415 89.5221 21.4518 90.2075 21.4622C90.3582 21.4792 90.5104 21.4503 90.6444 21.3793C90.95 21.1739 90.8015 20.7008 90.6236 20.3796L89.7396 18.7773C89.4789 18.3042 89.2095 17.8208 88.8055 17.4634C88.2979 17.0144 87.6245 16.8038 86.9615 16.6709C85.3923 16.3584 83.7722 16.4122 82.2271 16.828C80.5748 17.2648 78.4527 18.7756 80.7181 20.1465Z" fill="black"/>
<path d="M80.7181 20.0085C81.0648 20.1987 81.4467 20.3162 81.8404 20.3538C83.4655 20.576 85.1204 20.3903 86.6559 19.8134C86.908 20.4505 87.5192 20.889 88.1736 21.0962C88.828 21.3034 89.5221 21.3138 90.2075 21.3241C90.3582 21.3411 90.5104 21.3122 90.6444 21.2413C90.95 21.0358 90.8015 20.5627 90.6236 20.2416L89.7396 18.6393C89.4789 18.1662 89.2095 17.6827 88.8055 17.3253C88.2979 16.8764 87.6245 16.6657 86.9615 16.5328C85.3923 16.2203 83.7722 16.2741 82.2271 16.6899C80.5748 17.1233 78.4527 18.6393 80.7181 20.0085Z" fill="#333333"/>
<path d="M90.8377 24.3629C91.1428 24.3629 91.3902 23.8999 91.3902 23.3287C91.3902 22.7575 91.1428 22.2944 90.8377 22.2944C90.5325 22.2944 90.2852 22.7575 90.2852 23.3287C90.2852 23.8999 90.5325 24.3629 90.8377 24.3629Z" fill="#A0616A"/>
<path d="M78.2864 24.3629C78.5916 24.3629 78.8389 23.8999 78.8389 23.3287C78.8389 22.7575 78.5916 22.2944 78.2864 22.2944C77.9813 22.2944 77.7339 22.7575 77.7339 23.3287C77.7339 23.8999 77.9813 24.3629 78.2864 24.3629Z" fill="#A0616A"/>
<path d="M83.0696 30.9222C83.0696 30.9222 75.0443 29.6722 76.7001 42.0848L77.6653 45.6433L80.4279 45.5328C80.4279 45.5328 78.6357 41.3889 79.7372 38.6367C80.8388 35.8845 83.0696 30.9222 83.0696 30.9222Z" fill="#F55F44"/>
<path d="M86.053 30.9222C86.053 30.9222 94.0783 29.6722 92.4225 42.0848L91.4573 45.6433L88.6947 45.5328C88.6947 45.5328 90.4869 41.3889 89.3853 38.6367C88.2838 35.8845 86.053 30.9222 86.053 30.9222Z" fill="#F55F44"/>
<path d="M79.1827 47.6016C80.0209 47.6016 80.7004 46.9221 80.7004 46.0839C80.7004 45.2457 80.0209 44.5662 79.1827 44.5662C78.3445 44.5662 77.665 45.2457 77.665 46.0839C77.665 46.9221 78.3445 47.6016 79.1827 47.6016Z" fill="#A0616A"/>
<path d="M90.2159 47.6016C91.0541 47.6016 91.7336 46.9221 91.7336 46.0839C91.7336 45.2457 91.0541 44.5662 90.2159 44.5662C89.3777 44.5662 88.6982 45.2457 88.6982 46.0839C88.6982 46.9221 89.3777 47.6016 90.2159 47.6016Z" fill="#A0616A"/>
<path d="M80.9161 66.772H81.4497C81.9076 66.772 82.3468 66.9539 82.6706 67.2777C82.9944 67.6015 83.1763 68.0407 83.1763 68.4986V68.9717H79.1826V68.4986C79.1826 68.2713 79.2275 68.0462 79.3147 67.8363C79.4019 67.6263 79.5297 67.4357 79.6908 67.2752C79.8518 67.1148 80.043 66.9878 80.2533 66.9014C80.4636 66.8151 80.6888 66.7711 80.9161 66.772Z" fill="#333333"/>
<path d="M87.6742 66.772H88.2077C88.6656 66.772 89.1048 66.9539 89.4286 67.2777C89.7524 67.6015 89.9343 68.0407 89.9343 68.4986V68.9717H85.9407V68.4986C85.9407 68.2713 85.9856 68.0462 86.0728 67.8363C86.16 67.6263 86.2878 67.4357 86.4488 67.2752C86.6099 67.1148 86.801 66.9878 87.0113 66.9014C87.2216 66.8151 87.4469 66.7711 87.6742 66.772Z" fill="#333333"/>
<path opacity="0.1" d="M79.5973 37.5336C79.5973 37.5336 79.0448 40.4291 80.0117 41.6774L79.5973 37.5336Z" fill="black"/>
<path opacity="0.1" d="M89.5267 37.5336C89.5267 37.5336 90.0792 40.4291 89.1123 41.6774L89.5267 37.5336Z" fill="black"/>
</g>
<defs>
<linearGradient id="paint0_linear" x1="38.115" y1="88.1113" x2="38.115" y2="0.851685" gradientUnits="userSpaceOnUse">
<stop stop-color="#808080" stop-opacity="0.25"/>
<stop offset="0.54" stop-color="#808080" stop-opacity="0.12"/>
<stop offset="1" stop-color="#808080" stop-opacity="0.1"/>
</linearGradient>
<linearGradient id="paint1_linear" x1="24212.2" y1="23611.4" x2="24212.2" y2="8374.98" gradientUnits="userSpaceOnUse">
<stop stop-color="#808080" stop-opacity="0.25"/>
<stop offset="0.54" stop-color="#808080" stop-opacity="0.12"/>
<stop offset="1" stop-color="#808080" stop-opacity="0.1"/>
</linearGradient>
<linearGradient id="paint2_linear" x1="97588.4" y1="69714.1" x2="97588.4" y2="28345.9" gradientUnits="userSpaceOnUse">
<stop stop-color="#808080" stop-opacity="0.25"/>
<stop offset="0.54" stop-color="#808080" stop-opacity="0.12"/>
<stop offset="1" stop-color="#808080" stop-opacity="0.1"/>
</linearGradient>
<linearGradient id="paint3_linear" x1="11825.9" y1="28408.2" x2="11825.9" y2="8121.96" gradientUnits="userSpaceOnUse">
<stop stop-color="#808080" stop-opacity="0.25"/>
<stop offset="0.54" stop-color="#808080" stop-opacity="0.12"/>
<stop offset="1" stop-color="#808080" stop-opacity="0.1"/>
</linearGradient>
<clipPath id="clip0">
<rect width="162.647" height="128.736" fill="white" transform="translate(0.219727 0.851562)"/>
</clipPath>
</defs>
</svg>
