<svg width="524" height="248" viewBox="0 0 524 248" fill="none" xmlns="http://www.w3.org/2000/svg">
<path d="M509.694 0H51.3464C43.4354 0 37 7.92832 37 17.6746V230.325C37 240.072 43.4354 248 51.3464 248H509.653C517.564 248 524 240.072 524 230.325V17.6746C524.041 7.87783 517.605 0 509.694 0Z" fill="#293D4A"/>
<path d="M0 17.6746V230.325C0 240.072 7.92832 248 17.6746 248H185.172C359.646 179.019 268.748 57.2152 369.493 0H17.6746C7.92832 0 0 7.87783 0 17.6746Z" fill="#22A4EF"/>
<path d="M72.371 69.4402H85.0375C87.6284 69.5361 89.2117 70.2078 89.7875 71.4553C90.2673 72.3669 90.5072 73.7103 90.5072 75.4856V91.3188C90.5072 92.8541 89.8355 94.3175 88.492 95.7089C84.4618 99.8831 78.4164 101.97 70.3558 101.97C63.2069 101.97 56.9936 99.2833 51.7158 93.9096C46.4381 88.488 43.7992 81.9628 43.7992 74.334C43.7992 66.7053 46.4861 60.3481 51.8598 55.2622C57.2335 50.1284 63.5667 47.5615 70.8596 47.5615C76.5212 47.5615 81.8709 49.4327 86.9087 53.1751C88.2042 54.1347 88.8519 55.2143 88.8519 56.4137C88.8519 57.5653 88.3001 58.9087 87.1966 60.444C85.3254 62.9869 83.6221 64.2584 82.0868 64.2584C81.1752 64.2584 79.7118 63.6107 77.6967 62.3152C75.6815 60.9718 73.2826 60.3001 70.4998 60.3001C66.8533 60.3001 63.6147 61.5955 60.7839 64.1864C57.9531 66.7293 56.5378 70.0879 56.5378 74.2621C56.5378 78.3883 57.9771 81.9148 60.8559 84.8415C63.7347 87.7203 66.9973 89.1597 70.6437 89.1597C73.2826 89.1597 75.6575 88.7279 77.7686 87.8642V80.0196H72.0831C70.5957 80.0196 69.5402 79.8277 68.9164 79.4439C68.2927 79.06 67.8849 78.5083 67.693 77.7886C67.501 77.0209 67.4051 76.0133 67.4051 74.7659C67.4051 73.4704 67.501 72.4389 67.693 71.6712C67.9329 70.9035 68.3407 70.3757 68.9164 70.0879C69.7801 69.6561 70.9316 69.4402 72.371 69.4402ZM96.2551 54.8304C96.2551 53.7269 96.2791 52.9112 96.3271 52.3835C96.4231 51.8077 96.663 51.16 97.0468 50.4403C97.7185 49.1449 99.5897 48.4971 102.66 48.4971C106.019 48.4971 108.01 49.3848 108.634 51.16C108.874 51.9757 108.994 53.2231 108.994 54.9024V94.9172C108.994 96.0687 108.946 96.9084 108.85 97.4361C108.802 97.9639 108.586 98.5876 108.202 99.3073C107.53 100.603 105.659 101.25 102.588 101.25C99.2299 101.25 97.2627 100.339 96.6869 98.5157C96.3991 97.748 96.2551 96.5245 96.2551 94.8452V54.8304ZM149.644 48.4971C150.748 48.4971 151.564 48.5451 152.091 48.6411C152.667 48.6891 153.291 48.905 153.963 49.2888C154.682 49.6726 155.186 50.3204 155.474 51.232C155.762 52.1436 155.906 53.3671 155.906 54.9024C155.906 56.4377 155.762 57.6612 155.474 58.5728C155.186 59.4844 154.682 60.1321 153.963 60.516C153.243 60.8518 152.595 61.0677 152.019 61.1637C151.492 61.2117 150.652 61.2357 149.5 61.2357H127.478V68.5046H141.656C142.807 68.5046 143.647 68.5525 144.175 68.6485C144.75 68.6965 145.398 68.9124 146.118 69.2962C147.365 70.0159 147.989 71.9111 147.989 74.9818C147.989 78.3403 147.077 80.3315 145.254 80.9552C144.487 81.1951 143.263 81.3151 141.584 81.3151H127.478V94.9172C127.478 96.0687 127.43 96.9084 127.334 97.4361C127.286 97.9639 127.07 98.5876 126.686 99.3073C126.015 100.603 124.143 101.25 121.073 101.25C117.714 101.25 115.747 100.339 115.171 98.5157C114.883 97.748 114.739 96.5245 114.739 94.8452V54.8304C114.739 52.3835 115.195 50.7282 116.107 49.8646C117.018 48.9529 118.746 48.4971 121.289 48.4971H149.644ZM164.018 48.4252H204.033C205.568 48.4252 206.696 48.6171 207.415 49.0009C208.135 49.3368 208.615 49.8885 208.855 50.6562C209.095 51.4239 209.215 52.4315 209.215 53.6789C209.215 54.9264 209.095 55.934 208.855 56.7016C208.615 57.4213 208.207 57.9251 207.631 58.213C206.768 58.6448 205.544 58.8607 203.961 58.8607H190.215V95.0611C190.215 96.1647 190.167 96.9803 190.071 97.5081C190.023 98.0359 189.807 98.6596 189.423 99.3793C189.087 100.051 188.463 100.531 187.552 100.819C186.64 101.107 185.441 101.25 183.953 101.25C182.466 101.25 181.267 101.107 180.355 100.819C179.491 100.531 178.868 100.051 178.484 99.3793C178.148 98.6596 177.932 98.0359 177.836 97.5081C177.788 96.9323 177.764 96.0927 177.764 94.9892V58.8607H163.946C162.411 58.8607 161.283 58.6928 160.563 58.3569C159.844 57.9731 159.364 57.3973 159.124 56.6297C158.884 55.862 158.764 54.8544 158.764 53.6069C158.764 52.3595 158.884 51.3759 159.124 50.6562C159.364 49.8885 159.772 49.3608 160.348 49.0729C161.211 48.6411 162.435 48.4252 164.018 48.4252Z" fill="#293D4A"/>
<path d="M190.214 120.238H61.7955C51.1402 120.238 42.5049 128.873 42.5049 139.528C42.5049 150.184 51.1402 158.819 61.7955 158.819H190.265C200.92 158.819 209.555 150.184 209.555 139.528C209.505 128.873 200.869 120.238 190.214 120.238Z" fill="white"/>
<path d="M88.2228 131.596C89.0782 132.017 89.5059 132.48 89.5059 132.988C89.5059 133.22 89.3971 133.568 89.1797 134.032L83.1773 146.21C83.0178 146.529 82.7714 146.79 82.4379 146.993C82.1189 147.182 81.7855 147.276 81.4375 147.276H81.22C80.8576 147.276 80.5096 147.182 80.1761 146.993C79.8572 146.79 79.618 146.529 79.4585 146.21L73.4561 134.032C73.2387 133.568 73.1299 133.22 73.1299 132.988C73.1299 132.48 73.5576 132.017 74.413 131.596C74.8915 131.35 75.2539 131.226 75.5004 131.226C75.7614 131.226 75.9571 131.255 76.0876 131.313C76.2181 131.371 76.3413 131.473 76.4573 131.618C76.5878 131.792 76.7038 131.988 76.8053 132.205C76.9213 132.408 77.204 133.01 77.6534 134.01C78.1029 134.996 78.5813 136.047 79.0888 137.163C79.6107 138.28 80.0964 139.338 80.5459 140.339C81.0098 141.325 81.2708 141.875 81.3288 141.991L85.6783 132.466C85.7943 132.191 85.8958 131.973 85.9828 131.814C86.2437 131.422 86.5627 131.226 86.9396 131.226C87.3166 131.226 87.7443 131.35 88.2228 131.596ZM97.3168 131.161C99.4626 131.161 101.326 131.937 102.906 133.488C104.486 135.039 105.276 136.968 105.276 139.273C105.276 141.564 104.523 143.521 103.015 145.145C101.507 146.754 99.6511 147.559 97.4473 147.559C95.2435 147.559 93.366 146.761 91.8147 145.167C90.2778 143.572 89.5094 141.672 89.5094 139.469C89.5094 138.265 89.7269 137.142 90.1619 136.098C90.5968 135.039 91.1767 134.155 91.9017 133.445C92.6266 132.734 93.4602 132.176 94.4026 131.77C95.345 131.364 96.3164 131.161 97.3168 131.161ZM93.3588 139.36C93.3588 140.65 93.772 141.701 94.5984 142.513C95.4393 143.311 96.3744 143.709 97.4038 143.709C98.4332 143.709 99.3611 143.318 100.188 142.535C101.014 141.752 101.427 140.701 101.427 139.382C101.427 138.062 101.007 137.004 100.166 136.207C99.3393 135.409 98.4114 135.01 97.3821 135.01C96.3527 135.01 95.4248 135.416 94.5984 136.228C93.772 137.026 93.3588 138.07 93.3588 139.36ZM117.116 131.944C117.261 131.712 117.471 131.553 117.746 131.466C118.022 131.379 118.362 131.335 118.768 131.335C119.189 131.335 119.522 131.371 119.769 131.444C120.015 131.516 120.204 131.603 120.334 131.705C120.465 131.806 120.559 131.959 120.617 132.162C120.704 132.408 120.747 132.785 120.747 133.292V139.86C120.747 141.774 120.153 143.514 118.964 145.08C118.384 145.819 117.638 146.421 116.724 146.885C115.811 147.334 114.796 147.559 113.68 147.559C112.578 147.559 111.57 147.327 110.657 146.863C109.758 146.399 109.026 145.79 108.46 145.036C107.286 143.499 106.699 141.759 106.699 139.817V133.271C106.699 132.923 106.706 132.669 106.72 132.509C106.749 132.336 106.822 132.14 106.938 131.922C107.054 131.705 107.249 131.553 107.525 131.466C107.8 131.379 108.17 131.335 108.634 131.335C109.098 131.335 109.468 131.379 109.743 131.466C110.019 131.553 110.207 131.705 110.309 131.922C110.483 132.256 110.57 132.712 110.57 133.292V139.817C110.57 140.701 110.787 141.542 111.222 142.339C111.44 142.745 111.766 143.072 112.201 143.318C112.636 143.565 113.15 143.688 113.745 143.688C114.803 143.688 115.593 143.296 116.115 142.513C116.637 141.73 116.898 140.824 116.898 139.795V133.14C116.898 132.575 116.971 132.176 117.116 131.944ZM132.439 143.122L132.83 142.84C133.323 142.55 133.671 142.405 133.874 142.405C134.323 142.405 134.809 142.811 135.331 143.623C135.65 144.13 135.81 144.536 135.81 144.84C135.81 145.145 135.708 145.399 135.505 145.602C135.317 145.805 135.092 145.986 134.831 146.145C134.57 146.305 134.316 146.457 134.07 146.602C133.838 146.747 133.352 146.935 132.613 147.167C131.873 147.399 131.156 147.515 130.46 147.515C129.778 147.515 129.082 147.428 128.372 147.254C127.676 147.066 126.951 146.761 126.197 146.341C125.458 145.906 124.791 145.384 124.196 144.775C123.602 144.152 123.109 143.362 122.717 142.405C122.341 141.433 122.152 140.382 122.152 139.251C122.152 138.12 122.341 137.098 122.717 136.185C123.094 135.257 123.573 134.496 124.153 133.901C124.747 133.292 125.421 132.785 126.175 132.379C127.596 131.596 129.024 131.205 130.46 131.205C131.141 131.205 131.83 131.313 132.526 131.531C133.236 131.734 133.773 131.944 134.135 132.162L134.657 132.466C134.918 132.625 135.121 132.756 135.266 132.857C135.643 133.162 135.831 133.51 135.831 133.901C135.831 134.278 135.679 134.677 135.375 135.097C134.809 135.88 134.302 136.272 133.852 136.272C133.591 136.272 133.222 136.112 132.743 135.793C132.134 135.3 131.322 135.054 130.307 135.054C129.365 135.054 128.437 135.38 127.524 136.033C127.089 136.352 126.726 136.801 126.436 137.381C126.146 137.961 126.001 138.621 126.001 139.36C126.001 140.085 126.146 140.737 126.436 141.317C126.726 141.897 127.096 142.354 127.545 142.687C128.43 143.325 129.351 143.644 130.307 143.644C130.757 143.644 131.177 143.586 131.569 143.47C131.975 143.354 132.265 143.238 132.439 143.122ZM147.09 131.944C147.206 131.727 147.402 131.574 147.677 131.487C147.953 131.4 148.301 131.357 148.721 131.357C149.142 131.357 149.475 131.393 149.722 131.466C149.968 131.538 150.157 131.625 150.287 131.727C150.418 131.828 150.519 131.973 150.592 132.162C150.664 132.408 150.7 132.785 150.7 133.292V145.362C150.7 145.696 150.686 145.95 150.657 146.123C150.642 146.283 150.577 146.471 150.461 146.689C150.258 147.08 149.693 147.276 148.765 147.276C147.75 147.276 147.156 147.008 146.982 146.471C146.895 146.225 146.851 145.848 146.851 145.341V140.926H141.088V145.362C141.088 145.696 141.073 145.95 141.044 146.123C141.03 146.283 140.965 146.471 140.849 146.689C140.646 147.08 140.08 147.276 139.152 147.276C138.138 147.276 137.543 147.008 137.369 146.471C137.282 146.225 137.239 145.848 137.239 145.341V133.271C137.239 132.937 137.246 132.691 137.26 132.531C137.289 132.357 137.362 132.162 137.478 131.944C137.681 131.553 138.246 131.357 139.174 131.357C140.189 131.357 140.791 131.625 140.979 132.162C141.052 132.408 141.088 132.785 141.088 133.292V137.729H146.851V133.271C146.851 132.937 146.858 132.691 146.873 132.531C146.902 132.357 146.974 132.162 147.09 131.944ZM156.294 143.449H162.993C163.326 143.449 163.572 143.463 163.732 143.492C163.906 143.507 164.102 143.572 164.319 143.688C164.711 143.891 164.906 144.456 164.906 145.384C164.906 146.399 164.638 146.993 164.102 147.167C163.855 147.254 163.478 147.298 162.971 147.298H154.359C153.344 147.298 152.749 147.022 152.575 146.471C152.488 146.239 152.445 145.87 152.445 145.362V133.271C152.445 132.531 152.583 132.031 152.858 131.77C153.134 131.495 153.656 131.357 154.424 131.357H162.993C163.326 131.357 163.572 131.371 163.732 131.4C163.906 131.415 164.102 131.48 164.319 131.596C164.711 131.799 164.906 132.365 164.906 133.292C164.906 134.307 164.638 134.902 164.102 135.076C163.855 135.163 163.478 135.206 162.971 135.206H156.294V137.403H160.6C160.934 137.403 161.18 137.417 161.34 137.446C161.514 137.461 161.709 137.526 161.927 137.642C162.318 137.845 162.514 138.41 162.514 139.338C162.514 140.353 162.239 140.948 161.688 141.122C161.441 141.209 161.064 141.252 160.557 141.252H156.294V143.449ZM178.514 144.601C178.731 145.123 178.84 145.5 178.84 145.732C178.84 146.283 178.39 146.747 177.492 147.124C177.028 147.327 176.651 147.428 176.361 147.428C176.085 147.428 175.853 147.363 175.665 147.233C175.491 147.088 175.36 146.943 175.273 146.798C175.128 146.522 174.563 145.21 173.577 142.861L172.903 142.905H170.163V145.362C170.163 145.696 170.148 145.95 170.119 146.123C170.105 146.283 170.039 146.471 169.923 146.689C169.72 147.08 169.155 147.276 168.227 147.276C167.212 147.276 166.618 147.008 166.444 146.471C166.357 146.225 166.313 145.848 166.313 145.341V133.271C166.313 132.937 166.321 132.691 166.335 132.531C166.364 132.357 166.437 132.162 166.552 131.944C166.755 131.553 167.321 131.357 168.249 131.357H172.946C174.222 131.357 175.462 131.821 176.665 132.749C177.245 133.198 177.724 133.807 178.1 134.576C178.477 135.344 178.666 136.199 178.666 137.142C178.666 138.78 178.122 140.128 177.035 141.187C177.354 141.955 177.847 143.093 178.514 144.601ZM170.163 139.056H172.946C173.367 139.056 173.787 138.896 174.208 138.577C174.628 138.258 174.838 137.78 174.838 137.142C174.838 136.504 174.628 136.025 174.208 135.706C173.787 135.373 173.352 135.206 172.903 135.206H170.163V139.056Z" fill="#293D4A"/>
<path d="M44.808 180.804C45.312 180.804 45.696 180.708 45.96 180.516C46.224 180.324 46.356 180.036 46.356 179.652C46.356 179.42 46.308 179.224 46.212 179.064C46.116 178.896 45.988 178.752 45.828 178.632C45.668 178.504 45.488 178.396 45.288 178.308C45.088 178.212 44.884 178.124 44.676 178.044C44.436 177.948 44.204 177.84 43.98 177.72C43.764 177.6 43.568 177.46 43.392 177.3C43.224 177.14 43.088 176.952 42.984 176.736C42.888 176.52 42.84 176.264 42.84 175.968C42.84 175.32 43.044 174.816 43.452 174.456C43.86 174.088 44.428 173.904 45.156 173.904C45.356 173.904 45.552 173.92 45.744 173.952C45.944 173.976 46.128 174.008 46.296 174.048C46.464 174.088 46.612 174.136 46.74 174.192C46.876 174.248 46.984 174.304 47.064 174.36L46.752 175.188C46.592 175.092 46.372 174.996 46.092 174.9C45.812 174.804 45.5 174.756 45.156 174.756C44.796 174.756 44.484 174.848 44.22 175.032C43.956 175.208 43.824 175.476 43.824 175.836C43.824 176.044 43.86 176.22 43.932 176.364C44.012 176.508 44.116 176.636 44.244 176.748C44.38 176.852 44.536 176.948 44.712 177.036C44.888 177.124 45.08 177.212 45.288 177.3C45.592 177.428 45.868 177.556 46.116 177.684C46.372 177.812 46.588 177.964 46.764 178.14C46.948 178.316 47.088 178.524 47.184 178.764C47.288 179.004 47.34 179.296 47.34 179.64C47.34 180.288 47.12 180.788 46.68 181.14C46.248 181.484 45.624 181.656 44.808 181.656C44.544 181.656 44.296 181.636 44.064 181.596C43.832 181.564 43.624 181.52 43.44 181.464C43.264 181.408 43.108 181.352 42.972 181.296C42.836 181.24 42.732 181.188 42.66 181.14L42.96 180.324C43.12 180.412 43.356 180.516 43.668 180.636C43.98 180.748 44.36 180.804 44.808 180.804ZM48.852 181.5V173.352L49.848 173.184V176.016C50.008 175.952 50.188 175.904 50.388 175.872C50.588 175.832 50.784 175.812 50.976 175.812C51.4 175.812 51.752 175.876 52.032 176.004C52.32 176.124 52.548 176.296 52.716 176.52C52.884 176.744 53.004 177.012 53.076 177.324C53.148 177.636 53.184 177.98 53.184 178.356V181.5H52.2V178.572C52.2 177.884 52.104 177.4 51.912 177.12C51.72 176.832 51.376 176.688 50.88 176.688C50.672 176.688 50.468 176.712 50.268 176.76C50.076 176.8 49.936 176.84 49.848 176.88V181.5H48.852ZM57.06 180.792C57.308 180.792 57.528 180.784 57.72 180.768C57.92 180.752 58.084 180.732 58.212 180.708V179.052C58.084 179.012 57.928 178.98 57.744 178.956C57.568 178.932 57.38 178.92 57.18 178.92C56.996 178.92 56.816 178.936 56.64 178.968C56.464 178.992 56.308 179.04 56.172 179.112C56.036 179.184 55.924 179.28 55.836 179.4C55.748 179.512 55.704 179.656 55.704 179.832C55.704 180.192 55.824 180.444 56.064 180.588C56.312 180.724 56.644 180.792 57.06 180.792ZM56.964 175.8C57.38 175.8 57.728 175.852 58.008 175.956C58.296 176.06 58.528 176.204 58.704 176.388C58.88 176.572 59.004 176.796 59.076 177.06C59.148 177.324 59.184 177.612 59.184 177.924V181.404C58.952 181.444 58.644 181.492 58.26 181.548C57.884 181.604 57.496 181.632 57.096 181.632C56.792 181.632 56.496 181.604 56.208 181.548C55.92 181.5 55.664 181.412 55.44 181.284C55.216 181.148 55.036 180.964 54.9 180.732C54.764 180.5 54.696 180.204 54.696 179.844C54.696 179.524 54.764 179.256 54.9 179.04C55.044 178.816 55.224 178.636 55.44 178.5C55.664 178.364 55.916 178.268 56.196 178.212C56.484 178.148 56.772 178.116 57.06 178.116C57.452 178.116 57.836 178.16 58.212 178.248V177.972C58.212 177.804 58.192 177.644 58.152 177.492C58.12 177.332 58.052 177.188 57.948 177.06C57.852 176.932 57.716 176.832 57.54 176.76C57.372 176.68 57.152 176.64 56.88 176.64C56.536 176.64 56.236 176.664 55.98 176.712C55.724 176.76 55.528 176.808 55.392 176.856L55.272 176.04C55.408 175.976 55.632 175.92 55.944 175.872C56.264 175.824 56.604 175.8 56.964 175.8ZM61.284 181.5V176.232C62.1 175.952 62.924 175.812 63.756 175.812C64.012 175.812 64.256 175.824 64.488 175.848C64.72 175.864 64.976 175.904 65.256 175.968L65.076 176.844C64.82 176.772 64.592 176.728 64.392 176.712C64.2 176.688 63.988 176.676 63.756 176.676C63.268 176.676 62.772 176.744 62.268 176.88V181.5H61.284ZM69.108 175.8C69.86 175.8 70.44 176.036 70.848 176.508C71.256 176.972 71.46 177.68 71.46 178.632V178.98H67.476C67.516 179.556 67.704 179.996 68.04 180.3C68.384 180.596 68.864 180.744 69.48 180.744C69.832 180.744 70.132 180.716 70.38 180.66C70.628 180.604 70.816 180.544 70.944 180.48L71.076 181.32C70.956 181.384 70.74 181.452 70.428 181.524C70.116 181.596 69.764 181.632 69.372 181.632C68.892 181.632 68.468 181.56 68.1 181.416C67.74 181.264 67.44 181.06 67.2 180.804C66.96 180.548 66.78 180.244 66.66 179.892C66.54 179.532 66.48 179.144 66.48 178.728C66.48 178.232 66.556 177.8 66.708 177.432C66.86 177.064 67.06 176.76 67.308 176.52C67.556 176.28 67.836 176.1 68.148 175.98C68.46 175.86 68.78 175.8 69.108 175.8ZM70.452 178.176C70.452 177.704 70.328 177.332 70.08 177.06C69.832 176.78 69.504 176.64 69.096 176.64C68.864 176.64 68.652 176.684 68.46 176.772C68.276 176.86 68.116 176.976 67.98 177.12C67.844 177.264 67.736 177.428 67.656 177.612C67.576 177.796 67.524 177.984 67.5 178.176H70.452ZM80.916 175.932H83.268V176.76H80.916V179.352C80.916 179.632 80.936 179.86 80.976 180.036C81.016 180.212 81.08 180.356 81.168 180.468C81.264 180.572 81.384 180.644 81.528 180.684C81.672 180.724 81.848 180.744 82.056 180.744C82.344 180.744 82.576 180.72 82.752 180.672C82.928 180.624 83.096 180.56 83.256 180.48L83.4 181.32C83.288 181.368 83.108 181.432 82.86 181.512C82.62 181.592 82.32 181.632 81.96 181.632C81.544 181.632 81.204 181.584 80.94 181.488C80.676 181.392 80.468 181.248 80.316 181.056C80.172 180.864 80.072 180.628 80.016 180.348C79.96 180.06 79.932 179.728 79.932 179.352V176.76H78.756V175.932H79.932V174.372L80.916 174.204V175.932ZM84.852 181.5V173.352L85.848 173.184V176.016C86.008 175.952 86.188 175.904 86.388 175.872C86.588 175.832 86.784 175.812 86.976 175.812C87.4 175.812 87.752 175.876 88.032 176.004C88.32 176.124 88.548 176.296 88.716 176.52C88.884 176.744 89.004 177.012 89.076 177.324C89.148 177.636 89.184 177.98 89.184 178.356V181.5H88.2V178.572C88.2 177.884 88.104 177.4 87.912 177.12C87.72 176.832 87.376 176.688 86.88 176.688C86.672 176.688 86.468 176.712 86.268 176.76C86.076 176.8 85.936 176.84 85.848 176.88V181.5H84.852ZM93.108 175.8C93.86 175.8 94.44 176.036 94.848 176.508C95.256 176.972 95.46 177.68 95.46 178.632V178.98H91.476C91.516 179.556 91.704 179.996 92.04 180.3C92.384 180.596 92.864 180.744 93.48 180.744C93.832 180.744 94.132 180.716 94.38 180.66C94.628 180.604 94.816 180.544 94.944 180.48L95.076 181.32C94.956 181.384 94.74 181.452 94.428 181.524C94.116 181.596 93.764 181.632 93.372 181.632C92.892 181.632 92.468 181.56 92.1 181.416C91.74 181.264 91.44 181.06 91.2 180.804C90.96 180.548 90.78 180.244 90.66 179.892C90.54 179.532 90.48 179.144 90.48 178.728C90.48 178.232 90.556 177.8 90.708 177.432C90.86 177.064 91.06 176.76 91.308 176.52C91.556 176.28 91.836 176.1 92.148 175.98C92.46 175.86 92.78 175.8 93.108 175.8ZM94.452 178.176C94.452 177.704 94.328 177.332 94.08 177.06C93.832 176.78 93.504 176.64 93.096 176.64C92.864 176.64 92.652 176.684 92.46 176.772C92.276 176.86 92.116 176.976 91.98 177.12C91.844 177.264 91.736 177.428 91.656 177.612C91.576 177.796 91.524 177.984 91.5 178.176H94.452ZM103.932 181.5V176.76H102.756V175.932H103.932V175.428C103.932 174.996 103.992 174.64 104.112 174.36C104.232 174.072 104.388 173.84 104.58 173.664C104.78 173.488 105.008 173.364 105.264 173.292C105.528 173.22 105.804 173.184 106.092 173.184C106.38 173.184 106.668 173.216 106.956 173.28C107.252 173.344 107.528 173.42 107.784 173.508L107.604 174.36C107.428 174.272 107.208 174.196 106.944 174.132C106.68 174.068 106.412 174.036 106.14 174.036C105.972 174.036 105.812 174.06 105.66 174.108C105.516 174.148 105.388 174.224 105.276 174.336C105.164 174.44 105.076 174.584 105.012 174.768C104.948 174.944 104.916 175.168 104.916 175.44V175.932H107.16V176.76H104.916V181.5H103.932ZM113.148 181.344C112.932 181.4 112.644 181.46 112.284 181.524C111.932 181.588 111.516 181.62 111.036 181.62C110.612 181.62 110.26 181.56 109.98 181.44C109.7 181.312 109.472 181.136 109.296 180.912C109.12 180.68 108.996 180.408 108.924 180.096C108.852 179.784 108.816 179.44 108.816 179.064V175.932H109.8V178.848C109.8 179.536 109.9 180.024 110.1 180.312C110.308 180.6 110.652 180.744 111.132 180.744C111.236 180.744 111.34 180.74 111.444 180.732C111.556 180.724 111.66 180.716 111.756 180.708C111.852 180.692 111.936 180.68 112.008 180.672C112.08 180.656 112.128 180.644 112.152 180.636V175.932H113.148V181.344ZM114.852 176.088C115.212 176 115.568 175.932 115.92 175.884C116.28 175.836 116.616 175.812 116.928 175.812C117.672 175.812 118.232 176.004 118.608 176.388C118.992 176.772 119.184 177.388 119.184 178.236V181.5H118.2V178.416C118.2 178.056 118.168 177.764 118.104 177.54C118.04 177.316 117.948 177.144 117.828 177.024C117.716 176.896 117.576 176.808 117.408 176.76C117.248 176.712 117.072 176.688 116.88 176.688C116.72 176.688 116.548 176.7 116.364 176.724C116.188 176.74 116.016 176.764 115.848 176.796V181.5H114.852V176.088ZM131.52 178.716C131.52 179.156 131.456 179.556 131.328 179.916C131.208 180.268 131.036 180.572 130.812 180.828C130.588 181.084 130.32 181.284 130.008 181.428C129.696 181.564 129.356 181.632 128.988 181.632C128.628 181.632 128.292 181.564 127.98 181.428C127.676 181.284 127.412 181.084 127.188 180.828C126.964 180.572 126.788 180.268 126.66 179.916C126.54 179.556 126.48 179.156 126.48 178.716C126.48 178.276 126.54 177.876 126.66 177.516C126.788 177.156 126.964 176.852 127.188 176.604C127.412 176.348 127.676 176.152 127.98 176.016C128.292 175.872 128.628 175.8 128.988 175.8C129.356 175.8 129.696 175.872 130.008 176.016C130.32 176.152 130.588 176.348 130.812 176.604C131.036 176.852 131.208 177.156 131.328 177.516C131.456 177.876 131.52 178.276 131.52 178.716ZM130.5 178.716C130.5 178.084 130.364 177.588 130.092 177.228C129.82 176.86 129.452 176.676 128.988 176.676C128.532 176.676 128.168 176.86 127.896 177.228C127.632 177.588 127.5 178.084 127.5 178.716C127.5 179.34 127.632 179.836 127.896 180.204C128.168 180.564 128.532 180.744 128.988 180.744C129.452 180.744 129.82 180.564 130.092 180.204C130.364 179.836 130.5 179.34 130.5 178.716ZM133.932 181.5V176.76H132.756V175.932H133.932V175.428C133.932 174.996 133.992 174.64 134.112 174.36C134.232 174.072 134.388 173.84 134.58 173.664C134.78 173.488 135.008 173.364 135.264 173.292C135.528 173.22 135.804 173.184 136.092 173.184C136.38 173.184 136.668 173.216 136.956 173.28C137.252 173.344 137.528 173.42 137.784 173.508L137.604 174.36C137.428 174.272 137.208 174.196 136.944 174.132C136.68 174.068 136.412 174.036 136.14 174.036C135.972 174.036 135.812 174.06 135.66 174.108C135.516 174.148 135.388 174.224 135.276 174.336C135.164 174.44 135.076 174.584 135.012 174.768C134.948 174.944 134.916 175.168 134.916 175.44V175.932H137.16V176.76H134.916V181.5H133.932ZM148.212 180.108C148.212 179.908 148.128 179.744 147.96 179.616C147.8 179.488 147.596 179.376 147.348 179.28C147.108 179.184 146.844 179.092 146.556 179.004C146.268 178.908 146 178.792 145.752 178.656C145.512 178.52 145.308 178.352 145.14 178.152C144.98 177.952 144.9 177.692 144.9 177.372C144.9 176.924 145.08 176.552 145.44 176.256C145.808 175.952 146.38 175.8 147.156 175.8C147.46 175.8 147.772 175.824 148.092 175.872C148.42 175.912 148.7 175.968 148.932 176.04L148.752 176.928C148.688 176.896 148.6 176.864 148.488 176.832C148.376 176.792 148.248 176.76 148.104 176.736C147.96 176.704 147.804 176.68 147.636 176.664C147.476 176.648 147.32 176.64 147.168 176.64C146.304 176.64 145.872 176.876 145.872 177.348C145.872 177.516 145.952 177.66 146.112 177.78C146.28 177.892 146.488 177.996 146.736 178.092C146.984 178.188 147.252 178.288 147.54 178.392C147.828 178.488 148.096 178.608 148.344 178.752C148.592 178.896 148.796 179.072 148.956 179.28C149.124 179.48 149.208 179.736 149.208 180.048C149.208 180.552 149.012 180.944 148.62 181.224C148.228 181.496 147.608 181.632 146.76 181.632C146.376 181.632 146.024 181.6 145.704 181.536C145.384 181.472 145.08 181.376 144.792 181.248L144.984 180.348C145.264 180.476 145.556 180.584 145.86 180.672C146.172 180.752 146.504 180.792 146.856 180.792C147.76 180.792 148.212 180.564 148.212 180.108ZM150.852 181.5V173.352L151.848 173.184V176.016C152.008 175.952 152.188 175.904 152.388 175.872C152.588 175.832 152.784 175.812 152.976 175.812C153.4 175.812 153.752 175.876 154.032 176.004C154.32 176.124 154.548 176.296 154.716 176.52C154.884 176.744 155.004 177.012 155.076 177.324C155.148 177.636 155.184 177.98 155.184 178.356V181.5H154.2V178.572C154.2 177.884 154.104 177.4 153.912 177.12C153.72 176.832 153.376 176.688 152.88 176.688C152.672 176.688 152.468 176.712 152.268 176.76C152.076 176.8 151.936 176.84 151.848 176.88V181.5H150.852ZM159.06 180.792C159.308 180.792 159.528 180.784 159.72 180.768C159.92 180.752 160.084 180.732 160.212 180.708V179.052C160.084 179.012 159.928 178.98 159.744 178.956C159.568 178.932 159.38 178.92 159.18 178.92C158.996 178.92 158.816 178.936 158.64 178.968C158.464 178.992 158.308 179.04 158.172 179.112C158.036 179.184 157.924 179.28 157.836 179.4C157.748 179.512 157.704 179.656 157.704 179.832C157.704 180.192 157.824 180.444 158.064 180.588C158.312 180.724 158.644 180.792 159.06 180.792ZM158.964 175.8C159.38 175.8 159.728 175.852 160.008 175.956C160.296 176.06 160.528 176.204 160.704 176.388C160.88 176.572 161.004 176.796 161.076 177.06C161.148 177.324 161.184 177.612 161.184 177.924V181.404C160.952 181.444 160.644 181.492 160.26 181.548C159.884 181.604 159.496 181.632 159.096 181.632C158.792 181.632 158.496 181.604 158.208 181.548C157.92 181.5 157.664 181.412 157.44 181.284C157.216 181.148 157.036 180.964 156.9 180.732C156.764 180.5 156.696 180.204 156.696 179.844C156.696 179.524 156.764 179.256 156.9 179.04C157.044 178.816 157.224 178.636 157.44 178.5C157.664 178.364 157.916 178.268 158.196 178.212C158.484 178.148 158.772 178.116 159.06 178.116C159.452 178.116 159.836 178.16 160.212 178.248V177.972C160.212 177.804 160.192 177.644 160.152 177.492C160.12 177.332 160.052 177.188 159.948 177.06C159.852 176.932 159.716 176.832 159.54 176.76C159.372 176.68 159.152 176.64 158.88 176.64C158.536 176.64 158.236 176.664 157.98 176.712C157.724 176.76 157.528 176.808 157.392 176.856L157.272 176.04C157.408 175.976 157.632 175.92 157.944 175.872C158.264 175.824 158.604 175.8 158.964 175.8ZM163.284 181.5V176.232C164.1 175.952 164.924 175.812 165.756 175.812C166.012 175.812 166.256 175.824 166.488 175.848C166.72 175.864 166.976 175.904 167.256 175.968L167.076 176.844C166.82 176.772 166.592 176.728 166.392 176.712C166.2 176.688 165.988 176.676 165.756 176.676C165.268 176.676 164.772 176.744 164.268 176.88V181.5H163.284ZM171.108 175.8C171.86 175.8 172.44 176.036 172.848 176.508C173.256 176.972 173.46 177.68 173.46 178.632V178.98H169.476C169.516 179.556 169.704 179.996 170.04 180.3C170.384 180.596 170.864 180.744 171.48 180.744C171.832 180.744 172.132 180.716 172.38 180.66C172.628 180.604 172.816 180.544 172.944 180.48L173.076 181.32C172.956 181.384 172.74 181.452 172.428 181.524C172.116 181.596 171.764 181.632 171.372 181.632C170.892 181.632 170.468 181.56 170.1 181.416C169.74 181.264 169.44 181.06 169.2 180.804C168.96 180.548 168.78 180.244 168.66 179.892C168.54 179.532 168.48 179.144 168.48 178.728C168.48 178.232 168.556 177.8 168.708 177.432C168.86 177.064 169.06 176.76 169.308 176.52C169.556 176.28 169.836 176.1 170.148 175.98C170.46 175.86 170.78 175.8 171.108 175.8ZM172.452 178.176C172.452 177.704 172.328 177.332 172.08 177.06C171.832 176.78 171.504 176.64 171.096 176.64C170.864 176.64 170.652 176.684 170.46 176.772C170.276 176.86 170.116 176.976 169.98 177.12C169.844 177.264 169.736 177.428 169.656 177.612C169.576 177.796 169.524 177.984 169.5 178.176H172.452ZM174.852 181.5V173.352L175.848 173.184V176.016C176.008 175.952 176.188 175.904 176.388 175.872C176.588 175.832 176.784 175.812 176.976 175.812C177.4 175.812 177.752 175.876 178.032 176.004C178.32 176.124 178.548 176.296 178.716 176.52C178.884 176.744 179.004 177.012 179.076 177.324C179.148 177.636 179.184 177.98 179.184 178.356V181.5H178.2V178.572C178.2 177.884 178.104 177.4 177.912 177.12C177.72 176.832 177.376 176.688 176.88 176.688C176.672 176.688 176.468 176.712 176.268 176.76C176.076 176.8 175.936 176.84 175.848 176.88V181.5H174.852ZM185.52 178.716C185.52 179.156 185.456 179.556 185.328 179.916C185.208 180.268 185.036 180.572 184.812 180.828C184.588 181.084 184.32 181.284 184.008 181.428C183.696 181.564 183.356 181.632 182.988 181.632C182.628 181.632 182.292 181.564 181.98 181.428C181.676 181.284 181.412 181.084 181.188 180.828C180.964 180.572 180.788 180.268 180.66 179.916C180.54 179.556 180.48 179.156 180.48 178.716C180.48 178.276 180.54 177.876 180.66 177.516C180.788 177.156 180.964 176.852 181.188 176.604C181.412 176.348 181.676 176.152 181.98 176.016C182.292 175.872 182.628 175.8 182.988 175.8C183.356 175.8 183.696 175.872 184.008 176.016C184.32 176.152 184.588 176.348 184.812 176.604C185.036 176.852 185.208 177.156 185.328 177.516C185.456 177.876 185.52 178.276 185.52 178.716ZM184.5 178.716C184.5 178.084 184.364 177.588 184.092 177.228C183.82 176.86 183.452 176.676 182.988 176.676C182.532 176.676 182.168 176.86 181.896 177.228C181.632 177.588 181.5 178.084 181.5 178.716C181.5 179.34 181.632 179.836 181.896 180.204C182.168 180.564 182.532 180.744 182.988 180.744C183.452 180.744 183.82 180.564 184.092 180.204C184.364 179.836 184.5 179.34 184.5 178.716ZM190.056 181.632C189.704 181.632 189.412 181.584 189.18 181.488C188.948 181.392 188.764 181.248 188.628 181.056C188.492 180.864 188.396 180.628 188.34 180.348C188.284 180.06 188.256 179.728 188.256 179.352V174.084H186.648V173.244H189.24V179.352C189.24 179.632 189.256 179.86 189.288 180.036C189.328 180.212 189.384 180.356 189.456 180.468C189.536 180.572 189.632 180.644 189.744 180.684C189.856 180.724 189.988 180.744 190.14 180.744C190.372 180.744 190.588 180.716 190.788 180.66C190.988 180.604 191.144 180.544 191.256 180.48L191.4 181.32C191.352 181.344 191.284 181.376 191.196 181.416C191.108 181.448 191.004 181.48 190.884 181.512C190.764 181.544 190.632 181.572 190.488 181.596C190.352 181.62 190.208 181.632 190.056 181.632ZM196.152 177.108C196.04 177.004 195.876 176.908 195.66 176.82C195.444 176.724 195.22 176.676 194.988 176.676C194.724 176.676 194.496 176.728 194.304 176.832C194.12 176.936 193.968 177.08 193.848 177.264C193.728 177.44 193.64 177.656 193.584 177.912C193.528 178.16 193.5 178.428 193.5 178.716C193.5 179.364 193.652 179.864 193.956 180.216C194.26 180.568 194.656 180.744 195.144 180.744C195.392 180.744 195.6 180.732 195.768 180.708C195.944 180.684 196.072 180.66 196.152 180.636V177.108ZM196.152 173.352L197.148 173.184V181.344C196.932 181.408 196.656 181.472 196.32 181.536C195.984 181.6 195.592 181.632 195.144 181.632C194.744 181.632 194.38 181.564 194.052 181.428C193.724 181.292 193.444 181.1 193.212 180.852C192.98 180.596 192.8 180.288 192.672 179.928C192.544 179.568 192.48 179.164 192.48 178.716C192.48 178.284 192.532 177.892 192.636 177.54C192.748 177.18 192.908 176.872 193.116 176.616C193.324 176.36 193.572 176.16 193.86 176.016C194.156 175.872 194.492 175.8 194.868 175.8C195.164 175.8 195.424 175.836 195.648 175.908C195.872 175.98 196.04 176.056 196.152 176.136V173.352ZM200.508 175.068C200.3 175.068 200.12 174.996 199.968 174.852C199.816 174.708 199.74 174.512 199.74 174.264C199.74 174.016 199.816 173.82 199.968 173.676C200.12 173.532 200.3 173.46 200.508 173.46C200.724 173.46 200.904 173.532 201.048 173.676C201.2 173.82 201.276 174.016 201.276 174.264C201.276 174.512 201.2 174.708 201.048 174.852C200.904 174.996 200.724 175.068 200.508 175.068ZM200.256 176.76H198.648V175.932H201.24V179.352C201.24 179.904 201.316 180.276 201.468 180.468C201.62 180.652 201.848 180.744 202.152 180.744C202.384 180.744 202.596 180.716 202.788 180.66C202.988 180.604 203.144 180.544 203.256 180.48L203.4 181.32C203.352 181.344 203.284 181.376 203.196 181.416C203.108 181.448 203.004 181.48 202.884 181.512C202.772 181.544 202.644 181.572 202.5 181.596C202.364 181.62 202.22 181.632 202.068 181.632C201.716 181.632 201.424 181.584 201.192 181.488C200.96 181.392 200.772 181.248 200.628 181.056C200.492 180.864 200.396 180.628 200.34 180.348C200.284 180.06 200.256 179.728 200.256 179.352V176.76ZM204.852 176.088C205.212 176 205.568 175.932 205.92 175.884C206.28 175.836 206.616 175.812 206.928 175.812C207.672 175.812 208.232 176.004 208.608 176.388C208.992 176.772 209.184 177.388 209.184 178.236V181.5H208.2V178.416C208.2 178.056 208.168 177.764 208.104 177.54C208.04 177.316 207.948 177.144 207.828 177.024C207.716 176.896 207.576 176.808 207.408 176.76C207.248 176.712 207.072 176.688 206.88 176.688C206.72 176.688 206.548 176.7 206.364 176.724C206.188 176.74 206.016 176.764 205.848 176.796V181.5H204.852V176.088ZM214.152 180.984C214.04 181.048 213.868 181.116 213.636 181.188C213.404 181.26 213.136 181.296 212.832 181.296C212.504 181.296 212.196 181.244 211.908 181.14C211.628 181.028 211.38 180.864 211.164 180.648C210.956 180.424 210.788 180.144 210.66 179.808C210.54 179.464 210.48 179.06 210.48 178.596C210.48 178.188 210.536 177.816 210.648 177.48C210.768 177.136 210.936 176.84 211.152 176.592C211.376 176.344 211.648 176.152 211.968 176.016C212.288 175.872 212.652 175.8 213.06 175.8C213.54 175.8 213.948 175.836 214.284 175.908C214.628 175.972 214.916 176.036 215.148 176.1V181.068C215.148 181.932 214.928 182.556 214.488 182.94C214.056 183.324 213.4 183.516 212.52 183.516C212.16 183.516 211.832 183.488 211.536 183.432C211.248 183.376 210.992 183.308 210.768 183.228L210.948 182.352C211.156 182.44 211.392 182.512 211.656 182.568C211.928 182.624 212.224 182.652 212.544 182.652C213.12 182.652 213.532 182.536 213.78 182.304C214.028 182.072 214.152 181.696 214.152 181.176V180.984ZM214.152 176.808C214.056 176.776 213.924 176.748 213.756 176.724C213.588 176.692 213.36 176.676 213.072 176.676C212.56 176.676 212.168 176.852 211.896 177.204C211.632 177.556 211.5 178.024 211.5 178.608C211.5 178.928 211.536 179.204 211.608 179.436C211.688 179.66 211.792 179.848 211.92 180C212.056 180.144 212.208 180.252 212.376 180.324C212.544 180.388 212.724 180.42 212.916 180.42C213.164 180.42 213.396 180.384 213.612 180.312C213.836 180.24 214.016 180.156 214.152 180.06V176.808ZM46.116 196.5C45.996 196.228 45.892 195.98 45.804 195.756C45.716 195.532 45.628 195.308 45.54 195.084C45.46 194.86 45.376 194.628 45.288 194.388C45.208 194.14 45.112 193.86 45 193.548C44.888 193.86 44.788 194.14 44.7 194.388C44.612 194.628 44.524 194.86 44.436 195.084C44.356 195.308 44.268 195.532 44.172 195.756C44.084 195.98 43.98 196.228 43.86 196.5H43.116C42.892 195.516 42.704 194.544 42.552 193.584C42.408 192.616 42.3 191.732 42.228 190.932H43.164C43.188 191.244 43.212 191.552 43.236 191.856C43.268 192.152 43.304 192.464 43.344 192.792C43.384 193.12 43.428 193.476 43.476 193.86C43.532 194.244 43.592 194.676 43.656 195.156C43.784 194.836 43.892 194.556 43.98 194.316C44.068 194.076 44.148 193.848 44.22 193.632C44.292 193.416 44.36 193.196 44.424 192.972C44.496 192.748 44.572 192.496 44.652 192.216H45.396C45.476 192.496 45.548 192.748 45.612 192.972C45.676 193.196 45.744 193.416 45.816 193.632C45.888 193.848 45.964 194.076 46.044 194.316C46.124 194.556 46.224 194.832 46.344 195.144C46.416 194.704 46.48 194.296 46.536 193.92C46.592 193.544 46.64 193.192 46.68 192.864C46.72 192.528 46.756 192.204 46.788 191.892C46.82 191.58 46.848 191.26 46.872 190.932H47.772C47.732 191.332 47.684 191.76 47.628 192.216C47.572 192.672 47.504 193.14 47.424 193.62C47.344 194.1 47.256 194.588 47.16 195.084C47.064 195.572 46.964 196.044 46.86 196.5H46.116ZM50.508 190.068C50.3 190.068 50.12 189.996 49.968 189.852C49.816 189.708 49.74 189.512 49.74 189.264C49.74 189.016 49.816 188.82 49.968 188.676C50.12 188.532 50.3 188.46 50.508 188.46C50.724 188.46 50.904 188.532 51.048 188.676C51.2 188.82 51.276 189.016 51.276 189.264C51.276 189.512 51.2 189.708 51.048 189.852C50.904 189.996 50.724 190.068 50.508 190.068ZM50.256 191.76H48.648V190.932H51.24V194.352C51.24 194.904 51.316 195.276 51.468 195.468C51.62 195.652 51.848 195.744 52.152 195.744C52.384 195.744 52.596 195.716 52.788 195.66C52.988 195.604 53.144 195.544 53.256 195.48L53.4 196.32C53.352 196.344 53.284 196.376 53.196 196.416C53.108 196.448 53.004 196.48 52.884 196.512C52.772 196.544 52.644 196.572 52.5 196.596C52.364 196.62 52.22 196.632 52.068 196.632C51.716 196.632 51.424 196.584 51.192 196.488C50.96 196.392 50.772 196.248 50.628 196.056C50.492 195.864 50.396 195.628 50.34 195.348C50.284 195.06 50.256 194.728 50.256 194.352V191.76ZM56.916 190.932H59.268V191.76H56.916V194.352C56.916 194.632 56.936 194.86 56.976 195.036C57.016 195.212 57.08 195.356 57.168 195.468C57.264 195.572 57.384 195.644 57.528 195.684C57.672 195.724 57.848 195.744 58.056 195.744C58.344 195.744 58.576 195.72 58.752 195.672C58.928 195.624 59.096 195.56 59.256 195.48L59.4 196.32C59.288 196.368 59.108 196.432 58.86 196.512C58.62 196.592 58.32 196.632 57.96 196.632C57.544 196.632 57.204 196.584 56.94 196.488C56.676 196.392 56.468 196.248 56.316 196.056C56.172 195.864 56.072 195.628 56.016 195.348C55.96 195.06 55.932 194.728 55.932 194.352V191.76H54.756V190.932H55.932V189.372L56.916 189.204V190.932ZM60.852 196.5V188.352L61.848 188.184V191.016C62.008 190.952 62.188 190.904 62.388 190.872C62.588 190.832 62.784 190.812 62.976 190.812C63.4 190.812 63.752 190.876 64.032 191.004C64.32 191.124 64.548 191.296 64.716 191.52C64.884 191.744 65.004 192.012 65.076 192.324C65.148 192.636 65.184 192.98 65.184 193.356V196.5H64.2V193.572C64.2 192.884 64.104 192.4 63.912 192.12C63.72 191.832 63.376 191.688 62.88 191.688C62.672 191.688 62.468 191.712 62.268 191.76C62.076 191.8 61.936 191.84 61.848 191.88V196.5H60.852ZM75.06 195.792C75.308 195.792 75.528 195.784 75.72 195.768C75.92 195.752 76.084 195.732 76.212 195.708V194.052C76.084 194.012 75.928 193.98 75.744 193.956C75.568 193.932 75.38 193.92 75.18 193.92C74.996 193.92 74.816 193.936 74.64 193.968C74.464 193.992 74.308 194.04 74.172 194.112C74.036 194.184 73.924 194.28 73.836 194.4C73.748 194.512 73.704 194.656 73.704 194.832C73.704 195.192 73.824 195.444 74.064 195.588C74.312 195.724 74.644 195.792 75.06 195.792ZM74.964 190.8C75.38 190.8 75.728 190.852 76.008 190.956C76.296 191.06 76.528 191.204 76.704 191.388C76.88 191.572 77.004 191.796 77.076 192.06C77.148 192.324 77.184 192.612 77.184 192.924V196.404C76.952 196.444 76.644 196.492 76.26 196.548C75.884 196.604 75.496 196.632 75.096 196.632C74.792 196.632 74.496 196.604 74.208 196.548C73.92 196.5 73.664 196.412 73.44 196.284C73.216 196.148 73.036 195.964 72.9 195.732C72.764 195.5 72.696 195.204 72.696 194.844C72.696 194.524 72.764 194.256 72.9 194.04C73.044 193.816 73.224 193.636 73.44 193.5C73.664 193.364 73.916 193.268 74.196 193.212C74.484 193.148 74.772 193.116 75.06 193.116C75.452 193.116 75.836 193.16 76.212 193.248V192.972C76.212 192.804 76.192 192.644 76.152 192.492C76.12 192.332 76.052 192.188 75.948 192.06C75.852 191.932 75.716 191.832 75.54 191.76C75.372 191.68 75.152 191.64 74.88 191.64C74.536 191.64 74.236 191.664 73.98 191.712C73.724 191.76 73.528 191.808 73.392 191.856L73.272 191.04C73.408 190.976 73.632 190.92 73.944 190.872C74.264 190.824 74.604 190.8 74.964 190.8ZM88.152 195.984C88.04 196.048 87.868 196.116 87.636 196.188C87.404 196.26 87.136 196.296 86.832 196.296C86.504 196.296 86.196 196.244 85.908 196.14C85.628 196.028 85.38 195.864 85.164 195.648C84.956 195.424 84.788 195.144 84.66 194.808C84.54 194.464 84.48 194.06 84.48 193.596C84.48 193.188 84.536 192.816 84.648 192.48C84.768 192.136 84.936 191.84 85.152 191.592C85.376 191.344 85.648 191.152 85.968 191.016C86.288 190.872 86.652 190.8 87.06 190.8C87.54 190.8 87.948 190.836 88.284 190.908C88.628 190.972 88.916 191.036 89.148 191.1V196.068C89.148 196.932 88.928 197.556 88.488 197.94C88.056 198.324 87.4 198.516 86.52 198.516C86.16 198.516 85.832 198.488 85.536 198.432C85.248 198.376 84.992 198.308 84.768 198.228L84.948 197.352C85.156 197.44 85.392 197.512 85.656 197.568C85.928 197.624 86.224 197.652 86.544 197.652C87.12 197.652 87.532 197.536 87.78 197.304C88.028 197.072 88.152 196.696 88.152 196.176V195.984ZM88.152 191.808C88.056 191.776 87.924 191.748 87.756 191.724C87.588 191.692 87.36 191.676 87.072 191.676C86.56 191.676 86.168 191.852 85.896 192.204C85.632 192.556 85.5 193.024 85.5 193.608C85.5 193.928 85.536 194.204 85.608 194.436C85.688 194.66 85.792 194.848 85.92 195C86.056 195.144 86.208 195.252 86.376 195.324C86.544 195.388 86.724 195.42 86.916 195.42C87.164 195.42 87.396 195.384 87.612 195.312C87.836 195.24 88.016 195.156 88.152 195.06V191.808ZM92.508 190.068C92.3 190.068 92.12 189.996 91.968 189.852C91.816 189.708 91.74 189.512 91.74 189.264C91.74 189.016 91.816 188.82 91.968 188.676C92.12 188.532 92.3 188.46 92.508 188.46C92.724 188.46 92.904 188.532 93.048 188.676C93.2 188.82 93.276 189.016 93.276 189.264C93.276 189.512 93.2 189.708 93.048 189.852C92.904 189.996 92.724 190.068 92.508 190.068ZM92.256 191.76H90.648V190.932H93.24V194.352C93.24 194.904 93.316 195.276 93.468 195.468C93.62 195.652 93.848 195.744 94.152 195.744C94.384 195.744 94.596 195.716 94.788 195.66C94.988 195.604 95.144 195.544 95.256 195.48L95.4 196.32C95.352 196.344 95.284 196.376 95.196 196.416C95.108 196.448 95.004 196.48 94.884 196.512C94.772 196.544 94.644 196.572 94.5 196.596C94.364 196.62 94.22 196.632 94.068 196.632C93.716 196.632 93.424 196.584 93.192 196.488C92.96 196.392 92.772 196.248 92.628 196.056C92.492 195.864 92.396 195.628 92.34 195.348C92.284 195.06 92.256 194.728 92.256 194.352V191.76ZM97.932 196.5V191.76H96.756V190.932H97.932V190.428C97.932 189.996 97.992 189.64 98.112 189.36C98.232 189.072 98.388 188.84 98.58 188.664C98.78 188.488 99.008 188.364 99.264 188.292C99.528 188.22 99.804 188.184 100.092 188.184C100.38 188.184 100.668 188.216 100.956 188.28C101.252 188.344 101.528 188.42 101.784 188.508L101.604 189.36C101.428 189.272 101.208 189.196 100.944 189.132C100.68 189.068 100.412 189.036 100.14 189.036C99.972 189.036 99.812 189.06 99.66 189.108C99.516 189.148 99.388 189.224 99.276 189.336C99.164 189.44 99.076 189.584 99.012 189.768C98.948 189.944 98.916 190.168 98.916 190.44V190.932H101.16V191.76H98.916V196.5H97.932ZM104.916 190.932H107.268V191.76H104.916V194.352C104.916 194.632 104.936 194.86 104.976 195.036C105.016 195.212 105.08 195.356 105.168 195.468C105.264 195.572 105.384 195.644 105.528 195.684C105.672 195.724 105.848 195.744 106.056 195.744C106.344 195.744 106.576 195.72 106.752 195.672C106.928 195.624 107.096 195.56 107.256 195.48L107.4 196.32C107.288 196.368 107.108 196.432 106.86 196.512C106.62 196.592 106.32 196.632 105.96 196.632C105.544 196.632 105.204 196.584 104.94 196.488C104.676 196.392 104.468 196.248 104.316 196.056C104.172 195.864 104.072 195.628 104.016 195.348C103.96 195.06 103.932 194.728 103.932 194.352V191.76H102.756V190.932H103.932V189.372L104.916 189.204V190.932ZM119.52 193.716C119.52 194.156 119.456 194.556 119.328 194.916C119.208 195.268 119.036 195.572 118.812 195.828C118.588 196.084 118.32 196.284 118.008 196.428C117.696 196.564 117.356 196.632 116.988 196.632C116.628 196.632 116.292 196.564 115.98 196.428C115.676 196.284 115.412 196.084 115.188 195.828C114.964 195.572 114.788 195.268 114.66 194.916C114.54 194.556 114.48 194.156 114.48 193.716C114.48 193.276 114.54 192.876 114.66 192.516C114.788 192.156 114.964 191.852 115.188 191.604C115.412 191.348 115.676 191.152 115.98 191.016C116.292 190.872 116.628 190.8 116.988 190.8C117.356 190.8 117.696 190.872 118.008 191.016C118.32 191.152 118.588 191.348 118.812 191.604C119.036 191.852 119.208 192.156 119.328 192.516C119.456 192.876 119.52 193.276 119.52 193.716ZM118.5 193.716C118.5 193.084 118.364 192.588 118.092 192.228C117.82 191.86 117.452 191.676 116.988 191.676C116.532 191.676 116.168 191.86 115.896 192.228C115.632 192.588 115.5 193.084 115.5 193.716C115.5 194.34 115.632 194.836 115.896 195.204C116.168 195.564 116.532 195.744 116.988 195.744C117.452 195.744 117.82 195.564 118.092 195.204C118.364 194.836 118.5 194.34 118.5 193.716ZM121.932 196.5V191.76H120.756V190.932H121.932V190.428C121.932 189.996 121.992 189.64 122.112 189.36C122.232 189.072 122.388 188.84 122.58 188.664C122.78 188.488 123.008 188.364 123.264 188.292C123.528 188.22 123.804 188.184 124.092 188.184C124.38 188.184 124.668 188.216 124.956 188.28C125.252 188.344 125.528 188.42 125.784 188.508L125.604 189.36C125.428 189.272 125.208 189.196 124.944 189.132C124.68 189.068 124.412 189.036 124.14 189.036C123.972 189.036 123.812 189.06 123.66 189.108C123.516 189.148 123.388 189.224 123.276 189.336C123.164 189.44 123.076 189.584 123.012 189.768C122.948 189.944 122.916 190.168 122.916 190.44V190.932H125.16V191.76H122.916V196.5H121.932ZM136.212 195.108C136.212 194.908 136.128 194.744 135.96 194.616C135.8 194.488 135.596 194.376 135.348 194.28C135.108 194.184 134.844 194.092 134.556 194.004C134.268 193.908 134 193.792 133.752 193.656C133.512 193.52 133.308 193.352 133.14 193.152C132.98 192.952 132.9 192.692 132.9 192.372C132.9 191.924 133.08 191.552 133.44 191.256C133.808 190.952 134.38 190.8 135.156 190.8C135.46 190.8 135.772 190.824 136.092 190.872C136.42 190.912 136.7 190.968 136.932 191.04L136.752 191.928C136.688 191.896 136.6 191.864 136.488 191.832C136.376 191.792 136.248 191.76 136.104 191.736C135.96 191.704 135.804 191.68 135.636 191.664C135.476 191.648 135.32 191.64 135.168 191.64C134.304 191.64 133.872 191.876 133.872 192.348C133.872 192.516 133.952 192.66 134.112 192.78C134.28 192.892 134.488 192.996 134.736 193.092C134.984 193.188 135.252 193.288 135.54 193.392C135.828 193.488 136.096 193.608 136.344 193.752C136.592 193.896 136.796 194.072 136.956 194.28C137.124 194.48 137.208 194.736 137.208 195.048C137.208 195.552 137.012 195.944 136.62 196.224C136.228 196.496 135.608 196.632 134.76 196.632C134.376 196.632 134.024 196.6 133.704 196.536C133.384 196.472 133.08 196.376 132.792 196.248L132.984 195.348C133.264 195.476 133.556 195.584 133.86 195.672C134.172 195.752 134.504 195.792 134.856 195.792C135.76 195.792 136.212 195.564 136.212 195.108ZM140.916 190.932H143.268V191.76H140.916V194.352C140.916 194.632 140.936 194.86 140.976 195.036C141.016 195.212 141.08 195.356 141.168 195.468C141.264 195.572 141.384 195.644 141.528 195.684C141.672 195.724 141.848 195.744 142.056 195.744C142.344 195.744 142.576 195.72 142.752 195.672C142.928 195.624 143.096 195.56 143.256 195.48L143.4 196.32C143.288 196.368 143.108 196.432 142.86 196.512C142.62 196.592 142.32 196.632 141.96 196.632C141.544 196.632 141.204 196.584 140.94 196.488C140.676 196.392 140.468 196.248 140.316 196.056C140.172 195.864 140.072 195.628 140.016 195.348C139.96 195.06 139.932 194.728 139.932 194.352V191.76H138.756V190.932H139.932V189.372L140.916 189.204V190.932ZM149.52 193.716C149.52 194.156 149.456 194.556 149.328 194.916C149.208 195.268 149.036 195.572 148.812 195.828C148.588 196.084 148.32 196.284 148.008 196.428C147.696 196.564 147.356 196.632 146.988 196.632C146.628 196.632 146.292 196.564 145.98 196.428C145.676 196.284 145.412 196.084 145.188 195.828C144.964 195.572 144.788 195.268 144.66 194.916C144.54 194.556 144.48 194.156 144.48 193.716C144.48 193.276 144.54 192.876 144.66 192.516C144.788 192.156 144.964 191.852 145.188 191.604C145.412 191.348 145.676 191.152 145.98 191.016C146.292 190.872 146.628 190.8 146.988 190.8C147.356 190.8 147.696 190.872 148.008 191.016C148.32 191.152 148.588 191.348 148.812 191.604C149.036 191.852 149.208 192.156 149.328 192.516C149.456 192.876 149.52 193.276 149.52 193.716ZM148.5 193.716C148.5 193.084 148.364 192.588 148.092 192.228C147.82 191.86 147.452 191.676 146.988 191.676C146.532 191.676 146.168 191.86 145.896 192.228C145.632 192.588 145.5 193.084 145.5 193.716C145.5 194.34 145.632 194.836 145.896 195.204C146.168 195.564 146.532 195.744 146.988 195.744C147.452 195.744 147.82 195.564 148.092 195.204C148.364 194.836 148.5 194.34 148.5 193.716ZM150.588 193.728C150.588 193.224 150.668 192.788 150.828 192.42C150.988 192.052 151.208 191.748 151.488 191.508C151.768 191.268 152.092 191.092 152.46 190.98C152.836 190.86 153.236 190.8 153.66 190.8C153.932 190.8 154.2 190.82 154.464 190.86C154.736 190.892 155.024 190.956 155.328 191.052L155.1 191.904C154.836 191.808 154.592 191.748 154.368 191.724C154.152 191.692 153.932 191.676 153.708 191.676C153.42 191.676 153.148 191.716 152.892 191.796C152.636 191.868 152.412 191.988 152.22 192.156C152.036 192.316 151.888 192.528 151.776 192.792C151.664 193.048 151.608 193.36 151.608 193.728C151.608 194.08 151.66 194.384 151.764 194.64C151.868 194.888 152.012 195.096 152.196 195.264C152.388 195.424 152.616 195.544 152.88 195.624C153.144 195.704 153.436 195.744 153.756 195.744C154.012 195.744 154.256 195.732 154.488 195.708C154.728 195.676 154.988 195.612 155.268 195.516L155.412 196.344C155.132 196.448 154.848 196.52 154.56 196.56C154.272 196.608 153.96 196.632 153.624 196.632C153.176 196.632 152.764 196.572 152.388 196.452C152.02 196.324 151.7 196.14 151.428 195.9C151.164 195.66 150.956 195.36 150.804 195C150.66 194.632 150.588 194.208 150.588 193.728ZM158.856 193.44C159.072 193.6 159.316 193.804 159.588 194.052C159.86 194.292 160.128 194.552 160.392 194.832C160.664 195.112 160.92 195.4 161.16 195.696C161.4 195.984 161.592 196.252 161.736 196.5H160.56C160.408 196.252 160.22 196 159.996 195.744C159.772 195.48 159.532 195.228 159.276 194.988C159.028 194.748 158.776 194.528 158.52 194.328C158.272 194.128 158.048 193.96 157.848 193.824V196.5H156.852V188.352L157.848 188.184V193.26C158.288 192.876 158.728 192.496 159.168 192.12C159.608 191.736 160.004 191.34 160.356 190.932H161.52C161.176 191.34 160.76 191.76 160.272 192.192C159.792 192.624 159.32 193.04 158.856 193.44ZM165.888 195.732C165.888 195.972 165.808 196.184 165.648 196.368C165.488 196.552 165.276 196.644 165.012 196.644C164.74 196.644 164.524 196.552 164.364 196.368C164.204 196.184 164.124 195.972 164.124 195.732C164.124 195.484 164.204 195.268 164.364 195.084C164.524 194.9 164.74 194.808 165.012 194.808C165.276 194.808 165.488 194.9 165.648 195.084C165.808 195.268 165.888 195.484 165.888 195.732Z" fill="#293D4A"/>
<path d="M263.889 17.0183C264.192 17.9778 264.444 18.9373 264.747 19.8967C268.989 21.7147 270.706 14.9983 274.948 16.8668C274.645 15.9073 274.392 14.9478 274.089 13.9884C269.848 12.1199 268.181 18.8868 263.889 17.0183Z" fill="white"/>
<path d="M221.974 80.4448C221.368 81.2023 220.711 82.0103 220.105 82.7678C221.014 87.3127 227.529 84.9392 228.387 89.4841C228.993 88.7266 229.65 87.9187 230.256 87.1612C229.347 82.5658 222.832 84.9897 221.974 80.4448Z" fill="white"/>
<path d="M126.329 114.532C126.834 115.39 127.289 116.249 127.794 117.158C132.338 118.016 132.54 111.098 137.085 111.956C136.58 111.098 136.126 110.239 135.621 109.33C131.126 108.472 130.924 115.39 126.329 114.532Z" fill="white"/>
<path d="M214.652 170.636C215.107 171.545 215.511 172.403 215.965 173.312C220.46 174.423 221.015 167.505 225.56 168.616C225.106 167.707 224.702 166.849 224.247 165.94C219.702 164.829 219.147 171.747 214.652 170.636Z" fill="white"/>
<path d="M56.4899 228.558C56.1364 229.467 55.7324 230.376 55.3789 231.336C57.5504 235.426 63.1052 231.235 65.2767 235.325C65.6302 234.416 66.0342 233.507 66.3877 232.548C64.2162 228.457 58.6613 232.649 56.4899 228.558Z" fill="white"/>
<path d="M190.11 223.458C189.554 224.266 188.999 225.124 188.443 225.932C189.706 230.376 196.018 227.447 197.281 231.941C197.836 231.133 198.392 230.275 198.947 229.467C197.634 224.972 191.372 227.901 190.11 223.458Z" fill="white"/>
<path d="M278.634 135.792C279.038 136.701 279.391 137.61 279.795 138.519C284.239 139.882 285.199 133.014 289.643 134.378C289.239 133.469 288.885 132.56 288.481 131.651C284.037 130.287 283.078 137.155 278.634 135.792Z" fill="white"/>
<path d="M37.3005 20.7046C37.048 21.6641 36.7955 22.6236 36.543 23.583C39.2194 27.3704 44.1683 22.5226 46.8447 26.31C47.0972 25.3505 47.3497 24.391 47.6022 23.4315C44.9763 19.5936 40.0274 24.492 37.3005 20.7046Z" fill="white"/>
<path d="M153.396 39.6418C153.901 40.5003 154.406 41.3588 154.962 42.1668C159.557 42.8738 159.507 35.9049 164.102 36.6119C163.597 35.7534 163.092 34.8949 162.537 34.087C157.941 33.4305 157.992 40.3488 153.396 39.6418Z" fill="white"/>
<path d="M20.5344 97.7153C19.6254 98.0688 18.6659 98.4728 17.757 98.8263C16.2925 103.22 23.1603 104.331 21.6959 108.724C22.6049 108.371 23.5643 107.967 24.4733 107.613C25.8873 103.22 19.0699 102.109 20.5344 97.7153Z" fill="white"/>
<path d="M12 190.129C12.202 191.088 12.3535 192.098 12.5555 193.057C16.5954 195.33 19.0193 188.866 23.0593 191.138C22.8573 190.179 22.7058 189.169 22.5038 188.21C18.4639 185.887 16.0399 192.401 12 190.129Z" fill="white"/>
<path d="M356.093 6.9217C356.446 7.83068 356.8 8.79016 357.103 9.69914C361.446 11.2646 362.759 4.44725 367.102 6.01272C366.748 5.10374 366.395 4.14426 366.092 3.23528C361.749 1.66981 360.436 8.48716 356.093 6.9217Z" fill="#7B44D3"/>
<path d="M339.58 95.9511C338.57 95.9006 337.61 95.9006 336.6 95.8501C333.52 99.3345 339.378 103.071 336.297 106.505C337.307 106.556 338.267 106.556 339.277 106.606C342.307 103.122 336.449 99.385 339.58 95.9511Z" fill="#7B44D3"/>
<path d="M433.609 49.1387C432.599 49.0377 431.639 48.9872 430.629 48.8862C427.347 52.1687 433.003 56.2086 429.721 59.491C430.731 59.592 431.69 59.6425 432.7 59.7435C435.982 56.5116 430.327 52.4717 433.609 49.1387Z" fill="#7B44D3"/>
<path d="M398.159 224.976C398.765 225.784 399.371 226.541 399.977 227.349C404.623 227.602 403.866 220.683 408.511 220.936C407.905 220.128 407.299 219.37 406.694 218.562C402.048 218.31 402.805 225.228 398.159 224.976Z" fill="#7B44D3"/>
<path d="M210 134.684C210.707 135.391 211.414 136.098 212.07 136.805C216.716 136.451 215.05 129.684 219.696 129.331C218.989 128.624 218.282 127.917 217.625 127.21C212.979 127.563 214.646 134.33 210 134.684Z" fill="#7B44D3"/>
<path d="M288.778 34.1406C287.768 34.1406 286.809 34.1406 285.799 34.1406C282.819 37.726 288.829 41.2105 285.849 44.7959C286.859 44.7959 287.819 44.7959 288.829 44.7959C291.808 41.261 285.849 37.726 288.778 34.1406Z" fill="#7B44D3"/>
<path d="M267.467 188.667C267.316 189.627 267.164 190.637 267.013 191.596C270.043 195.131 274.487 189.778 277.516 193.313C277.668 192.354 277.819 191.344 277.971 190.384C274.941 186.85 270.497 192.202 267.467 188.667Z" fill="#7B44D3"/>
<path d="M342.357 243.408C343.266 243.761 344.226 244.115 345.135 244.468C349.175 242.196 344.832 236.742 348.872 234.47C347.963 234.116 347.003 233.763 346.094 233.409C342.105 235.682 346.397 241.136 342.357 243.408Z" fill="#7B44D3"/>
<path d="M356.702 47.9913C371.285 68.1774 342.094 93.9916 313.453 97.4935L312.653 94.8921C323.984 88.8888 337.191 80.6342 344.646 70.0034C347.897 65.3508 350.324 59.6977 347.022 55.1202C346.872 54.9451 346.697 54.6699 346.471 54.4448C345.496 53.5443 345.696 53.8445 345.396 53.6194C345.296 53.5944 345.196 53.5193 345.096 53.4943C344.996 53.4443 344.871 53.4443 344.746 53.3942C335.09 52.8189 316.555 73.4052 311.177 94.742L308.501 94.5669C305.599 65.4258 339.067 24.8786 356.702 47.9913Z" fill="#5734AA"/>
<path d="M279.06 58.222C282.387 59.8479 285.413 61.774 288.24 63.9001C299.446 72.4298 308.326 84.6366 312.979 96.2679L310.627 97.6687C301.322 86.6627 288.715 73.9557 274.557 68.3026C259.099 62.1992 255.347 71.2542 255.172 71.9796C255.097 72.1297 255.097 72.3048 255.047 72.4549C255.047 72.6049 254.997 72.78 254.997 72.9301C254.972 73.1302 254.997 73.7806 255.047 74.0057C256.347 83.4359 283.737 99.995 310.752 99.6448L311.203 102.271C304.724 104.397 297.645 104.898 290.816 104.472C263.676 102.621 238.087 85.362 243.69 68.5027C246.767 57.6217 260.825 49.3672 279.06 58.222Z" fill="#5734AA"/>
<path d="M392.847 46.4653C392.146 56.8961 385.593 62.4491 385.593 62.4491C394.222 64.4752 407.43 61.7487 407.43 61.7487C399.7 71.4541 379.289 78.9582 348.297 85.1866C317.305 91.415 309.201 96.868 309.201 96.868C308.65 94.6418 308.15 93.3161 308.15 93.3161C327.386 72.2295 376.838 70.7037 392.847 46.4653Z" fill="#5734AA"/>
<path d="M218 120.281C246.591 125.309 281.71 90.4645 310.276 90.9898C310.276 90.9898 310.876 92.2655 312.127 94.2165C312.127 94.2165 302.622 96.3677 276.758 114.578C250.893 132.788 231.433 142.443 219.076 141.392C219.076 141.392 230.132 133.663 234.584 126.009C234.609 126.034 226.055 126.96 218 120.281Z" fill="#5734AA"/>
<path d="M386.743 180.289L294.242 211.281L252.995 121.432L366.007 87.6631L386.743 180.289Z" fill="#83C0FC"/>
<path d="M376.037 98.219L244.39 123.983L241.588 114.553L368.608 73.3804L376.037 98.219Z" fill="#9FDBFF"/>
<path d="M352.049 191.92L328.886 199.674L293.267 114.428L331.012 107.023L352.049 191.92Z" fill="#5734AA"/>
<path d="M331.013 107.024L293.267 114.428L287.139 99.7695L326.085 87.1626L331.013 107.024Z" fill="#7B44D3"/>
<path d="M375.312 129.136L271.58 161.904L264.651 146.821L372.135 114.953L375.312 129.136Z" fill="#7B44D3"/>
<path d="M459.708 74.1307C462.235 97.5686 426.09 105.098 400.901 94.5419L401.451 92.0155C413.583 92.3907 428.316 91.8154 439.447 86.5625C444.3 84.2613 448.952 80.7593 448.377 75.4564C448.352 75.2313 448.327 74.9311 448.252 74.631C447.877 73.4303 447.902 73.7805 447.752 73.4553C447.677 73.3803 447.627 73.2802 447.552 73.2052C447.502 73.1301 447.402 73.0551 447.327 72.9551C439.672 67.9523 414.759 76.1818 400.326 91.1901L398.225 89.7893C409.506 64.4754 456.081 46.8407 459.708 74.1307Z" fill="#F91944"/>
<path d="M357.177 37.9359C364.806 30.4318 380.24 30.2567 391.071 46.0904C393.047 48.967 394.623 51.9936 395.949 55.0703C401.151 67.3271 402.727 81.5349 401.101 93.2913L398.525 93.3414C396.024 79.934 391.671 63.55 382.666 52.2688C372.811 39.987 365.482 45.6652 365.007 46.2155C364.882 46.3155 364.806 46.4406 364.681 46.5406C364.606 46.6657 364.481 46.7658 364.406 46.9158C364.281 47.0659 364.006 47.6162 363.956 47.8163C360.604 56.1959 375.337 82.6605 397.725 95.0423L396.874 97.4186C390.546 96.1179 384.492 93.2163 379.064 89.6393C357.603 75.3815 344.67 49.1671 357.177 37.9359Z" fill="#F91944"/>
<path d="M490.125 89.8646C484.647 98.1191 476.668 99.6199 476.668 99.6199C482.796 105.348 494.953 109.3 494.953 109.3C484.047 113.653 463.761 110.226 435.32 100.821C406.905 91.4154 397.675 92.0658 397.675 92.0658C398.275 89.9646 398.475 88.6389 398.475 88.6389C424.214 80.3093 465.587 102.246 490.125 89.8646Z" fill="#F91944"/>
<path d="M311.752 68.4526C332.914 86.0123 378.139 73.8556 401.352 87.7132C401.352 87.7132 401.252 89.0389 401.352 91.2402C401.352 91.2402 392.522 88.5387 362.705 91.3652C332.889 94.1918 312.353 92.9911 302.697 86.3124C302.697 86.3124 315.429 85.1618 322.683 80.9595C322.683 80.9595 315.229 77.7077 311.752 68.4526Z" fill="#F91944"/>
<path d="M448.728 111.126L422.288 196.998L331.688 179.063L339.968 85.812L448.728 111.126Z" fill="#F9C023"/>
<path d="M457.582 100.595L452.004 124.483L331.713 83.8862L333.814 74.8062L457.582 100.595Z" fill="#FCE34F"/>
<path d="M410.856 110.601L388.319 190.269L365.607 185.767L376.362 98.9692L410.856 110.601Z" fill="#F91944"/>
<path d="M416.135 91.9405L410.857 110.601L376.363 98.9693L378.214 84.0361L416.135 91.9405Z" fill="#FE3466"/>
<path d="M440.948 136.44L436.896 149.572L336.241 127.81L337.641 112.152L440.948 136.44Z" fill="#FE3466"/>
<path d="M452.829 143.694L451.228 143.619C449.502 130.537 439.922 117.005 434.119 116.679C434.044 116.704 433.969 116.679 433.919 116.704C433.844 116.704 433.794 116.729 433.719 116.755C433.518 116.855 433.669 116.704 433.018 117.155C432.868 117.28 432.743 117.43 432.643 117.53C430.367 120.031 431.417 123.558 433.018 126.56C436.72 133.414 443.999 139.242 450.328 143.594L449.677 145.095C432.893 141.018 417.31 123.608 427.39 112.627C439.497 100.07 456.581 126.535 452.829 143.694Z" fill="#83C0FC"/>
<path d="M486.123 133.939C486.073 133.489 484.472 127.836 474.842 130.387C466.012 132.763 457.632 139.467 451.329 145.345L450.028 144.345C453.605 137.741 459.758 131.112 467.012 126.81C468.838 125.734 470.789 124.784 472.865 124.058C484.322 120.056 492.126 125.934 493.177 132.638C495.328 143.044 478.894 151.549 462.635 150.748C458.533 150.523 454.355 149.748 450.653 148.022L451.104 146.496C467.162 148.597 484.597 140.643 486.048 135.115C486.098 134.989 486.173 134.614 486.148 134.489C486.173 134.389 486.148 134.289 486.148 134.189C486.148 134.139 486.148 134.039 486.123 133.939Z" fill="#83C0FC"/>
<path d="M409.181 119.206C409.181 119.206 405.679 115.429 405.979 109.175C413.833 124.709 443.149 129.061 453.13 142.969C453.13 142.969 452.73 143.719 452.254 145.02C452.254 145.02 447.802 141.218 429.792 135.34C411.782 129.461 400.151 123.583 396.224 117.28C396.249 117.28 403.928 119.806 409.181 119.206Z" fill="#83C0FC"/>
<path d="M504.908 165.281C499.655 168.683 494.628 167.532 494.628 167.532C496.754 172.41 502.782 177.763 502.782 177.763C495.353 177.538 484.447 170.434 470.314 157.802C456.181 145.17 450.678 143.219 450.678 143.219C451.554 142.143 452.004 141.443 452.004 141.443C469.063 143.094 487.524 166.282 504.908 165.281Z" fill="#83C0FC"/>
<path d="M483.997 163.505L453.205 214.133L400.301 189.244L419.086 135.565L483.997 163.505Z" fill="#0491B2"/>
<path d="M491.275 160.204L488.924 165.632L412.407 141.143L418.535 126.885L491.275 160.204Z" fill="#0FAEBA"/>
<path d="M460.534 156.551L433.394 204.803L420.137 198.574L438.572 149.522L460.534 156.551Z" fill="#83C0FC"/>
<path d="M465.187 148.247L460.534 156.551L438.572 149.522L442.899 138.041L465.187 148.247Z" fill="#9FDBFF"/>
<path d="M475.292 177.813L470.139 186.318L410.681 159.603L413.558 151.374L475.292 177.813Z" fill="#9FDBFF"/>
</svg>
