<svg width="182" height="136" viewBox="0 0 182 136" fill="none" xmlns="http://www.w3.org/2000/svg">
<g clip-path="url(#clip0)">
<path d="M166.882 33.5189C146.355 4.95397 102.991 -6.63319 60.3449 5.84645C37.799 12.4441 16.0606 25.6634 5.28758 51.2602C-13.9704 97.0173 26.4641 111.631 52.9039 116.289C65.6887 118.541 77.7298 122.324 88.7332 127.475C108.529 136.741 143.569 144.952 169.992 106.353C189.143 78.3756 180.556 52.5459 166.882 33.5189Z" fill="#F5F0F3"/>
<path d="M47.8706 39.1702C47.8132 38.7162 47.697 38.2716 47.5251 37.8475C47.5032 37.7673 47.4648 37.6926 47.4124 37.628C47.36 37.5635 47.2947 37.5106 47.2207 37.4727C47.1218 37.4469 47.0181 37.4458 46.9187 37.4693L45.3681 37.7065C45.2384 37.7125 45.1141 37.7607 45.0144 37.844C44.8124 38.0564 45.0113 38.3984 45.0051 38.6914C44.9981 39.0209 44.7054 39.2883 44.3879 39.3768C44.0639 39.4423 43.7296 39.4381 43.4073 39.3646L41.2391 39.0277C41.8777 38.8238 42.446 38.4446 42.8793 37.9331C43.1647 37.5951 43.3165 36.9641 42.9041 36.804C42.7816 36.7704 42.6538 36.7602 42.5275 36.7738C41.5452 36.7814 40.7722 35.9613 39.8526 35.6158C39.264 35.409 38.6251 35.3936 38.0272 35.5719C37.4294 35.7501 36.9032 36.1128 36.5239 36.6081L37.6789 36.6638C37.7876 36.6578 37.8953 36.6865 37.9866 36.7459C38.2397 36.9538 37.925 37.3533 37.9607 37.6789C38.007 38.102 38.5688 38.1924 38.9922 38.2352C39.4157 38.2779 39.953 38.622 39.7493 38.9957C37.6208 39.7289 35.4549 37.5626 33.2196 37.8293C32.6538 37.8968 32.1196 38.119 31.5673 38.2588C28.1931 39.1125 24.7048 36.8347 21.2579 37.3171C20.4917 37.4477 19.7385 37.6463 19.0075 37.9106C18.5384 38.0646 18.049 38.2311 17.7082 38.5883C17.3673 38.9456 17.2376 39.5565 17.5605 39.93C16.6705 40.0033 15.7745 39.9182 14.9142 39.6785C15.1468 39.8078 15.3403 39.9974 15.4745 40.2273C15.6086 40.4572 15.6783 40.719 15.6764 40.9851C14.2867 41.2117 12.9338 41.6243 11.6541 42.2116C11.8929 42.6088 12.1719 42.9804 12.4866 43.3206L10.7273 44.4509C11.3217 44.6006 11.629 45.4111 11.2833 45.9173C11.8996 45.6431 12.2816 44.9339 12.9406 44.7901C13.3724 44.6959 13.8117 44.8725 14.2213 45.0384C14.6309 45.2043 15.0811 45.3652 15.5051 45.2407C15.9291 45.1161 16.2418 44.5664 15.9724 44.2161C17.7847 43.6873 19.6577 43.3947 21.545 43.3454C21.6906 43.3272 21.8383 43.3552 21.967 43.4255C22.2127 43.596 22.1481 43.9641 22.1348 44.2628C22.1216 44.5615 22.3544 44.9541 22.6214 44.8195C22.3073 45.0919 22.5758 45.6046 22.8772 45.891C23.1785 46.1775 23.5417 46.5727 23.3572 46.9452C23.3091 47.0425 23.2274 47.1203 23.1811 47.2184C23.0443 47.508 23.2615 47.8457 23.5176 48.038C23.7737 48.2303 24.0874 48.3648 24.2653 48.6311C24.4432 48.8974 24.3624 49.3636 24.0443 49.4008L23.1401 48.2528C22.8311 48.5731 22.6193 48.9744 22.5293 49.4103C23.4881 50.1941 23.6323 51.7895 22.8296 52.7326C22.4194 53.2145 21.836 53.5073 21.3269 53.8833C20.8177 54.2592 20.3466 54.7944 20.3479 55.4273C20.3501 56.5207 20.2607 57.5365 20.6705 58.5502C21.426 60.4194 22.2983 62.2393 23.2822 63.999C23.5405 64.4611 23.8744 64.9676 24.3979 65.0472C23.7364 63.4368 23.1409 61.8014 22.6115 60.141C22.9563 60.1423 23.3548 60.1697 23.557 60.4491C23.7244 60.6804 23.6884 60.995 23.7404 61.2757C23.8066 61.5478 23.9169 61.8071 24.067 62.0435L27.2257 67.6702C27.4876 68.1366 27.788 68.6373 28.2884 68.8262C28.6084 68.947 28.9786 68.9242 29.2731 69.0981C29.5039 69.2344 29.6594 69.4763 29.8947 69.6047C30.5601 69.9677 31.4855 69.2715 32.1073 69.7049C32.2851 69.8288 32.3982 70.0257 32.5621 70.1676C33.1364 70.6649 34.0785 70.3322 34.7415 70.7032C35.1688 70.9423 35.3903 71.4206 35.6182 71.8539C36.1891 72.9395 37.1128 74.003 38.3362 74.0894C38.7206 74.1166 39.1131 74.0437 39.4888 74.1292C39.8644 74.2147 40.2342 74.5425 40.1739 74.9231C40.0706 75.5754 40.3929 76.2898 40.3063 76.9446C40.1486 78.1373 38.4568 78.6615 38.3115 79.8558C38.2797 80.1173 38.3295 80.3872 38.2672 80.6432C38.1909 80.9569 37.9553 81.2123 37.8716 81.5241C37.7129 82.115 38.1363 82.7031 38.6014 83.1006C39.0665 83.4982 39.6212 83.841 39.8755 84.3975C40.1442 84.9857 40.0122 85.6716 40.0996 86.3123C40.2904 87.7112 41.4987 88.7482 42.7421 89.4169C43.121 89.6206 43.5277 89.8178 43.7729 90.1712C44.093 90.6325 44.0611 91.2406 44.168 91.7918C44.4297 93.1417 45.5661 94.2539 45.5983 95.6285C45.6213 96.6055 45.0782 97.4919 44.7537 98.4138C44.4496 99.2971 44.3395 100.236 44.431 101.165C44.5226 102.095 44.8136 102.994 45.2841 103.801C45.5268 104.211 45.8171 104.597 45.9888 105.041C46.2952 105.834 46.1958 106.735 46.4782 107.537C46.8517 108.597 47.8779 109.472 47.7797 110.591C48.2456 111.559 49.2744 112.034 50.3089 112.322L52.1629 112.838C52.5179 112.937 52.8889 113.037 53.2504 112.965C53.6118 112.894 53.9568 112.594 53.9475 112.225C53.0383 112.02 52.0999 111.802 51.3505 111.248C50.601 110.694 50.0876 109.707 50.3719 108.82C50.5038 108.408 50.7843 107.933 50.5176 107.593C50.3649 107.398 50.0857 107.347 49.9134 107.17C49.6448 106.893 49.7371 106.427 49.9302 106.093C50.1234 105.759 50.4025 105.46 50.4804 105.082C50.5197 104.871 50.4935 104.652 50.4051 104.456C50.3168 104.26 50.1706 104.096 49.9861 103.985C50.3299 103.855 50.6425 103.655 50.9038 103.396C51.1451 103.12 51.2566 102.696 51.0667 102.382C51.6305 102.454 52.2961 102.489 52.6661 102.058C52.9617 101.713 52.9414 101.198 52.8246 100.76C52.7078 100.321 52.5105 99.8954 52.5043 99.4417C53.8048 99.5033 55.1081 99.4591 56.4014 99.3095C56.2144 98.6797 55.7894 98.1474 55.2166 97.8256C55.8023 97.7265 56.336 97.0253 56.521 96.4608C56.7061 95.8963 56.6589 95.2814 56.5445 94.6984C56.5006 94.5483 56.4945 94.3897 56.527 94.2367C56.5929 94.0265 56.7994 93.8982 56.9905 93.7885L59.8979 92.1187C60.0714 92.0318 60.2287 91.9157 60.3628 91.7755C60.6674 91.4177 60.6223 90.8776 60.4663 90.4343C60.3104 89.991 60.0605 89.5742 60.0005 89.1082C59.8208 87.7144 61.3128 86.7143 61.8164 85.4022C62.014 84.8873 62.0542 84.3277 62.0925 83.7775C62.1336 83.1866 62.1366 82.5002 61.6829 82.1194C61.248 81.7543 60.5684 81.8358 60.1133 81.4962C59.696 81.1849 59.5521 80.5803 59.0962 80.3289C58.6823 80.1006 58.1632 80.2458 57.7028 80.1384C56.8922 79.9493 56.3821 79.015 55.5542 78.9285C55.0871 78.8797 54.5584 79.1081 54.1755 78.836C53.8382 78.5963 53.8247 78.1145 53.7605 77.7057C53.6479 77.0703 53.3434 76.4847 52.8879 76.0277C52.4323 75.5707 51.8477 75.2643 51.2127 75.1497C50.7311 75.0725 50.2068 75.1018 49.7971 74.8371C49.3822 74.5691 49.192 74.0674 48.8661 73.6962C48.3409 73.098 47.5137 72.8855 46.7388 72.7034L43.5868 71.9624C43.0272 71.8308 42.306 71.7611 42.0057 72.2512C41.9168 72.4378 41.8539 72.6357 41.8187 72.8394C41.7062 73.2079 41.4797 73.5312 41.1719 73.7629C40.8641 73.9945 40.4908 74.1227 40.1056 74.1288C39.8415 73.6782 39.4135 73.3471 38.911 73.2045C38.5914 73.1154 38.2493 73.1055 37.9445 72.9745C37.7784 72.8934 37.6307 72.7794 37.5103 72.6393C37.3899 72.4992 37.2993 72.336 37.2442 72.1596C37.1891 71.9833 37.1705 71.7976 37.1896 71.6139C37.2087 71.4301 37.2651 71.2522 37.3553 71.091C37.5371 70.7675 37.6072 70.3931 37.555 70.0257C37.5029 69.6583 37.3312 69.3183 37.0665 69.0581C36.5305 68.5769 35.7551 68.4606 35.0364 68.5088C34.8481 68.098 35.1629 67.6346 35.5021 67.3361C35.8412 67.0376 36.2531 66.7442 36.327 66.2984C36.4432 65.5972 35.5485 65.0647 34.8692 65.2738C34.1899 65.4828 33.7564 66.1426 33.4698 66.793C33.3054 67.1662 33.1656 67.5591 32.9062 67.8738C32.6468 68.1884 32.2291 68.4137 31.834 68.3127C31.2747 68.1698 31.0586 67.5053 30.9349 66.9414C30.7688 66.1848 30.6017 65.4178 30.6365 64.644C30.6713 63.8702 30.9322 63.0757 31.5028 62.5519C32.4325 61.6983 33.8589 61.782 35.1137 61.9181C34.8173 61.5841 34.8905 61.0212 35.2077 60.7068C35.3752 60.558 35.5764 60.4523 35.7939 60.3989C36.0114 60.3454 36.2387 60.3459 36.456 60.4001C36.8341 60.4788 37.1748 60.6825 37.4231 60.9783C37.7797 61.4131 37.8811 62.0001 38.1506 62.4935C38.4201 62.987 39.0262 63.4079 39.5222 63.1432C39.9507 62.9145 40.0187 62.3204 39.9121 61.8465C39.8054 61.3727 39.5789 60.912 39.6176 60.4279C39.6913 59.5041 40.6489 58.948 41.4939 58.5676C42.3389 58.1872 43.3065 57.6755 43.4404 56.7585C43.4449 56.579 43.4788 56.4014 43.5406 56.2328C43.6343 56.0838 43.7646 55.9614 43.919 55.877C46.3852 54.2472 48.8924 52.5974 51.7111 51.7069C51.8578 51.6605 51.875 51.712 52.0244 51.6757C52.2336 51.5548 52.095 51.2204 51.8945 51.0857C51.6939 50.951 51.4259 50.8477 51.375 50.6115C51.3376 50.4379 51.4399 50.2674 51.4665 50.0918C51.5318 49.6604 51.0156 49.262 50.6147 49.4345C50.3883 49.1346 50.8363 48.7862 51.1986 48.6865C52.2864 48.3871 53.4031 48.2047 54.5297 48.1423C54.6597 48.1216 54.7929 48.1443 54.9087 48.2068C55.0979 48.3378 55.0737 48.6385 54.9397 48.8255C54.8056 49.0126 54.597 49.1301 54.4299 49.2884C54.2473 49.4662 54.1171 49.6908 54.0534 49.9376C53.9898 50.1844 53.9951 50.444 54.0689 50.688C54.657 50.9871 55.2964 51.2951 55.9478 51.1897C56.5991 51.0843 57.1773 50.3524 56.8711 49.7679C56.586 49.2236 55.7296 49.1009 55.5823 48.5043C55.4099 47.8059 56.3986 47.1847 56.1759 46.5006C56.0783 46.2009 55.7797 46.0246 55.5506 45.8083C55.2799 45.543 55.0958 45.2021 55.0225 44.8304C54.9491 44.4586 54.9899 44.0733 55.1394 43.7252C54.7662 43.7908 54.3827 43.766 54.021 43.6529C53.6593 43.5397 53.33 43.3414 53.0608 43.0747C52.5636 42.5729 52.167 41.7814 51.461 41.8039C50.8131 41.8245 50.255 42.5803 49.6492 42.3497C49.5002 42.293 49.343 42.1775 49.1986 42.2452C49.1513 42.2759 49.1116 42.317 49.0825 42.3653C49.0534 42.4137 49.0356 42.468 49.0306 42.5242C48.8766 43.2602 49.1414 44.0989 48.7403 44.7349C48.3037 45.427 47.294 45.523 46.7648 46.1471C46.4775 46.4859 46.3662 46.9424 46.1021 47.2996C45.8381 47.6568 45.2776 47.8839 44.9607 47.5726C45.1165 47.2525 45.159 46.8889 45.0814 46.5414C45.0037 46.194 44.8106 45.8831 44.5334 45.6596C44.2391 45.4677 43.922 45.3134 43.5894 45.2005C43.2177 45.0431 42.8641 44.8461 42.5348 44.6127C42.3698 44.5132 42.2357 44.3698 42.1476 44.1985C42.0779 43.9839 42.0873 43.7516 42.1741 43.5434C42.3348 43.0827 42.6182 42.6746 42.9939 42.3632C43.3696 42.0519 43.8231 41.849 44.3057 41.7766C44.7276 41.7192 45.2187 41.7394 45.4979 41.418C45.6456 41.2479 45.7232 40.9907 45.9376 40.9216C46.0748 40.894 46.2172 40.9116 46.3436 40.9716L47.9184 41.5259C48.0942 41.6052 48.2876 41.6372 48.4795 41.6187C48.5746 41.6059 48.6614 41.5576 48.7224 41.4834C48.7834 41.4093 48.8141 41.3148 48.8084 41.219C48.758 40.9574 48.3556 40.8319 48.3922 40.5681C48.4127 40.4827 48.4587 40.4054 48.524 40.3466C49.0924 39.7417 49.7874 39.2699 50.5595 38.965C51.3315 38.6601 52.1614 38.5297 52.9897 38.5831C53.1884 38.9096 52.8741 39.2962 52.6125 39.5749C52.3509 39.8536 52.1407 40.3515 52.4571 40.566C52.5867 40.6322 52.7309 40.6647 52.8764 40.6605C53.2641 40.713 53.6409 40.8272 53.9925 40.999C54.5367 41.2358 55.0704 41.495 55.5937 41.7764C55.5475 41.4313 55.5034 41.0678 55.6342 40.7452C55.765 40.4226 56.1367 40.1695 56.4613 40.2952C56.7742 40.4162 56.9347 40.8305 57.268 40.8685C57.7127 40.9191 57.8881 40.2622 57.7024 39.855C57.5167 39.4479 57.149 39.1069 57.1183 38.6604C57.0976 38.3592 57.2122 37.9856 56.9716 37.8032C56.886 37.7485 56.7888 37.7144 56.6877 37.7037L50.6799 36.5982C50.3232 36.5325 49.8077 36.5828 49.7919 36.9452C49.7831 37.1475 49.9638 37.3476 49.8837 37.5336C49.7983 37.7321 49.5177 37.714 49.3133 37.7842C48.9962 37.8931 48.8371 38.2697 48.8675 38.6036C48.9233 38.9354 49.0518 39.2508 49.2438 39.5271C48.853 39.3636 48.2613 39.3336 47.8706 39.1702Z" fill="#3F3D56"/>
<path d="M43.0769 34.0703C42.6981 33.9449 42.2899 33.9391 41.9076 34.0536C41.5253 34.1681 41.1875 34.3973 40.9399 34.7103C40.841 34.8406 40.7579 35.0201 40.8407 35.1611C40.9595 35.3633 41.262 35.2835 41.485 35.2111C41.8129 35.094 42.1697 35.0855 42.5028 35.1869C42.7122 35.2588 42.8996 35.3859 43.1099 35.4551C43.2123 35.4979 43.3244 35.512 43.4343 35.496C43.5441 35.4799 43.6475 35.4343 43.7333 35.3639C43.8777 35.2167 43.8868 34.9878 43.887 34.7816C43.897 34.7126 43.8915 34.6422 43.8709 34.5756C43.8502 34.509 43.815 34.4479 43.7677 34.3967C43.6835 34.3479 43.5889 34.3199 43.4917 34.315C43.274 34.2747 43.0773 34.1598 42.9353 33.99" fill="#3F3D56"/>
<path d="M45.2432 33.4672C45.1585 33.4625 45.0739 33.4798 44.9977 33.5173C44.9216 33.5548 44.8563 33.6113 44.8083 33.6813C44.7602 33.7513 44.731 33.8325 44.7234 33.9171C44.7158 34.0016 44.7301 34.0867 44.7649 34.1642C45.0253 34.2352 45.2973 34.2529 45.5647 34.2163C45.6981 34.1956 45.8223 34.1359 45.9218 34.0447C46.0213 33.9535 46.0915 33.8349 46.1237 33.7038C45.8089 33.7611 45.484 33.699 45.2125 33.5298" fill="#3F3D56"/>
<path d="M52.5116 32.4599C51.8029 32.6106 51.1145 32.8444 50.4607 33.1566C50.7689 33.2751 51.0309 33.4894 51.2081 33.7681C51.3853 34.0467 51.4683 34.3749 51.4448 34.7043C51.4172 34.8307 51.4204 34.962 51.4542 35.0869C51.5295 35.2695 51.7478 35.338 51.9397 35.3849C52.2844 35.4898 52.6444 35.5358 53.0044 35.5208C53.1845 35.5114 53.3595 35.4572 53.5133 35.3632C53.6672 35.2691 53.7952 35.1382 53.8858 34.9822C53.938 34.8342 53.9992 34.6895 54.0691 34.549C54.529 33.8485 55.8954 34.6955 56.3892 34.0184C56.5632 33.7799 56.5473 33.4209 56.774 33.232C56.8914 33.1496 57.0273 33.0977 57.1696 33.081C58.1627 32.8837 59.1658 32.7408 60.1745 32.653C60.6525 32.6114 61.2754 32.4398 61.2794 31.9601C59.4792 31.6066 57.6126 31.8577 55.9699 32.6744C55.378 32.9708 54.5952 33.5944 54.0251 33.2014C53.8116 33.0542 53.8222 32.658 53.5284 32.4925C53.228 32.3234 52.8304 32.3922 52.5116 32.4599Z" fill="#3F3D56"/>
<path d="M58.3988 33.5608L59.2438 33.7231C59.0883 33.7162 58.933 33.7426 58.7885 33.8005C58.6439 33.8583 58.5134 33.9463 58.4055 34.0586C58.2977 34.1709 58.215 34.305 58.1631 34.4517C58.1111 34.5985 58.0911 34.7547 58.1043 34.9098C58.8956 35.1742 59.7584 34.9169 60.592 34.9521C61.4255 34.9872 62.3954 35.5827 62.2531 36.4048C62.2101 36.6533 62.0665 36.9018 62.1412 37.1427C62.1935 37.3116 62.3425 37.4315 62.4265 37.587C62.6017 37.9111 62.4617 38.3211 62.2405 38.6158C62.0193 38.9104 61.7219 39.1455 61.5277 39.4587C61.0448 40.2375 61.3192 41.2443 61.6069 42.1144C61.6901 42.4431 61.8437 42.7499 62.0571 43.0134C62.4833 43.4666 63.1779 43.506 63.8 43.5151C64.2527 43.5217 64.7714 43.4994 65.0577 43.1486C65.4315 42.6906 65.1701 41.976 65.4162 41.4385C65.6397 40.9504 66.2092 40.741 66.7251 40.5924C67.6704 40.3203 68.6336 40.089 69.5272 39.6779C70.6368 39.1676 71.6739 38.3722 72.8935 38.3065C73.2356 38.2881 73.5863 38.3284 73.9158 38.2347C74.2454 38.1409 74.5585 37.856 74.5335 37.5143C74.5122 37.2223 74.2652 37.0078 74.0721 36.7877C73.8791 36.5676 73.7275 36.2291 73.9049 35.9962L77.1017 35.3991C76.8751 34.7816 76.6986 33.9683 77.2193 33.5663C77.4071 33.4213 77.6587 33.3633 77.8186 33.188C78.0913 32.8891 77.9542 32.3744 77.6395 32.1202C77.3247 31.8661 76.8992 31.8071 76.4961 31.7736C75.0944 31.6572 73.6846 31.7341 72.2802 31.8111C69.5349 31.9616 66.7896 32.1121 64.0442 32.2625C63.4916 32.2928 62.8535 32.2465 62.3466 32.4351C61.9175 32.5947 61.6124 32.8877 61.1216 32.9907C60.2156 33.1807 59.2186 33.0521 58.3988 33.5608Z" fill="#3F3D56"/>
<path d="M73.5375 40.2402C73.4514 40.2266 73.3633 40.2466 73.2915 40.296C73.244 40.3483 73.2158 40.4152 73.2115 40.4857C73.1569 40.7968 73.2219 41.117 73.3934 41.3822C73.4808 41.5123 73.6014 41.6166 73.7427 41.6844C73.884 41.7521 74.0409 41.7808 74.197 41.7675C74.5775 41.719 74.8579 41.3943 75.2077 41.2359C75.7469 40.992 78.0365 40.6118 76.4527 39.7561C75.9068 39.4612 75.5541 39.7215 75.1239 39.9157C74.6345 40.1661 74.086 40.2783 73.5375 40.2402Z" fill="#3F3D56"/>
<path d="M87.4101 33.0778C87.2251 33.1534 87.0704 33.2881 86.9701 33.4608C86.9239 33.5486 86.9131 33.6507 86.9401 33.7461C86.9671 33.8415 87.0297 33.9229 87.115 33.9735C87.1841 33.9985 87.2573 34.0101 87.3308 34.0077L88.0828 34.0302C88.4022 34.0397 88.8013 34.1078 88.8871 34.4156C88.9509 34.6442 88.8082 34.938 88.9803 35.1013C89.0542 35.1585 89.1431 35.1932 89.2362 35.2011C89.4839 35.2647 89.7426 35.2731 89.9939 35.2255C90.541 35.0788 90.2535 34.7448 90.4258 34.4475C90.6895 33.9925 90.6439 34.2679 91.1085 34.0072C91.4516 33.8146 91.8949 33.4653 91.6086 32.9745C91.1106 32.121 88.145 32.7112 87.4101 33.0778Z" fill="#3F3D56"/>
<path d="M102.252 32.6486L101.816 32.7069C100.831 32.8383 99.8407 32.9709 98.8923 33.2666C99.3029 33.4289 99.7336 33.5346 100.173 33.5807C100.414 33.5926 100.654 33.6267 100.89 33.6827C101.309 33.8074 101.731 34.1294 102.135 33.9644C102.386 33.8622 102.468 33.6009 102.676 33.4624C102.82 33.3668 103.364 33.2121 103.425 33.1156C103.917 32.3354 102.631 32.5981 102.252 32.6486Z" fill="#3F3D56"/>
<path d="M104.17 34.6334C103.586 34.9595 103.045 35.3559 102.558 35.8135C102.353 36.0064 102.143 36.2462 102.162 36.5272C102.187 36.9006 102.585 37.1172 102.929 37.2631L104.325 37.8542C104.494 37.6155 104.339 37.286 104.164 37.0514C103.989 36.8169 103.781 36.5455 103.859 36.2633C103.947 35.9412 104.34 35.8314 104.669 35.7759C105.206 35.6855 106.653 35.6927 106.479 34.828C106.274 33.809 104.708 34.3323 104.17 34.6334Z" fill="#3F3D56"/>
<path d="M103.889 92.296C103.756 92.6808 103.743 93.134 103.973 93.4699C104.231 93.8468 104.747 93.9873 105.194 93.8917C105.639 93.7734 106.035 93.5185 106.327 93.163C106.595 92.8651 106.815 92.5279 106.979 92.1632C107.209 91.5949 107.372 91.0015 107.463 90.3952L107.896 88.1196C107.993 87.611 107.989 86.0517 107.054 86.5598C106.799 86.6985 106.208 87.7943 105.94 88.105C105.458 88.665 105.394 89.2084 105.14 89.8869C104.822 90.7366 104.183 91.4449 103.889 92.296Z" fill="#3F3D56"/>
<path d="M153.259 103.941C152.954 103.822 152.657 103.68 152.371 103.518C152.085 104.305 151.933 105.135 151.921 105.972L154.014 104.788C154.329 104.61 154.686 104.362 154.679 104C154.682 103.956 154.672 103.911 154.652 103.871C154.632 103.831 154.601 103.798 154.563 103.774C154.517 103.755 154.466 103.749 154.416 103.757C154.106 103.783 153.823 103.935 153.53 104.041C153.238 104.148 152.895 104.204 152.627 104.046" fill="#3F3D56"/>
<path d="M164.3 104.644C164.071 104.707 163.846 104.787 163.629 104.885C163.149 105.129 162.822 105.594 162.39 105.915C161.976 106.223 161.479 106.393 160.99 106.557C160.846 106.684 160.912 106.94 161.068 107.052C161.236 107.147 161.428 107.19 161.621 107.176C162.129 107.187 162.664 107.192 163.108 106.947C163.359 106.784 163.594 106.598 163.809 106.391C164.329 105.957 164.953 105.671 165.571 105.394C165.796 105.309 166.005 105.185 166.186 105.027C166.574 104.644 166.602 104.054 166.041 103.923C165.589 103.818 164.731 104.505 164.3 104.644Z" fill="#3F3D56"/>
<path d="M169.179 101.458C169.204 101.194 169.169 100.929 169.077 100.681C168.984 100.433 168.836 100.21 168.645 100.027C168.639 100.554 168.623 101.115 168.327 101.551C168.116 101.861 167.784 102.071 167.553 102.367C167.322 102.663 167.219 103.131 167.491 103.391C167.664 103.523 167.875 103.595 168.093 103.598C168.633 103.662 169.258 103.697 169.637 103.307C169.844 103.094 169.945 102.779 170.197 102.622C170.291 102.583 170.375 102.523 170.442 102.446C170.546 102.281 170.381 102.063 170.195 102.003C170.008 101.943 169.803 101.971 169.616 101.915C169.429 101.858 169.257 101.648 169.353 101.477" fill="#3F3D56"/>
<path d="M160.508 82.1401C160.225 82.209 159.932 82.2263 159.642 82.1912C159.161 82.1028 158.787 81.7404 158.399 81.4432C157.476 80.7405 156.354 80.3486 155.194 80.3236C154.14 80.3037 153.075 80.5896 152.039 80.3901C152.107 80.7666 152.429 81.049 152.772 81.2168C153.116 81.3847 153.496 81.4691 153.841 81.6336C154.394 81.8995 154.833 82.3559 155.077 82.9191C155.188 83.1788 155.258 83.4614 155.426 83.6881C155.771 84.1515 156.424 84.2533 157 84.2154C157.751 84.166 158.535 83.9499 159.234 84.2298C159.769 84.4439 160.152 84.9118 160.598 85.2756C161.044 85.6395 161.673 85.9095 162.186 85.647C161.653 85.4746 161.19 85.1366 160.863 84.6822C160.536 84.2279 160.363 83.681 160.37 83.1215C160.872 83.1677 162.32 83.1498 162.242 82.2956C162.176 81.5717 160.94 82.062 160.508 82.1401Z" fill="#3F3D56"/>
<path d="M153.932 88.03C154.021 87.5404 154.51 87.1081 154.358 86.6343C154.252 86.3066 153.872 86.1448 153.528 86.1368C153.184 86.1287 152.846 86.2312 152.502 86.2408C152.278 86.2289 152.054 86.2321 151.831 86.2504C151.148 86.3626 150.727 87.0784 150.083 87.3329C149.692 87.4876 149.252 87.458 148.845 87.565C147.922 87.8078 147.337 88.6808 146.691 89.3846C145.648 90.5168 144.288 91.3095 142.789 91.6601C142.264 91.7818 141.699 91.8596 141.282 92.2007C140.729 92.6525 140.593 93.4269 140.47 94.1302C140.13 96.0726 139.611 97.9792 138.918 99.8255L141.112 100.106C141.529 100.159 141.961 100.211 142.363 100.087C142.655 99.9773 142.932 99.8299 143.186 99.6491C144.163 99.0425 145.256 98.6478 146.395 98.4906C146.97 98.4117 147.572 98.3973 148.111 98.6108C148.65 98.8243 149.113 99.3085 149.158 99.8865C149.391 99.814 149.639 99.8062 149.877 99.8639C150.114 99.9216 150.331 100.043 150.505 100.214C150.848 100.564 151.073 101.013 151.148 101.498C151.206 101.798 151.263 102.157 151.542 102.283C151.769 102.386 152.03 102.275 152.278 102.256C153.122 102.188 153.821 103.171 154.65 103.002C155.539 102.821 155.758 101.489 156.625 101.222C157.123 101.069 157.822 101.255 158.06 100.792C158.271 100.384 157.851 99.9125 157.894 99.4552C157.948 98.8921 158.612 98.6531 159.124 98.4128C160.889 97.5845 161.727 95.2086 160.871 93.4563C160.365 92.4181 159.367 91.6009 159.183 90.4603C159.041 89.5828 159.387 88.5595 158.828 87.8688C158.543 87.5174 158.061 87.3234 157.892 86.9042C157.785 86.6403 157.828 86.3408 157.771 86.062C157.713 85.7832 157.47 85.4916 157.195 85.5639C156.396 85.7737 156.141 88.2423 155.713 88.8422C155.063 89.7539 153.727 89.1534 153.932 88.03Z" fill="#3F3D56"/>
<path d="M139.161 83.0727C138.888 82.9961 138.59 82.9207 138.328 83.0301C138.066 83.1395 137.913 83.5237 138.123 83.7143C139.766 83.6503 141.419 83.5868 143.048 83.8099C144.925 84.067 146.783 84.7038 148.668 84.5164C147.591 84.1987 146.496 83.9447 145.39 83.7557L143.544 83.4032C143.049 83.2995 142.549 83.2222 142.046 83.1716C140.993 83.0847 140.196 83.3629 139.161 83.0727Z" fill="#3F3D56"/>
<path d="M140.806 77.3506C140.669 77.3392 140.5 77.3294 140.43 77.4466C140.362 77.5587 140.439 77.7067 140.403 77.8324C140.354 78.004 140.129 78.0479 139.952 78.0245C139.775 78.0011 139.583 77.9452 139.426 78.0306C139.347 78.0849 139.287 78.1636 139.256 78.2549C139.225 78.3461 139.224 78.4449 139.254 78.5366C139.318 78.7185 139.422 78.8839 139.558 79.0208C139.79 79.3133 140.054 79.5785 140.346 79.8114C140.911 80.2283 141.676 80.4291 142.031 81.0342C142.081 81.1515 142.159 81.2553 142.256 81.3371C142.427 81.4453 142.65 81.363 142.834 81.279L143.478 80.9846C143.594 80.9428 143.698 80.8723 143.779 80.7797C143.926 80.58 143.836 80.296 143.712 80.0808C143.589 79.8656 143.431 79.6429 143.457 79.3962C143.504 78.9563 144.07 78.788 144.303 78.4117C144.537 78.0323 144.384 77.5435 144.411 77.0983C144.443 76.5777 144.77 75.9006 144.244 75.5116C143.797 75.181 143.369 75.4865 143.048 75.8514C142.371 76.621 142.05 77.4545 140.806 77.3506Z" fill="#3F3D56"/>
<path d="M144.717 69.5721C144.937 69.9933 145.395 70.2447 145.635 70.6549C145.895 71.0995 145.866 71.674 146.148 72.105C146.437 72.5472 147.02 72.7819 147.182 73.2848C147.359 73.8339 146.957 74.5012 147.278 74.981C147.337 75.0594 147.413 75.1245 147.499 75.1723C147.585 75.22 147.681 75.2494 147.779 75.2584C147.877 75.2674 147.976 75.2559 148.069 75.2247C148.163 75.1935 148.249 75.1431 148.322 75.0769C148.457 74.9298 148.529 74.7357 148.524 74.5361C148.518 74.3364 148.434 74.1469 148.29 74.0081C148.101 73.8351 147.828 73.7603 147.67 73.5582C147.587 73.4416 147.532 73.3078 147.509 73.1668C147.423 72.7602 147.436 72.3388 147.549 71.9388C147.592 71.8372 147.602 71.7253 147.58 71.6175C147.509 71.4102 147.228 71.3955 147.031 71.2993C146.584 71.0809 146.595 70.4494 146.673 69.9576C146.621 70.285 145.454 69.7281 145.332 69.5426C145.09 69.1742 145.222 68.4635 145.174 68.0564C144.65 68.3088 144.448 69.0571 144.717 69.5721Z" fill="#3F3D56"/>
<path d="M132.968 76.053C132.752 75.812 132.428 75.5599 132.14 75.7053C131.919 75.8161 131.859 76.1208 131.945 76.3517C132.05 76.576 132.212 76.769 132.415 76.9115C133.016 77.4075 133.664 77.8552 134.188 78.4318C135.127 79.4636 135.625 80.8559 136.646 81.8065C136.851 82.0269 137.123 82.174 137.42 82.2253C137.717 82.253 138.051 82.0625 138.086 81.7657C138.114 81.5212 137.943 81.3024 137.777 81.1212C137.38 80.6897 136.946 80.2926 136.571 79.8417C136.398 79.6686 136.29 79.4416 136.263 79.1982C136.261 78.9555 136.483 78.7014 136.718 78.7615C136.432 78.6884 136.22 78.2119 135.8 78.1223C135.449 78.0474 135.364 78.2646 134.947 78.0856C134.15 77.744 133.525 76.6773 132.968 76.053Z" fill="#3F3D56"/>
<path d="M151.68 52.589C151.451 52.5211 151.227 52.4408 151.007 52.3486C150.416 52.1711 149.634 52.6058 149.712 53.218C149.765 53.6249 150.143 53.8991 150.352 54.252C150.663 54.7753 150.58 55.4391 150.417 56.0251C150.377 56.2066 150.301 56.3781 150.193 56.5296C150.043 56.6895 149.863 56.8189 149.663 56.9107C148.865 57.3585 148.161 57.9567 147.59 58.6724C147.528 58.7385 147.484 58.82 147.465 58.9084C147.436 59.1152 147.644 59.2657 147.762 59.4382C148.023 59.8212 147.834 60.3366 147.86 60.7993C147.856 60.8648 147.869 60.9301 147.897 60.9892C147.925 61.0483 147.968 61.0992 148.022 61.137C148.179 61.2169 148.366 61.0811 148.451 60.9267C148.734 60.4141 148.521 59.5913 149.051 59.3442C149.152 59.2974 149.274 59.2777 149.341 59.1895C149.447 59.0496 149.344 58.8424 149.398 58.6752C149.479 58.4241 149.822 58.4128 150.086 58.424C150.54 58.4429 150.994 58.3825 151.427 58.2454C151.597 58.205 151.751 58.1156 151.871 57.9884C152.03 57.7903 152.015 57.5088 151.984 57.257C151.825 56.0019 151.427 54.7888 150.813 53.6832C151.279 53.7428 151.786 53.7944 152.188 53.5514C152.414 53.4153 152.684 53.0084 152.572 52.7315C152.395 52.2935 152.076 52.6622 151.68 52.589Z" fill="#3F3D56"/>
<path d="M91.9078 59.4918C91.9636 59.791 92.0184 60.1061 91.9204 60.3943C91.8223 60.6825 91.5138 60.9233 91.2224 60.835C90.9964 60.7664 90.8658 60.5391 90.7052 60.3658C89.8124 59.4019 87.7981 59.96 87.2466 58.7675C87.0215 58.2809 87.1745 57.6978 87.0209 57.1841C86.9241 56.8872 86.7314 56.6309 86.473 56.4554C86.2147 56.2799 85.9054 56.1951 85.5937 56.2145C85.3094 56.2556 85.0326 56.3382 84.7723 56.4597C83.0285 57.1581 81.1979 57.6159 79.3306 57.8207C78.9758 57.8423 78.6248 57.9062 78.285 58.011C77.5183 58.2889 76.9945 58.9997 76.6217 59.7251C76.2488 60.4504 75.9736 61.2356 75.4738 61.88C74.9485 62.5573 74.2124 63.0315 73.5257 63.5445C73.2612 63.715 73.041 63.9458 72.8831 64.218C72.7343 64.5237 72.7426 64.8791 72.7542 65.2189L72.8945 69.3451C72.9126 69.8759 72.9353 70.4256 73.1728 70.9005C73.4694 71.4936 74.0554 71.8821 74.4619 72.406C74.8768 72.9445 75.0929 73.6097 75.0737 74.2891C75.065 74.5623 75.0379 74.8854 75.2506 75.0569C75.38 75.1408 75.5314 75.1844 75.6857 75.1821L81.2673 75.6389C82.2492 75.7192 83.3373 75.8514 83.9783 76.5994C84.2809 76.9525 84.5239 77.4602 84.9873 77.498C85.186 77.5143 85.3795 77.4327 85.5783 77.4169C86.0798 77.3772 86.5205 77.7579 86.7986 78.1772C87.2194 78.8163 87.4105 79.5796 87.3403 80.3416C87.2947 80.8199 87.1464 81.285 87.1145 81.7644C86.9928 83.5886 88.5393 85.1736 88.5692 87.0016C88.5869 88.0769 88.0764 89.0816 87.5788 90.035C88.382 91.2517 87.7242 92.8721 88.044 94.2945C88.3474 95.6441 89.4727 96.7006 89.753 98.0551C89.8814 98.6752 89.8888 99.4383 90.4356 99.7577C90.6756 99.8747 90.9416 99.9279 91.208 99.9124C92.8153 99.9314 94.4042 99.5697 95.8448 98.8567C96.521 98.5212 97.2217 98.0203 97.3398 97.2748C97.435 96.6736 97.1301 96.0011 97.4404 95.4774C97.8061 94.8602 98.7429 94.9092 99.281 94.4346C100.154 93.6648 99.4732 92.1966 99.8269 91.0877C100.145 90.091 101.239 89.5615 101.782 88.667C101.995 88.2823 102.148 87.8671 102.236 87.4359C102.484 86.4054 102.639 85.3545 102.698 84.2961C102.712 83.653 102.76 83.0111 102.84 82.3729C103.425 78.7394 107.017 76.3064 108.183 72.8158C108.295 72.4824 108.347 72.0384 108.05 71.8498C107.874 71.7659 107.675 71.745 107.485 71.7907L104.912 72.1151C104.593 72.1554 104.254 72.193 103.961 72.0603C103.667 71.9275 103.457 71.5563 103.612 71.2743C104.049 70.4827 103.151 69.4824 102.751 68.6711C101.676 66.4868 100.395 64.4096 98.926 62.4677C98.832 62.3678 98.7731 62.24 98.7583 62.1036L99.4886 62.1279C99.2421 61.2434 98.8353 60.2754 97.9759 59.9519C97.4917 59.7695 96.9554 59.8326 96.4388 59.8608C94.9589 59.9416 93.3724 59.7182 91.9078 59.4918Z" fill="#3F3D56"/>
<path d="M96.4402 39.5586C96.8274 39.9698 97.2613 40.4058 97.8216 40.4775C98.8112 40.6041 99.5228 39.5808 99.9758 38.6919C99.9925 38.9185 100.097 39.1296 100.267 39.2804C100.437 39.4311 100.659 39.5096 100.886 39.4991C101.131 39.458 101.364 39.3668 101.571 39.2313C103.532 38.1598 105.728 37.5921 107.962 37.5791C107.941 37.4099 107.983 37.2387 108.08 37.0985C108.178 36.9584 108.323 36.8593 108.489 36.8203C108.944 36.7303 109.353 37.123 109.572 37.531C109.791 37.939 109.928 38.4119 110.276 38.7173C110.624 39.0227 111.298 39.0094 111.436 38.5672C111.568 38.1426 111.126 37.7805 110.758 37.5302C110.391 37.2799 110.003 36.8166 110.251 36.4472C112.128 36.0317 114.017 35.6145 115.938 35.5319C116.265 35.5433 116.591 35.4872 116.896 35.367C117.189 35.2232 117.421 34.8969 117.343 34.5802C116.923 34.6787 116.484 34.6502 116.081 34.4982C115.678 34.3462 115.33 34.0777 115.08 33.7268C117.746 33.5069 120.581 33.3194 122.943 34.5736C123.227 35.1822 121.782 35.6885 122.168 36.2374C122.292 36.4125 122.539 36.433 122.753 36.437C124.394 36.4674 126.046 36.4973 127.669 36.2495C128.262 36.1589 128.861 36.0311 129.456 36.1045C130.448 36.2268 131.297 36.8886 132.272 37.1044C132.67 37.1922 133.115 37.1952 133.45 36.9642C133.785 36.7332 133.928 36.2072 133.654 35.9069C134.573 35.0064 136.098 35.2296 137.31 35.6607C138.522 36.0918 139.67 36.787 140.953 36.8831C141.873 36.952 142.806 36.7046 143.715 36.8619C144.286 36.9607 144.818 37.2148 145.376 37.371C146.432 37.6662 147.549 37.6039 148.645 37.6181C151.442 37.6558 154.209 38.2056 156.808 39.2402C157.146 39.3503 157.456 39.5333 157.716 39.7764C157.958 40.0354 158.081 40.4378 157.918 40.7527L155.233 40.3602C155.486 40.8584 156.14 40.9433 156.672 41.1151C157.204 41.287 157.755 41.8741 157.435 42.3325C156.859 42.1491 156.337 42.725 156.046 43.2549C155.755 43.7849 155.401 44.4195 154.797 44.4518C154.256 44.4807 153.603 44.0204 153.25 44.4314C153.737 45.0455 154.154 45.7119 154.493 46.4184C154.841 47.1436 155.089 48.0575 154.619 48.71C154.545 48.8265 154.432 48.9135 154.301 48.9562C153.917 49.0535 153.667 48.5834 153.392 48.2985C153.044 47.9394 152.519 47.8377 152.049 47.6693C151.579 47.501 151.083 47.1697 151.046 46.6715C151.024 46.3616 151.187 46.0735 151.308 45.787C151.51 45.3042 151.599 44.7812 151.567 44.2586C151.54 43.8381 151.422 43.4008 151.12 43.107C150.818 42.8132 150.297 42.72 149.973 42.9891C149.822 43.1146 149.701 43.3154 149.504 43.323C149.157 43.3362 148.891 42.7312 148.611 42.9377C148.644 43.1578 148.598 43.3824 148.482 43.5722C147.649 44.2969 146.369 43.9903 145.295 44.2463C144.784 44.3925 144.295 44.6061 143.841 44.8814C143.671 44.9541 143.526 45.0755 143.425 45.2303C143.291 45.4909 143.439 45.8246 143.675 45.9978C143.926 46.1516 144.207 46.2477 144.5 46.2793C145.809 46.5273 147.138 46.9113 148.172 47.7524C149.206 48.5936 149.884 49.9841 149.557 51.2761L146.974 48.8084C147.072 49.8446 147.128 50.8836 147.141 51.9254C147.158 52.1288 147.13 52.3334 147.059 52.5249C146.875 52.9316 146.376 53.0684 145.939 53.1582C145.817 53.1813 145.702 53.2299 145.6 53.3007C145.499 53.3716 145.414 53.4631 145.35 53.5693C145.286 53.6755 145.246 53.7939 145.231 53.9169C145.217 54.0398 145.228 54.1644 145.265 54.2826C145.421 54.7889 145.808 55.1838 146.163 55.5771C146.517 55.9705 146.866 56.4176 146.913 56.9453C146.959 57.4729 146.561 58.0677 146.033 58.031C145.632 58.0032 145.335 57.6446 145.164 57.2812C144.993 56.9178 144.892 56.513 144.635 56.2043C143.858 55.2698 142.113 55.6701 141.416 54.6739C141.239 54.8751 141.116 55.1184 141.059 55.3806C141.002 55.6428 141.013 55.9152 141.091 56.172C141.415 55.9693 141.858 56.1576 142.101 56.4522C142.345 56.7467 142.459 57.1244 142.651 57.4552C142.908 57.9017 143.319 58.2974 143.355 58.8117C143.345 59.0062 143.348 59.2011 143.365 59.3951C143.428 59.7067 143.692 59.9305 143.874 60.1909C144.299 60.797 144.278 61.6296 144.004 62.3172C143.731 63.0049 143.239 63.5795 142.751 64.1365C141.9 65.1096 141.031 66.0769 140.022 66.8849C139.734 67.1155 139.427 67.3422 139.248 67.6645C139.068 67.9869 139.059 68.4394 139.335 68.6846C139.137 68.6944 138.784 68.7914 138.587 68.8013C138.517 68.0102 138.502 67.2154 138.541 66.4222C137.763 66.0486 136.925 67.0493 137.026 67.9067C137.126 68.7641 137.746 69.4521 138.188 70.1939C138.511 70.7364 138.751 71.3689 138.643 71.9909C138.535 72.6129 137.98 73.1867 137.351 73.1319C136.351 73.0446 135.932 71.6085 134.942 71.4442C134.854 71.4237 134.763 71.4328 134.681 71.4701C134.534 71.5508 134.508 71.7475 134.5 71.9151C134.46 72.7373 134.425 73.5922 134.745 74.3503C135.215 75.4594 136.428 76.3908 136.174 77.568C134.803 76.9308 134.09 75.3935 133.767 73.9169C133.443 72.4403 133.389 70.8901 132.809 69.4942C132.368 70.0587 131.443 69.592 131.04 68.9997C130.659 68.4382 130.424 67.7887 130.054 67.2197C129.683 66.6506 129.116 66.141 128.438 66.1097C127.727 66.0769 127.111 66.5648 126.568 67.0259C126.122 67.405 125.665 67.799 125.404 68.323C125.025 69.0856 125.124 69.9845 125.105 70.836C125.086 71.7566 124.891 72.7278 124.263 73.4017C123.636 74.0756 122.478 74.3104 121.786 73.703C121.424 73.3859 121.25 72.9122 121.094 72.4574C120.343 70.2654 119.717 68.0323 119.22 65.7691C119.104 66.2857 118.65 66.9515 118.217 66.6472C118.12 66.5654 118.041 66.4639 117.986 66.3494C117.178 64.9795 115.681 64.1578 114.168 63.6651C112.656 63.1724 111.065 62.9426 109.569 62.4011C108.731 62.0975 107.931 61.6988 107.183 61.2127C106.993 61.4925 106.882 61.8187 106.862 62.1566C106.841 62.4945 106.913 62.8315 107.069 63.1321C107.4 63.7195 108.151 64.0594 108.794 63.8541C109.126 63.748 109.406 63.5174 109.736 63.4035C110.065 63.2897 110.508 63.3456 110.652 63.6631C110.79 63.9669 110.581 64.3345 110.685 64.6518C110.842 65.135 111.571 65.1723 111.826 65.612C112.015 65.9392 111.859 66.3737 111.589 66.6377C111.318 66.9017 110.957 67.0465 110.626 67.2303C109.554 67.8266 108.791 68.8445 107.854 69.6365C106.917 70.4285 105.595 71.0067 104.478 70.4987C104.744 69.1506 103.138 68.1608 102.843 66.8188C102.746 66.3771 102.796 65.9079 102.657 65.4774C102.456 64.8542 101.903 64.4257 101.45 63.9534C100.899 63.3743 100.471 62.6909 100.189 61.9435C99.9073 61.1961 99.7781 60.3998 99.8091 59.6017C99.8336 59.0471 99.9355 58.4834 99.8091 57.9428C99.6827 57.4022 99.2352 56.8789 98.6805 56.9034C97.4138 56.9594 95.8179 57.0536 95.1533 55.9737C94.9161 55.5883 94.8128 55.0239 95.1558 54.7286C95.3977 54.5203 95.7548 54.5399 96.0726 54.5711L98.9268 54.8519C99.5944 54.9176 100.316 54.9718 100.889 54.6228C101.462 54.2738 101.71 53.3474 101.179 52.9368C100.792 52.6368 100.098 52.6531 99.9848 52.1761C99.891 51.7788 100.331 51.3281 100.093 50.9961C99.923 50.758 99.5401 50.8241 99.3081 51.0025C99.0761 51.181 98.9078 51.442 98.6482 51.5771C98.1928 51.8141 97.6486 51.5885 97.1586 51.4352C96.6686 51.2819 96.0117 51.2689 95.774 51.724C95.5082 52.233 96.0098 52.8999 95.746 53.4099C95.3972 54.0842 94.2161 53.7004 93.7263 54.2804C93.1642 54.9459 94.1087 55.9384 93.9192 56.7887C93.6772 56.9085 93.4083 56.9635 93.1387 56.9484C92.869 56.9332 92.608 56.8484 92.3809 56.7022C92.1576 56.5503 91.9796 56.3408 91.8659 56.0958C91.7522 55.8508 91.7071 55.5796 91.7352 55.311C91.7821 54.9285 91.9815 54.5381 91.8479 54.1766C91.7399 53.8844 91.4465 53.7104 91.1738 53.5597L88.4001 52.027C88.1426 52.5047 88.4682 53.097 88.8753 53.4558C89.2825 53.8146 89.7925 54.0848 90.0599 54.557C90.2291 54.8842 90.2671 55.2636 90.166 55.6177C90.0649 55.9719 89.8324 56.2742 89.516 56.4627C89.4764 56.4901 89.4312 56.5085 89.3838 56.5168C89.3363 56.5251 89.2876 56.523 89.2411 56.5107C89.1968 56.4847 89.1582 56.4501 89.1276 56.4089C89.097 56.3677 89.0749 56.3208 89.0628 56.2709C88.5734 55.0185 87.8386 53.7837 86.6639 53.1295C85.4892 52.4753 83.8012 52.6098 83.0309 53.7119C82.848 53.9736 82.7252 54.272 82.5658 54.5488C81.7189 56.0191 79.9035 56.7154 78.2074 56.6699C78.0414 56.6791 77.8764 56.6403 77.7319 56.5582C77.4578 56.3688 77.4701 55.9671 77.5121 55.6366L77.6901 54.2341C77.7259 53.9524 77.7777 53.6411 78.0006 53.4653C78.3148 53.2175 78.7681 53.3739 79.1683 53.3681C79.4714 53.3539 79.7629 53.2469 80.0032 53.0614C80.2434 52.876 80.4209 52.6212 80.5114 52.3315C80.5923 52.039 80.5918 51.73 80.5099 51.4377C80.4281 51.1455 80.2681 50.8811 80.0471 50.673C79.8637 50.5008 79.6176 50.2844 79.7144 50.0522C79.7531 49.9879 79.8053 49.9329 79.8675 49.8911C79.9297 49.8492 80.0003 49.8215 80.0744 49.8098C80.7932 49.6011 81.5527 49.5464 82.2595 49.3001C82.9663 49.0538 83.6517 48.5499 83.8191 47.8204C83.8704 47.5968 83.8937 47.326 84.0945 47.2151C84.1953 47.1726 84.3035 47.1505 84.4129 47.1501C84.7961 47.0956 85.145 46.8996 85.3909 46.6007C85.6368 46.3018 85.762 45.9217 85.7416 45.5352C86.0804 45.2985 86.5549 45.4726 86.8826 45.7244C87.2103 45.9761 87.4997 46.3087 87.8984 46.4172C88.6415 46.6195 89.3596 45.9615 90.1297 45.9585C90.4535 45.9572 90.7888 46.0717 91.0935 45.9619C91.4023 45.8506 91.5868 45.5432 91.8238 45.316C92.0609 45.0889 92.4768 44.9503 92.6957 45.195L92.5093 43.8144C92.8847 43.9092 93.276 43.9226 93.657 43.8537C94.038 43.7848 94.3999 43.6352 94.7183 43.415L92.3093 42.601C92.2254 42.5801 92.148 42.5387 92.084 42.4806C91.9088 42.292 92.0828 41.9981 92.2252 41.7837C92.5659 41.2708 92.6231 40.426 92.0628 40.1707C91.6804 39.9964 91.2415 40.2056 90.8744 40.4103L89.1161 41.3907C89.0602 41.7249 89.4689 41.9143 89.7222 42.1394C89.8754 42.2757 89.9839 42.455 90.0333 42.654C90.0827 42.853 90.0708 43.0622 89.9991 43.2543C89.9275 43.4464 89.7994 43.6123 89.6317 43.7302C89.464 43.8482 89.2645 43.9126 89.0595 43.9151C89.1753 44.0657 89.2557 44.2403 89.2949 44.4261C89.334 44.612 89.3309 44.8042 89.2857 44.9887L88.1026 45.0738C87.9699 45.1005 87.8319 45.0735 87.7189 44.9989C87.5924 44.8865 87.6096 44.6896 87.5802 44.5229C87.5095 44.1206 87.1156 43.8387 86.7136 43.7664C86.3116 43.6941 85.9003 43.7868 85.5023 43.8783C85.3333 43.9391 85.1477 43.9348 84.9816 43.8663C84.8864 43.8044 84.8141 43.7131 84.7756 43.6063C84.6011 43.1831 84.7642 42.6858 85.0445 42.3239C85.3248 41.9621 85.7085 41.6975 86.0531 41.3963C86.8772 40.6732 87.4826 39.7341 87.8011 38.6851C88.4523 38.4122 89.1265 38.0415 89.7778 37.7686C90.7818 37.2603 91.9078 37.0421 93.029 37.1387L95.2346 37.1808C95.8875 37.1933 96.5582 37.2093 97.162 37.4582C97.7658 37.7072 98.2963 38.2456 98.338 38.8973C98.3506 38.9711 98.3442 39.0469 98.3195 39.1175C98.2947 39.1882 98.2525 39.2514 98.1966 39.3012C98.1113 39.3478 98.0147 39.3695 97.9178 39.3641C97.3088 39.3855 97.0491 39.5372 96.4402 39.5586Z" fill="#3F3D56"/>
<path d="M78.8605 46.4709C78.9467 46.3893 79.0087 46.2856 79.0397 46.1711C79.0708 46.0566 79.0697 45.9357 79.0365 45.8218C78.8268 45.7409 78.5987 45.7201 78.3779 45.7618C78.157 45.8035 77.9522 45.906 77.7865 46.0578C77.6558 46.19 77.5432 46.3389 77.4516 46.5005C77.1618 46.9734 76.9055 47.5382 77.0734 48.0667C77.0871 48.1243 77.1122 48.1787 77.1471 48.2265C77.1821 48.2743 77.2263 48.3147 77.277 48.3452C77.3523 48.3754 77.4335 48.3881 77.5144 48.3824C77.8336 48.3819 78.1526 48.3623 78.4695 48.3236C78.6641 48.2998 78.8902 48.2448 78.9654 48.0638C79.0642 47.8257 78.8249 47.5564 78.8947 47.3083C78.9406 47.1973 79.0102 47.0977 79.0985 47.0164C79.1423 46.9755 79.176 46.9249 79.1969 46.8687C79.2177 46.8124 79.2252 46.7521 79.2187 46.6925C79.1905 46.5761 79.0123 46.51 78.9481 46.6112" fill="#3F3D56"/>
<path d="M80.516 44.3245C80.2324 44.2594 79.9401 44.241 79.6505 44.2701C79.5865 44.2682 79.523 44.2827 79.4661 44.312C79.4109 44.3527 79.3709 44.4106 79.3524 44.4766C79.2913 44.6729 79.3063 44.885 79.3945 45.0707C79.4828 45.2564 79.6377 45.4021 79.8285 45.4786C79.9325 45.5025 80.0321 45.5426 80.1237 45.5973C80.3685 45.7872 80.2124 46.1754 80.2588 46.4818C80.3108 46.8258 80.6438 47.1145 80.5827 47.457C80.5346 47.7269 80.2464 47.9405 80.2928 48.2107C80.3414 48.4936 80.7005 48.5787 80.9866 48.6013C81.1525 48.6304 81.3232 48.6108 81.4782 48.545C81.6336 48.4387 81.744 48.2787 81.7883 48.0958C81.9055 47.7471 81.9547 47.3791 81.9334 47.0118C81.9321 46.8448 81.8902 46.6806 81.8111 46.5334C81.725 46.4168 81.6294 46.3074 81.5255 46.2063C80.9772 45.5685 81.5545 44.6172 80.516 44.3245Z" fill="#3F3D56"/>
<path opacity="0.8" d="M152.618 94.2874C152.618 94.2874 110.623 70.1814 92.5436 74.7489C92.5436 74.7489 54.2278 78.8723 49.7872 87.9437C49.7872 87.9437 37.6073 49.8817 33.1667 48.6129" stroke="#22A4EF" stroke-width="0.30743" stroke-miterlimit="10"/>
<path opacity="0.8" d="M49.7872 87.9437C56.8287 69.1664 120.265 48.3591 120.265 48.3591C111.257 50.6429 92.5436 74.7488 92.5436 74.7488C92.5436 74.7488 52.959 45.9485 33.1667 48.6129C33.1667 48.6129 120.329 51.4675 152.618 94.2874" stroke="#22A4EF" stroke-width="0.30743" stroke-miterlimit="10"/>
<path d="M33.1666 50.4525C34.1826 50.4525 35.0062 49.6289 35.0062 48.6129C35.0062 47.5968 34.1826 46.7732 33.1666 46.7732C32.1506 46.7732 31.3269 47.5968 31.3269 48.6129C31.3269 49.6289 32.1506 50.4525 33.1666 50.4525Z" fill="#22A4EF"/>
<path d="M49.7869 89.7833C50.803 89.7833 51.6266 88.9597 51.6266 87.9437C51.6266 86.9277 50.803 86.104 49.7869 86.104C48.7709 86.104 47.9473 86.9277 47.9473 87.9437C47.9473 88.9597 48.7709 89.7833 49.7869 89.7833Z" fill="#22A4EF"/>
<path d="M120.265 50.1987C121.281 50.1987 122.105 49.3751 122.105 48.3591C122.105 47.3431 121.281 46.5194 120.265 46.5194C119.249 46.5194 118.426 47.3431 118.426 48.3591C118.426 49.3751 119.249 50.1987 120.265 50.1987Z" fill="#22A4EF"/>
<path d="M152.618 96.1271C153.634 96.1271 154.458 95.3034 154.458 94.2874C154.458 93.2714 153.634 92.4478 152.618 92.4478C151.602 92.4478 150.778 93.2714 150.778 94.2874C150.778 95.3034 151.602 96.1271 152.618 96.1271Z" fill="#22A4EF"/>
<path d="M92.5433 76.5885C93.5593 76.5885 94.383 75.7649 94.383 74.7488C94.383 73.7328 93.5593 72.9092 92.5433 72.9092C91.5273 72.9092 90.7036 73.7328 90.7036 74.7488C90.7036 75.7649 91.5273 76.5885 92.5433 76.5885Z" fill="#22A4EF"/>
</g>
<defs>
<clipPath id="clip0">
<rect width="180.862" height="134.344" fill="white" transform="translate(0.260254 0.861816)"/>
</clipPath>
</defs>
</svg>
