<svg width="35" height="34" viewBox="0 0 35 34" fill="none" xmlns="http://www.w3.org/2000/svg">
<path d="M17.6 33.6C26.8784 33.6 34.4 26.0784 34.4 16.8C34.4 7.52162 26.8784 0 17.6 0C8.32162 0 0.800003 7.52162 0.800003 16.8C0.800003 26.0784 8.32162 33.6 17.6 33.6Z" fill="#FF6A22"/>
<path d="M5.80336 20.6138C5.79528 20.6683 5.75635 20.7072 5.70574 20.7072C5.65512 20.7072 5.61619 20.6683 5.60841 20.6126L5.43082 19.2835L5.60841 17.9323C5.61589 17.876 5.65482 17.8371 5.70574 17.8371C5.75605 17.8371 5.79498 17.876 5.80336 17.9323L6.01479 19.285L5.80336 20.6138ZM6.70808 21.4212C6.6997 21.479 6.65777 21.5194 6.60596 21.5194C6.55565 21.5194 6.51163 21.479 6.50474 21.4212L6.26576 19.2832L6.50474 17.0974C6.51192 17.0411 6.55565 16.9991 6.60596 16.9991C6.65777 16.9991 6.6997 17.0402 6.70808 17.0974L6.98001 19.2832L6.70808 21.4212ZM7.68437 21.7833C7.67748 21.8527 7.62538 21.9022 7.56279 21.9022C7.4981 21.9022 7.44689 21.8527 7.4406 21.7833L7.2139 19.285L7.4406 16.6919C7.44629 16.6215 7.4981 16.5712 7.56279 16.5712C7.62538 16.5712 7.67719 16.6215 7.68437 16.6919L7.94162 19.285L7.68437 21.7833ZM8.67025 21.8626C8.66306 21.9423 8.60077 22.0025 8.5268 22.0025C8.45103 22.0025 8.38904 21.9423 8.38275 21.8626L8.16863 19.285L8.38275 16.6206C8.38904 16.5403 8.45103 16.4801 8.5268 16.4801C8.60077 16.4801 8.66306 16.5403 8.67025 16.6206L8.91312 19.285L8.67025 21.8626ZM9.66151 21.8833C9.65642 21.9758 9.58425 22.0444 9.4989 22.0444C9.41085 22.0444 9.34107 21.9758 9.33508 21.8833L9.13264 19.2847L9.33508 16.8129C9.34137 16.7209 9.41085 16.6523 9.4989 16.6523C9.58575 16.6523 9.65642 16.7209 9.66151 16.8117L9.89091 19.2847L9.66151 21.8833ZM10.6624 21.8848V21.8833C10.6564 21.9857 10.5752 22.0666 10.4776 22.0666C10.3797 22.0666 10.2985 21.9854 10.2928 21.8848L10.1038 19.2862L10.2928 15.2646C10.2985 15.1622 10.3797 15.0813 10.4776 15.0813C10.5755 15.0813 10.6567 15.1625 10.6624 15.2631L10.8765 19.2862L10.6624 21.8848ZM11.6557 21.8833V21.8818C11.6497 21.995 11.5602 22.0851 11.4494 22.0851C11.3407 22.0851 11.2508 21.995 11.2454 21.8818L11.067 19.3L11.2454 14.3584C11.2508 14.2452 11.3407 14.1556 11.4494 14.1556C11.5602 14.1556 11.6497 14.2452 11.6557 14.3584L11.8567 19.3L11.6557 21.8833ZM12.6862 21.8435V21.842C12.6817 21.968 12.5826 22.066 12.4607 22.066C12.3388 22.066 12.2397 21.968 12.2352 21.8435L12.0696 19.288C12.0696 19.288 12.2352 13.9346 12.2352 13.9331C12.24 13.8085 12.3388 13.7088 12.4607 13.7088C12.5826 13.7088 12.682 13.8085 12.6862 13.9331L12.8734 19.288L12.6862 21.8435ZM13.7107 21.8264C13.7059 21.9636 13.5984 22.0711 13.4646 22.0711C13.3304 22.0711 13.2229 21.9636 13.2181 21.8276L13.0636 19.2874L13.2181 13.7537C13.2229 13.616 13.3304 13.5087 13.4646 13.5087C13.5984 13.5087 13.7062 13.616 13.7107 13.7537L13.8823 19.2874L13.7107 21.8264ZM14.7418 21.8039V21.8024C14.737 21.9507 14.6211 22.0684 14.4741 22.0684C14.3291 22.0684 14.2109 21.9507 14.2082 21.8039L14.0662 19.288L14.2067 13.8957C14.2109 13.7453 14.3288 13.6291 14.4741 13.6291C14.6211 13.6291 14.737 13.7453 14.7418 13.8957L14.9011 19.288L14.7418 21.8039ZM15.7813 21.789V21.7869C15.7789 21.9483 15.6513 22.0726 15.4938 22.0726C15.3351 22.0726 15.2093 21.9483 15.2045 21.789L15.0763 19.2877L15.2048 14.0927C15.2096 13.9316 15.3354 13.8055 15.4941 13.8055C15.6516 13.8055 15.7792 13.9316 15.7816 14.0927L15.9268 19.2892L15.7813 21.789ZM16.8417 21.5251L16.8289 21.7701C16.8274 21.8554 16.7914 21.9327 16.7366 21.9884C16.6803 22.0432 16.6031 22.0783 16.5213 22.0783C16.4261 22.0783 16.3422 22.0345 16.2847 21.9656C16.2422 21.9156 16.2158 21.8509 16.2128 21.783C16.2119 21.78 16.2119 21.7761 16.2119 21.7719C16.2119 21.7719 16.0937 19.2904 16.0937 19.2862L16.2105 13.1641L16.2119 13.1054C16.2128 12.9981 16.2697 12.9026 16.3548 12.8478C16.4024 12.8161 16.4587 12.7975 16.5216 12.7975C16.5833 12.7975 16.6417 12.8167 16.6905 12.8505C16.7735 12.9059 16.8277 12.999 16.8292 13.1057L16.9591 19.2892L16.8417 21.5251ZM17.8722 21.738V21.7351C17.8701 21.9159 17.7219 22.0633 17.5428 22.0633C17.3631 22.0633 17.2152 21.9159 17.2134 21.7366L17.1454 20.5297L17.0786 19.2904L17.2134 12.5804V12.5465C17.2137 12.4447 17.2616 12.3537 17.3356 12.2923C17.3922 12.2459 17.465 12.2177 17.5428 12.2177C17.6048 12.2177 17.6623 12.2348 17.7114 12.2635C17.8052 12.3222 17.8707 12.4261 17.8737 12.545L18.0196 19.2901L17.8722 21.738ZM26.7766 22.0699C26.7766 22.0699 18.4862 22.0699 18.4775 22.0699C18.2984 22.0516 18.1567 21.909 18.1538 21.7255V12.2249C18.1567 12.05 18.2169 11.9599 18.4421 11.8733C19.0234 11.6481 19.6817 11.5151 20.3582 11.5151C23.1179 11.5151 25.3792 13.6321 25.6191 16.3289C25.9743 16.1807 26.3666 16.0962 26.7766 16.0962C28.4291 16.0962 29.7689 17.4367 29.7689 19.0904C29.7689 20.7438 28.4291 22.0699 26.7766 22.0699Z" fill="#F1F2F2"/>
</svg>
