<svg width="12" height="12" viewBox="0 0 12 12" fill="none" xmlns="http://www.w3.org/2000/svg">
<circle cx="6" cy="6" r="6" fill="#293D4A"/>
<path d="M6.21297 3.36036C6.80697 3.36036 7.28697 3.52836 7.65297 3.86436C8.01897 4.20036 8.20197 4.65036 8.20197 5.21436C8.20197 5.84436 8.00697 6.31236 7.61697 6.61836C7.22697 6.91836 6.69897 7.06836 6.03297 7.06836L6.00597 7.92336H5.29497L5.25897 6.50136H5.51997C6.11397 6.50136 6.57897 6.41136 6.91497 6.23136C7.25097 6.05136 7.41897 5.71236 7.41897 5.21436C7.41897 4.85436 7.31097 4.56936 7.09497 4.35936C6.87897 4.14936 6.58797 4.04435 6.22197 4.04435C5.84997 4.04435 5.55597 4.14636 5.33997 4.35036C5.12997 4.54836 5.02497 4.82136 5.02497 5.16936H4.25097C4.25097 4.80936 4.33197 4.49436 4.49397 4.22436C4.65597 3.94836 4.88397 3.73536 5.17797 3.58535C5.47797 3.43536 5.82297 3.36036 6.21297 3.36036ZM5.64597 9.76836C5.48997 9.76836 5.35797 9.71436 5.24997 9.60636C5.14197 9.49836 5.08797 9.36636 5.08797 9.21036C5.08797 9.05436 5.14197 8.92236 5.24997 8.81436C5.35797 8.70636 5.48997 8.65236 5.64597 8.65236C5.79597 8.65236 5.92197 8.70636 6.02397 8.81436C6.13197 8.92236 6.18597 9.05436 6.18597 9.21036C6.18597 9.36636 6.13197 9.49836 6.02397 9.60636C5.92197 9.71436 5.79597 9.76836 5.64597 9.76836Z" fill="white"/>
</svg>
