<svg width="21" height="21" fill="none" xmlns="http://www.w3.org/2000/svg">
  <path d="M15.5 7.294h-.833V5.628c0-2.3-1.866-4.167-4.166-4.167a4.168 4.168 0 0 0-4.167 4.167v1.666h-.833c-.917 0-1.667.75-1.667 1.667v8.333c0 .917.75 1.667 1.667 1.667h10c.916 0 1.666-.75 1.666-1.667V8.961c0-.917-.75-1.667-1.666-1.667zM8 5.628c0-1.384 1.117-2.5 2.5-2.5 1.384 0 2.5 1.116 2.5 2.5v1.666H8V5.628zm7.5 11.666h-10V8.961h10v8.333zm-5-2.5c.917 0 1.667-.75 1.667-1.666 0-.917-.75-1.667-1.666-1.667-.917 0-1.667.75-1.667 1.667 0 .916.75 1.666 1.667 1.666z" fill="#C4C4C4"/>
</svg>
