<svg width="208" height="173" fill="none" xmlns="http://www.w3.org/2000/svg">
  <path d="M3.725 136.836c0-3.001.466-5.796 1.397-8.383.932-2.638 2.251-4.915 3.959-6.829 1.759-1.915 3.88-3.415 6.364-4.502 2.483-1.086 5.277-1.63 8.382-1.63 3.829 0 7.45.699 10.866 2.096l-2.018 7.683c-1.087-.465-2.329-.853-3.726-1.164-1.345-.31-2.794-.466-4.346-.466-3.674 0-6.468 1.165-8.382 3.493-1.915 2.277-2.872 5.51-2.872 9.702 0 4.035.906 7.243 2.717 9.623 1.81 2.329 4.863 3.493 9.158 3.493 1.604 0 3.182-.155 4.734-.466 1.552-.31 2.898-.698 4.036-1.164l1.32 7.761c-1.035.518-2.614.983-4.735 1.397a32.77 32.77 0 0 1-6.442.621c-3.466 0-6.493-.517-9.08-1.552-2.536-1.087-4.657-2.561-6.364-4.424-1.656-1.914-2.898-4.165-3.726-6.752-.828-2.639-1.242-5.485-1.242-8.537zm38.86 20.256V98.418l9.39-1.553v20.102c1.035-.362 2.225-.673 3.57-.931a22.537 22.537 0 0 1 4.114-.389c3.26 0 5.95.466 8.071 1.397 2.173.88 3.907 2.148 5.2 3.803 1.294 1.604 2.2 3.545 2.717 5.821.569 2.277.853 4.812.853 7.606v22.818h-9.39v-21.343c0-2.173-.156-4.01-.466-5.511-.259-1.552-.725-2.794-1.397-3.725a5.101 5.101 0 0 0-2.561-2.095c-1.087-.466-2.432-.699-4.036-.699-1.242 0-2.51.129-3.803.388-1.294.259-2.251.492-2.872.699v32.286h-9.39zm59.452-6.597c2.898 0 5.097-.155 6.597-.465v-10.4c-.517-.156-1.267-.311-2.25-.466a21.023 21.023 0 0 0-3.26-.233c-1.035 0-2.096.078-3.182.233a10.28 10.28 0 0 0-2.872.854 5.163 5.163 0 0 0-2.018 1.785c-.517.724-.776 1.655-.776 2.794 0 2.225.699 3.777 2.096 4.656 1.397.828 3.285 1.242 5.665 1.242zm-.776-35.003c3.105 0 5.718.388 7.839 1.164 2.121.777 3.803 1.863 5.045 3.26 1.293 1.397 2.199 3.105 2.716 5.122.569 1.967.854 4.14.854 6.52v24.603c-1.449.31-3.648.673-6.597 1.086-2.898.466-6.183.699-9.857.699-2.432 0-4.657-.233-6.674-.699-2.018-.465-3.752-1.215-5.2-2.25-1.397-1.035-2.51-2.38-3.338-4.036-.776-1.656-1.164-3.7-1.164-6.131 0-2.329.44-4.295 1.32-5.899a11.162 11.162 0 0 1 3.725-3.881c1.552-1.034 3.337-1.759 5.355-2.173a29.302 29.302 0 0 1 6.442-.698c1.035 0 2.121.077 3.26.233 1.138.103 2.354.31 3.647.621v-1.553c0-1.086-.129-2.121-.388-3.104a5.9 5.9 0 0 0-1.397-2.561c-.621-.777-1.474-1.372-2.561-1.785-1.035-.414-2.354-.621-3.958-.621-2.173 0-4.165.155-5.976.465-1.811.311-3.286.673-4.424 1.087l-1.164-7.606c1.19-.414 2.923-.828 5.2-1.242 2.276-.414 4.708-.621 7.295-.621zm37.345 16.842c1.19-1.242 2.458-2.561 3.803-3.958a4080.72 4080.72 0 0 0 3.959-4.269 806.601 806.601 0 0 0 3.647-4.113c1.19-1.346 2.199-2.51 3.027-3.493h11.099a551.355 551.355 0 0 1-8.227 9.003 361.792 361.792 0 0 1-8.615 9.081c1.552 1.293 3.182 2.871 4.89 4.734a79.225 79.225 0 0 1 4.967 5.821 116.984 116.984 0 0 1 4.501 6.209c1.397 2.07 2.561 3.984 3.493 5.743h-10.866a68.06 68.06 0 0 0-3.26-5.045 60.619 60.619 0 0 0-3.88-5.122 74.673 74.673 0 0 0-4.269-4.657c-1.449-1.5-2.872-2.768-4.269-3.803v18.627h-9.391V98.418l9.391-1.553v35.469zm47.637 18.161c2.898 0 5.097-.155 6.597-.465v-10.4c-.517-.156-1.267-.311-2.251-.466a21 21 0 0 0-3.259-.233c-1.035 0-2.096.078-3.182.233-1.035.155-1.992.44-2.872.854a5.167 5.167 0 0 0-2.018 1.785c-.517.724-.776 1.655-.776 2.794 0 2.225.698 3.777 2.096 4.656 1.397.828 3.285 1.242 5.665 1.242zm-.776-35.003c3.105 0 5.717.388 7.839 1.164 2.121.777 3.803 1.863 5.045 3.26 1.293 1.397 2.199 3.105 2.716 5.122.569 1.967.854 4.14.854 6.52v24.603c-1.449.31-3.648.673-6.597 1.086-2.898.466-6.183.699-9.857.699-2.432 0-4.657-.233-6.675-.699-2.017-.465-3.751-1.215-5.2-2.25-1.397-1.035-2.509-2.38-3.337-4.036-.776-1.656-1.164-3.7-1.164-6.131 0-2.329.44-4.295 1.319-5.899a11.162 11.162 0 0 1 3.726-3.881c1.552-1.034 3.337-1.759 5.355-2.173a29.304 29.304 0 0 1 6.442-.698c1.035 0 2.121.077 3.259.233 1.139.103 2.355.31 3.648.621v-1.553c0-1.086-.129-2.121-.388-3.104a5.91 5.91 0 0 0-1.397-2.561c-.621-.777-1.475-1.372-2.561-1.785-1.035-.414-2.354-.621-3.958-.621-2.173 0-4.165.155-5.976.465-1.811.311-3.286.673-4.424 1.087l-1.164-7.606c1.19-.414 2.923-.828 5.2-1.242 2.276-.414 4.708-.621 7.295-.621z" fill="#fff"/>
  <path fill-rule="evenodd" clip-rule="evenodd" d="M103.874 38.795c-4.129-9.718-10.111-15.829-16.803-19.415C89.801 12.28 95.28 5.506 104.602 0c5.718 4.115 12.323 10.94 16.041 19.397-6.679 3.589-12.648 9.696-16.77 19.398zm.584 26.775c15.225 6.246 56.216-7.417 46.066-46.847-17.567-2.863-51.375 2.499-46.066 46.847zm-1.888-21.827c-1.597 6.307-2.254 13.794-1.649 22.65-16.799 3.905-53.057-10.327-43.444-47.67 14.122-2.301 38.739.712 45.093 25.02z" fill="#fff"/>
</svg>
