<svg width="16" height="16" viewBox="0 0 16 16" fill="none" xmlns="http://www.w3.org/2000/svg">
<g clip-path="url(#clip0)">
<path d="M1.20522 2.53882H13.2524C13.915 2.53882 14.4571 3.08094 14.4571 3.74355V5.18922C14.4571 5.85183 13.915 6.39395 13.2524 6.39395H1.20522C0.542609 6.39389 0.000488281 5.85177 0.000488281 5.18919V3.74352C0.000488281 3.08094 0.542609 2.53882 1.20522 2.53882Z" fill="#A86A3F"/>
<path d="M3.84332 3.8278L11.3849 1.82798C11.6379 1.7557 11.9029 1.91232 11.9752 2.16531L13.2281 6.79143C13.3004 7.04443 13.1437 7.30945 12.8907 7.38173L3.07231 9.99595C2.81931 10.0682 2.55429 9.91161 2.48201 9.65862L1.56641 6.26133L3.84332 3.8278Z" fill="#3DB39E"/>
<path d="M11.915 6.64703L10.2887 7.08072C10.1562 7.11687 10.0236 7.04456 9.99956 6.91205C9.96341 6.77954 10.0357 6.647 10.1682 6.62293L11.5657 6.24947L10.8188 3.45454L9.42132 3.82799C9.28881 3.86415 9.15627 3.79184 9.13219 3.65933C9.09604 3.52682 9.16835 3.39428 9.30086 3.37021L10.9272 2.93652C11.0597 2.90037 11.1923 2.97268 11.2163 3.10519L12.0837 6.35791C12.1198 6.49042 12.0476 6.62293 11.915 6.64703ZM5.16862 8.46616L3.54226 8.89985C3.40975 8.936 3.27721 8.86369 3.25314 8.73118L2.38574 5.47846C2.34959 5.34595 2.4219 5.21341 2.55441 5.18934L4.18077 4.75565C4.31328 4.7195 4.44582 4.79181 4.46989 4.92432C4.50605 5.05683 4.43373 5.18937 4.30123 5.21344L2.90376 5.5869L3.65067 8.38183L5.04814 8.00838C5.18065 7.97222 5.31319 8.04453 5.33726 8.17704C5.37341 8.2975 5.30113 8.43001 5.16862 8.46616Z" fill="#78CABB"/>
<path d="M0.0970434 5.51436C2.24142 4.28553 8.02409 0.900266 8.02409 0.900266C8.25299 0.767757 8.55416 0.840037 8.6867 1.06893L11.0961 5.21316C11.2286 5.44205 11.1443 5.73117 10.9154 5.86371L2.09686 10.9235C1.86797 11.056 1.56679 10.9837 1.43425 10.7549C1.43425 10.7549 0.759622 9.38149 0.0849609 8.22494C0.0849915 5.51436 0.0970434 6.40584 0.0970434 5.51436Z" fill="#5ABEAC"/>
<path d="M9.86703 5.08078L8.18044 2.16536C8.10816 2.0449 7.9636 2.00875 7.85516 2.08103L6.39746 2.92432C6.27701 2.9966 6.24085 3.14117 6.31313 3.2496C6.38541 3.37006 6.52997 3.40621 6.63841 3.33393L7.89132 2.6111L9.33699 5.11691L8.08409 5.83975C7.96363 5.91203 7.92747 6.05659 7.99975 6.16503C8.07203 6.28548 8.2166 6.32164 8.32503 6.24936L9.78273 5.40606C9.89113 5.34583 9.93931 5.20127 9.86703 5.08078ZM3.48204 8.49015L2.22913 9.21299L0.78346 6.70715L2.03637 5.98431C2.15682 5.91203 2.19298 5.76747 2.1207 5.65903C2.04842 5.53857 1.90386 5.50242 1.79542 5.5747L0.337724 6.41799C0.217266 6.49027 0.18111 6.63483 0.253391 6.74327L1.93998 9.65869C2.01226 9.77915 2.15682 9.81531 2.26526 9.74303L3.72296 8.89973C3.84341 8.82745 3.87957 8.68289 3.80729 8.57445C3.74706 8.46605 3.6025 8.41784 3.48204 8.49015ZM4.09644 4.23749C3.16881 4.76756 2.85559 5.94818 3.38566 6.87581C3.92778 7.80344 5.09635 8.11667 6.02398 7.5866C6.95161 7.05653 7.26483 5.8759 6.73476 4.94827C6.19264 4.03267 5.02407 3.70742 4.09644 4.23749ZM9.86703 5.08078L8.18044 2.16536C8.10816 2.0449 7.9636 2.00875 7.85516 2.08103L6.39746 2.92432C6.27701 2.9966 6.24085 3.14117 6.31313 3.2496C6.38541 3.37006 6.52997 3.40621 6.63841 3.33393L7.89132 2.6111L9.33699 5.11691L8.08409 5.83975C7.96363 5.91203 7.92747 6.05659 7.99975 6.16503C8.07203 6.28548 8.2166 6.32164 8.32503 6.24936L9.78273 5.40606C9.89113 5.34583 9.93931 5.20127 9.86703 5.08078ZM3.48204 8.49015L2.22913 9.21299L0.78346 6.70715L2.03637 5.98431C2.15682 5.91203 2.19298 5.76747 2.1207 5.65903C2.04842 5.53857 1.90386 5.50242 1.79542 5.5747L0.337724 6.41799C0.217266 6.49027 0.18111 6.63483 0.253391 6.74327L1.93998 9.65869C2.01226 9.77915 2.15682 9.81531 2.26526 9.74303L3.72296 8.89973C3.84341 8.82745 3.87957 8.68289 3.80729 8.57445C3.74706 8.46605 3.6025 8.41784 3.48204 8.49015ZM4.09644 4.23749C3.16881 4.76756 2.85559 5.94818 3.38566 6.87581C3.92778 7.80344 5.09635 8.11667 6.02398 7.5866C6.95161 7.05653 7.26483 5.8759 6.73476 4.94827C6.19264 4.03267 5.02407 3.70742 4.09644 4.23749Z" fill="#8CD2C5"/>
<path d="M13.7343 14.5859H1.20522C0.542609 14.5859 0.000488281 14.0438 0.000488281 13.3812V4.70719H13.7343C14.3969 4.70719 14.939 5.24931 14.939 5.91192V13.3812C14.939 14.0438 14.3969 14.5859 13.7343 14.5859ZM0.964272 4.70719H0.000488281V3.74341C0.000488281 4.27348 0.434172 4.70719 0.964272 4.70719Z" fill="#C47E4D"/>
<path d="M14.9388 11.5744H13.0113C12.0837 11.5744 11.3247 10.8154 11.3247 9.88776C11.3247 8.96013 12.0837 8.20117 13.0113 8.20117H14.9388C15.2039 8.20117 15.4207 8.41801 15.4207 8.68306V11.0925C15.4207 11.3575 15.2039 11.5744 14.9388 11.5744Z" fill="#A86A3F"/>
<path d="M13.0116 8.92383C13.5417 8.92383 13.9754 9.35751 13.9754 9.88761C13.9754 10.4177 13.5417 10.8514 13.0116 10.8514C12.4816 10.8514 12.0479 10.4177 12.0479 9.88761C12.0479 9.35751 12.4816 8.92383 13.0116 8.92383Z" fill="#EFC75E"/>
<path d="M13.2526 10.6105C12.7225 10.6105 12.2888 10.1768 12.2888 9.6467C12.2888 9.44191 12.349 9.24914 12.4575 9.09253C12.2045 9.26119 12.0479 9.55032 12.0479 9.88765C12.0479 10.4177 12.4815 10.8514 13.0116 10.8514C13.3369 10.8514 13.626 10.6828 13.8068 10.4418C13.6501 10.5503 13.4574 10.6105 13.2526 10.6105Z" fill="#D7B354"/>
<path d="M13.7343 14.1041H1.20522C0.542609 14.1041 0.000488281 13.562 0.000488281 12.8994V13.3813C0.000488281 14.0439 0.542609 14.586 1.20522 14.586H13.7343C14.3969 14.586 14.939 14.0439 14.939 13.3813V12.8994C14.939 13.562 14.3969 14.1041 13.7343 14.1041Z" fill="#B27245"/>
<path d="M13.7343 4.70719H0.964272C0.434172 4.70719 0.000488281 4.27348 0.000488281 3.74341V4.2253C0.000488281 4.75537 0.434172 5.18908 0.964272 5.18908H13.7343C14.3969 5.18908 14.939 5.7312 14.939 6.39381V5.91192C14.939 5.24931 14.3969 4.70719 13.7343 4.70719Z" fill="#CA8B5F"/>
</g>
<defs>
<clipPath id="clip0">
<rect width="15.4204" height="15.4204" fill="white"/>
</clipPath>
</defs>
</svg>
