<svg width="162" height="44" viewBox="0 0 162 44" fill="none" xmlns="http://www.w3.org/2000/svg">
<path d="M57.1844 4.71149V14H60.3707C63.1321 14 64.7542 12.2813 64.7542 9.35253C64.7542 6.43015 63.1257 4.71149 60.3707 4.71149H57.1844ZM58.343 5.75428H60.2934C62.3533 5.75428 63.5698 7.09316 63.5698 9.3654C63.5698 11.6312 62.3661 12.9572 60.2934 12.9572H58.343V5.75428ZM69.2089 14.1223C71.185 14.1223 72.408 12.7577 72.408 10.5305C72.408 8.29687 71.185 6.93867 69.2089 6.93867C67.2327 6.93867 66.0097 8.29687 66.0097 10.5305C66.0097 12.7577 67.2327 14.1223 69.2089 14.1223ZM69.2089 13.1246C67.8957 13.1246 67.1555 12.1719 67.1555 10.5305C67.1555 8.88263 67.8957 7.9364 69.2089 7.9364C70.522 7.9364 71.2622 8.88263 71.2622 10.5305C71.2622 12.1719 70.522 13.1246 69.2089 13.1246ZM82.3534 7.06097H81.2398L79.8751 12.6096H79.7721L78.2208 7.06097H77.1587L75.6074 12.6096H75.5045L74.1398 7.06097H73.0198L74.9637 14H76.0838L77.6286 8.63159H77.7316L79.2829 14H80.4094L82.3534 7.06097ZM83.5702 14H84.6774V9.89323C84.6774 8.67665 85.3919 7.9364 86.499 7.9364C87.6062 7.9364 88.134 8.5286 88.134 9.77737V14H89.2411V9.50701C89.2411 7.85916 88.3722 6.93867 86.8144 6.93867C85.7523 6.93867 85.0764 7.38926 84.7289 8.15526H84.6259V7.06097H83.5702V14ZM91.0695 14H92.1766V4.30596H91.0695V14ZM96.9145 14.1223C98.8906 14.1223 100.114 12.7577 100.114 10.5305C100.114 8.29687 98.8906 6.93867 96.9145 6.93867C94.9384 6.93867 93.7153 8.29687 93.7153 10.5305C93.7153 12.7577 94.9384 14.1223 96.9145 14.1223ZM96.9145 13.1246C95.6014 13.1246 94.8611 12.1719 94.8611 10.5305C94.8611 8.88263 95.6014 7.9364 96.9145 7.9364C98.2276 7.9364 98.9679 8.88263 98.9679 10.5305C98.9679 12.1719 98.2276 13.1246 96.9145 13.1246ZM103.519 14.1223C104.446 14.1223 105.206 13.7168 105.656 12.9765H105.759V14H106.815V9.24954C106.815 7.80766 105.869 6.93867 104.176 6.93867C102.695 6.93867 101.601 7.67248 101.453 8.78608H102.573C102.727 8.23894 103.307 7.92353 104.137 7.92353C105.173 7.92353 105.708 8.39342 105.708 9.24954V9.88036L103.706 10.0027C102.09 10.0992 101.176 10.8137 101.176 12.056C101.176 13.3241 102.174 14.1223 103.519 14.1223ZM103.725 13.1503C102.92 13.1503 102.322 12.7384 102.322 12.0303C102.322 11.3351 102.785 10.9682 103.841 10.8974L105.708 10.7751V11.4123C105.708 12.4036 104.864 13.1503 103.725 13.1503ZM111.166 14.1223C112.126 14.1223 112.949 13.6653 113.387 12.8928H113.49V14H114.546V4.30596H113.439V8.15526H113.342C112.949 7.3957 112.132 6.93867 111.166 6.93867C109.403 6.93867 108.25 8.3548 108.25 10.5305C108.25 12.7126 109.39 14.1223 111.166 14.1223ZM111.424 7.9364C112.679 7.9364 113.464 8.94056 113.464 10.5305C113.464 12.1333 112.686 13.1246 111.424 13.1246C110.156 13.1246 109.396 12.1526 109.396 10.5305C109.396 8.91481 110.162 7.9364 111.424 7.9364ZM122.741 14.1223C124.717 14.1223 125.94 12.7577 125.94 10.5305C125.94 8.29687 124.717 6.93867 122.741 6.93867C120.764 6.93867 119.541 8.29687 119.541 10.5305C119.541 12.7577 120.764 14.1223 122.741 14.1223ZM122.741 13.1246C121.427 13.1246 120.687 12.1719 120.687 10.5305C120.687 8.88263 121.427 7.9364 122.741 7.9364C124.054 7.9364 124.794 8.88263 124.794 10.5305C124.794 12.1719 124.054 13.1246 122.741 13.1246ZM127.414 14H128.521V9.89323C128.521 8.67665 129.236 7.9364 130.343 7.9364C131.45 7.9364 131.978 8.5286 131.978 9.77737V14H133.085V9.50701C133.085 7.85916 132.216 6.93867 130.658 6.93867C129.596 6.93867 128.92 7.38926 128.573 8.15526H128.47V7.06097H127.414V14Z" fill="white"/>
<path d="M58.0051 20.5207V36.7756H60.9114V31.4475H64.4372C67.7265 31.4475 70.0245 29.2396 70.0245 26.0179C70.0245 22.7399 67.8054 20.5207 64.5611 20.5207H58.0051ZM60.9114 22.9539H63.7951C65.8904 22.9539 67.0732 24.024 67.0732 26.0179C67.0732 27.9554 65.8566 29.0368 63.7839 29.0368H60.9114V22.9539ZM72.5933 36.7756H75.3869V19.6872H72.5933V36.7756ZM82.6756 34.7818C81.4365 34.7818 80.5466 34.1622 80.5466 33.1259C80.5466 32.1233 81.2788 31.5601 82.8446 31.4587L85.6269 31.2785V32.2585C85.6269 33.6891 84.3653 34.7818 82.6756 34.7818ZM81.8533 36.9784C83.4641 36.9784 84.8159 36.28 85.503 35.0859H85.6945V36.7756H88.3868V28.3609C88.3868 25.7475 86.607 24.2043 83.4416 24.2043C80.5128 24.2043 78.4739 25.5898 78.2486 27.7639H80.8845C81.1436 26.9303 82.0222 26.4797 83.3064 26.4797C84.8159 26.4797 85.6269 27.1556 85.6269 28.3609V29.3973L82.4503 29.5888C79.4539 29.769 77.7755 31.0532 77.7755 33.2836C77.7755 35.5365 79.4764 36.9784 81.8533 36.9784ZM92.2623 41.2477C95.0221 41.2477 96.3401 40.2339 97.3877 37.1699L101.837 24.4521H98.8859L96.0134 34.0721H95.8219L92.9381 24.4521H89.8742L94.2786 36.832L94.1322 37.3727C93.7717 38.5104 93.1071 38.961 91.9243 38.961C91.7328 38.961 91.316 38.9497 91.1583 38.9159V41.2026C91.3386 41.2364 92.0933 41.2477 92.2623 41.2477ZM103.336 32.3599C103.482 35.3112 105.949 37.1812 109.678 37.1812C113.62 37.1812 116.065 35.2098 116.065 32.0445C116.065 29.5663 114.679 28.192 111.379 27.4485L109.509 27.0204C107.493 26.5586 106.67 25.9165 106.67 24.8238C106.67 23.4383 107.909 22.5371 109.779 22.5371C111.559 22.5371 112.821 23.4383 113.023 24.8689H115.806C115.671 22.0753 113.204 20.1152 109.791 20.1152C106.152 20.1152 103.741 22.0753 103.741 25.0266C103.741 27.4485 105.127 28.9129 108.078 29.5775L110.185 30.0619C112.269 30.5463 113.159 31.2334 113.159 32.4049C113.159 33.768 111.773 34.748 109.858 34.748C107.797 34.748 106.355 33.813 106.175 32.3599H103.336ZM119.467 21.4332V24.531H117.519V26.7614H119.467V33.4864C119.467 35.8745 120.594 36.832 123.421 36.832C123.962 36.832 124.48 36.7756 124.886 36.6968V34.5114C124.548 34.5452 124.334 34.5678 123.939 34.5678C122.768 34.5678 122.25 34.0271 122.25 32.8105V26.7614H124.886V24.531H122.25V21.4332H119.467ZM132.422 37.0235C136.106 37.0235 138.347 34.6128 138.347 30.6139C138.347 26.6262 136.094 24.2043 132.422 24.2043C128.761 24.2043 126.497 26.6374 126.497 30.6139C126.497 34.6128 128.727 37.0235 132.422 37.0235ZM132.422 34.6804C130.473 34.6804 129.358 33.1935 129.358 30.6139C129.358 28.0455 130.473 26.5473 132.422 26.5473C134.36 26.5473 135.475 28.0455 135.475 30.6139C135.475 33.1935 134.371 34.6804 132.422 34.6804ZM140.702 36.7756H143.496V29.6564C143.496 27.9329 144.757 26.8064 146.571 26.8064C147.044 26.8064 147.788 26.8853 148.002 26.9641V24.3733C147.742 24.2944 147.247 24.2493 146.841 24.2493C145.253 24.2493 143.924 25.1505 143.586 26.3671H143.394V24.4521H140.702V36.7756ZM154.693 26.4234C156.372 26.4234 157.476 27.5949 157.532 29.4198H151.731C151.855 27.6175 153.026 26.4234 154.693 26.4234ZM157.554 33.385C157.149 34.2974 156.191 34.8043 154.806 34.8043C152.97 34.8043 151.787 33.5202 151.719 31.47V31.3235H160.326V30.4224C160.326 26.5361 158.219 24.2043 154.704 24.2043C151.134 24.2043 148.914 26.6938 148.914 30.6589C148.914 34.6241 151.1 37.0235 154.727 37.0235C157.633 37.0235 159.672 35.6266 160.202 33.385H157.554Z" fill="white"/>
<path d="M32.1124 15.0926C27.1171 12.2337 19.0996 7.64298 6.66387 0.517973C5.82545 -0.0486145 4.86081 -0.122865 4.02734 0.1658L25.3636 21.9983L32.1124 15.0926Z" fill="#32BBFF"/>
<path d="M4.02785 0.166016C3.87164 0.220156 3.71963 0.285469 3.57425 0.36436C2.65387 0.873798 1.97754 1.85409 1.97754 3.09391V40.903C1.97754 42.1429 2.65378 43.1232 3.57425 43.6325C3.71938 43.7113 3.87131 43.7769 4.02735 43.8314L25.3641 21.9985L4.02785 0.166016Z" fill="#32BBFF"/>
<path d="M25.3641 21.9983L4.02734 43.8312C4.86106 44.122 5.82571 44.0534 6.66437 43.4786C18.7244 36.5684 26.6515 32.032 31.7045 29.1488C31.8452 29.068 31.983 28.9889 32.1193 28.9106L25.3641 21.9983Z" fill="#32BBFF"/>
<path d="M1.97754 21.9983V40.9029C1.97754 42.1427 2.65378 43.123 3.57425 43.6323C3.71938 43.7111 3.87131 43.7767 4.02735 43.8312L25.3641 21.9983H1.97754Z" fill="#2C9FD9"/>
<path d="M6.66435 0.518024C5.66871 -0.154696 4.49461 -0.135532 3.57422 0.364282L25.0402 22.3296L32.1128 15.0926C27.1176 12.2337 19.1001 7.64303 6.66435 0.518024Z" fill="#29CC5E"/>
<path d="M25.0404 21.667L3.57422 43.6322C4.49469 44.1319 5.66871 44.1608 6.66435 43.4785C18.7244 36.5682 26.6515 32.0319 31.7045 29.1487C31.8452 29.0678 31.983 28.9888 32.1192 28.9105L25.0404 21.667Z" fill="#D93F21"/>
<path d="M41.0221 21.9981C41.0221 20.9506 40.5055 19.8934 39.4817 19.3071C39.4817 19.3071 37.5669 18.2139 31.6978 14.8547L24.7168 21.9981L31.7046 29.1486C37.5093 25.8136 39.4816 24.6891 39.4816 24.6891C40.5055 24.1029 41.0221 23.0457 41.0221 21.9981Z" fill="#FFD500"/>
<path d="M39.4817 24.6893C40.5055 24.1031 41.0221 23.0459 41.0221 21.9983H24.7168L31.7046 29.1487C37.5094 25.8138 39.4817 24.6893 39.4817 24.6893Z" fill="#FFAA00"/>
</svg>
