<svg width="153" height="48" viewBox="0 0 153 48" fill="none" xmlns="http://www.w3.org/2000/svg">
<path d="M54.1016 10.5195H57.7656V15.1445C56.4219 15.7279 55.0885 16.0195 53.7656 16.0195C51.9583 16.0195 50.513 15.4935 49.4297 14.4414C48.3516 13.3841 47.8125 12.082 47.8125 10.5352C47.8125 8.90495 48.3724 7.54818 49.4922 6.46484C50.612 5.38151 52.0156 4.83984 53.7031 4.83984C54.3177 4.83984 54.901 4.90755 55.4531 5.04297C56.0052 5.17318 56.7031 5.41536 57.5469 5.76953V7.36328C56.2448 6.60807 54.9531 6.23047 53.6719 6.23047C52.4792 6.23047 51.474 6.63672 50.6562 7.44922C49.8385 8.26172 49.4297 9.25911 49.4297 10.4414C49.4297 11.681 49.8385 12.694 50.6562 13.4805C51.474 14.2669 52.526 14.6602 53.8125 14.6602C54.4375 14.6602 55.1849 14.5169 56.0547 14.2305L56.2031 14.1836V11.9102H54.1016V10.5195ZM65.6566 12.4258H60.6019C60.6383 13.1133 60.8675 13.6602 61.2894 14.0664C61.7165 14.4727 62.2659 14.6758 62.9378 14.6758C63.8753 14.6758 64.7399 14.3841 65.5316 13.8008V15.1914C65.0941 15.4831 64.6592 15.6914 64.2269 15.8164C63.7998 15.9414 63.2972 16.0039 62.7191 16.0039C61.9274 16.0039 61.2868 15.8398 60.7972 15.5117C60.3076 15.1836 59.9144 14.7435 59.6175 14.1914C59.3258 13.6341 59.18 12.9909 59.18 12.2617C59.18 11.168 59.4899 10.2799 60.1097 9.59766C60.7295 8.91016 61.5342 8.56641 62.5238 8.56641C63.4769 8.56641 64.2373 8.89974 64.805 9.56641C65.3727 10.2331 65.6566 11.1263 65.6566 12.2461V12.4258ZM60.6331 11.5742H64.2503C64.2139 11.0065 64.0446 10.569 63.7425 10.2617C63.4404 9.95443 63.0342 9.80078 62.5238 9.80078C62.0133 9.80078 61.5941 9.95443 61.2659 10.2617C60.943 10.569 60.7321 11.0065 60.6331 11.5742ZM65.8756 9.84766L68.5475 7.22266V8.70703H70.8209V9.98828H68.5475V13.5117C68.5475 14.3346 68.8886 14.7461 69.5709 14.7461C70.0814 14.7461 70.6204 14.5742 71.1881 14.2305V15.5586C70.6413 15.8659 70.0449 16.0195 69.3991 16.0195C68.748 16.0195 68.2064 15.8294 67.7741 15.4492C67.6386 15.3346 67.5267 15.207 67.4381 15.0664C67.3496 14.9206 67.2741 14.7331 67.2116 14.5039C67.1543 14.2695 67.1256 13.8268 67.1256 13.1758V9.98828H65.8756V9.84766ZM76.7591 5.68359C76.9934 5.68359 77.194 5.76432 77.3606 5.92578C77.5273 6.08724 77.6106 6.28516 77.6106 6.51953C77.6106 6.7487 77.5273 6.94661 77.3606 7.11328C77.194 7.27995 76.9934 7.36328 76.7591 7.36328C76.5403 7.36328 76.3476 7.27995 76.1809 7.11328C76.0143 6.94141 75.9309 6.74349 75.9309 6.51953C75.9309 6.30078 76.0143 6.10807 76.1809 5.94141C76.3476 5.76953 76.5403 5.68359 76.7591 5.68359ZM76.0559 8.70703H77.4778V15.8945H76.0559V8.70703ZM78.2125 9.84766L80.8844 7.22266V8.70703H83.1578V9.98828H80.8844V13.5117C80.8844 14.3346 81.2255 14.7461 81.9078 14.7461C82.4182 14.7461 82.9573 14.5742 83.525 14.2305V15.5586C82.9781 15.8659 82.3818 16.0195 81.7359 16.0195C81.0849 16.0195 80.5432 15.8294 80.1109 15.4492C79.9755 15.3346 79.8635 15.207 79.775 15.0664C79.6865 14.9206 79.6109 14.7331 79.5484 14.5039C79.4911 14.2695 79.4625 13.8268 79.4625 13.1758V9.98828H78.2125V9.84766ZM91.7991 8.69141C92.8928 8.69141 93.8017 9.04557 94.5256 9.75391C95.2496 10.457 95.6116 11.3424 95.6116 12.4102C95.6116 13.4466 95.2444 14.3086 94.51 14.9961C93.7756 15.6784 92.8511 16.0195 91.7366 16.0195C90.6584 16.0195 89.7574 15.6732 89.0334 14.9805C88.3095 14.2826 87.9475 13.4128 87.9475 12.3711C87.9475 11.319 88.3121 10.444 89.0412 9.74609C89.7756 9.04297 90.6949 8.69141 91.7991 8.69141ZM91.7209 9.97266C91.0386 9.97266 90.4787 10.1966 90.0412 10.6445C89.6037 11.0924 89.385 11.6628 89.385 12.3555C89.385 13.043 89.609 13.6055 90.0569 14.043C90.5048 14.4753 91.0803 14.6914 91.7834 14.6914C92.4814 14.6914 93.0517 14.4727 93.4944 14.0352C93.9423 13.5924 94.1662 13.0273 94.1662 12.3398C94.1662 11.6576 93.9345 11.0924 93.4709 10.6445C93.0074 10.1966 92.4241 9.97266 91.7209 9.97266ZM98.2916 8.70703V9.62109C98.927 8.91797 99.6483 8.56641 100.456 8.56641C100.904 8.56641 101.32 8.68359 101.706 8.91797C102.091 9.14714 102.383 9.46484 102.581 9.87109C102.784 10.2721 102.885 10.9102 102.885 11.7852V15.8945H101.463V11.8008C101.463 11.0664 101.351 10.543 101.127 10.2305C100.904 9.91276 100.529 9.75391 100.002 9.75391C99.3306 9.75391 98.7603 10.0898 98.2916 10.7617V15.8945H96.8384V8.70703H98.2916Z" fill="white"/>
<path d="M48.9551 40.8945V21.7676H55.0117C56.8346 21.7676 58.2884 22.2598 59.373 23.2441C60.4577 24.2285 61 25.5501 61 27.209C61 28.321 60.722 29.3053 60.166 30.1621C59.61 31.0189 58.849 31.6432 57.8828 32.0352C56.9167 32.418 55.5312 32.6094 53.7266 32.6094H51.7031V40.8945H48.9551ZM54.5332 24.2012H51.7031V30.1758H54.6973C55.8092 30.1758 56.666 29.916 57.2676 29.3965C57.8691 28.8678 58.1699 28.1159 58.1699 27.1406C58.1699 25.181 56.9577 24.2012 54.5332 24.2012ZM62.5318 21.7949H65.0201V40.8945H62.5318V21.7949ZM75.9718 33.334V38.6797C75.9718 39.1081 76.1176 39.3223 76.4093 39.3223C76.7101 39.3223 77.1795 39.099 77.8175 38.6523V40.1699C77.2524 40.5345 76.7967 40.7806 76.4503 40.9082C76.1131 41.0449 75.7576 41.1133 75.3839 41.1133C74.3175 41.1133 73.6886 40.694 73.4972 39.8555C72.4399 40.6758 71.3142 41.0859 70.1202 41.0859C69.2452 41.0859 68.5161 40.7988 67.9327 40.2246C67.3494 39.6413 67.0577 38.9121 67.0577 38.0371C67.0577 37.2441 67.3403 36.5378 67.9054 35.918C68.4796 35.2891 69.2908 34.7923 70.339 34.4277L73.5245 33.334V32.6641C73.5245 31.151 72.768 30.3945 71.255 30.3945C69.8969 30.3945 68.5753 31.0964 67.2902 32.5V29.7793C68.2563 28.64 69.6463 28.0703 71.4601 28.0703C72.8182 28.0703 73.9073 28.4258 74.7277 29.1367C75.0011 29.3646 75.2472 29.6699 75.4659 30.0527C75.6847 30.4264 75.8214 30.8047 75.8761 31.1875C75.9399 31.5612 75.9718 32.2767 75.9718 33.334ZM73.5245 38.4062V34.6738L71.8566 35.3164C71.0089 35.6536 70.4073 35.9954 70.0519 36.3418C69.7055 36.679 69.5323 37.1029 69.5323 37.6133C69.5323 38.1328 69.6964 38.5566 70.0245 38.8848C70.3618 39.2129 70.7947 39.377 71.3234 39.377C72.1163 39.377 72.8501 39.0534 73.5245 38.4062ZM86.0348 28.3164H88.8376L79.9372 47.3066H77.1618L81.4411 38.2012L76.5739 28.3164H79.404L82.7946 35.4121L86.0348 28.3164ZM95.1272 32.8828L93.0491 31.625C91.7457 30.832 90.816 30.0527 90.26 29.2871C89.7131 28.5124 89.4397 27.6237 89.4397 26.6211C89.4397 25.1172 89.9592 23.8958 90.9983 22.957C92.0465 22.0182 93.4045 21.5488 95.0725 21.5488C96.6676 21.5488 98.1304 21.9954 99.4612 22.8887V25.9922C98.0849 24.6706 96.6037 24.0098 95.0178 24.0098C94.1246 24.0098 93.3909 24.2194 92.8166 24.6387C92.2424 25.0488 91.9553 25.5775 91.9553 26.2246C91.9553 26.7988 92.1649 27.3366 92.5842 27.8379C93.0035 28.3392 93.6825 28.8633 94.6213 29.4102L96.7131 30.6406C99.0465 32.026 100.213 33.7943 100.213 35.9453C100.213 37.4766 99.6981 38.7207 98.6682 39.6777C97.6474 40.6348 96.3166 41.1133 94.676 41.1133C92.7893 41.1133 91.0712 40.5345 89.5217 39.377V35.9043C90.9983 37.7728 92.7073 38.707 94.6487 38.707C95.5054 38.707 96.2164 38.4701 96.7815 37.9961C97.3557 37.513 97.6428 36.9115 97.6428 36.1914C97.6428 35.0247 96.8043 33.9219 95.1272 32.8828ZM100.555 30.3125L105.231 25.7188V28.3164H109.21V30.5586H105.231V36.7246C105.231 38.1647 105.828 38.8848 107.022 38.8848C107.915 38.8848 108.859 38.584 109.852 37.9824V40.3066C108.895 40.8444 107.852 41.1133 106.721 41.1133C105.582 41.1133 104.634 40.7806 103.878 40.1152C103.641 39.9147 103.445 39.6914 103.29 39.4453C103.135 39.1901 103.003 38.862 102.893 38.4609C102.793 38.0508 102.743 37.276 102.743 36.1367V30.5586H100.555V30.3125ZM117.099 28.2891C119.013 28.2891 120.604 28.9089 121.87 30.1484C123.137 31.3789 123.771 32.9284 123.771 34.7969C123.771 36.6107 123.128 38.1191 121.843 39.3223C120.558 40.5163 118.94 41.1133 116.99 41.1133C115.103 41.1133 113.526 40.5072 112.259 39.2949C110.992 38.0736 110.359 36.5514 110.359 34.7285C110.359 32.8874 110.997 31.3561 112.273 30.1348C113.558 28.9043 115.167 28.2891 117.099 28.2891ZM116.962 30.5312C115.768 30.5312 114.788 30.9232 114.023 31.707C113.257 32.4909 112.874 33.4889 112.874 34.7012C112.874 35.9043 113.266 36.8887 114.05 37.6543C114.834 38.4108 115.841 38.7891 117.072 38.7891C118.293 38.7891 119.291 38.4062 120.066 37.6406C120.85 36.8659 121.242 35.877 121.242 34.6738C121.242 33.4798 120.836 32.4909 120.025 31.707C119.214 30.9232 118.193 30.5312 116.962 30.5312ZM128.639 28.3164V31.2012L128.775 30.9824C129.978 29.041 131.182 28.0703 132.385 28.0703C133.323 28.0703 134.303 28.5443 135.324 29.4922L134.012 31.6797C133.146 30.8594 132.344 30.4492 131.605 30.4492C130.803 30.4492 130.106 30.832 129.514 31.5977C128.93 32.3633 128.639 33.2702 128.639 34.3184V40.8945H126.137V28.3164H128.639ZM146.659 34.8242H137.813C137.877 36.0273 138.278 36.9844 139.016 37.6953C139.763 38.4062 140.725 38.7617 141.901 38.7617C143.541 38.7617 145.055 38.2513 146.44 37.2305V39.6641C145.674 40.1745 144.913 40.5391 144.157 40.7578C143.409 40.9766 142.53 41.0859 141.518 41.0859C140.133 41.0859 139.012 40.7988 138.155 40.2246C137.298 39.6504 136.61 38.8802 136.09 37.9141C135.58 36.9388 135.325 35.8132 135.325 34.5371C135.325 32.623 135.867 31.069 136.952 29.875C138.036 28.6719 139.444 28.0703 141.176 28.0703C142.844 28.0703 144.175 28.6536 145.168 29.8203C146.162 30.987 146.659 32.5501 146.659 34.5098V34.8242ZM137.868 33.334H144.198C144.134 32.3405 143.838 31.5749 143.309 31.0371C142.78 30.4993 142.069 30.2305 141.176 30.2305C140.283 30.2305 139.549 30.4993 138.975 31.0371C138.41 31.5749 138.041 32.3405 137.868 33.334Z" fill="white"/>
<g clip-path="url(#clip0)">
<path d="M32.1128 17.9871C27.1176 15.1282 19.1001 10.5375 6.66436 3.4125C5.82594 2.84592 4.86129 2.77167 4.02783 3.06033L25.3641 24.8928L32.1128 17.9871Z" fill="#32BBFF"/>
<path d="M4.02785 3.06042C3.87164 3.11457 3.71963 3.17988 3.57425 3.25877C2.65387 3.76821 1.97754 4.7485 1.97754 5.98832V43.7975C1.97754 45.0373 2.65378 46.0176 3.57425 46.5269C3.71938 46.6057 3.87131 46.6713 4.02735 46.7258L25.3641 24.8929L4.02785 3.06042Z" fill="#32BBFF"/>
<path d="M25.3641 24.8928L4.02734 46.7257C4.86106 47.0166 5.82571 46.948 6.66437 46.3731C18.7244 39.4629 26.6515 34.9266 31.7045 32.0434C31.8452 31.9625 31.983 31.8834 32.1193 31.8051L25.3641 24.8928Z" fill="#32BBFF"/>
<path d="M1.97754 24.8928V43.7974C1.97754 45.0372 2.65378 46.0175 3.57425 46.5269C3.71938 46.6057 3.87131 46.6712 4.02735 46.7257L25.3641 24.8928H1.97754Z" fill="#2C9FD9"/>
<path d="M6.66483 3.41256C5.6692 2.73984 4.49509 2.759 3.57471 3.25881L25.0407 25.2241L32.1132 17.9872C27.1181 15.1283 19.1006 10.5376 6.66483 3.41256Z" fill="#29CC5E"/>
<path d="M25.0409 24.5615L3.57471 46.5267C4.49518 47.0265 5.6692 47.0553 6.66483 46.373C18.7248 39.4628 26.652 34.9265 31.705 32.0432C31.8457 31.9624 31.9835 31.8833 32.1197 31.805L25.0409 24.5615Z" fill="#D93F21"/>
<path d="M41.0221 24.8928C41.0221 23.8452 40.5055 22.788 39.4817 22.2017C39.4817 22.2017 37.5669 21.1085 31.6978 17.7494L24.7168 24.8928L31.7046 32.0432C37.5093 28.7083 39.4816 27.5838 39.4816 27.5838C40.5055 26.9976 41.0221 25.9404 41.0221 24.8928Z" fill="#FFD500"/>
<path d="M39.4817 27.5839C40.5055 26.9976 41.0221 25.9404 41.0221 24.8928H24.7168L31.7046 32.0433C37.5094 28.7084 39.4817 27.5839 39.4817 27.5839Z" fill="#FFAA00"/>
</g>
<defs>
<clipPath id="clip0">
<rect width="43" height="44" fill="white" transform="translate(0 2.89453)"/>
</clipPath>
</defs>
</svg>
