<svg width="140" height="42" viewBox="0 0 140 42" fill="none" xmlns="http://www.w3.org/2000/svg">
<path d="M49.9701 9.107H53.3056V13.3173C52.0823 13.8483 50.8686 14.1138 49.6643 14.1138C48.0191 14.1138 46.7034 13.6349 45.7172 12.6772C44.7357 11.7147 44.245 10.5294 44.245 9.12122C44.245 7.6372 44.7547 6.4021 45.7741 5.41591C46.7934 4.42972 48.0712 3.93663 49.6074 3.93663C50.1669 3.93663 50.6979 3.99827 51.2005 4.12154C51.703 4.24007 52.3384 4.46054 53.1065 4.78295V6.23378C51.9211 5.54629 50.7453 5.20255 49.579 5.20255C48.4932 5.20255 47.5781 5.57237 46.8338 6.31201C46.0894 7.05165 45.7172 7.95961 45.7172 9.03588C45.7172 10.1643 46.0894 11.0865 46.8338 11.8024C47.5781 12.5183 48.5359 12.8763 49.707 12.8763C50.2759 12.8763 50.9563 12.7459 51.7481 12.4852L51.8832 12.4425V10.3729H49.9701V9.107ZM60.4889 10.8423H55.8875C55.9207 11.4682 56.1293 11.966 56.5134 12.3358C56.9021 12.7056 57.4024 12.8905 58.014 12.8905C58.8674 12.8905 59.6545 12.625 60.3751 12.094V13.3599C59.9769 13.6254 59.581 13.8151 59.1874 13.9289C58.7987 14.0427 58.3411 14.0996 57.8148 14.0996C57.0942 14.0996 56.511 13.9502 56.0653 13.6515C55.6196 13.3528 55.2617 12.9522 54.9914 12.4496C54.7259 11.9423 54.5931 11.3567 54.5931 10.693C54.5931 9.69729 54.8752 8.8889 55.4395 8.26779C56.0037 7.64194 56.7362 7.32902 57.637 7.32902C58.5047 7.32902 59.1969 7.63246 59.7137 8.23934C60.2305 8.84623 60.4889 9.65936 60.4889 10.6787V10.8423ZM55.916 10.0671H59.2088C59.1756 9.55031 59.0215 9.15204 58.7465 8.8723C58.4715 8.59257 58.1017 8.4527 57.637 8.4527C57.1724 8.4527 56.7907 8.59257 56.492 8.8723C56.1981 9.15204 56.006 9.55031 55.916 10.0671ZM60.6883 8.49537L63.1206 6.10577V7.45703H65.1902V8.62339H63.1206V11.8309C63.1206 12.58 63.4312 12.9545 64.0523 12.9545C64.5169 12.9545 65.0077 12.7981 65.5245 12.4852V13.6942C65.0266 13.9739 64.4837 14.1138 63.8958 14.1138C63.3032 14.1138 62.8101 13.9407 62.4165 13.5946C62.2933 13.4903 62.1913 13.3742 62.1107 13.2461C62.0301 13.1134 61.9614 12.9427 61.9045 12.7341C61.8523 12.5207 61.8263 12.1177 61.8263 11.5251V8.62339H60.6883V8.49537ZM70.5958 4.70472C70.8092 4.70472 70.9917 4.77821 71.1434 4.92519C71.2952 5.07217 71.371 5.25234 71.371 5.46569C71.371 5.67431 71.2952 5.85448 71.1434 6.0062C70.9917 6.15792 70.8092 6.23378 70.5958 6.23378C70.3967 6.23378 70.2213 6.15792 70.0695 6.0062C69.9178 5.84974 69.842 5.66957 69.842 5.46569C69.842 5.26656 69.9178 5.09113 70.0695 4.93941C70.2213 4.78295 70.3967 4.70472 70.5958 4.70472ZM69.9557 7.45703H71.2501V14H69.9557V7.45703ZM71.9189 8.49537L74.3512 6.10577V7.45703H76.4208V8.62339H74.3512V11.8309C74.3512 12.58 74.6618 12.9545 75.2829 12.9545C75.7475 12.9545 76.2382 12.7981 76.755 12.4852V13.6942C76.2572 13.9739 75.7143 14.1138 75.1264 14.1138C74.5337 14.1138 74.0406 13.9407 73.6471 13.5946C73.5238 13.4903 73.4219 13.3742 73.3413 13.2461C73.2607 13.1134 73.192 12.9427 73.1351 12.7341C73.0829 12.5207 73.0568 12.1177 73.0568 11.5251V8.62339H71.9189V8.49537ZM84.2871 7.44281C85.2828 7.44281 86.1101 7.76521 86.7692 8.41003C87.4282 9.0501 87.7577 9.85612 87.7577 10.8281C87.7577 11.7716 87.4235 12.5563 86.755 13.1821C86.0864 13.8032 85.2449 14.1138 84.2302 14.1138C83.2488 14.1138 82.4285 13.7985 81.7695 13.1679C81.1105 12.5326 80.7809 11.7408 80.7809 10.7925C80.7809 9.83478 81.1128 9.03825 81.7766 8.40292C82.4451 7.76284 83.282 7.44281 84.2871 7.44281ZM84.216 8.60916C83.5949 8.60916 83.0852 8.81304 82.6869 9.22079C82.2887 9.62854 82.0895 10.1477 82.0895 10.7783C82.0895 11.4041 82.2934 11.9162 82.7012 12.3145C83.1089 12.708 83.6328 12.9048 84.2729 12.9048C84.9082 12.9048 85.4274 12.7056 85.8304 12.3074C86.2382 11.9044 86.442 11.3899 86.442 10.7641C86.442 10.143 86.231 9.62854 85.8091 9.22079C85.3871 8.81304 84.8561 8.60916 84.216 8.60916ZM90.1974 7.45703V8.28913C90.7759 7.64905 91.4325 7.32902 92.1674 7.32902C92.5752 7.32902 92.9545 7.4357 93.3053 7.64905C93.6562 7.85767 93.9217 8.14689 94.1019 8.51671C94.2868 8.88179 94.3792 9.46259 94.3792 10.2591V14H93.0849V10.2734C93.0849 9.60483 92.9829 9.12833 92.779 8.84386C92.5752 8.55464 92.2338 8.41003 91.7549 8.41003C91.1433 8.41003 90.6241 8.71584 90.1974 9.32747V14H88.8746V7.45703H90.1974Z" fill="#293D4A"/>
<path d="M45.2851 35.7446V18.3329H50.7986C52.4581 18.3329 53.7815 18.7809 54.7689 19.677C55.7563 20.5731 56.2499 21.7762 56.2499 23.2863C56.2499 24.2986 55.9969 25.1947 55.4907 25.9746C54.9846 26.7546 54.2918 27.3229 53.4123 27.6797C52.5328 28.0282 51.2716 28.2024 49.6287 28.2024H47.7867V35.7446H45.2851ZM50.363 20.5482H47.7867V25.9871H50.5124C51.5247 25.9871 52.3046 25.7506 52.8522 25.2777C53.3998 24.7964 53.6736 24.1119 53.6736 23.2241C53.6736 21.4402 52.5701 20.5482 50.363 20.5482ZM57.6444 18.3578H59.9095V35.7446H57.6444V18.3578ZM69.8792 28.8621V33.7284C69.8792 34.1184 70.0119 34.3134 70.2774 34.3134C70.5512 34.3134 70.9785 34.1101 71.5593 33.7035V35.085C71.0449 35.4169 70.6301 35.6409 70.3148 35.7571C70.0078 35.8815 69.6842 35.9438 69.344 35.9438C68.3732 35.9438 67.8007 35.5621 67.6265 34.7987C66.664 35.5455 65.6393 35.9189 64.5523 35.9189C63.7558 35.9189 63.092 35.6575 62.561 35.1348C62.03 34.6038 61.7644 33.94 61.7644 33.1434C61.7644 32.4216 62.0217 31.7785 62.5361 31.2143C63.0588 30.6418 63.7973 30.1896 64.7515 29.8577L67.6513 28.8621V28.2522C67.6513 26.8749 66.9627 26.1862 65.5853 26.1862C64.349 26.1862 63.1459 26.8251 61.976 28.1029V25.6261C62.8555 24.589 64.1209 24.0704 65.772 24.0704C67.0083 24.0704 67.9998 24.394 68.7466 25.0412C68.9955 25.2486 69.2195 25.5266 69.4187 25.8751C69.6178 26.2152 69.7422 26.5596 69.792 26.9081C69.8501 27.2483 69.8792 27.8996 69.8792 28.8621ZM67.6513 33.4795V30.0818L66.1329 30.6667C65.3613 30.9737 64.8137 31.2849 64.4901 31.6002C64.1748 31.9072 64.0172 32.293 64.0172 32.7576C64.0172 33.2306 64.1665 33.6164 64.4652 33.9151C64.7722 34.2138 65.1663 34.3631 65.6476 34.3631C66.3694 34.3631 67.0373 34.0686 67.6513 33.4795ZM80.0604 24.2944H82.6118L74.5095 41.5817H71.983L75.8786 33.2928L71.4478 24.2944H74.0241L77.1107 30.7538L80.0604 24.2944ZM88.3374 28.4514L86.4456 27.3063C85.2591 26.5845 84.4128 25.8751 83.9066 25.1781C83.4088 24.4728 83.1599 23.6638 83.1599 22.7511C83.1599 21.3821 83.6328 20.2703 84.5787 19.4157C85.5329 18.561 86.7692 18.1337 88.2876 18.1337C89.7396 18.1337 91.0713 18.5403 92.2827 19.3534V22.1786C91.0298 20.9755 89.6815 20.374 88.2378 20.374C87.4247 20.374 86.7567 20.5648 86.234 20.9465C85.7113 21.3199 85.4499 21.8011 85.4499 22.3902C85.4499 22.9129 85.6408 23.4025 86.0224 23.8588C86.4041 24.3152 87.0223 24.7923 87.8769 25.2901L89.7811 26.4102C91.9052 27.6714 92.9672 29.2811 92.9672 31.2392C92.9672 32.6332 92.4984 33.7657 91.5608 34.6369C90.6316 35.5082 89.4202 35.9438 87.9267 35.9438C86.2091 35.9438 84.6451 35.4169 83.2346 34.3631V31.2019C84.5787 32.9028 86.1344 33.7533 87.9018 33.7533C88.6817 33.7533 89.3289 33.5376 89.8433 33.1061C90.366 32.6664 90.6274 32.1187 90.6274 31.4633C90.6274 30.4012 89.8641 29.3972 88.3374 28.4514ZM93.2789 26.1115L97.5354 21.9297V24.2944H101.157V26.3356H97.5354V31.9486C97.5354 33.2596 98.0788 33.9151 99.1658 33.9151C99.9789 33.9151 100.838 33.6413 101.742 33.0937V35.2095C100.871 35.699 99.9208 35.9438 98.892 35.9438C97.8548 35.9438 96.9919 35.6409 96.3032 35.0352C96.0875 34.8527 95.9091 34.6494 95.768 34.4254C95.627 34.193 95.5067 33.8943 95.4071 33.5293C95.3158 33.1559 95.2702 32.4506 95.2702 31.4135V26.3356H93.2789V26.1115ZM108.339 24.2695C110.081 24.2695 111.529 24.8338 112.682 25.9622C113.836 27.0823 114.412 28.4928 114.412 30.1938C114.412 31.8449 113.827 33.2181 112.658 34.3134C111.488 35.4003 110.015 35.9438 108.239 35.9438C106.522 35.9438 105.086 35.392 103.933 34.2885C102.78 33.1766 102.203 31.791 102.203 30.1315C102.203 28.4555 102.784 27.0616 103.945 25.9497C105.115 24.8296 106.58 24.2695 108.339 24.2695ZM108.214 26.3107C107.127 26.3107 106.236 26.6674 105.539 27.381C104.842 28.0946 104.493 29.0031 104.493 30.1067C104.493 31.2019 104.85 32.098 105.563 32.795C106.277 33.4836 107.194 33.828 108.314 33.828C109.426 33.828 110.334 33.4795 111.04 32.7825C111.753 32.0772 112.11 31.177 112.11 30.0818C112.11 28.9948 111.741 28.0946 111.002 27.381C110.264 26.6674 109.335 26.3107 108.214 26.3107ZM118.844 24.2944V26.9205L118.968 26.7214C120.063 24.9541 121.159 24.0704 122.254 24.0704C123.108 24.0704 124 24.5019 124.93 25.3648L123.735 27.3561C122.947 26.6094 122.216 26.236 121.544 26.236C120.814 26.236 120.18 26.5845 119.64 27.2814C119.109 27.9784 118.844 28.804 118.844 29.7582V35.7446H116.566V24.2944H118.844ZM135.771 30.2187H127.718C127.776 31.3139 128.141 32.1851 128.813 32.8323C129.494 33.4795 130.369 33.8031 131.439 33.8031C132.933 33.8031 134.31 33.3384 135.571 32.4091V34.6245C134.874 35.0891 134.182 35.421 133.493 35.6202C132.813 35.8193 132.012 35.9189 131.091 35.9189C129.83 35.9189 128.809 35.6575 128.029 35.1348C127.249 34.6121 126.623 33.9109 126.15 33.0314C125.685 32.1436 125.453 31.1189 125.453 29.9573C125.453 28.2149 125.947 26.8002 126.934 25.7133C127.921 24.618 129.203 24.0704 130.78 24.0704C132.298 24.0704 133.51 24.6014 134.414 25.6635C135.318 26.7255 135.771 28.1485 135.771 29.9324V30.2187ZM127.768 28.8621H133.53C133.472 27.9577 133.203 27.2607 132.721 26.7712C132.24 26.2816 131.593 26.0369 130.78 26.0369C129.967 26.0369 129.299 26.2816 128.776 26.7712C128.262 27.2607 127.926 27.9577 127.768 28.8621Z" fill="#293D4A"/>
<g clip-path="url(#clip0)">
<path d="M29.9535 15.5598C25.4062 12.9573 18.1077 8.77825 6.78706 2.29217C6.02383 1.77639 5.14569 1.7088 4.38696 1.97158L23.8099 21.8462L29.9535 15.5598Z" fill="#32BBFF"/>
<path d="M4.38696 1.97168C4.24476 2.02097 4.10638 2.08042 3.97404 2.15224C3.13619 2.61599 2.52051 3.50838 2.52051 4.63702V39.0557C2.52051 40.1843 3.13611 41.0767 3.97404 41.5404C4.10615 41.6121 4.24445 41.6718 4.3865 41.7214L23.8099 21.8463L4.38696 1.97168Z" fill="#32BBFF"/>
<path d="M23.8099 21.8463L4.38647 41.7213C5.14543 41.9861 6.02357 41.9236 6.78703 41.4003C17.7656 35.1098 24.9819 30.9802 29.5817 28.3556C29.7098 28.282 29.8353 28.21 29.9593 28.1387L23.8099 21.8463Z" fill="#32BBFF"/>
<path d="M2.52051 21.8463V39.0556C2.52051 40.1842 3.13611 41.0766 3.97404 41.5403C4.10615 41.612 4.24445 41.6717 4.3865 41.7213L23.8099 21.8463H2.52051Z" fill="#2C9FD9"/>
<path d="M6.78714 2.29225C5.88079 1.67986 4.81197 1.6973 3.97412 2.15229L23.5152 22.1479L29.9535 15.5599C25.4063 12.9574 18.1077 8.77833 6.78714 2.29225Z" fill="#29CC5E"/>
<path d="M23.5154 21.5447L3.97412 41.5402C4.81205 41.9951 5.88079 42.0214 6.78714 41.4002C17.7657 35.1097 24.982 30.9801 29.5818 28.3555C29.7099 28.2819 29.8354 28.2099 29.9594 28.1386L23.5154 21.5447Z" fill="#D93F21"/>
<path d="M38.0636 21.8463C38.0636 20.8926 37.5934 19.9302 36.6613 19.3965C36.6613 19.3965 34.9183 18.4014 29.5755 15.3434L23.2205 21.8463L29.5817 28.3555C34.8658 25.3196 36.6613 24.2959 36.6613 24.2959C37.5934 23.7623 38.0636 22.7999 38.0636 21.8463Z" fill="#FFD500"/>
<path d="M36.6613 24.296C37.5934 23.7623 38.0636 22.7999 38.0636 21.8463H23.2205L29.5817 28.3555C34.8659 25.3196 36.6613 24.296 36.6613 24.296Z" fill="#FFAA00"/>
</g>
<defs>
<clipPath id="clip0">
<rect width="39.144" height="40.0543" fill="white" transform="translate(0.720215 1.8208)"/>
</clipPath>
</defs>
</svg>
