<svg width="42" height="42" viewBox="0 0 42 42" fill="none" xmlns="http://www.w3.org/2000/svg">
<circle opacity="0.14" cx="20.9889" cy="20.9889" r="20.9889" fill="#FF0000"/>
<g clip-path="url(#clip0)">
<path d="M26.7249 21.9372C26.4456 22.202 26.147 22.4456 25.8315 22.666C24.5173 22.666 24.3069 23.9589 23.0872 25.02C21.6299 25.5397 20.0377 25.5397 18.5804 25.02C17.3882 23.9589 17.1839 22.666 15.8544 22.666C15.538 22.4468 15.2393 22.2031 14.961 21.9372C13.4135 19.1153 14.0882 15.592 16.5688 13.5414C19.0493 11.4908 22.6366 11.4908 25.1172 13.5414C27.5977 15.592 28.2724 19.1153 26.7249 21.9372Z" fill="#2980BA"/>
<path d="M20.8433 25.4105C24.043 25.4105 26.6369 22.4071 26.6369 18.7022C26.6369 14.9973 24.043 11.9939 20.8433 11.9939C17.6437 11.9939 15.0498 14.9973 15.0498 18.7022C15.0498 22.4071 17.6437 25.4105 20.8433 25.4105Z" fill="#3B97D3"/>
<path d="M20.843 20.3792C20.0685 20.3792 19.7666 20.1139 19.7117 20.0742C19.5854 19.9547 19.5799 19.7554 19.6995 19.6291C19.8191 19.5027 20.0184 19.4973 20.1447 19.6169C20.358 19.7337 20.6004 19.7866 20.843 19.7693C21.0717 19.7693 21.4528 19.7205 21.4528 19.3882C21.4528 19.132 21.3552 19.0832 20.8064 19.004C20.3642 18.9491 19.6233 18.8576 19.6233 18.016C19.6233 17.3726 20.2514 17.025 20.843 17.025C21.3107 16.9947 21.76 17.2124 22.0261 17.5983C22.1103 17.7456 22.0591 17.9333 21.9117 18.0175C21.7644 18.1017 21.5767 18.0505 21.4924 17.9032C21.2394 17.4824 20.2331 17.5769 20.2331 18.016C20.2331 18.2721 20.3307 18.3209 20.8796 18.4002C21.3217 18.4551 22.0627 18.5466 22.0627 19.3882C22.0627 19.8455 21.7577 20.3792 20.843 20.3792Z" fill="white"/>
<path d="M20.8425 20.8365C20.6741 20.8365 20.5376 20.7 20.5376 20.5316V20.0742C20.5376 19.9058 20.6741 19.7693 20.8425 19.7693C21.0109 19.7693 21.1474 19.9058 21.1474 20.0742V20.5316C21.1474 20.7 21.0109 20.8365 20.8425 20.8365Z" fill="white"/>
<path d="M20.8425 17.6349C20.6741 17.6349 20.5376 17.4983 20.5376 17.3299V16.8725C20.5376 16.7041 20.6741 16.5676 20.8425 16.5676C21.0109 16.5676 21.1474 16.7041 21.1474 16.8725V17.3299C21.1474 17.4983 21.0109 17.6349 20.8425 17.6349Z" fill="white"/>
<path d="M20.175 27.685C20.0331 28.2186 19.9563 28.7674 19.9463 29.3194C19.9549 29.4108 19.9248 29.5017 19.8634 29.57C19.8021 29.6383 19.715 29.6779 19.6231 29.6792H17.4338C17.3579 29.6777 17.2865 29.6431 17.2384 29.5844C17.1903 29.5258 17.1703 29.449 17.1837 29.3743C17.2386 29.0677 17.2113 28.7521 17.1045 28.4595C16.7995 27.5448 14.6132 24.4955 14.6132 24.4955C13.1771 22.3916 13.4698 22.9282 12.0519 19.3118C12.0006 19.171 12.022 19.0139 12.1092 18.892C12.1964 18.7701 12.3381 18.699 12.4879 18.702C12.6499 18.7018 12.8002 18.7862 12.8843 18.9246C13.857 20.5132 14.4089 21.6171 15.653 22.5166C15.9275 22.7209 15.8299 22.6629 15.9397 22.6782C17.1319 22.727 17.446 23.9162 18.379 24.8127C19.5408 25.9592 20.4403 26.4409 20.175 27.685Z" fill="white"/>
<path d="M17.7233 25.7153C17.7233 25.8837 17.5868 26.0202 17.4184 26.0202C17.25 26.0202 17.1134 25.8837 17.1134 25.7153C17.0897 25.5613 17.0119 25.4207 16.8939 25.3189C15.9517 24.4041 15.0948 23.0137 15.354 22.3764C15.3654 22.3491 15.3786 22.3226 15.3937 22.2971C15.9334 22.7179 15.8297 22.6386 15.9303 22.6508H15.912C15.912 22.9375 16.3298 23.9132 17.3177 24.8768C17.5585 25.0916 17.7044 25.3931 17.7233 25.7153Z" fill="#E9E9E9"/>
<path d="M29.6677 19.3393C28.6737 21.8396 28.4877 22.4678 27.8016 23.4649C24.8988 27.682 24.3103 28.3772 24.5024 29.3926C24.5161 29.4694 24.4946 29.5483 24.4438 29.6074C24.3929 29.6666 24.3181 29.6996 24.2401 29.6975H22.063C21.9687 29.6988 21.8784 29.66 21.8145 29.5908C21.7505 29.5216 21.7189 29.4285 21.7276 29.3346C21.7763 28.673 21.4531 27.749 21.4531 27.2398C21.4531 26.3251 22.3923 25.7152 23.3345 24.8004C24.2767 23.8857 24.5816 22.7087 25.7739 22.666C25.8562 22.666 25.7983 22.6934 26.0514 22.5074C27.3168 21.5927 27.7864 20.626 28.8353 18.9276C28.9232 18.7924 29.0735 18.7109 29.2348 18.7111C29.3888 18.7066 29.5347 18.7805 29.6221 18.9074C29.7096 19.0343 29.7268 19.1969 29.6677 19.3393Z" fill="white"/>
<path d="M24.8074 25.325C24.6892 25.4267 24.6114 25.5673 24.5879 25.7214C24.5879 25.8898 24.4514 26.0264 24.283 26.0264C24.1145 26.0264 23.978 25.8898 23.978 25.7214C23.9993 25.4025 24.1449 25.1047 24.3836 24.892C25.3532 23.9468 25.7801 22.9893 25.7893 22.6844C25.8716 22.6844 25.8137 22.7118 26.0667 22.5258C26.1521 22.4649 26.2375 22.4008 26.3198 22.3337C26.3302 22.3514 26.3394 22.3697 26.3473 22.3886C26.5912 23.0198 25.7222 24.4042 24.8074 25.325Z" fill="#E9E9E9"/>
<path d="M21.1479 11.9938V15.6528C21.1479 15.8212 21.0114 15.9578 20.843 15.9578C20.6746 15.9578 20.5381 15.8212 20.5381 15.6528V11.9938C20.7412 11.9816 20.9448 11.9816 21.1479 11.9938Z" fill="#9FC9D3"/>
<path d="M21.1479 21.7512V25.4103C20.8796 25.4103 20.8064 25.4103 20.5381 25.4103V21.7512C20.5381 21.5828 20.6746 21.4463 20.843 21.4463C21.0114 21.4463 21.1479 21.5828 21.1479 21.7512Z" fill="#9FC9D3"/>
<path d="M19.3185 18.7021C19.3185 18.8705 19.1819 19.0071 19.0135 19.0071H14.1348C14.1348 18.7875 14.1348 18.6229 14.1348 18.3972H19.0135C19.1819 18.3972 19.3185 18.5337 19.3185 18.7021Z" fill="#9FC9D3"/>
<path d="M27.5514 19.0071H22.6726C22.5042 19.0071 22.3677 18.8705 22.3677 18.7021C22.3677 18.5337 22.5042 18.3972 22.6726 18.3972H27.5514V19.0071Z" fill="#9FC9D3"/>
<path d="M24.8286 13.305C24.8128 13.3275 24.7944 13.3479 24.7737 13.366C22.8646 14.8797 20.2569 15.1653 18.0654 14.1009C17.6277 13.8933 17.2212 13.6254 16.8579 13.305C17.0256 13.18 17.1994 13.0641 17.3793 12.9543C19.4236 14.5191 22.2629 14.5191 24.3072 12.9543C24.5023 13.0641 24.6609 13.18 24.8286 13.305Z" fill="#9FC9D3"/>
<path d="M24.2519 23.6602C24.133 23.8157 24.0141 23.9834 23.889 24.1511C22.0242 22.9823 19.6554 22.9823 17.7906 24.1511C17.6656 23.9834 17.5467 23.8157 17.4277 23.6602C17.6264 23.525 17.8354 23.4057 18.0528 23.3034C18.2392 23.2115 18.4306 23.1301 18.6261 23.0595C20.0546 22.5427 21.619 22.5427 23.0475 23.0595C23.2429 23.1301 23.4343 23.2115 23.6207 23.3034C23.8395 23.4069 24.0504 23.5262 24.2519 23.6602Z" fill="#9FC9D3"/>
<path d="M18.6329 23.0563C18.4375 23.1268 18.2461 23.2083 18.0597 23.3002C18.1419 23.4877 18.2335 23.6708 18.3341 23.8491C18.5199 23.7559 18.7114 23.6744 18.9074 23.6051C18.8098 23.4344 18.7092 23.2484 18.6329 23.0563ZM22.1274 12.1187C21.2795 11.9539 20.4078 11.9539 19.5599 12.1187C17.7578 13.3658 17.1022 16.8389 17.1846 19.0069C17.2669 21.1749 17.8096 24.0625 19.5508 25.2853C20.4004 25.453 21.2747 25.453 22.1243 25.2853C22.7882 24.767 23.3045 24.0836 23.6215 23.3033C23.6215 23.1904 24.3685 22.0073 24.4905 19.0069C24.585 16.8328 23.9325 13.3658 22.1274 12.1187ZM22.7799 23.6051C21.6395 25.6024 20.0356 25.6085 18.9074 23.6051C16.5747 19.4948 18.2548 11.7192 21.1486 12.3321C23.6886 12.8901 24.9601 19.7875 22.7799 23.6051ZM18.6329 23.0563C18.4375 23.1268 18.2461 23.2083 18.0597 23.3002C18.1419 23.4877 18.2335 23.6708 18.3341 23.8491C18.5199 23.7559 18.7114 23.6744 18.9074 23.6051C18.8098 23.4344 18.7092 23.2484 18.6329 23.0563Z" fill="#9FC9D3"/>
</g>
<defs>
<clipPath id="clip0">
<rect width="17.9904" height="17.9904" fill="white" transform="translate(12 11.9937)"/>
</clipPath>
</defs>
</svg>
