<svg width="39" height="39" viewBox="0 0 39 39" fill="none" xmlns="http://www.w3.org/2000/svg">
<circle opacity="0.36" cx="19.3723" cy="19.7796" r="18.7981" fill="#293D4A"/>
<g clip-path="url(#clip0)">
<path d="M14.1577 15.3986H24.4801C25.0479 15.3986 25.5124 15.8631 25.5124 16.4308V17.6695C25.5124 18.2373 25.0479 18.7018 24.4801 18.7018H14.1577C13.59 18.7017 13.1255 18.2372 13.1255 17.6695V16.4308C13.1255 15.8631 13.59 15.3986 14.1577 15.3986Z" fill="#A86A3F"/>
<path d="M16.4182 16.5031L22.88 14.7896C23.0968 14.7276 23.3239 14.8618 23.3858 15.0786L24.4594 19.0424C24.5213 19.2592 24.3871 19.4863 24.1703 19.5482L15.7576 21.7881C15.5408 21.8501 15.3137 21.7159 15.2518 21.4991L14.4673 18.5882L16.4182 16.5031Z" fill="#3DB39E"/>
<path d="M23.3341 18.9187L21.9406 19.2903C21.827 19.3212 21.7135 19.2593 21.6928 19.1458C21.6619 19.0322 21.7238 18.9186 21.8374 18.898L23.0348 18.578L22.3948 16.1832L21.1974 16.5032C21.0838 16.5342 20.9703 16.4723 20.9497 16.3587C20.9187 16.2452 20.9806 16.1316 21.0942 16.111L22.4877 15.7394C22.6012 15.7084 22.7148 15.7704 22.7354 15.8839L23.4786 18.6709C23.5096 18.7845 23.4476 18.898 23.3341 18.9187ZM17.5535 20.4774L16.16 20.849C16.0465 20.8799 15.9329 20.818 15.9123 20.7044L15.1691 17.9174C15.1381 17.8039 15.2001 17.6903 15.3136 17.6697L16.7071 17.2981C16.8207 17.2671 16.9342 17.3291 16.9548 17.4426C16.9858 17.5561 16.9239 17.6697 16.8103 17.6903L15.6129 18.0103L16.2529 20.4051L17.4503 20.0851C17.5638 20.0541 17.6774 20.1161 17.698 20.2296C17.729 20.3328 17.6671 20.4464 17.5535 20.4774Z" fill="#78CABB"/>
<path d="M13.2086 17.9482C15.046 16.8953 20.0007 13.9947 20.0007 13.9947C20.1969 13.8812 20.4549 13.9431 20.5685 14.1392L22.633 17.6901C22.7465 17.8862 22.6742 18.134 22.4781 18.2475L14.9221 22.5829C14.726 22.6965 14.4679 22.6345 14.3544 22.4384C14.3544 22.4384 13.7763 21.2617 13.1982 20.2707C13.1983 17.9482 13.2086 18.712 13.2086 17.9482Z" fill="#5ABEAC"/>
<path d="M21.5796 17.5765L20.1345 15.0785C20.0725 14.9753 19.9487 14.9443 19.8558 15.0063L18.6068 15.7288C18.5035 15.7908 18.4726 15.9146 18.5345 16.0075C18.5964 16.1107 18.7203 16.1417 18.8132 16.0798L19.8867 15.4604L21.1254 17.6075L20.0519 18.2268C19.9487 18.2888 19.9177 18.4126 19.9796 18.5056C20.0416 18.6088 20.1654 18.6397 20.2584 18.5778L21.5074 17.8553C21.6002 17.8036 21.6415 17.6798 21.5796 17.5765ZM16.1087 20.4978L15.0352 21.1171L13.7965 18.9701L14.87 18.3507C14.9732 18.2888 15.0042 18.1649 14.9423 18.072C14.8804 17.9688 14.7565 17.9378 14.6636 17.9997L13.4146 18.7223C13.3114 18.7842 13.2804 18.9081 13.3423 19.001L14.7874 21.499C14.8494 21.6023 14.9732 21.6332 15.0662 21.5713L16.3152 20.8487C16.4184 20.7868 16.4493 20.6629 16.3874 20.57C16.3358 20.4771 16.2119 20.4358 16.1087 20.4978ZM16.6352 16.854C15.8403 17.3082 15.572 18.3198 16.0261 19.1146C16.4906 19.9094 17.4919 20.1778 18.2867 19.7236C19.0816 19.2694 19.3499 18.2578 18.8958 17.463C18.4313 16.6785 17.43 16.3998 16.6352 16.854ZM21.5796 17.5765L20.1345 15.0785C20.0725 14.9753 19.9487 14.9443 19.8558 15.0063L18.6068 15.7288C18.5035 15.7908 18.4726 15.9146 18.5345 16.0075C18.5964 16.1107 18.7203 16.1417 18.8132 16.0798L19.8867 15.4604L21.1254 17.6075L20.0519 18.2268C19.9487 18.2888 19.9177 18.4126 19.9796 18.5056C20.0416 18.6088 20.1654 18.6397 20.2584 18.5778L21.5074 17.8553C21.6002 17.8036 21.6415 17.6798 21.5796 17.5765ZM16.1087 20.4978L15.0352 21.1171L13.7965 18.9701L14.87 18.3507C14.9732 18.2888 15.0042 18.1649 14.9423 18.072C14.8804 17.9688 14.7565 17.9378 14.6636 17.9997L13.4146 18.7223C13.3114 18.7842 13.2804 18.9081 13.3423 19.001L14.7874 21.499C14.8494 21.6023 14.9732 21.6332 15.0662 21.5713L16.3152 20.8487C16.4184 20.7868 16.4493 20.6629 16.3874 20.57C16.3358 20.4771 16.2119 20.4358 16.1087 20.4978ZM16.6352 16.854C15.8403 17.3082 15.572 18.3198 16.0261 19.1146C16.4906 19.9094 17.4919 20.1778 18.2867 19.7236C19.0816 19.2694 19.3499 18.2578 18.8958 17.463C18.4313 16.6785 17.43 16.3998 16.6352 16.854Z" fill="#8CD2C5"/>
<path d="M24.893 25.721H14.1577C13.59 25.721 13.1255 25.2564 13.1255 24.6887V17.2566H24.893C25.4608 17.2566 25.9253 17.7211 25.9253 18.2888V24.6887C25.9253 25.2564 25.4607 25.721 24.893 25.721ZM13.9513 17.2566H13.1255V16.4308C13.1255 16.885 13.4971 17.2566 13.9513 17.2566Z" fill="#C47E4D"/>
<path d="M25.9253 23.1405H24.2737C23.4789 23.1405 22.8286 22.4902 22.8286 21.6954C22.8286 20.9005 23.4789 20.2502 24.2737 20.2502H25.9253C26.1524 20.2502 26.3382 20.436 26.3382 20.6631V22.7276C26.3382 22.9547 26.1524 23.1405 25.9253 23.1405Z" fill="#A86A3F"/>
<path d="M24.274 20.8694C24.7282 20.8694 25.0998 21.241 25.0998 21.6952C25.0998 22.1494 24.7282 22.521 24.274 22.521C23.8199 22.521 23.4482 22.1494 23.4482 21.6952C23.4482 21.241 23.8199 20.8694 24.274 20.8694Z" fill="#EFC75E"/>
<path d="M24.4805 22.3148C24.0263 22.3148 23.6547 21.9432 23.6547 21.489C23.6547 21.3135 23.7063 21.1484 23.7992 21.0142C23.5824 21.1587 23.4482 21.4064 23.4482 21.6954C23.4482 22.1496 23.8198 22.5212 24.274 22.5212C24.5528 22.5212 24.8005 22.3767 24.9553 22.1703C24.8211 22.2632 24.656 22.3148 24.4805 22.3148Z" fill="#D7B354"/>
<path d="M24.893 25.308H14.1577C13.59 25.308 13.1255 24.8435 13.1255 24.2758V24.6887C13.1255 25.2564 13.59 25.7209 14.1577 25.7209H24.893C25.4608 25.7209 25.9253 25.2564 25.9253 24.6887V24.2758C25.9253 24.8435 25.4607 25.308 24.893 25.308Z" fill="#B27245"/>
<path d="M24.893 17.2566H13.9513C13.4971 17.2566 13.1255 16.885 13.1255 16.4308V16.8437C13.1255 17.2979 13.4971 17.6695 13.9513 17.6695H24.893C25.4608 17.6695 25.9253 18.134 25.9253 18.7017V18.2888C25.9253 17.7211 25.4607 17.2566 24.893 17.2566Z" fill="#CA8B5F"/>
</g>
<defs>
<clipPath id="clip0">
<rect width="13.2127" height="13.2127" fill="white" transform="translate(13.125 13.2234)"/>
</clipPath>
</defs>
</svg>
