<svg width="42" height="42" viewBox="0 0 42 42" fill="none" xmlns="http://www.w3.org/2000/svg">
<circle opacity="0.14" cx="20.9889" cy="20.9889" r="20.9889" fill="#7F64F3"/>
<g clip-path="url(#clip0)">
<path d="M14.2052 16.5388H26.2524C26.915 16.5388 27.4571 17.0809 27.4571 17.7435V19.1892C27.4571 19.8518 26.915 20.394 26.2524 20.394H14.2052C13.5426 20.3939 13.0005 19.8518 13.0005 19.1892V17.7435C13.0005 17.0809 13.5426 16.5388 14.2052 16.5388Z" fill="#A86A3F"/>
<path d="M16.8433 17.8278L24.3849 15.828C24.6379 15.7557 24.9029 15.9123 24.9752 16.1653L26.2281 20.7914C26.3004 21.0444 26.1437 21.3094 25.8907 21.3817L16.0723 23.9959C15.8193 24.0682 15.5543 23.9116 15.482 23.6586L14.5664 20.2613L16.8433 17.8278Z" fill="#3DB39E"/>
<path d="M24.915 20.647L23.2887 21.0807C23.1562 21.1169 23.0236 21.0446 22.9996 20.9121C22.9634 20.7795 23.0357 20.647 23.1682 20.6229L24.5657 20.2495L23.8188 17.4545L22.4213 17.828C22.2888 17.8641 22.1563 17.7918 22.1322 17.6593C22.096 17.5268 22.1684 17.3943 22.3009 17.3702L23.9272 16.9365C24.0597 16.9004 24.1923 16.9727 24.2163 17.1052L25.0837 20.3579C25.1198 20.4904 25.0476 20.6229 24.915 20.647ZM18.1686 22.4662L16.5423 22.8998C16.4098 22.936 16.2772 22.8637 16.2531 22.7312L15.3857 19.4785C15.3496 19.346 15.4219 19.2134 15.5544 19.1893L17.1808 18.7557C17.3133 18.7195 17.4458 18.7918 17.4699 18.9243C17.506 19.0568 17.4337 19.1894 17.3012 19.2134L15.9038 19.5869L16.6507 22.3818L18.0481 22.0084C18.1806 21.9722 18.3132 22.0445 18.3373 22.177C18.3734 22.2975 18.3011 22.43 18.1686 22.4662Z" fill="#78CABB"/>
<path d="M13.097 19.5144C15.2414 18.2855 21.0241 14.9003 21.0241 14.9003C21.253 14.7678 21.5542 14.84 21.6867 15.0689L24.0961 19.2132C24.2286 19.4421 24.1443 19.7312 23.9154 19.8637L15.0969 24.9235C14.868 25.056 14.5668 24.9837 14.4343 24.7549C14.4343 24.7549 13.7596 23.3815 13.085 22.2249C13.085 19.5144 13.097 20.4058 13.097 19.5144Z" fill="#5ABEAC"/>
<path d="M22.867 19.0808L21.1804 16.1654C21.1082 16.0449 20.9636 16.0087 20.8552 16.081L19.3975 16.9243C19.277 16.9966 19.2409 17.1412 19.3131 17.2496C19.3854 17.3701 19.53 17.4062 19.6384 17.3339L20.8913 16.6111L22.337 19.1169L21.0841 19.8397C20.9636 19.912 20.9275 20.0566 20.9998 20.165C21.072 20.2855 21.2166 20.3216 21.325 20.2494L22.7827 19.4061C22.8911 19.3458 22.9393 19.2013 22.867 19.0808ZM16.482 22.4902L15.2291 23.213L13.7835 20.7071L15.0364 19.9843C15.1568 19.912 15.193 19.7675 15.1207 19.659C15.0484 19.5386 14.9039 19.5024 14.7954 19.5747L13.3377 20.418C13.2173 20.4903 13.1811 20.6348 13.2534 20.7433L14.94 23.6587C15.0123 23.7792 15.1568 23.8153 15.2653 23.743L16.723 22.8997C16.8434 22.8275 16.8796 22.6829 16.8073 22.5745C16.7471 22.466 16.6025 22.4178 16.482 22.4902ZM17.0964 18.2375C16.1688 18.7676 15.8556 19.9482 16.3857 20.8758C16.9278 21.8034 18.0964 22.1167 19.024 21.5866C19.9516 21.0565 20.2648 19.8759 19.7348 18.9483C19.1926 18.0327 18.0241 17.7074 17.0964 18.2375ZM22.867 19.0808L21.1804 16.1654C21.1082 16.0449 20.9636 16.0087 20.8552 16.081L19.3975 16.9243C19.277 16.9966 19.2409 17.1412 19.3131 17.2496C19.3854 17.3701 19.53 17.4062 19.6384 17.3339L20.8913 16.6111L22.337 19.1169L21.0841 19.8397C20.9636 19.912 20.9275 20.0566 20.9998 20.165C21.072 20.2855 21.2166 20.3216 21.325 20.2494L22.7827 19.4061C22.8911 19.3458 22.9393 19.2013 22.867 19.0808ZM16.482 22.4902L15.2291 23.213L13.7835 20.7071L15.0364 19.9843C15.1568 19.912 15.193 19.7675 15.1207 19.659C15.0484 19.5386 14.9039 19.5024 14.7954 19.5747L13.3377 20.418C13.2173 20.4903 13.1811 20.6348 13.2534 20.7433L14.94 23.6587C15.0123 23.7792 15.1568 23.8153 15.2653 23.743L16.723 22.8997C16.8434 22.8275 16.8796 22.6829 16.8073 22.5745C16.7471 22.466 16.6025 22.4178 16.482 22.4902ZM17.0964 18.2375C16.1688 18.7676 15.8556 19.9482 16.3857 20.8758C16.9278 21.8034 18.0964 22.1167 19.024 21.5866C19.9516 21.0565 20.2648 19.8759 19.7348 18.9483C19.1926 18.0327 18.0241 17.7074 17.0964 18.2375Z" fill="#8CD2C5"/>
<path d="M26.7343 28.5859H14.2052C13.5426 28.5859 13.0005 28.0438 13.0005 27.3812V18.7072H26.7343C27.3969 18.7072 27.939 19.2493 27.939 19.9119V27.3812C27.939 28.0438 27.3969 28.5859 26.7343 28.5859ZM13.9643 18.7072H13.0005V17.7434C13.0005 18.2735 13.4342 18.7072 13.9643 18.7072Z" fill="#C47E4D"/>
<path d="M27.9388 25.5744H26.0113C25.0837 25.5744 24.3247 24.8154 24.3247 23.8878C24.3247 22.9601 25.0837 22.2012 26.0113 22.2012H27.9388C28.2039 22.2012 28.4207 22.418 28.4207 22.6831V25.0925C28.4207 25.3575 28.2039 25.5744 27.9388 25.5744Z" fill="#A86A3F"/>
<path d="M26.0116 22.9238C26.5417 22.9238 26.9754 23.3575 26.9754 23.8876C26.9754 24.4177 26.5417 24.8514 26.0116 24.8514C25.4816 24.8514 25.0479 24.4177 25.0479 23.8876C25.0479 23.3575 25.4816 22.9238 26.0116 22.9238Z" fill="#EFC75E"/>
<path d="M26.2526 24.6105C25.7225 24.6105 25.2888 24.1768 25.2888 23.6467C25.2888 23.4419 25.349 23.2491 25.4575 23.0925C25.2045 23.2612 25.0479 23.5503 25.0479 23.8876C25.0479 24.4177 25.4815 24.8514 26.0116 24.8514C26.3369 24.8514 26.626 24.6828 26.8068 24.4418C26.6501 24.5503 26.4574 24.6105 26.2526 24.6105Z" fill="#D7B354"/>
<path d="M26.7343 28.1041H14.2052C13.5426 28.1041 13.0005 27.562 13.0005 26.8994V27.3813C13.0005 28.0439 13.5426 28.586 14.2052 28.586H26.7343C27.3969 28.586 27.939 28.0439 27.939 27.3813V26.8994C27.939 27.562 27.3969 28.1041 26.7343 28.1041Z" fill="#B27245"/>
<path d="M26.7343 18.7072H13.9643C13.4342 18.7072 13.0005 18.2735 13.0005 17.7434V18.2253C13.0005 18.7554 13.4342 19.1891 13.9643 19.1891H26.7343C27.3969 19.1891 27.939 19.7312 27.939 20.3938V19.9119C27.939 19.2493 27.3969 18.7072 26.7343 18.7072Z" fill="#CA8B5F"/>
</g>
<defs>
<clipPath id="clip0">
<rect width="15.4204" height="15.4204" fill="white" transform="translate(13 14)"/>
</clipPath>
</defs>
</svg>
