<svg width="15" height="15" viewBox="0 0 15 15" fill="none" xmlns="http://www.w3.org/2000/svg">
<path fill-rule="evenodd" clip-rule="evenodd" d="M10.3916 9.46977H9.72651L9.47711 9.22038C10.3084 8.30592 10.8072 7.05893 10.8072 5.72881C10.8072 2.73604 8.39639 0.325195 5.40361 0.325195C2.41084 0.325195 0 2.73604 0 5.72881C0 8.72158 2.41084 11.1324 5.40361 11.1324C6.73374 11.1324 7.98072 10.6336 8.89518 9.8023L9.14458 10.0517V10.7168L13.3012 14.8734L14.5482 13.6264L10.3916 9.46977ZM5.40361 9.46988C3.3253 9.46988 1.66265 7.80723 1.66265 5.72892C1.66265 3.6506 3.3253 1.98795 5.40361 1.98795C7.48193 1.98795 9.14458 3.6506 9.14458 5.72892C9.14458 7.80723 7.48193 9.46988 5.40361 9.46988Z" fill="#828282"/>
</svg>
