<svg width="155" height="101" viewBox="0 0 155 101" fill="none" xmlns="http://www.w3.org/2000/svg">
<g opacity="0.64" clip-path="url(#clip0)">
<path d="M154.683 99.5377H0.196289V100.667H154.683V99.5377Z" fill="#85848B"/>
<path d="M122.59 79.6041C122.59 80.4725 117.528 83.0042 111.515 83.0042C105.502 83.0042 100.817 80.4725 100.817 79.6041C100.817 78.7357 105.691 79.0154 111.709 79.0154C117.728 79.0154 122.59 78.7342 122.59 79.6041Z" fill="#504F60"/>
<path opacity="0.2" d="M122.59 79.6041C122.59 80.4725 117.528 83.0042 111.515 83.0042C105.502 83.0042 100.817 80.4725 100.817 79.6041" fill="black"/>
<path d="M62.0376 63.6694C63.0135 63.7945 64.0262 63.874 64.9608 63.5708C65.108 63.5252 65.2699 63.4236 65.2552 63.2764C65.2447 63.2229 65.222 63.1726 65.189 63.1292C64.8366 62.6008 64.5407 62.0369 64.3058 61.4469C64.2965 61.4161 64.2774 61.3892 64.2514 61.3703C64.2209 61.3593 64.1876 61.3593 64.1572 61.3703C63.7259 61.4837 63.3535 61.7618 62.9252 61.8811C62.7068 61.941 62.4789 61.958 62.254 61.9311C62.0597 61.909 61.7948 61.7486 61.6182 61.7692C61.7183 62.4124 61.9626 63.013 62.0376 63.6694Z" fill="white"/>
<path d="M80.4934 62.0402C81.1366 61.5986 81.8034 61.1349 82.1831 60.4535C82.2103 60.4127 82.226 60.3654 82.2288 60.3166C82.2223 60.2685 82.2035 60.2228 82.1743 60.1841C81.8126 59.609 81.3469 59.1064 80.801 58.7019C80.5162 58.9031 80.2589 59.1406 80.0357 59.4084C79.8738 59.5792 79.4263 59.85 79.4219 60.1105C79.4219 60.2577 79.5926 60.4284 79.6721 60.5521C79.7795 60.711 79.8811 60.8729 79.9783 61.0378C80.0342 61.1188 80.5449 62.0078 80.4934 62.0402Z" fill="white"/>
<path d="M65.8631 65.6403C65.8746 65.7919 65.8329 65.9429 65.7453 66.0672C65.6766 66.1363 65.5916 66.1869 65.4981 66.2143C64.1336 66.703 62.5543 66.0937 61.1928 66.575C60.9131 66.6736 60.6482 66.8163 60.367 66.9105C60.0319 67.0113 59.6861 67.0726 59.3367 67.0931C58.8554 67.1387 58.3712 67.1681 57.8884 67.1814C57.5216 67.2073 57.153 67.1751 56.7962 67.0857C56.6179 67.04 56.4511 66.9573 56.3068 66.843C56.1625 66.7286 56.0439 66.5851 55.9587 66.4219C55.8847 66.2756 55.87 66.1063 55.9175 65.9494C55.9389 65.8956 55.9692 65.8458 56.0073 65.8022C56.0996 65.6987 56.2079 65.6107 56.3282 65.5417L56.8301 65.2179C57.0655 65.0514 57.3212 64.9159 57.5911 64.8146C57.7898 64.7498 58.0002 64.7218 58.2019 64.6674C58.9069 64.4613 59.4456 63.902 59.9461 63.3648L60.629 62.6362C60.6929 62.556 60.7739 62.4911 60.866 62.4463C60.9607 62.4147 61.0614 62.4052 61.1604 62.4183C61.8238 62.4657 62.4644 62.6804 63.0223 63.0424C63.1649 63.1494 63.319 63.2402 63.4816 63.3133C63.8819 63.4693 64.3956 63.3515 64.7651 63.1543C64.9402 63.0601 64.9019 63.0071 64.9755 62.8393C65.0491 62.6715 65.2287 62.5641 65.3847 62.7171C65.4318 62.7701 65.4651 62.8338 65.4819 62.9026C65.6291 63.3883 65.5731 63.9108 65.5731 64.4201C65.5688 64.4997 65.5788 64.5795 65.6026 64.6556C65.6401 64.7324 65.685 64.8053 65.7365 64.8735C65.747 64.8915 65.7563 64.9102 65.7645 64.9294C65.8545 65.1549 65.8883 65.3988 65.8631 65.6403Z" fill="#514E7F"/>
<path d="M65.8631 65.6401C65.8746 65.7918 65.8329 65.9427 65.7453 66.067C65.6766 66.1361 65.5916 66.1867 65.4981 66.2142C64.1336 66.7028 62.5543 66.0935 61.1928 66.5748C60.9131 66.6734 60.6482 66.8162 60.367 66.9104C60.0319 67.0111 59.6861 67.0724 59.3367 67.0929C58.8554 67.1385 58.3712 67.168 57.8884 67.1812C57.5216 67.2072 57.153 67.1749 56.7962 67.0855C56.6179 67.0399 56.4511 66.9572 56.3068 66.8428C56.1625 66.7284 56.0439 66.585 55.9587 66.4217C55.8847 66.2754 55.87 66.1062 55.9175 65.9492C55.9389 65.8954 55.9692 65.8457 56.0073 65.8021C56.0868 65.9684 56.1442 66.1892 56.1942 66.2686C56.2619 66.3864 56.3538 66.4884 56.464 66.5679C56.5741 66.6473 56.6999 66.7024 56.833 66.7293C57.0323 66.7416 57.232 66.7161 57.4218 66.6543C58.6582 66.3481 59.9726 66.3437 61.1604 65.8801C61.5681 65.7196 61.9567 65.5062 62.385 65.4091C62.8133 65.3119 63.2681 65.3384 63.7097 65.3016C64.4074 65.2457 65.083 65.0352 65.7703 64.9248C65.8591 65.1521 65.8909 65.3977 65.8631 65.6401Z" fill="#464353"/>
<path d="M83.6188 61.9503C83.554 62.4684 83.2258 62.9143 82.8651 63.2926C82.5045 63.6709 82.0968 64.0109 81.8098 64.4466C81.4566 64.9868 81.2976 65.6565 80.8384 66.1128C80.6621 66.2787 80.464 66.4198 80.2496 66.5322C80.0094 66.674 79.7554 66.7908 79.4916 66.8811C78.8057 67.1004 78.0668 67.0504 77.35 66.9974C77.1173 66.9951 76.8869 66.9507 76.67 66.8664C76.5712 66.8162 76.4767 66.7581 76.3874 66.6927C76.2077 66.582 76.0564 66.4308 75.9458 66.2511C75.8915 66.1534 75.8762 66.0388 75.9031 65.9302C75.9441 65.8107 76.0144 65.7034 76.1077 65.6182C76.269 65.4505 76.4422 65.2945 76.6258 65.1516C76.8778 64.989 77.1049 64.7907 77.2999 64.5629C77.4196 64.3828 77.5077 64.1837 77.5605 63.9741C77.6647 63.6068 77.7284 63.2293 77.7503 62.8481C77.7495 62.5949 77.7757 62.3422 77.8283 62.0945C77.9373 61.7059 78.2258 61.3586 78.1934 60.9567C78.1803 60.8992 78.1854 60.839 78.2081 60.7845C78.2424 60.7419 78.2901 60.7123 78.3435 60.7006C78.5684 60.611 78.8056 60.5559 79.0471 60.5372C79.1682 60.5289 79.2896 60.5475 79.4026 60.5918C79.5156 60.6361 79.6174 60.7049 79.7006 60.7934C79.8007 60.914 79.8669 61.0877 80.0141 61.1348C80.087 61.1547 80.1636 61.1578 80.2378 61.1437C80.5999 61.1069 80.9826 61.0612 81.2682 60.8272C81.4001 60.7088 81.5062 60.5644 81.5797 60.4031C81.6531 60.2417 81.6924 60.0669 81.695 59.8896C81.695 59.7557 81.6346 59.6158 81.8422 59.5952C81.9982 59.5746 82.1218 59.7424 82.2013 59.8455C82.4883 60.2296 82.7827 60.6314 82.8902 61.0995C82.932 61.0833 82.9763 61.0748 83.0212 61.0745C83.113 61.0737 83.2036 61.0951 83.2854 61.1368C83.3671 61.1786 83.4376 61.2395 83.4907 61.3144C83.6079 61.5043 83.6533 61.7298 83.6188 61.9503Z" fill="#514E7F"/>
<path d="M83.6188 61.9502C83.554 62.4684 83.2258 62.9143 82.8652 63.2926C82.5045 63.6709 82.0968 64.0109 81.8098 64.4466C81.4566 64.9867 81.2976 65.6565 80.8384 66.1127C80.6621 66.2787 80.464 66.4198 80.2496 66.5322C80.0094 66.6739 79.7554 66.7908 79.4916 66.8811C78.8057 67.1004 78.0668 67.0503 77.35 66.9974C77.1173 66.9951 76.8869 66.9507 76.67 66.8664C76.5712 66.8162 76.4767 66.7581 76.3874 66.6927C76.2077 66.582 76.0564 66.4308 75.9458 66.2511C76.0838 66.1848 76.2343 66.1486 76.3874 66.1451C76.7053 66.1628 76.9379 66.4631 77.2425 66.5558C77.6767 66.6868 78.1095 66.3806 78.5496 66.2761C78.8366 66.2084 79.1383 66.2261 79.4224 66.1289C79.6591 66.0374 79.8779 65.9049 80.0686 65.7374C80.3299 65.5506 80.5625 65.3264 80.7589 65.0721C80.922 64.8178 81.0577 64.547 81.1636 64.2641C81.3961 63.7219 81.6697 63.1983 81.982 62.698C82.0282 62.6187 82.0841 62.5456 82.1483 62.4801C82.2175 62.4168 82.2955 62.3727 82.3735 62.3167C82.6679 62.0945 82.7901 61.728 82.8931 61.3688C82.921 61.2597 82.96 61.1537 83.0094 61.0524C83.1012 61.0516 83.1918 61.073 83.2736 61.1148C83.3554 61.1565 83.4258 61.2174 83.4789 61.2923C83.6056 61.4867 83.6554 61.7212 83.6188 61.9502Z" fill="#464353"/>
<path d="M52.7543 16.0595C53.1207 16.3341 53.4222 16.6858 53.6374 17.0898C53.8435 17.4931 55.0313 20.6224 54.9621 21.0772C55.3492 20.6871 56.8756 20.6239 57.2671 20.2338C57.4305 20.0704 58.3121 19.255 58.4446 19.0651C58.5771 18.8752 59.5603 18.4764 59.6678 18.2762C60.0696 17.5564 56.8182 14.829 57.2347 14.1181C57.2578 14.0854 57.2696 14.0462 57.2686 14.0062C57.2591 13.9727 57.2402 13.9425 57.2141 13.9194C56.9477 13.6471 56.5944 13.4778 56.2736 13.2762C55.9527 13.0745 55.6436 12.7934 55.5568 12.4225C55.2508 12.5633 54.9699 12.7533 54.7251 12.9847C54.1285 13.496 53.5422 14.0175 52.9662 14.5494C52.741 14.7584 52.3054 15.0366 52.2009 15.3354C52.0772 15.6562 52.5394 15.8844 52.7543 16.0595Z" fill="#A1616A"/>
<path d="M58.0178 14.9012C57.5189 15.2365 57.0527 15.6179 56.6254 16.0405C56.2221 16.4394 55.8394 16.9015 55.7422 17.4594C55.701 17.6787 55.7069 17.901 55.673 18.1232C55.5259 19.0873 54.6928 19.7938 54.3248 20.6961C54.2182 20.9745 54.1398 21.263 54.0908 21.5571C53.9874 22.1147 53.9307 22.6799 53.9215 23.2469C53.9127 23.7959 54.4514 24.1741 54.6486 24.6864C54.8458 25.1986 54.8988 25.7255 54.9989 26.251C55.1873 27.243 55.5332 28.1998 55.8821 29.1506C56.6077 31.1553 58.9598 36.697 59.6854 38.7032C61.9094 38.1453 67.8294 36.8633 69.7988 35.6873C70.4552 35.2957 65.2433 30.8786 65.9454 30.5739C65.9855 30.5677 66.0236 30.5522 66.0567 30.5287C66.0899 30.5051 66.1171 30.4743 66.1362 30.4384C66.1553 30.4026 66.1659 30.3628 66.167 30.3222C66.1681 30.2816 66.1597 30.2413 66.1426 30.2045C65.4405 27.1341 63.2444 24.6113 62.248 21.6219C61.9021 20.5842 61.2809 19.6981 60.8099 18.712C60.3831 17.8185 60.1549 16.8309 59.6442 15.9816C59.5479 15.8066 59.4219 15.6498 59.2718 15.518C59.1444 15.4203 59.0067 15.3369 58.8612 15.2692C58.5697 15.1279 58.2989 15.044 58.0178 14.9012Z" fill="#514E7F"/>
<path d="M52.8721 15.7108C54.7946 15.7108 56.3531 14.1523 56.3531 12.2298C56.3531 10.3073 54.7946 8.74878 52.8721 8.74878C50.9496 8.74878 49.3911 10.3073 49.3911 12.2298C49.3911 14.1523 50.9496 15.7108 52.8721 15.7108Z" fill="#A1616A"/>
<path d="M56.4136 13.865C56.5871 13.705 56.805 13.6013 57.0386 13.5677C57.2722 13.5341 57.5105 13.572 57.7221 13.6766C57.9576 13.7988 58.1637 14.0461 58.1107 14.3051L59.8372 14.3316C60.112 14.3241 60.3867 14.3493 60.6556 14.4067C60.9261 14.4656 61.1677 14.6171 61.3385 14.835C61.3591 14.863 61.3827 14.8968 61.418 14.9012C61.4467 14.9017 61.4748 14.8923 61.4975 14.8747C61.7631 14.7415 62.0623 14.6903 62.3571 14.7275C63.2902 14.7879 64.1528 15.2545 64.8843 15.8373C65.0162 15.928 65.1186 16.0555 65.1787 16.2038C65.239 16.3996 65.1669 16.6454 65.3259 16.7852C65.3259 18.4043 65.8822 19.9174 66.2532 21.4953C66.3194 21.7764 66.5887 22.0252 66.7757 22.2459C67.0066 22.4907 67.1952 22.7723 67.3335 23.079C67.6485 23.8974 67.2143 24.86 67.5204 25.6813C67.65 26.0287 67.9002 26.3142 68.1092 26.616C68.3847 26.9644 68.5589 27.382 68.6126 27.8229C68.6258 28.0202 68.6008 28.2189 68.6126 28.4117C68.6323 28.6769 68.6817 28.939 68.7598 29.1933C68.8854 29.6682 69.0169 30.1426 69.1543 30.6166C69.378 31.382 69.6694 32.2077 70.3553 32.6154C68.6994 32.8965 66.9538 33.1718 65.3759 32.5963C65.1558 32.5212 64.9469 32.4167 64.7548 32.2857C64.1852 31.8795 63.9099 31.1847 63.6641 30.5283C63.3903 29.7923 63.1121 29.0431 63.0562 28.2601C63.0568 28.011 63.0216 27.7632 62.9517 27.5241C62.7913 27.0973 62.3629 26.8397 61.9744 26.6027C61.5356 26.3623 61.138 26.0532 60.7969 25.6872C60.6276 25.5029 60.4979 25.2858 60.4159 25.0493C60.3338 24.8128 60.3012 24.5621 60.32 24.3125C60.3494 24.0696 60.4451 23.8356 60.4539 23.5913C60.4627 23.3469 60.3538 23.0673 60.1198 23.0025C58.9143 22.6375 58.3388 21.2097 58.0709 19.9792C57.9553 19.3433 57.9036 18.6973 57.9164 18.0511L57.9002 16.7955C57.7338 16.6442 57.6 16.4606 57.5069 16.2559C57.4138 16.0512 57.3633 15.8296 57.3585 15.6048C57.3745 15.4736 57.372 15.3408 57.3512 15.2103C57.2929 15.0508 57.1982 14.9071 57.0745 14.7908C56.8083 14.5177 56.5854 14.2055 56.4136 13.865Z" fill="#464353"/>
<path d="M52.7062 17.845C52.6665 18.2336 52.7548 18.6324 52.668 19.0137C52.6341 19.1608 52.5753 19.308 52.5326 19.4449C52.4021 19.9936 52.4585 20.5702 52.693 21.0831C52.9272 21.591 53.2075 22.0764 53.5305 22.5329C53.6398 22.6888 53.7297 22.8573 53.7984 23.0349C53.8541 23.2213 53.8886 23.4133 53.9014 23.6074C53.9867 24.3869 54.1234 25.1598 54.3106 25.9212C54.4755 26.5806 56.3477 32.218 56.7834 32.7405C56.8624 32.8562 56.9823 32.9377 57.119 32.9686C57.2175 32.9724 57.3155 32.9522 57.4045 32.9098L58.2877 32.5712C58.3628 32.5483 58.4324 32.5102 58.4922 32.4594C58.575 32.3627 58.62 32.2393 58.6188 32.112C58.6821 31.3937 56.8055 25.7166 56.567 25.0381C55.8458 22.9892 54.8861 21.014 54.4166 18.893C54.2856 18.3042 54.2164 17.3975 53.7851 16.928C53.607 16.7337 53.6674 16.8161 53.454 16.9177C53.3461 16.9645 53.2418 17.0191 53.1419 17.0811C53.017 17.1679 52.9131 17.2816 52.8377 17.4137C52.7623 17.5459 52.7174 17.6932 52.7062 17.845Z" fill="#464353"/>
<path d="M55.3865 21.7323C55.6235 22.9849 55.8678 24.2345 56.1107 25.4871L59.5667 24.5819C59.5946 24.2198 59.4018 23.8842 59.2723 23.5516C58.9573 22.7612 58.9499 21.881 58.6953 21.0685C58.5025 20.4503 58.1669 19.8822 57.9858 19.2596C57.8813 18.8975 57.8284 18.5236 57.7253 18.1571C57.6148 17.7972 57.4791 17.4455 57.3191 17.1047C57.1251 16.6104 56.872 16.1414 56.5655 15.7079C56.1239 15.8727 55.6529 16.0641 55.4012 16.463C55.2721 16.6877 55.1984 16.94 55.1863 17.1989C55.126 17.9746 55.4071 18.7547 55.3144 19.526C55.2189 20.2605 55.2432 21.0056 55.3865 21.7323Z" fill="white"/>
<path d="M59.624 38.394C59.8183 39.13 59.5372 39.9042 59.3075 40.6328C58.9618 41.7302 58.7262 42.8593 58.604 44.0034C58.589 44.2946 58.5305 44.5818 58.4303 44.8556C58.3214 45.1014 58.1359 45.309 58.0093 45.543C57.662 46.1583 57.6708 46.9089 57.7459 47.6125C57.7959 48.0761 57.871 48.5383 57.9637 48.9946C58.077 49.5524 58.2169 50.1353 58.0535 50.6799C58.3273 50.6196 58.5127 50.9743 58.4951 51.2525C58.4774 51.5307 58.3876 51.8412 58.5216 52.0811C58.8601 52.2048 58.863 52.6699 58.8527 53.0305C58.8583 53.6558 58.9374 54.2783 59.0882 54.8851C59.6005 57.3481 60.1441 59.8041 60.7191 62.2534C61.9628 62.639 63.4156 63.0408 64.6019 62.5065C64.8227 62.4079 65.0435 62.2504 65.0935 62.012C65.1065 61.8835 65.0904 61.7537 65.0464 61.6322L64.4842 59.5863C64.3473 59.0917 64.2104 58.581 64.2825 58.0732C64.337 57.6949 64.5018 57.2872 64.3164 56.9531C64.2531 56.8383 64.153 56.7485 64.0794 56.6396C63.785 56.2083 63.9396 55.6313 63.9631 55.1088C63.9723 54.9915 63.9644 54.8735 63.9396 54.7585C63.8993 54.6242 63.8429 54.4952 63.7718 54.3743C63.3071 53.4722 63.084 52.4651 63.1242 51.4512C63.1417 51.3218 63.1239 51.19 63.0726 51.07C63.0369 51.0204 63.0049 50.9682 62.977 50.9139C62.955 50.8194 62.9659 50.7203 63.0079 50.6328C62.8392 50.5048 62.6869 50.3565 62.5545 50.1912C62.6362 50.1405 62.7052 50.0719 62.7564 49.9905C62.8077 49.9092 62.8397 49.8173 62.8502 49.7217C62.8607 49.6261 62.8493 49.5295 62.817 49.4389C62.7846 49.3484 62.7321 49.2664 62.6634 49.1992C62.7235 49.1871 62.779 49.1586 62.8238 49.1169C62.8686 49.0751 62.901 49.0218 62.9173 48.9628C62.9336 48.9038 62.9332 48.8414 62.9162 48.7826C62.8992 48.7237 62.8662 48.6708 62.8209 48.6296C62.7488 48.5795 62.6531 48.5574 62.6016 48.4824C62.5221 48.3735 62.5869 48.2219 62.6517 48.1056L62.9946 47.4859C63.2507 47.0252 63.3081 46.4556 63.5834 46.014C63.9778 45.3708 64.2354 44.654 64.4901 43.9445L65.4806 41.2112L66.1474 41.7897C66.3695 41.9594 66.5556 42.1715 66.695 42.4138C66.7898 42.6532 66.8497 42.905 66.8731 43.1615C67.1174 44.6452 68.0506 45.9316 68.3965 47.3932C68.473 47.7185 68.5245 48.0599 68.7114 48.3381C68.7783 48.4235 68.8384 48.5141 68.891 48.609C68.9397 48.7537 68.9651 48.9052 68.9661 49.0579C68.9969 49.3568 69.0918 49.6457 69.2442 49.9047C69.3966 50.1638 69.6029 50.387 69.8492 50.5592C70.1774 50.7844 70.5852 50.939 70.7633 51.2952C70.7989 51.4055 70.8483 51.5108 70.9104 51.6087C71.0694 51.8 71.4124 51.8221 71.4801 52.062C71.5183 52.196 71.4477 52.3564 71.5227 52.4741C71.5654 52.5286 71.6218 52.5708 71.6861 52.5963L72.6443 53.0747C73.7159 53.6104 74.2634 54.8409 75.0538 55.7373C75.3268 56.0293 75.5685 56.3489 75.775 56.6911C76.1165 57.3019 76.274 58.0688 76.851 58.4574C77.0061 58.5378 77.1472 58.6426 77.269 58.7679C77.4501 59.0064 77.3838 59.3405 77.4 59.6408C77.4162 59.941 77.6458 60.2987 77.9314 60.2074C77.8313 60.5711 77.8313 60.955 77.9314 61.3187C79.185 61.2543 80.3805 60.7701 81.3255 59.944C81.6052 59.6996 81.8745 59.3876 81.8775 59.0167C81.8818 58.9527 81.8675 58.8888 81.8363 58.8327C81.7797 58.7602 81.7051 58.7039 81.6199 58.6693C80.7235 58.1836 80.4542 57.0576 80.0008 56.1436C79.6049 55.337 79.0191 54.6422 78.5289 53.893C77.4633 52.2813 76.7362 50.3311 75.1245 49.2669C74.7697 49.0329 74.3576 48.8253 74.1795 48.4382C74.0809 48.2219 74.0691 47.9746 73.9911 47.7508C73.9131 47.5271 73.7262 47.3093 73.4877 47.3093C73.6202 46.9855 73.5937 46.591 73.6025 46.2407C73.6116 46.0852 73.5937 45.9293 73.5495 45.78C73.4883 45.6193 73.4088 45.4662 73.3126 45.3237C72.8921 44.6117 72.6818 43.7952 72.7062 42.9687C72.7179 42.5433 72.793 42.1047 72.6649 41.6984C72.6002 41.4938 72.4868 41.3069 72.4088 41.1097C72.2913 40.7523 72.2292 40.379 72.2248 40.0028L72.1365 38.5883C72.1232 38.1173 72.062 37.6488 71.954 37.19C71.6596 36.092 71.3653 31.4924 70.357 30.9743C69.3488 30.4561 67.6164 33.996 66.4815 34.0652C65.9795 34.0861 65.4834 34.1819 65.0096 34.3493C64.2546 34.6319 63.6216 35.1588 63.0049 35.674L60.9178 37.427C60.4762 37.7906 60.1112 38.1379 59.624 38.394Z" fill="#464353"/>
<path d="M49.6065 8.36457C50.0657 7.73755 50.8547 7.4049 51.6318 7.37693C52.409 7.34897 53.1744 7.5933 53.8706 7.9392C54.0761 8.05605 54.2957 8.14608 54.5241 8.20708C54.8921 8.28215 55.3012 8.18206 55.6339 8.35427C56.0755 8.5883 56.1608 9.18441 56.1226 9.67897C56.0843 10.1735 55.9916 10.7225 56.255 11.1509C56.3485 11.273 56.4336 11.4014 56.5097 11.535C56.623 11.7897 56.5568 12.084 56.4891 12.3534C56.3168 12.2062 56.2197 11.9839 56.0666 11.8132C55.9136 11.6425 55.6471 11.5277 55.4573 11.6557C55.2674 11.7838 55.2703 12.0163 55.26 12.2253C55.2497 12.4343 55.1967 12.6846 54.9995 12.7523C54.9171 12.771 54.831 12.7646 54.7523 12.7339C54.6736 12.7032 54.6059 12.6496 54.5579 12.5801C54.2209 12.1679 54.3563 11.51 54.0222 11.0949C53.8323 10.8594 53.5158 10.7446 53.3407 10.4973C53.2023 10.3031 53.167 10.0558 53.0463 9.84676C52.9256 9.63775 52.6445 9.48468 52.4576 9.62892C52.3938 9.68987 52.3405 9.761 52.3001 9.83941C52.1835 10.0064 52.014 10.1291 51.8191 10.1879C51.6241 10.2467 51.415 10.238 51.2256 10.1632C51.0809 10.0744 50.9243 10.0065 50.7605 9.96157C50.6533 9.9562 50.5467 9.98093 50.4528 10.0329C50.3589 10.085 50.2814 10.1622 50.2291 10.2559C50.1235 10.4432 50.0725 10.6564 50.0819 10.8712C50.0819 11.1656 50.1349 11.4791 49.9671 11.7146C49.9033 11.8032 49.8234 11.8791 49.7316 11.9383C49.4858 12.0958 49.1429 12.2018 48.9162 12.0222C48.8394 11.9507 48.7822 11.8605 48.7503 11.7605C48.7183 11.6605 48.7126 11.554 48.7337 11.4511C48.7778 11.2463 48.8358 11.0446 48.9074 10.8476C49.0369 10.3914 48.8676 9.87767 49.0089 9.44788C49.1569 9.06082 49.358 8.69622 49.6065 8.36457Z" fill="#464353"/>
<path d="M51.4705 18.7487C51.4484 18.856 51.4597 18.9674 51.5029 19.0681C51.5466 19.1366 51.6062 19.1937 51.6766 19.2344C52.1715 19.5428 52.7345 19.7252 53.3162 19.7658C53.3954 19.7671 53.4731 19.7873 53.5429 19.8246C53.6813 19.9159 53.6901 20.119 53.6386 20.2809C53.5699 20.4337 53.5343 20.5992 53.5341 20.7667C53.5768 21.0743 53.9418 21.2082 54.2494 21.2538C54.6807 21.3083 55.1532 21.2803 55.4946 21.011C55.726 20.8 55.9023 20.5358 56.0083 20.2412C56.8532 18.2998 57.149 16.1538 58.0042 14.2182C58.069 14.0918 58.1123 13.9555 58.1323 13.8149C58.1413 13.7445 58.1313 13.673 58.1034 13.6078C58.0754 13.5426 58.0305 13.486 57.9733 13.444C57.8143 13.3454 57.5671 13.4013 57.4596 13.2468C57.4066 13.1688 57.4125 13.0628 57.3654 12.9804C57.2668 12.8052 57.0077 12.8332 56.8311 12.7316C56.6928 12.658 56.5971 12.5064 56.4425 12.477C56.3667 12.4727 56.2908 12.4862 56.2211 12.5163C56.1513 12.5465 56.0896 12.5925 56.0407 12.6507C55.5388 13.1187 55.2753 13.7825 54.9957 14.4096C54.5686 15.3707 54.0687 16.2977 53.5002 17.1826C53.5665 17.0796 53.1823 16.2995 53.0322 16.2656C52.7687 16.2126 52.4316 16.6748 52.2889 16.847C51.8408 17.3902 51.557 18.0499 51.4705 18.7487Z" fill="white"/>
<path opacity="0.1" d="M56.8179 12.8687C56.7122 12.8704 56.6082 12.8959 56.5137 12.9433C56.4192 12.9907 56.3365 13.0588 56.2718 13.1424C56.1144 13.347 56.0834 13.6178 56.0437 13.8784C55.9097 14.7038 55.6152 15.4949 55.1768 16.2069" fill="black"/>
<path opacity="0.1" d="M57.5687 13.4558C57.4228 13.4591 57.2802 13.5003 57.155 13.5754C57.0299 13.6505 56.9264 13.7569 56.8549 13.8841C56.7574 14.1156 56.6968 14.361 56.6753 14.6112C56.5491 15.1661 56.3057 15.6875 55.9614 16.1405" fill="black"/>
<path d="M92.5499 42.2314V40.4033C92.5495 39.0576 92.0146 37.7671 91.0629 36.8156C90.1112 35.8642 88.8206 35.3297 87.4748 35.3297H15.2802C13.9344 35.3297 12.6438 35.8642 11.6921 36.8156C10.7403 37.7671 10.2055 39.0576 10.2051 40.4033V43.7739L92.5499 42.2314Z" fill="#33323D"/>
<path d="M35.3643 33.1866C35.3643 33.1866 35.1582 45.9715 37.4249 50.1781C39.6916 54.3848 40.6631 72.6848 40.6631 72.6848C40.6631 72.6848 64.4252 75.1428 80.984 69.741C97.5427 64.3392 132.777 62.1299 132.777 62.1299L126.839 22.1107C126.839 22.1107 97.5059 20.2296 80.8191 28.1881C64.1323 36.1466 35.3643 33.1866 35.3643 33.1866Z" fill="#8DD070"/>
<path opacity="0.1" d="M35.3643 33.1866C35.3643 33.1866 35.1582 45.9715 37.4249 50.1781C39.6916 54.3848 40.6631 72.6848 40.6631 72.6848C40.6631 72.6848 64.4252 75.1428 80.984 69.741C97.5427 64.3392 132.777 62.1299 132.777 62.1299L126.839 22.1107C126.839 22.1107 97.5059 20.2296 80.8191 28.1881C64.1323 36.1466 35.3643 33.1866 35.3643 33.1866Z" fill="black"/>
<path d="M40.6233 37.8569C40.6233 37.8569 39.88 48.406 41.7449 51.7766C43.6098 55.1472 43.6966 70.1943 43.6966 70.1943C43.6966 70.1943 65.0817 71.1864 80.2937 66.0083C95.5056 60.8302 127.472 57.4713 127.472 57.4713L123.839 24.7439C123.839 24.7439 97.3896 24.4716 81.9525 31.7604C66.5153 39.0492 40.6233 37.8569 40.6233 37.8569Z" fill="#8DD070"/>
<path opacity="0.1" d="M81.7176 60.016C84.7604 59.637 86.5681 54.0395 85.7552 47.5135C84.9424 40.9876 81.8168 36.0045 78.774 36.3835C75.7313 36.7625 73.9236 42.36 74.7364 48.886C75.5493 55.4119 78.6749 60.395 81.7176 60.016Z" fill="black"/>
<path opacity="0.2" d="M110.758 2.61548C110.758 2.61548 82.2606 9.82773 68.8223 22.5228C55.3839 35.2178 27.0942 41.229 27.0942 41.229C27.0942 41.229 30.8211 53.4589 34.2682 56.7677C37.7154 60.0766 44.2535 77.1976 44.2535 77.1976C44.2535 77.1976 67.6227 72.2432 81.7234 62.0165C95.8241 51.7898 128.687 38.874 128.687 38.874L110.758 2.61548Z" fill="black"/>
<path d="M26.6655 39.3978C26.6655 39.3978 30.3909 51.6292 33.8351 54.938C37.2793 58.2468 43.8204 75.3664 43.8204 75.3664C43.8204 75.3664 67.1925 70.4135 81.2947 60.1868C95.3969 49.9601 128.257 37.0487 128.257 37.0487L110.328 0.785767C110.328 0.785767 81.8319 7.99802 68.3936 20.6931C54.9552 33.3881 26.6655 39.3978 26.6655 39.3978Z" fill="#8DD070"/>
<path opacity="0.1" d="M26.6655 39.3978C26.6655 39.3978 30.3909 51.6292 33.8351 54.938C37.2793 58.2468 43.8204 75.3664 43.8204 75.3664C43.8204 75.3664 67.1925 70.4135 81.2947 60.1868C95.3969 49.9601 128.257 37.0487 128.257 37.0487L110.328 0.785767C110.328 0.785767 81.8319 7.99802 68.3936 20.6931C54.9552 33.3881 26.6655 39.3978 26.6655 39.3978Z" fill="black"/>
<path d="M33.0991 42.2298C33.0991 42.2298 35.6293 52.4992 38.4391 55.1339C41.249 57.7686 45.9458 72.0606 45.9458 72.0606C45.9458 72.0606 66.6023 66.4409 79.4916 56.8442C92.3809 47.2475 121.777 34.2551 121.777 34.2551L108.279 4.21094C108.279 4.21094 83.0226 12.0664 70.5661 23.7414C58.1095 35.4165 33.0991 42.2298 33.0991 42.2298Z" fill="#8DD070"/>
<path opacity="0.1" d="M79.0147 50.7092C81.7943 49.4148 81.7971 43.5325 79.021 37.5709C76.2448 31.6092 71.7409 27.8256 68.9612 29.12C66.1816 30.4144 66.1788 36.2966 68.9549 42.2583C71.7311 48.22 76.235 52.0036 79.0147 50.7092Z" fill="black"/>
<path opacity="0.1" d="M94.4992 44.0256V94.8058C94.4992 95.3825 94.3855 95.9536 94.1648 96.4863C93.9441 97.0191 93.6205 97.5032 93.2127 97.911C92.8048 98.3187 92.3206 98.6421 91.7877 98.8626C91.2549 99.0832 90.6838 99.1966 90.107 99.1964H14.5991C13.4349 99.196 12.3185 98.7333 11.4954 97.9099C10.6723 97.0865 10.21 95.97 10.21 94.8058V38.9064C12.3736 39.71 12.3736 39.71 14.5991 39.6423H90.107C91.2704 39.6423 92.3862 40.1038 93.2096 40.9256C94.033 41.7474 94.4968 42.8623 94.4992 44.0256Z" fill="black"/>
<path d="M94.4992 44.6717V95.4519C94.4988 96.6165 94.0359 97.7333 93.2122 98.5566C92.3886 99.38 91.2717 99.8425 90.107 99.8425H14.5991C13.4349 99.8421 12.3185 99.3794 11.4954 98.556C10.6723 97.7327 10.21 96.6161 10.21 95.4519V39.551C12.3736 40.3532 12.3736 40.3532 14.5991 40.287H90.107C91.2706 40.287 92.3867 40.7487 93.2101 41.5708C94.0336 42.3929 94.4972 43.5081 94.4992 44.6717Z" fill="#504F60"/>
<path opacity="0.1" d="M94.2837 63.4457V79.685H78.5345C76.4 79.6563 74.3626 78.7882 72.8633 77.2686C71.364 75.749 70.5234 73.7001 70.5234 71.5654C70.5234 69.4306 71.364 67.3818 72.8633 65.8621C74.3626 64.3425 76.4 63.4744 78.5345 63.4457H94.2837Z" fill="black"/>
<path d="M94.4986 63.0129V79.2552H78.7494C76.6148 79.2265 74.5775 78.3584 73.0782 76.8388C71.5789 75.3192 70.7383 73.2703 70.7383 71.1356C70.7383 69.0008 71.5789 66.952 73.0782 65.4323C74.5775 63.9127 76.6148 63.0446 78.7494 63.0159L94.4986 63.0129Z" fill="#33323D"/>
<path opacity="0.1" d="M79.5049 74.7321C81.2535 74.7321 82.6709 73.3146 82.6709 71.5661C82.6709 69.8175 81.2535 68.4 79.5049 68.4C77.7563 68.4 76.3389 69.8175 76.3389 71.5661C76.3389 73.3146 77.7563 74.7321 79.5049 74.7321Z" fill="black"/>
<path d="M79.7193 74.3024C81.4678 74.3024 82.8853 72.8849 82.8853 71.1364C82.8853 69.3878 81.4678 67.9703 79.7193 67.9703C77.9707 67.9703 76.5532 69.3878 76.5532 71.1364C76.5532 72.8849 77.9707 74.3024 79.7193 74.3024Z" fill="white"/>
<path d="M121.836 62.873C121.961 64.2286 120.935 65.5444 121.234 66.8721C121.299 67.1562 121.421 67.424 121.465 67.7111C121.589 68.5 121.119 69.2462 120.67 69.9057L116.814 75.5636C116.66 75.8123 116.475 76.0408 116.264 76.2436C115.528 76.9001 114.421 76.8324 113.452 77.0281C112.771 77.1663 112.129 77.4506 111.568 77.8612C111.545 77.8812 111.53 77.9095 111.527 77.9401C111.523 77.9708 111.532 78.0015 111.551 78.0261C111.711 78.244 111.923 78.4184 112.167 78.5333C112.412 78.6483 112.682 78.7001 112.952 78.684C113.053 78.8179 112.952 79.0137 112.805 79.1094C112.597 79.2566 112.313 79.2919 112.272 79.6422C112.257 79.7645 112.282 79.8882 112.342 79.9955C112.498 80.2334 112.739 80.4017 113.017 80.465C114.352 80.8727 115.794 80.1559 116.793 79.18C117.793 78.2042 118.51 76.9722 119.49 75.9787C120.033 75.4297 120.65 74.9586 121.209 74.4258C122.325 73.3631 123.192 72.0708 124.029 70.777C124.281 70.387 124.534 69.9866 124.64 69.5347C124.746 69.0829 124.696 68.6266 124.815 68.1894C124.971 67.6154 125.391 67.1591 125.74 66.6778C126.424 65.7358 126.88 64.5833 126.79 63.4235C126.701 62.2636 125.981 61.117 124.886 60.7225C124.546 60.5862 124.172 60.5635 123.819 60.6578C123.37 60.7961 123.039 61.167 122.732 61.5218L121.997 62.3681C121.813 62.5538 121.668 62.7739 121.57 63.0157C121.523 63.1372 121.511 63.2696 121.537 63.3973C121.564 63.5249 121.626 63.6423 121.717 63.7355" fill="#FBBEBE"/>
<path opacity="0.05" d="M121.836 62.873C121.961 64.2286 120.935 65.5444 121.234 66.8721C121.299 67.1562 121.421 67.424 121.465 67.7111C121.589 68.5 121.119 69.2462 120.67 69.9057L116.814 75.5636C116.66 75.8123 116.475 76.0408 116.264 76.2436C115.528 76.9001 114.421 76.8324 113.452 77.0281C112.771 77.1663 112.129 77.4506 111.568 77.8612C111.545 77.8812 111.53 77.9095 111.527 77.9401C111.523 77.9708 111.532 78.0015 111.551 78.0261C111.711 78.244 111.923 78.4184 112.167 78.5333C112.412 78.6483 112.682 78.7001 112.952 78.684C113.053 78.8179 112.952 79.0137 112.805 79.1094C112.597 79.2566 112.313 79.2919 112.272 79.6422C112.257 79.7645 112.282 79.8882 112.342 79.9955C112.498 80.2334 112.739 80.4017 113.017 80.465C114.352 80.8727 115.794 80.1559 116.793 79.18C117.793 78.2042 118.51 76.9722 119.49 75.9787C120.033 75.4297 120.65 74.9586 121.209 74.4258C122.325 73.3631 123.192 72.0708 124.029 70.777C124.281 70.387 124.534 69.9866 124.64 69.5347C124.746 69.0829 124.696 68.6266 124.815 68.1894C124.971 67.6154 125.391 67.1591 125.74 66.6778C126.424 65.7358 126.88 64.5833 126.79 63.4235C126.701 62.2636 125.981 61.117 124.886 60.7225C124.546 60.5862 124.172 60.5635 123.819 60.6578C123.37 60.7961 123.039 61.167 122.732 61.5218L121.997 62.3681C121.813 62.5538 121.668 62.7739 121.57 63.0157C121.523 63.1372 121.511 63.2696 121.537 63.3973C121.564 63.5249 121.626 63.6423 121.717 63.7355" fill="black"/>
<path d="M124.755 97.7716C123.913 98.2853 122.864 98.3162 121.885 98.197C121.728 98.1778 121.541 98.1661 121.443 98.2882C121.296 98.4649 121.47 98.7298 121.65 98.8667C122.227 99.3002 122.905 99.5793 123.62 99.6777C124.259 99.7682 124.904 99.811 125.549 99.8057C127.315 99.8367 129.081 99.8661 130.819 99.6129C130.922 99.6051 131.023 99.5761 131.114 99.5276C131.226 99.4489 131.304 99.3305 131.332 99.1964C131.451 98.7431 131.221 98.2573 130.874 97.9423C130.526 97.6274 130.081 97.4522 129.645 97.2829L128.114 96.6868C127.755 96.547 127.179 96.1761 126.789 96.2055C126.056 96.2585 125.363 97.4154 124.755 97.7716Z" fill="#3F3D56"/>
<path opacity="0.05" d="M124.755 97.7716C123.913 98.2853 122.864 98.3162 121.885 98.197C121.728 98.1778 121.541 98.1661 121.443 98.2882C121.296 98.4649 121.47 98.7298 121.65 98.8667C122.227 99.3002 122.905 99.5793 123.62 99.6777C124.259 99.7682 124.904 99.811 125.549 99.8057C127.315 99.8367 129.081 99.8661 130.819 99.6129C130.922 99.6051 131.023 99.5761 131.114 99.5276C131.226 99.4489 131.304 99.3305 131.332 99.1964C131.451 98.7431 131.221 98.2573 130.874 97.9423C130.526 97.6274 130.081 97.4522 129.645 97.2829L128.114 96.6868C127.755 96.547 127.179 96.1761 126.789 96.2055C126.056 96.2585 125.363 97.4154 124.755 97.7716Z" fill="black"/>
<path d="M125.828 77.4507C125.191 78.2985 124.532 79.2773 124.689 80.3268C124.774 80.892 125.091 81.391 125.323 81.9135C125.638 82.6229 125.803 83.3854 125.965 84.1449C126.204 85.2547 126.444 86.3674 126.589 87.4949C126.756 88.7681 125.974 92.4522 125.902 93.7342C125.884 94.0433 125.847 94.3775 125.633 94.5997C125.549 94.688 125.437 94.7587 125.399 94.8735C125.376 94.9841 125.394 95.0991 125.45 95.1973C125.809 96.0068 126.544 96.6103 127.364 96.9547C128.183 97.2992 130.16 97.8938 131.054 97.9247C131.171 97.9377 131.29 97.922 131.401 97.8791C131.52 97.8066 131.613 97.6991 131.669 97.5715C132.309 96.3468 131.694 91.993 131.703 90.6109C131.711 89.4584 131.984 88.3133 131.934 87.1623C131.893 86.2379 131.639 85.3342 131.555 84.4128C131.408 82.9026 131.685 81.3851 131.963 79.8926C132.175 78.7475 132.389 77.6023 132.661 76.4719C132.827 75.7816 133.02 75.0854 133.397 74.4863C133.691 74.0109 134.105 73.6135 134.448 73.1616C135.4 71.9136 135.823 70.3414 135.625 68.7843C135.605 68.6371 133.417 69.3391 133.225 69.423C132.438 69.7562 131.714 70.2217 131.084 70.7993C130.578 71.282 130.179 71.9267 129.736 72.4669C129.109 73.2313 128.49 74.0011 127.879 74.7763C127.181 75.6624 126.498 76.5539 125.828 77.4507Z" fill="#464353"/>
<path opacity="0.05" d="M125.828 77.3992C125.191 78.247 124.532 79.2273 124.689 80.2753C124.774 80.8419 125.091 81.3409 125.323 81.8634C125.638 82.5714 125.803 83.3353 125.965 84.0933C126.204 85.2046 126.444 86.3174 126.589 87.4434C126.756 88.718 125.974 92.4007 125.902 93.6827C125.884 93.9918 125.847 94.3274 125.633 94.5496C125.549 94.6365 125.437 94.7071 125.399 94.8219C125.376 94.9326 125.394 95.0476 125.45 95.1458C125.809 95.9568 126.544 96.5588 127.364 96.912C128.183 97.2653 130.16 97.5729 131.054 97.6023C131.171 97.6153 131.29 97.5997 131.401 97.5567C131.52 97.4851 131.614 97.3781 131.669 97.2506C132.309 96.0259 131.694 91.9518 131.703 90.5682C131.711 89.4142 131.984 88.2706 131.934 87.1181C131.893 86.1937 131.639 85.29 131.555 84.3701C131.408 82.8584 131.685 81.3409 131.963 79.8484C132.175 78.7048 132.389 77.5596 132.661 76.4277C132.827 75.7374 133.02 75.0412 133.397 74.4422C133.691 73.9667 134.105 73.5693 134.448 73.1175C135.4 71.8696 135.823 70.2972 135.625 68.7401C135.605 68.5929 133.417 69.295 133.225 69.3789C132.438 69.7131 131.714 70.179 131.084 70.7566C130.578 71.2379 130.179 71.8825 129.736 72.4227C129.109 73.1871 128.49 73.9574 127.879 74.7336C127.181 75.6128 126.498 76.5013 125.828 77.3992Z" fill="black"/>
<path d="M118.736 58.7782C120.709 58.7782 122.309 57.1789 122.309 55.2059C122.309 53.233 120.709 51.6337 118.736 51.6337C116.763 51.6337 115.164 53.233 115.164 55.2059C115.164 57.1789 116.763 58.7782 118.736 58.7782Z" fill="#FBBEBE"/>
<path d="M121.954 55.0558C122.284 55.5823 122.717 56.0369 123.226 56.3924C123.736 56.748 124.312 56.9972 124.92 57.1253L124.651 58.1041C124.185 59.785 123.663 61.5631 122.365 62.7288C122.512 62.1592 122.324 61.5513 122.003 61.0567C121.682 60.5622 121.231 60.1736 120.79 59.7894L118.734 58.0085C118.674 57.9601 118.624 57.9013 118.586 57.8348C118.536 57.7092 118.536 57.5688 118.586 57.4433C118.848 56.6278 119.596 56.1186 120.205 55.5681C120.511 55.2834 120.784 54.9655 121.019 54.6202C121.43 54.0344 121.685 54.6231 121.954 55.0558Z" fill="#FBBEBE"/>
<path d="M114.031 51.6146L113.95 50.9434C114.514 51.0906 115.05 50.6108 115.41 50.1147C115.771 49.6187 116.105 49.0344 116.654 48.8268C117.321 48.5766 118.027 48.974 118.665 49.3096C119.378 49.7055 120.161 49.9604 120.971 50.0603C121.1 50.0646 121.228 50.0853 121.352 50.1221C121.767 50.2693 121.965 50.7903 122.025 51.2628C122.085 51.7353 122.069 52.2372 122.274 52.6582C122.421 52.9776 122.695 53.2145 122.862 53.5295C123.304 54.3744 122.877 55.5298 123.338 56.3585L122.193 55.309C122.088 55.2134 121.941 55.1133 121.825 55.1942C121.734 55.259 121.726 55.3988 121.689 55.5107C121.579 55.8374 121.17 55.9346 120.874 55.8051C120.578 55.6755 120.362 55.3944 120.138 55.1383C119.632 54.5407 119.028 54.0152 118.322 53.7606C118.012 53.6448 117.681 53.5962 117.351 53.6181C117.021 53.6399 116.7 53.7316 116.408 53.8872C115.874 54.1889 115.482 54.8925 114.827 54.9175C113.93 54.9514 113.556 53.2793 113.141 52.6184C113.293 52.5041 113.399 52.34 113.442 52.1549C113.485 51.9697 113.462 51.7753 113.376 51.6058C113.436 51.5807 114.018 51.5116 114.031 51.6146Z" fill="#464353"/>
<path d="M69.8456 30.7301C69.5586 30.9854 69.2933 31.264 69.0523 31.5632C68.8097 31.8665 68.6806 32.2449 68.6873 32.6333C68.6885 32.7459 68.7245 32.8553 68.7903 32.9468C68.8239 32.9905 68.8703 33.0227 68.9231 33.0388C68.9759 33.0549 69.0324 33.0541 69.0847 33.0366C69.1438 33.0064 69.1944 32.9619 69.2319 32.907C69.3874 32.7201 69.5525 32.5413 69.7264 32.3713C69.7897 32.308 69.8736 32.2417 69.959 32.2653C69.9972 32.2789 70.0316 32.3016 70.0591 32.3315C70.1581 32.4171 70.2302 32.5296 70.2666 32.6553C70.3181 32.8805 70.1871 33.1057 70.0384 33.2824C69.8898 33.459 69.7146 33.6282 69.6543 33.8505C69.6315 33.9092 69.6315 33.9743 69.6543 34.033C69.6827 34.0755 69.7225 34.1091 69.7691 34.1302C69.9799 34.2462 70.2136 34.3145 70.4537 34.3303C70.6938 34.3461 70.9344 34.3089 71.1586 34.2214C71.4529 34.1022 71.7149 33.8976 72.0181 33.7916C72.1494 33.7557 72.2767 33.7064 72.3979 33.6444C72.4846 33.5867 72.5591 33.5124 72.6169 33.4257C72.6748 33.3391 72.7149 33.2418 72.735 33.1396C72.7732 32.9353 72.7807 32.7264 72.757 32.5199C72.7203 31.7203 72.5492 30.9326 72.2507 30.1899C72.2334 30.142 72.204 30.0994 72.1653 30.0663C72.1211 30.0393 72.07 30.0255 72.0181 30.0265C71.6413 29.9868 71.0231 29.794 70.6596 29.9338C70.5324 30.0035 70.4227 30.1012 70.3387 30.2194C70.271 30.2944 69.8456 30.6315 69.8456 30.7301Z" fill="#A1616A"/>
<path d="M69.7267 30.3974C69.7267 30.0382 69.2851 29.1713 69.9872 29.1139C69.9872 28.7297 69.4441 28.4913 69.5457 28.0835C69.578 27.9481 69.6929 27.8377 69.7061 27.6994C69.7503 27.3064 69.0408 27.093 69.1586 26.7162C69.2027 26.569 69.3587 26.4836 69.3926 26.3379C69.4721 25.9979 68.8642 25.8463 68.8524 25.4974C68.8524 25.3797 68.9186 25.2693 68.9128 25.1515C68.9128 25.0043 68.7847 24.8925 68.714 24.7644C68.5301 24.4362 68.6198 23.9284 68.2843 23.7591C68.5065 23.7783 68.5786 23.4486 68.4874 23.2469C68.3961 23.0453 68.2092 22.8701 68.2077 22.6464C68.2187 22.5653 68.2187 22.4831 68.2077 22.4021C68.1459 22.1872 67.7941 22.1695 67.7352 21.9605C67.7276 21.8803 67.7252 21.7996 67.7279 21.7191C67.7043 21.5528 67.5336 21.4468 67.3732 21.3997C67.2065 21.3714 67.0461 21.3141 66.8992 21.2304C66.7962 21.1524 66.677 21.0229 66.5666 21.0832C66.5253 21.1083 66.5047 21.1554 66.4738 21.1907C66.3414 21.3452 66.0882 21.2775 65.9219 21.1642C65.4303 20.8301 65.1859 20.231 65.0814 19.6467C64.9769 19.0623 64.9799 18.4589 64.8489 17.8804C64.8089 17.7001 64.7558 17.523 64.6899 17.3505C64.634 17.2033 64.4544 16.9723 64.4426 16.8236C64.4161 16.4851 65.1168 16.7161 65.3832 16.75C65.6418 16.7753 65.8976 16.8245 66.1471 16.8972C66.4134 16.9978 66.6743 17.1123 66.9286 17.2401C67.9914 17.7097 69.2748 17.7671 70.1285 18.556C70.4097 18.8151 70.6466 19.1551 71.0117 19.2728C71.1791 19.3049 71.3443 19.3477 71.5062 19.4009C71.911 19.5907 71.9743 20.128 72.1951 20.5166C72.2645 20.6192 72.325 20.7275 72.3761 20.8404C72.4187 20.9735 72.4386 21.1128 72.435 21.2525L72.4659 22.2725C72.5159 23.9814 72.566 25.6947 72.3835 27.3932C72.3246 27.954 72.2363 28.531 72.4026 29.0697C72.4468 29.2169 72.5086 29.3553 72.5498 29.5039C72.5862 29.6782 72.6049 29.8557 72.6057 30.0338L72.6293 30.6947C72.6375 30.7461 72.6259 30.7986 72.5969 30.8419C72.5723 30.8618 72.5435 30.876 72.5127 30.8834C72.4819 30.8908 72.4498 30.8912 72.4188 30.8845C71.4989 30.8021 70.5686 30.284 69.7002 30.5975" fill="#464353"/>
<path d="M111.708 81.1774C117.721 81.1774 122.594 80.473 122.594 79.604C122.594 78.735 117.721 78.0305 111.708 78.0305C105.696 78.0305 100.822 78.735 100.822 79.604C100.822 80.473 105.696 81.1774 111.708 81.1774Z" fill="#504F60"/>
<path d="M121.074 79.6805C120.883 78.8607 120.764 78.141 120.764 78.141C120.764 78.141 120.808 77.249 120.408 76.5793V76.3556V74.707C120.521 74.4077 120.661 74.1186 120.824 73.843C121.118 73.3249 120.824 71.4262 120.824 71.4262C120.824 71.4262 119.725 68.7488 119.991 67.0503C120.257 65.3517 117.733 59.5083 117.733 59.5083C117.749 58.9448 117.828 58.3848 117.97 57.8392C117.997 57.7245 118.008 57.6066 118.002 57.4889C118.002 57.4742 118.002 57.4609 118.002 57.4462C118.002 57.4315 118.002 57.455 118.002 57.4594C117.964 56.3393 117.078 54.2404 117.078 54.2404L117.197 50.2398C117.197 50.2398 117.763 47.8848 116.841 44.7129C116.519 43.6075 116.313 42.7229 116.182 42.0399C116.167 41.9634 116.152 41.8927 116.141 41.8177C118.038 41.5233 119.488 41.2878 119.488 41.2878C119.488 41.2878 118.387 36.6823 117.643 35.8757C116.9 35.0691 116.305 32.5359 116.305 32.5359C116.305 32.5359 115.918 29.2845 116.544 28.3337C117.169 27.3829 117.258 25.7432 117.258 25.7432C117.258 25.7432 118.684 24.7129 118.863 24.2463C119.043 23.7797 119.339 22.7494 119.339 22.2033C119.339 21.6572 119.161 21.173 119.22 20.8786C119.279 20.5842 118.803 19.4965 119.042 18.9784C119.103 18.8192 119.135 18.6501 119.136 18.4794C119.136 18.4745 119.136 18.4696 119.136 18.4647C119.138 18.0113 119.096 17.5588 119.011 17.1135C118.598 16.7651 118.117 16.5078 117.598 16.3584L117.567 16.2348L117.486 15.911C117.441 15.8811 117.394 15.8536 117.346 15.8285V15.7108L117.333 15.2427L117.556 14.1918C117.998 12.3637 115.556 12.0914 115.556 12.0914C115.408 11.811 115.162 11.5951 114.864 11.485C114.374 11.3128 114.783 14.2345 115.012 14.4288C115.184 14.576 115.717 15.4856 115.974 15.936L116.015 16.0096C115.975 16.0458 115.938 16.0852 115.904 16.1273L115.996 16.7617L116.011 16.8589C115.849 17.0598 115.718 17.2835 115.621 17.5227C115.621 17.5227 116.062 18.0113 115.979 18.553C115.895 19.0947 116.115 19.782 116.126 19.8188C116.099 19.7879 115.786 19.4494 115.472 19.5318C115.159 19.6142 114.283 19.8777 114.283 19.8777C114.283 19.8777 113.629 19.9925 113.694 20.1367C113.759 20.281 113.253 20.9139 113.253 20.9139L111.495 19.2477C111.478 19.1977 111.458 19.1476 111.444 19.1005C111.372 18.8603 111.323 18.6139 111.297 18.3646C111.488 18.3191 111.676 18.2596 111.859 18.1865C112.043 18.1231 112.21 18.0161 112.345 17.8745C112.523 17.664 112.556 17.3784 112.629 17.1164C112.767 16.6042 113.07 16.1494 113.281 15.6622C113.637 14.839 113.752 13.9313 113.612 13.0452C113.585 12.7721 113.492 12.5096 113.342 12.2798C113.055 11.8853 112.534 11.7249 112.156 11.4099C111.778 11.0949 111.533 10.6136 111.092 10.3796C110.693 10.1662 110.209 10.1912 109.758 10.2648C108.879 10.4098 108.034 10.7173 107.266 11.1715C107.01 11.3187 106.728 11.4997 106.433 11.4452C106.18 11.3996 105.992 11.198 105.833 11.0037C105.835 10.9956 105.837 10.9878 105.84 10.9801C105.833 10.973 105.827 10.9651 105.821 10.9566C105.635 11.3699 105.541 11.8191 105.547 12.2724C105.547 12.3431 105.547 12.4196 105.556 12.4829V12.5565C105.556 12.5771 105.556 12.5977 105.556 12.6169C105.556 12.6482 105.552 12.6795 105.543 12.7096C105.506 12.7996 105.45 12.8805 105.378 12.9466C105.324 13.0079 105.275 13.0734 105.231 13.1423C105.231 13.1188 105.246 13.0952 105.254 13.0702C105.142 13.2341 105.079 13.4266 105.072 13.6251C105.064 13.7696 105.111 13.9118 105.204 14.0225C105.292 14.1081 105.389 14.185 105.491 14.2521C105.456 14.4464 105.439 14.6435 105.438 14.8409C105.442 15.4262 105.596 16.0007 105.886 16.5089C106.177 17.0172 106.593 17.4419 107.096 17.742C107.116 17.7906 107.135 17.8406 107.155 17.8892C107.38 18.4779 107.549 19.1697 107.474 19.8026C107.474 19.8483 107.461 19.8954 107.453 19.941C107.446 19.9866 107.409 19.9896 107.39 20.0146C107.39 20.0146 104.486 20.044 103.803 19.4258C103.12 18.8076 102.078 20.9375 102.078 20.9375C102.078 20.9375 101.037 21.1391 100.828 20.9375C100.619 20.7358 99.4022 20.9095 99.4022 20.9095C98.9035 20.466 98.2545 20.2291 97.5873 20.2471C97.1831 19.9399 96.737 19.6921 96.2626 19.5112L96.2303 19.4994C96.0209 19.4231 95.797 19.3949 95.5753 19.417C95.5753 19.417 94.1475 18.2395 93.731 17.6036C93.3144 16.9678 91.3318 14.6201 91.323 14.6098V14.4965L91.3009 14.155C91.242 14.1642 91.1825 14.1692 91.1228 14.1697C91.1125 14.1359 91.0978 14.0961 91.0831 14.0505C90.9688 13.7174 90.8281 13.394 90.6621 13.0835C90.6621 13.0835 90.6621 12.6522 90.7872 12.5433C90.9123 12.4344 90.7357 10.8521 90.7357 10.8521C90.7357 10.8521 89.4493 7.84501 88.2968 10.0896C88.2968 10.0896 86.1184 11.5424 87.9465 13.2351C87.9465 13.2351 88.6824 13.5883 88.7796 13.868C88.8473 14.049 89.0945 14.5568 89.2609 14.8983L89.3359 15.0455L89.3153 15.0631L89.3418 15.3458L89.3536 15.4547C89.0092 15.6504 88.7751 15.8447 88.8325 15.9904C88.9339 16.2398 89.0037 16.5009 89.0401 16.7676C89.0401 16.7676 91.5688 19.9351 91.8955 21.2878C91.8955 21.2878 98.6765 25.3178 100.906 25.6048L100.512 27.6139C100.455 28.1591 100.425 28.7069 100.424 29.2551C100.453 29.6864 100.156 31.644 100.156 31.644C100.156 31.644 99.7687 34.523 99.4419 34.9263C99.1152 35.3296 99.174 37.0561 99.174 37.0561C99.0969 37.8826 98.9492 38.7011 98.7325 39.5024C98.4057 40.596 98.6427 41.9501 98.6427 41.9501C98.6427 41.9501 97.5137 44.5407 100.219 42.7847C100.219 42.7847 101.544 42.7023 103.077 42.6493C103.077 42.6993 103.077 42.7509 103.077 42.7965C103.077 42.9937 103.077 43.2071 103.067 43.4309C103.047 44.9145 103.038 46.9634 103.105 48.5059C103.225 51.2407 104.058 56.6528 104.058 56.6528V59.3773C104.004 59.6328 103.977 59.8933 103.978 60.1545C103.961 61.1131 104.216 62.0569 104.714 62.876L104.923 64.6894C104.923 64.6894 105.412 65.8845 105.421 66.6028C105.419 66.6607 105.412 66.7183 105.4 66.775C105.381 66.8665 105.373 66.9599 105.377 67.0532C105.349 67.8775 105.845 69.8498 105.845 69.8498C105.845 69.8498 105.874 71.8354 106.171 71.9517C106.426 72.0503 105.831 73.0953 105.655 73.3956C105.65 73.3772 105.647 73.3585 105.644 73.3396L105.608 73.3985C105.546 73.5593 105.515 73.7299 105.515 73.9019C105.498 74.0375 105.52 74.175 105.579 74.2985C105.637 74.4221 105.729 74.5265 105.845 74.5996C106.41 74.9455 106.713 75.2325 106.233 75.3473C106.057 75.3747 105.882 75.4116 105.709 75.4577C105.709 75.4356 105.692 75.4121 105.684 75.3915C105.617 75.4179 105.56 75.4669 105.524 75.5302C105.489 75.5935 105.476 75.6672 105.488 75.7388C105.493 75.9723 105.553 76.2014 105.664 76.4071C106.139 77.4727 106.469 77.879 106.469 77.879L106.697 77.8539C106.663 77.9411 106.619 78.0237 106.564 78.0997C106.478 78.2232 106.363 78.3241 106.229 78.3941C106.104 78.4687 105.965 78.5163 105.821 78.5339C105.66 78.5392 105.502 78.5783 105.357 78.6488C105.211 78.7193 105.083 78.8196 104.979 78.9431C104.685 79.3273 104.496 79.8498 105.082 80.309L107.209 81.045C107.209 81.045 110.868 81.5204 110.674 80.6991C110.48 79.8778 110.362 79.1595 110.362 79.1595C110.378 78.658 110.277 78.1598 110.067 77.7038C110.029 77.6294 109.986 77.5576 109.938 77.4889L110.067 77.4757C110.067 77.4757 110.335 75.6608 110.692 75.3164C110.774 75.2369 110.793 75.1692 110.774 75.128C110.811 75.0294 110.717 74.972 110.597 74.9381L110.571 75.0102C110.454 74.9848 110.335 74.9715 110.216 74.9705C110.216 74.9705 110.097 74.0211 110.484 73.6752C110.515 73.6358 110.538 73.5904 110.551 73.5417C110.564 73.4931 110.567 73.4424 110.559 73.3926C110.562 73.2624 110.548 73.1323 110.518 73.0055C110.514 73.0137 110.51 73.0215 110.505 73.0291C110.31 72.1665 109.651 70.7962 109.651 70.7962C109.651 70.7962 109.622 69.9337 109.86 69.5878C110.098 69.2419 109.829 64.8954 109.829 64.8954C109.829 64.8954 109.919 62.795 109.651 61.8162C109.383 60.8374 109.978 59.6849 109.978 59.6849C109.978 59.6849 109.978 59.6628 109.978 59.6231V59.6084L109.944 59.2772C109.943 59.2841 109.943 59.291 109.944 59.2978C109.884 58.7415 109.77 57.7332 109.686 57.2681C109.567 56.6057 109.717 53.4412 109.717 53.4412L110.251 52.087L111.204 54.42L112.215 57.5286C112.215 57.5286 112.715 58.1851 112.727 58.8533C112.727 58.8857 112.727 58.9181 112.727 58.9505C112.719 59.0193 112.715 59.0886 112.715 59.158C112.697 59.5508 112.805 59.939 113.023 60.2663C113.023 60.2663 113.291 61.7382 113.707 62.1077C114.124 62.4771 114.124 63.2013 114.124 63.2013C114.124 63.2013 114.629 65.3326 114.86 65.7035C115.06 66.0185 115.07 66.881 115.069 67.1504C115.069 67.1989 115.069 67.2269 115.069 67.2269C115.069 67.2269 115.14 67.9893 115.137 68.6281C115.137 68.7076 115.137 68.7842 115.137 68.8563C115.137 68.8509 115.137 68.8455 115.137 68.8401C115.137 69.0146 115.116 69.1885 115.075 69.3582L115.066 69.3876C115.066 69.3508 115.066 69.3155 115.076 69.2802C114.973 69.714 114.923 70.1589 114.929 70.6049C114.916 71.3703 115.032 72.2769 115.496 72.8127C116.299 73.7341 116.804 73.6193 116.804 73.6193C116.804 73.6193 116.419 74.7703 115.942 75.0014C115.924 75.0099 115.907 75.0208 115.892 75.0338C115.892 75.0102 115.883 74.9882 115.88 74.9661C115.827 75.0235 115.786 75.0914 115.761 75.1654C115.736 75.2394 115.726 75.3179 115.733 75.3959C115.699 75.9022 116.018 76.7206 116.322 77.1018C116.434 77.212 116.572 77.2929 116.723 77.3373C116.699 77.3542 116.674 77.3695 116.648 77.3829C116.595 77.412 116.541 77.438 116.485 77.4609C116.408 77.4938 116.326 77.5152 116.242 77.5242C116.081 77.5285 115.922 77.5673 115.777 77.6378C115.632 77.7084 115.503 77.8092 115.4 77.9334C115.106 78.3161 114.917 78.8386 115.503 79.2979L117.63 80.0338C117.63 80.0338 121.266 80.5004 121.074 79.6805Z" fill="url(#paint0_linear)"/>
<path d="M107.104 81.0406L105.043 80.3046C104.475 79.8454 104.656 79.3229 104.943 78.9387C105.042 78.8162 105.166 78.7163 105.307 78.6457C105.447 78.5751 105.601 78.5355 105.759 78.5295C105.898 78.5117 106.032 78.464 106.152 78.3897C106.282 78.3187 106.394 78.2178 106.478 78.0953C106.629 77.8567 106.71 77.581 106.712 77.299C106.712 77.299 108.973 76.6367 109.591 77.299C109.702 77.4189 109.794 77.5543 109.865 77.7008C110.071 78.1581 110.171 78.6554 110.16 79.1565C110.16 79.1565 110.274 79.8748 110.461 80.6961C110.648 81.5175 107.104 81.0406 107.104 81.0406Z" fill="#2D293D"/>
<path d="M117.178 80.0249L115.117 79.289C114.549 78.8298 114.73 78.3073 115.017 77.9246C115.115 77.8016 115.239 77.7013 115.379 77.6306C115.52 77.56 115.674 77.5207 115.831 77.5154C115.912 77.507 115.992 77.4857 116.066 77.4521C116.121 77.4291 116.174 77.4031 116.225 77.3741C116.801 77.0576 116.786 76.2805 116.786 76.2805C116.786 76.2805 119.046 75.6181 119.665 76.2805C119.748 76.3702 119.821 76.4689 119.882 76.5748C120.269 77.2445 120.226 78.138 120.226 78.138C120.226 78.138 120.341 78.8577 120.52 79.6776C120.7 80.4974 117.178 80.0249 117.178 80.0249Z" fill="#2D293D"/>
<path opacity="0.1" d="M109.593 77.2976C109.703 77.4175 109.796 77.5528 109.867 77.6994L106.481 78.0924C106.632 77.8538 106.713 77.5781 106.715 77.2961C106.715 77.2961 108.975 76.6352 109.593 77.2976Z" fill="black"/>
<path opacity="0.1" d="M119.884 76.5778V77.2122C119.358 78.0791 116.81 77.8892 116.069 77.455C116.124 77.432 116.177 77.406 116.228 77.377C116.804 77.0606 116.789 76.2834 116.789 76.2834C116.789 76.2834 119.048 75.621 119.668 76.2834C119.751 76.3731 119.824 76.4718 119.884 76.5778Z" fill="black"/>
<path d="M120.286 73.8432C120.129 74.1196 119.994 74.4086 119.884 74.7072V76.9813C119.307 77.9306 116.315 77.6142 115.91 77.0961C115.505 76.578 115.083 75.2297 115.538 74.9957C115.993 74.7617 116.372 73.6136 116.372 73.6136C116.372 73.6136 115.882 73.7284 115.105 72.807C114.328 71.8856 114.559 69.8426 114.703 69.3539C114.848 68.8653 114.703 67.2241 114.703 67.2241C114.703 67.2241 114.733 66.0716 114.503 65.6978C114.274 65.3239 113.783 63.1956 113.783 63.1956C113.783 63.1956 113.783 62.4758 113.38 62.1019C112.977 61.7281 112.718 60.2591 112.718 60.2591C112.482 59.8921 112.381 59.4547 112.431 59.0213C112.516 58.3015 111.941 57.5244 111.941 57.5244L110.962 54.4143L110.04 52.0828L109.522 53.4355C109.522 53.4355 109.375 56.6015 109.494 57.2624C109.614 57.9233 109.789 59.6807 109.789 59.6807C109.789 59.6807 109.213 60.8317 109.472 61.8105C109.731 62.7893 109.637 64.8927 109.637 64.8927C109.637 64.8927 109.896 69.2377 109.665 69.5836C109.434 69.9295 109.463 70.7934 109.463 70.7934C109.463 70.7934 110.641 73.3251 110.27 73.671C109.899 74.0169 110.011 74.9663 110.011 74.9663C110.011 74.9663 110.816 74.9663 110.472 75.3122C110.127 75.658 109.867 77.4714 109.867 77.4714L106.386 77.8791C106.386 77.8791 106.068 77.4773 105.607 76.4072C105.146 75.3372 105.692 75.4579 106.156 75.3416C106.62 75.2253 106.327 74.9398 105.779 74.5939C105.232 74.248 105.55 73.4708 105.55 73.4708C105.55 73.4708 106.384 72.0607 106.096 71.9459C105.807 71.8311 105.779 69.8441 105.779 69.8441C105.779 69.8441 105.204 67.4891 105.348 66.8503C105.492 66.2115 104.887 64.6925 104.887 64.6925L104.686 62.8791C104.07 61.8501 103.845 60.6337 104.053 59.4525V56.656C104.053 56.656 103.246 51.2453 103.131 48.5105C103.058 46.759 103.078 44.3686 103.102 42.8776C103.117 42.0416 103.131 41.4867 103.131 41.4867L115.566 40.1914C115.566 40.1914 115.554 40.7654 115.791 42.0386C115.919 42.7216 116.118 43.6062 116.43 44.7116C117.322 47.8776 116.776 50.2371 116.776 50.2371L116.659 54.2391C116.659 54.2391 117.753 56.915 117.523 57.8364C117.385 58.3835 117.307 58.9443 117.291 59.5085C117.291 59.5085 119.737 65.3519 119.478 67.0504C119.219 68.749 120.283 71.4264 120.283 71.4264C120.283 71.4264 120.575 73.3251 120.286 73.8432Z" fill="#464353"/>
<path opacity="0.05" d="M113.177 58.8474L116.963 58.3425C116.963 58.3425 114.818 60.5312 113.177 58.8474Z" fill="black"/>
<path opacity="0.1" d="M116.415 54.6438C116.415 54.6438 116.545 55.9832 115.725 56.4866C115.725 56.4866 117.193 56.257 116.415 54.6438Z" fill="black"/>
<path opacity="0.1" d="M116.182 50.3842C116.182 50.3842 113.018 52.9894 111.867 52.773C110.716 52.5567 116.182 50.3842 116.182 50.3842Z" fill="black"/>
<path opacity="0.1" d="M108.485 60.0691C108.485 60.0691 106.081 60.6152 106.009 61.5807C105.937 62.5463 108.485 60.0691 108.485 60.0691Z" fill="black"/>
<path opacity="0.05" d="M109.013 72.0739C109.013 72.0739 105.617 72.7068 106.582 73.138C107.546 73.5693 109.129 73.9152 109.129 73.9152C109.129 73.9152 110.226 73.9726 109.013 72.0739Z" fill="black"/>
<g opacity="0.05">
<path opacity="0.05" d="M105.896 73.824C105.81 73.7707 105.738 73.6988 105.684 73.6137C105.631 73.5286 105.597 73.4324 105.585 73.3324L105.55 73.3927C105.55 73.3927 105.233 74.1699 105.781 74.5143C105.843 74.5541 105.903 74.5938 105.958 74.6321C106.059 74.6129 106.168 74.5982 106.273 74.5717C106.736 74.4569 106.443 74.1699 105.896 73.824Z" fill="black"/>
<path opacity="0.05" d="M110.27 73.5928C110.364 73.5074 110.362 73.2866 110.304 73.004C110.157 73.2263 110.114 73.5736 110.111 73.8371C110.147 73.7457 110.201 73.6625 110.27 73.5928Z" fill="black"/>
<path opacity="0.05" d="M109.747 59.2728C109.622 59.6133 109.545 59.9694 109.518 60.3311C109.583 60.0813 109.671 59.8379 109.781 59.604L109.747 59.2728Z" fill="black"/>
<path opacity="0.05" d="M117.525 57.7627C117.547 57.6593 117.558 57.5536 117.556 57.4478C117.513 57.6626 117.484 57.8614 117.461 58.0365C117.481 57.9467 117.501 57.8614 117.525 57.7627Z" fill="black"/>
<path opacity="0.05" d="M109.666 69.507C109.714 69.4363 109.74 69.1979 109.752 68.8667C109.645 69.123 109.589 69.3973 109.585 69.6748C109.606 69.6158 109.633 69.5594 109.666 69.507Z" fill="black"/>
<path opacity="0.05" d="M110.373 74.9352C110.194 75.5125 110.062 76.1031 109.977 76.7014L106.496 77.1033C106.496 77.1033 106.178 76.7014 105.717 75.6314C105.68 75.5487 105.647 75.4642 105.619 75.3782C105.41 75.4739 105.324 75.6903 105.601 76.3217C106.062 77.3873 106.381 77.7936 106.381 77.7936L109.862 77.3903C109.862 77.3903 110.121 75.5769 110.466 75.231C110.642 75.0647 110.533 74.9779 110.373 74.9352Z" fill="black"/>
<path opacity="0.05" d="M105.781 69.766C105.781 69.766 105.809 71.7516 106.097 71.8664C106.244 71.5382 106.34 71.2262 106.211 71.1746C105.916 71.0598 105.894 69.0728 105.894 69.0728C105.894 69.0728 105.319 66.7178 105.463 66.079C105.607 65.4402 105.002 63.9212 105.002 63.9212L104.8 62.1078C104.185 61.0788 103.96 59.8624 104.168 58.6812V55.8847C104.168 55.8847 103.361 50.474 103.246 47.7392C103.173 45.9877 103.193 43.5973 103.217 42.1063C103.217 41.8369 103.226 41.5985 103.23 41.3969L103.131 41.4072C103.131 41.4072 103.115 41.9606 103.102 42.7981C103.078 44.2891 103.056 46.6795 103.131 48.4295C103.246 51.1643 104.051 56.5764 104.051 56.5764V59.373C103.845 60.5539 104.07 61.7696 104.686 62.7981L104.886 64.6115C104.886 64.6115 105.491 66.1364 105.347 66.7707C105.202 67.4051 105.781 69.766 105.781 69.766Z" fill="black"/>
<path opacity="0.05" d="M116.028 76.3276C115.745 75.9182 115.557 75.4512 115.476 74.9602C115.122 75.2811 115.529 76.5263 115.918 77.0208C116.32 77.539 119.314 77.8554 119.892 76.9046V76.357C119.107 77.1268 116.408 76.8177 116.028 76.3276Z" fill="black"/>
<path opacity="0.05" d="M120.403 73.0747C120.245 73.3512 120.11 73.6401 120 73.9387V74.3464C120.066 74.1992 120.158 74.002 120.294 73.7694C120.385 73.5428 120.428 73.2997 120.42 73.0555C120.42 73.0555 120.407 73.0688 120.403 73.0747Z" fill="black"/>
<path opacity="0.05" d="M116.204 73.5296C116.314 73.3079 116.409 73.0793 116.488 72.8452C116.488 72.8452 115.998 72.96 115.221 72.0386C114.656 71.3689 114.624 70.1031 114.705 69.2759C114.557 69.766 114.329 71.809 115.106 72.7304C115.614 73.3324 115.998 73.4914 116.204 73.5296Z" fill="black"/>
<path opacity="0.05" d="M114.704 67.146C114.754 67.7131 114.773 68.2826 114.761 68.8519C114.775 68.762 114.795 68.6731 114.82 68.5855C114.967 68.0953 114.82 66.4557 114.82 66.4557C114.82 66.4557 114.849 65.3032 114.618 64.9293C114.387 64.5555 113.906 62.4242 113.906 62.4242C113.906 62.4242 113.906 61.7044 113.502 61.3305C113.099 60.9567 112.84 59.4877 112.84 59.4877C112.602 59.1214 112.498 58.6841 112.546 58.2499C112.633 57.5301 112.057 56.753 112.057 56.753L111.078 53.6443L110.157 51.3129L109.637 52.667C109.637 52.667 109.637 52.8377 109.62 53.1086L110.041 52.0091L110.962 54.3361L111.941 57.4448C111.941 57.4448 112.516 58.2219 112.429 58.9417C112.382 59.3759 112.486 59.8132 112.724 60.1795C112.724 60.1795 112.983 61.6514 113.386 62.0223C113.789 62.3932 113.788 63.1159 113.788 63.1159C113.788 63.1159 114.278 65.2458 114.508 65.6182C114.737 65.9905 114.704 67.146 114.704 67.146Z" fill="black"/>
</g>
<path d="M117.12 14.1874L116.904 15.2383L116.917 15.7064L116.926 16.0508L115.725 16.1744L115.591 15.9257C115.342 15.4753 114.826 14.5598 114.659 14.4185C114.437 14.233 114.041 11.3098 114.512 11.4835C114.802 11.5955 115.04 11.811 115.18 12.0885C115.18 12.0885 117.546 12.3593 117.12 14.1874Z" fill="#FFCDD3"/>
<path opacity="0.1" d="M116.926 16.0507L115.725 16.1743L115.591 15.9256C115.752 15.7416 115.973 15.6194 116.214 15.5797C116.456 15.54 116.704 15.5852 116.916 15.7077L116.926 16.0507Z" fill="black"/>
<path d="M117.229 16.6205L115.645 16.987L115.611 16.7515L115.521 16.1171C115.521 16.1171 116.149 15.2811 117.055 15.9081L117.135 16.2305L117.229 16.6205Z" fill="white"/>
<path d="M91.5738 14.3022L89.8826 15.2089L89.7354 14.891C89.575 14.5539 89.3351 14.0461 89.2689 13.8607C89.1688 13.581 88.4637 13.2277 88.4637 13.2277C86.6975 11.5365 88.8023 10.0823 88.8023 10.0823C89.918 7.83768 91.1573 10.8448 91.1573 10.8448C91.1573 10.8448 91.331 12.43 91.2088 12.536C91.0866 12.6419 91.0866 13.0761 91.0866 13.0761C91.2478 13.3872 91.3842 13.7106 91.4944 14.0432C91.5459 14.2036 91.5738 14.3022 91.5738 14.3022Z" fill="#FFCDD3"/>
<path opacity="0.1" d="M91.5742 14.3023L89.883 15.209L89.7358 14.891C89.9743 14.6909 90.8206 14.0079 91.0988 14.0359C91.2316 14.0524 91.3657 14.0559 91.4992 14.0462C91.5463 14.2037 91.5742 14.3023 91.5742 14.3023Z" fill="black"/>
<path d="M91.7467 14.8129L89.8465 15.7491L89.8082 15.3413L89.7817 15.0587C89.7817 15.0587 90.8827 14.1153 91.208 14.1521C91.3725 14.1759 91.5395 14.1759 91.704 14.1521L91.7261 14.4935L91.7467 14.8129Z" fill="white"/>
<path d="M112.515 21.1686C112.515 21.1686 104.231 22.1032 105.779 21.5999C106.857 21.2481 107.285 20.5695 107.375 19.8041C107.448 19.1668 107.284 18.4794 107.067 17.8907C106.873 17.3684 106.626 16.8669 106.331 16.3938C106.331 16.3938 112.66 12.9113 111.396 16.0773C111.201 16.5562 111.08 17.0619 111.037 17.5772C110.999 18.0892 111.054 18.6039 111.2 19.0962C111.439 19.8949 111.894 20.6121 112.515 21.1686Z" fill="#FFCDD3"/>
<path opacity="0.1" d="M111.391 16.0731C111.196 16.5519 111.075 17.0577 111.032 17.5729C110.436 18.0748 109.783 18.041 108.942 18.041C108.298 18.041 107.582 18.197 107.067 17.8864C106.872 17.3641 106.626 16.8626 106.331 16.3895C106.331 16.3895 112.659 12.907 111.391 16.0731Z" fill="black"/>
<path d="M108.83 18.2617C110.722 18.2617 112.255 16.7282 112.255 14.8366C112.255 12.945 110.722 11.4115 108.83 11.4115C106.939 11.4115 105.405 12.945 105.405 14.8366C105.405 16.7282 106.939 18.2617 108.83 18.2617Z" fill="#FFCDD3"/>
<path opacity="0.1" d="M112.515 21.1685C112.515 21.1685 104.231 22.1032 105.779 21.5998C106.857 21.248 107.285 20.5694 107.375 19.8041C107.787 19.3625 108.616 19.0343 109.141 18.8635C109.627 18.7002 110.151 18.6914 110.642 18.8385C110.835 18.8967 111.019 18.9819 111.188 19.0917C111.43 19.8933 111.889 20.6123 112.515 21.1685Z" fill="black"/>
<path opacity="0.1" d="M117.229 16.6205L115.645 16.987L115.611 16.7515C115.781 16.5186 116.018 16.3436 116.291 16.2503C116.563 16.1571 116.858 16.1502 117.135 16.2304L117.229 16.6205Z" fill="black"/>
<path opacity="0.1" d="M91.7461 14.8131L89.8459 15.7492L89.8076 15.3415C90.4231 15.0105 91.0628 14.7266 91.7211 14.4922L91.7461 14.8131Z" fill="black"/>
<path opacity="0.1" d="M115.791 42.0414C112.581 42.5537 108.018 43.2072 107.294 42.9864C106.692 42.8039 104.773 42.823 103.102 42.8804C103.117 42.0444 103.131 41.4895 103.131 41.4895L115.566 40.1942C115.566 40.1942 115.554 40.7682 115.791 42.0414Z" fill="black"/>
<path d="M118.991 41.2879C118.991 41.2879 108.427 43.1012 107.294 42.7598C106.161 42.4183 100.339 42.7877 100.339 42.7877C97.7193 44.5437 98.813 41.9532 98.813 41.9532C98.813 41.9532 98.5833 40.6005 98.8998 39.5069C99.1123 38.704 99.2576 37.8847 99.334 37.0577C99.334 37.0577 99.2766 35.3297 99.593 34.9264C99.9095 34.5231 100.285 31.6455 100.285 31.6455C100.285 31.6455 100.572 29.6879 100.544 29.2567C100.516 28.8254 100.629 27.6155 100.629 27.6155L101.005 25.6005C98.8453 25.3135 92.2822 21.2834 92.2822 21.2834C91.9657 19.9308 89.5194 16.7647 89.5194 16.7647C89.4838 16.4985 89.4161 16.2375 89.3178 15.9876C89.1456 15.5269 91.7361 14.6055 91.7361 14.6055C91.7361 14.6055 93.6643 16.9605 94.0676 17.5993C94.4709 18.2381 95.8515 19.4127 95.8515 19.4127C96.066 19.3906 96.2827 19.4188 96.4844 19.4951L96.5183 19.5054C96.981 19.687 97.4148 19.9349 97.8062 20.2413C98.4553 20.2259 99.0849 20.4634 99.5621 20.9037C99.5621 20.9037 100.74 20.73 100.944 20.9316C101.149 21.1333 102.153 20.9316 102.153 20.9316C102.153 20.9316 103.159 18.8018 103.822 19.42C104.484 20.0382 107.294 20.0088 107.294 20.0088C107.668 19.5113 108.579 19.1551 109.149 18.9785C109.634 18.8158 110.159 18.807 110.65 18.9534C110.862 19.0166 111.061 19.1163 111.239 19.2478L112.947 20.9169C112.947 20.9169 113.436 20.2825 113.379 20.1398C113.321 19.997 113.954 19.8807 113.954 19.8807C113.954 19.8807 114.789 19.6217 115.105 19.5348C115.422 19.448 115.712 19.7909 115.738 19.8218C115.728 19.785 115.512 19.0859 115.591 18.556C115.67 18.0261 115.245 17.5257 115.245 17.5257C116.252 15.05 118.526 17.1224 118.526 17.1224C118.526 17.1224 118.785 18.4751 118.555 18.9932C118.326 19.5113 118.785 20.6049 118.728 20.8934C118.67 21.1819 118.844 21.6705 118.844 22.2181C118.844 22.7656 118.55 23.8004 118.383 24.2611C118.217 24.7218 116.829 25.758 116.829 25.758C116.829 25.758 116.742 27.3991 116.137 28.3485C115.532 29.2979 115.912 32.5449 115.912 32.5449C115.912 32.5449 116.487 35.078 117.207 35.8846C117.927 36.6912 118.991 41.2879 118.991 41.2879Z" fill="#3F3D56"/>
<path opacity="0.1" d="M103.592 22.3475C103.592 22.3475 103.275 21.3982 102.987 21.3172C102.7 21.2119 102.422 21.0869 102.152 20.9433L102.338 20.5886C102.338 20.5886 103.418 20.883 103.592 21.2024C103.766 21.5218 103.592 22.3475 103.592 22.3475Z" fill="black"/>
<path opacity="0.1" d="M97.8055 20.2471C97.7481 20.5415 95.1855 20.7932 95.1855 20.7932L96.4808 19.495L96.5132 19.5068C96.9777 19.6894 97.413 19.9388 97.8055 20.2471Z" fill="black"/>
<path d="M90.3937 16.5262C90.5205 16.5262 90.6233 16.4234 90.6233 16.2966C90.6233 16.1698 90.5205 16.067 90.3937 16.067C90.2669 16.067 90.1641 16.1698 90.1641 16.2966C90.1641 16.4234 90.2669 16.5262 90.3937 16.5262Z" fill="#575988"/>
<path d="M90.6881 16.9869C90.8149 16.9869 90.9177 16.8841 90.9177 16.7573C90.9177 16.6305 90.8149 16.5277 90.6881 16.5277C90.5613 16.5277 90.4585 16.6305 90.4585 16.7573C90.4585 16.8841 90.5613 16.9869 90.6881 16.9869Z" fill="#575988"/>
<path d="M90.9762 17.4124C91.103 17.4124 91.2058 17.3096 91.2058 17.1827C91.2058 17.0559 91.103 16.9531 90.9762 16.9531C90.8494 16.9531 90.7466 17.0559 90.7466 17.1827C90.7466 17.3096 90.8494 17.4124 90.9762 17.4124Z" fill="#575988"/>
<path d="M91.278 17.8716C91.4048 17.8716 91.5076 17.7688 91.5076 17.642C91.5076 17.5152 91.4048 17.4124 91.278 17.4124C91.1511 17.4124 91.0483 17.5152 91.0483 17.642C91.0483 17.7688 91.1511 17.8716 91.278 17.8716Z" fill="#575988"/>
<path d="M118.411 17.8038C118.514 17.8038 118.598 17.7201 118.598 17.6169C118.598 17.5136 118.514 17.4299 118.411 17.4299C118.308 17.4299 118.224 17.5136 118.224 17.6169C118.224 17.7201 118.308 17.8038 118.411 17.8038Z" fill="#575988"/>
<path d="M118.44 18.2292C118.544 18.2292 118.627 18.1455 118.627 18.0423C118.627 17.939 118.544 17.8553 118.44 17.8553C118.337 17.8553 118.253 17.939 118.253 18.0423C118.253 18.1455 118.337 18.2292 118.44 18.2292Z" fill="#575988"/>
<path d="M118.465 18.6532C118.568 18.6532 118.652 18.5695 118.652 18.4662C118.652 18.363 118.568 18.2793 118.465 18.2793C118.362 18.2793 118.278 18.363 118.278 18.4662C118.278 18.5695 118.362 18.6532 118.465 18.6532Z" fill="#575988"/>
<path opacity="0.1" d="M103.602 30.1487C103.574 30.1148 110.064 38.3088 115.101 33.5737C115.105 33.5752 107.146 34.6541 103.602 30.1487Z" fill="black"/>
<path opacity="0.1" d="M99.8784 34.4083C99.8784 34.4083 103.761 34.5143 104.168 35.6315V36.7943C104.057 36.8556 103.933 36.8878 103.806 36.8878C103.68 36.8878 103.555 36.8556 103.445 36.7943C103.053 36.5823 100.706 35.3901 99.8784 35.9641V34.4083Z" fill="black"/>
<path d="M99.9507 34.4083C99.9507 34.4083 103.664 34.5099 104.053 35.5755V36.6824C103.947 36.7412 103.828 36.772 103.707 36.772C103.586 36.772 103.467 36.7412 103.361 36.6824C102.987 36.4822 100.743 35.3444 99.9507 35.892V34.4083Z" fill="#3F3D56"/>
<path opacity="0.1" d="M101.998 25.9773C102.395 26.8955 102.9 27.7628 103.504 28.5605C104.16 29.4421 104.956 30.2112 105.859 30.8375C105.859 30.8375 102.063 26.5101 101.998 25.9773Z" fill="black"/>
<path opacity="0.1" d="M100.728 21.4658C100.728 21.4658 101.375 24.2624 103.044 25.2118L100.728 21.4658Z" fill="black"/>
<path opacity="0.1" d="M99.7346 21.7485C99.7184 21.697 99.1591 23.9564 101.886 25.2119C101.886 25.2119 100.728 24.8189 99.7346 21.7485Z" fill="black"/>
<path opacity="0.1" d="M116.689 19.8733C116.646 19.8733 118.034 20.7565 118.413 21.1686C118.413 21.1686 117.509 19.8145 116.689 19.8733Z" fill="black"/>
<path d="M107.905 17.9407C107.905 18.0155 107.921 18.0893 107.952 18.1575C107.982 18.2257 108.027 18.2869 108.082 18.3371C108.137 18.3873 108.202 18.4255 108.273 18.4492C108.344 18.473 108.419 18.4818 108.493 18.475C109.537 18.5398 110.625 18.5854 111.584 18.1807C111.764 18.1164 111.926 18.0093 112.055 17.8686C112.226 17.6581 112.26 17.3726 112.329 17.1106C112.465 16.5984 112.753 16.1436 112.961 15.6564C113.312 14.8333 113.429 13.9293 113.301 13.0438C113.273 12.7723 113.184 12.5108 113.039 12.2799C112.762 11.8839 112.257 11.7235 111.891 11.4085C111.524 11.0935 111.289 10.6122 110.86 10.3782C110.475 10.1633 110.002 10.1898 109.568 10.2634C108.714 10.4084 107.895 10.7157 107.157 11.1686C106.908 11.3158 106.636 11.4968 106.35 11.4424C106.1 11.3953 105.918 11.1848 105.762 10.9875C105.561 11.4586 105.477 11.971 105.516 12.4815C105.527 12.5564 105.524 12.6327 105.508 12.7067C105.472 12.7962 105.418 12.877 105.348 12.9437C105.09 13.2381 104.93 13.7164 105.185 14.0196C105.295 14.1506 105.466 14.2228 105.573 14.3567C105.766 14.5966 105.701 14.9454 105.697 15.2516C105.686 15.3585 105.713 15.4658 105.773 15.5548C105.829 15.6067 105.897 15.6433 105.971 15.6611C106.045 15.6789 106.123 15.6773 106.196 15.6564C106.342 15.6124 106.495 15.5979 106.646 15.6137C106.806 15.6656 106.944 15.7692 107.038 15.9081C107.513 16.5277 107.702 17.2019 107.905 17.9407Z" fill="#2D293D"/>
<g opacity="0.1">
<path opacity="0.1" d="M112.178 17.608C112.049 17.7487 111.887 17.8558 111.707 17.9201C110.741 18.3219 109.655 18.2763 108.616 18.2144C108.504 18.2155 108.394 18.1909 108.294 18.1423C108.135 18.0496 108.074 17.8553 108.026 17.6787C107.823 16.9427 107.636 16.2671 107.153 15.6533C107.06 15.5118 106.922 15.4055 106.761 15.3516C106.61 15.3373 106.457 15.3518 106.311 15.3943C106.238 15.4154 106.161 15.4173 106.087 15.3998C106.013 15.3822 105.944 15.3459 105.889 15.2942C105.829 15.2052 105.801 15.0979 105.812 14.991C105.812 14.6819 105.881 14.336 105.688 14.0961C105.581 13.9621 105.41 13.89 105.3 13.7576C105.228 13.6599 105.184 13.5445 105.172 13.4238C105.16 13.303 105.182 13.1813 105.234 13.0717C105.05 13.366 104.972 13.7355 105.185 13.9886C105.295 14.1196 105.466 14.1918 105.574 14.3257C105.766 14.5671 105.702 14.9145 105.697 15.2206C105.686 15.3274 105.713 15.4347 105.772 15.5238C105.828 15.576 105.897 15.6128 105.971 15.6306C106.045 15.6484 106.123 15.6466 106.196 15.6254C106.342 15.5815 106.495 15.567 106.647 15.5827C106.806 15.6346 106.944 15.7382 107.038 15.8771C107.519 16.4909 107.708 17.165 107.911 17.9039C107.935 18.0857 108.026 18.2521 108.166 18.3705C108.267 18.4191 108.377 18.4433 108.489 18.4411C109.533 18.5059 110.621 18.553 111.58 18.1467C111.761 18.0829 111.922 17.9758 112.051 17.8347C112.116 17.7518 112.166 17.6581 112.199 17.558C112.2 17.5771 112.19 17.5933 112.178 17.608Z" fill="black"/>
<path opacity="0.1" d="M105.516 12.6168C105.562 12.5666 105.598 12.5075 105.621 12.4431C105.634 12.3687 105.634 12.2924 105.621 12.218C105.592 11.7983 105.646 11.3771 105.781 10.9786L105.762 10.9565C105.56 11.4269 105.476 11.939 105.516 12.449C105.52 12.5049 105.52 12.561 105.516 12.6168Z" fill="black"/>
</g>
<path opacity="0.1" d="M107.293 20.0162C107.293 20.0162 111.572 20.5844 111.956 19.9412L107.293 20.0162Z" fill="black"/>
<path opacity="0.1" d="M115.611 18.2454C115.611 18.2454 117.99 18.2454 118.512 19.1403L115.611 18.2454Z" fill="black"/>
<path d="M128.919 97.7494C128.214 98.3801 127.297 98.7227 126.351 98.7091C126.11 98.7091 125.775 98.7547 125.774 98.9961C125.78 99.0669 125.804 99.1349 125.845 99.1933C126.143 99.6912 126.615 100.062 127.169 100.234C127.684 100.39 128.235 100.363 128.772 100.336L130.34 100.255C130.634 100.238 130.928 100.224 131.223 100.187C131.517 100.15 131.838 100.09 132.146 100.04C132.902 99.9322 133.666 99.8967 134.429 99.9337C134.632 99.941 134.87 99.9337 134.991 99.7865C135.112 99.6393 135.05 99.3582 135.004 99.1374C134.91 98.6826 135.004 98.2057 134.917 97.7494C134.77 96.9487 134.077 96.3349 133.317 96.045C132.611 95.7771 131.36 95.4694 130.692 95.9169C129.986 96.3864 129.555 97.1709 128.919 97.7494Z" fill="#3F3D56"/>
<path d="M130.477 70.9229C130.615 71.5808 131.252 72.0842 131.27 72.7554C131.286 73.2941 130.902 73.7459 130.625 74.2066C130.365 74.6838 130.145 75.1821 129.967 75.6962C129.446 77.0348 128.8 78.3211 128.036 79.5378C127.668 80.1266 127.256 80.7551 127.34 81.4395C127.399 81.7596 127.512 82.0672 127.674 82.3491L128.778 84.5423C129.02 84.9801 129.209 85.445 129.342 85.9273C129.438 86.3438 129.446 86.7751 129.502 87.199C129.676 88.5443 130.307 89.8985 129.934 91.2026C129.901 91.3144 129.786 91.4498 129.697 91.3718C130.062 92.0533 130.355 92.7392 130.327 93.512C130.312 93.9167 130.188 94.3392 130.337 94.716C130.4 94.8734 130.511 95.0206 130.509 95.1899C130.509 95.3018 130.458 95.4063 130.446 95.5152C130.415 95.8258 130.7 96.0848 130.996 96.1834C131.292 96.282 131.614 96.2747 131.913 96.3645C132.487 96.5367 132.898 97.0312 133.385 97.3742C133.885 97.7185 134.474 97.9102 135.081 97.9261C135.167 97.9354 135.255 97.9179 135.331 97.8761C135.374 97.8383 135.409 97.7917 135.433 97.7394C135.457 97.6871 135.469 97.6304 135.469 97.5729C135.496 97.298 135.455 97.0208 135.349 96.7656C135.243 96.5105 135.076 96.2853 134.863 96.1098C134.769 96.0513 134.692 95.9704 134.638 95.8743C134.61 95.7894 134.603 95.6991 134.617 95.6109C134.706 94.4045 134.684 93.1925 134.552 91.99C134.493 91.6089 134.474 91.2226 134.495 90.8375C134.526 90.5167 134.623 90.1987 134.588 89.8793C134.552 89.5599 134.389 89.2685 134.293 88.9609C134.123 88.4133 134.17 87.8246 134.146 87.252C134.117 86.257 133.889 85.2797 133.662 84.3082C133.572 83.927 133.473 83.5281 133.204 83.2455C132.974 83.0056 132.604 82.776 132.69 82.4566C132.739 82.3388 132.81 82.2322 132.901 82.1431C133.007 82.0093 133.086 81.8552 133.131 81.6902C133.176 81.5252 133.187 81.3528 133.163 81.1834C133.26 81.2081 133.362 81.1984 133.453 81.156C133.543 81.1136 133.616 81.0411 133.659 80.9508C135.452 80.1045 136.897 78.4118 137.542 76.5352C137.58 76.3958 137.638 76.2629 137.715 76.1407C137.882 75.9082 138.17 75.8081 138.426 75.68C139.23 75.2752 139.785 74.5172 140.294 73.7754C140.589 73.3456 140.883 72.9011 141.015 72.3948C141.085 72.0673 141.118 71.7331 141.114 71.3983L141.16 69.6688C141.17 69.5549 141.159 69.4402 141.127 69.3303C141.084 69.2276 141.02 69.1346 140.94 69.0565C140.451 68.5388 139.808 68.1921 139.106 68.0674C138.635 67.9835 138.154 67.9997 137.677 67.96C136.753 67.8834 135.84 67.5964 134.916 67.6656C133.463 67.773 132.169 68.7798 131.485 70.0662C131.245 70.5196 130.992 70.914 130.477 70.9229Z" fill="#464353"/>
<path d="M122.41 59.6776C122.43 59.9446 122.394 60.2127 122.304 60.4651C122.191 60.7065 121.907 60.8949 121.658 60.7962C121.733 60.627 121.535 60.4342 121.349 60.4548C121.258 60.4758 121.173 60.5187 121.102 60.5797C121.031 60.6407 120.976 60.718 120.941 60.8051C120.819 61.0523 120.777 61.3321 120.824 61.6043C120.883 61.9428 121.078 62.2681 121.027 62.6081C120.986 62.8907 120.778 63.1719 120.889 63.4339C120.96 63.5536 121.05 63.6613 121.155 63.7533C121.3 63.9324 121.371 64.1605 121.354 64.3905C121.336 64.6206 121.23 64.835 121.059 64.9896L123.844 65.0456C123.742 65.5107 123.952 65.9861 124.19 66.3997C124.858 67.5368 125.78 68.5038 126.884 69.2247C127.988 69.9456 129.245 70.4009 130.554 70.5549C130.484 70.5962 130.423 70.6528 130.377 70.7205C130.33 70.7882 130.3 70.8653 130.287 70.9463C130.274 71.0273 130.279 71.1101 130.302 71.1888C130.326 71.2675 130.366 71.34 130.42 71.4012C130.647 71.6264 131.031 71.5984 131.315 71.4527C131.599 71.307 131.822 71.0656 132.081 70.8787C132.538 70.5546 133.096 70.4043 133.654 70.4548C134.003 70.4886 134.342 70.602 134.692 70.6196C135.722 70.6741 136.605 69.9323 137.597 69.629C138.32 69.4068 139.14 69.4068 139.746 68.9549C140.008 68.7606 140.223 68.4412 140.147 68.1262C140.083 67.9452 139.983 67.7793 139.852 67.639C139.503 67.1872 139.297 66.6441 139.047 66.1304C138.551 65.1133 137.869 64.1986 137.035 63.4339C136.406 62.8838 135.739 62.3782 135.039 61.9208C134.87 61.7959 134.69 61.687 134.501 61.5955C134.256 61.488 133.985 61.4365 133.765 61.3011C133.438 61.095 133.249 60.7315 132.998 60.4386C132.446 59.7939 131.598 59.498 130.918 58.9917C130.462 58.6517 130.058 58.2042 129.514 58.0409C129.249 57.9599 128.968 57.954 128.703 57.8745C128.101 57.692 127.662 57.1577 127.072 56.9414C126.605 56.7706 126.09 56.8148 125.6 56.7544C125.048 56.6863 124.52 56.4853 124.062 56.1686C123.914 56.0485 123.749 55.9521 123.572 55.8831C122.826 55.6564 122.765 57.0459 122.689 57.5272C122.59 58.2425 122.41 58.9534 122.41 59.6776Z" fill="white"/>
<path d="M123.137 64.3377C123.262 65.6948 122.238 67.0092 122.537 68.3383C122.6 68.6209 122.722 68.8902 122.766 69.1772C122.891 69.9647 122.42 70.711 121.971 71.3704L118.115 77.0298C117.96 77.2782 117.775 77.5066 117.565 77.7098C116.829 78.3648 115.722 78.2985 114.753 78.4928C114.073 78.6326 113.43 78.9167 112.869 79.3259C112.844 79.3455 112.827 79.3741 112.823 79.4058C112.819 79.4374 112.827 79.4695 112.846 79.4952C113.006 79.7129 113.217 79.8872 113.462 80.0021C113.706 80.117 113.976 80.1689 114.245 80.1531C114.347 80.2856 114.245 80.4828 114.106 80.5785C113.9 80.7257 113.614 80.7595 113.573 81.1113C113.559 81.2336 113.584 81.3571 113.643 81.4646C113.799 81.7018 114.041 81.8695 114.318 81.9326C115.653 82.3418 117.095 81.6235 118.094 80.6477C119.094 79.6718 119.811 78.4398 120.791 77.4478C121.334 76.8973 121.951 76.4278 122.51 75.8949C123.626 74.8308 124.494 73.5399 125.33 72.2461C125.582 71.8561 125.837 71.4557 125.941 71.0039C126.046 70.552 125.997 70.0942 126.116 69.6571C126.272 69.0845 126.692 68.6268 127.041 68.1469C127.725 67.2049 128.183 66.0524 128.092 64.8911C128 63.7298 127.282 62.5846 126.187 62.1902C125.847 62.0552 125.473 62.0325 125.12 62.1254C124.671 62.2638 124.34 62.6347 124.034 62.9909L123.298 63.8358C123.118 64.0228 122.978 64.2434 122.884 64.4849C122.837 64.6065 122.825 64.7392 122.851 64.8672C122.877 64.9951 122.94 65.1128 123.031 65.2061" fill="#FBBEBE"/>
<path d="M125.092 58.7709C124.586 58.8003 124.028 58.8504 123.67 59.2125C123.52 59.3787 123.399 59.5687 123.311 59.7747C122.964 60.4827 122.625 61.2231 122.6 62.012C122.58 62.642 122.762 63.2587 122.858 63.8813C122.937 64.3994 122.736 64.9278 122.697 65.4518C123.326 65.259 124.156 64.997 124.726 64.6717C125.114 64.4494 125.49 64.1963 125.913 64.055C126.518 63.8533 127.533 64.2022 128.108 64.4818C128.139 64.0785 127.836 63.375 127.868 62.9702C127.873 62.7998 127.903 62.6311 127.958 62.4697C128.044 62.2991 128.146 62.137 128.263 61.9855C128.482 61.6293 128.582 61.2129 128.55 60.796C128.518 60.3791 128.355 59.9829 128.085 59.6643C127.574 59.0903 126.775 58.8754 126.012 58.7812C125.532 58.7255 125.048 58.7088 124.565 58.7312" fill="white"/>
</g>
<defs>
<linearGradient id="paint0_linear" x1="104.145" y1="81.1775" x2="104.145" y2="9.25213" gradientUnits="userSpaceOnUse">
<stop stop-color="#808080" stop-opacity="0.25"/>
<stop offset="0.54" stop-color="#808080" stop-opacity="0.12"/>
<stop offset="1" stop-color="#808080" stop-opacity="0.1"/>
</linearGradient>
<clipPath id="clip0">
<rect width="154.487" height="99.8809" fill="white" transform="translate(0.196289 0.785889)"/>
</clipPath>
</defs>
</svg>
