<svg width="144" height="106" viewBox="0 0 144 106" fill="none" xmlns="http://www.w3.org/2000/svg">
<g opacity="0.64" clip-path="url(#clip0)">
<path opacity="0.2" d="M19.1467 54.1509C17.2626 54.7201 15.4991 56.0983 15.0284 58.0103C14.4901 60.2077 15.7315 62.4228 15.9109 64.679C16.4904 72.0713 5.97408 77.2868 7.47431 84.5483C8.06999 87.4355 10.4777 89.5593 12.8501 91.314C16.6507 94.1159 20.8676 96.5913 25.5374 97.2899C32.6253 98.3519 40.0308 95.2308 46.9201 97.2032C52.4768 98.7946 56.729 103.459 62.2475 105.179C66.4481 106.49 70.9738 105.974 75.3377 105.443C77.691 105.157 80.1561 104.828 82.0549 103.416C85.5849 100.788 85.807 95.597 88.1706 91.8773C91.8212 86.1412 99.8253 85.0145 106.537 86.1294C113.248 87.2443 119.765 89.9888 126.565 89.7652C128.018 89.7167 129.506 89.5196 130.774 88.8063C132.316 87.94 133.357 86.4133 134.278 84.9027C140.032 75.4259 143.191 64.6014 143.436 53.517C143.476 51.6123 143.409 49.6252 142.513 47.9441C141.38 45.8173 139.117 44.545 136.863 43.689C131.452 41.6299 125.475 41.2931 120.173 38.9706C115.059 36.7306 110.917 32.802 106.463 29.4353C97.5879 22.7391 87.3009 18.1577 76.3864 16.0406C73.8287 15.5464 71.1738 15.1934 68.6323 15.7641C65.7039 16.4216 63.18 18.2468 60.9105 20.2119C54.8728 25.4391 50.0338 31.8887 44.4697 37.6175C40.6314 41.5683 36.4518 45.1725 31.9796 48.3883C29.9204 49.8723 27.7319 51.6344 25.4374 52.7316C23.3371 53.7347 21.3676 53.4817 19.1467 54.1509Z" fill="white"/>
<path d="M46.0593 7.69373C46.0593 7.69373 40.3746 15.2434 44.4414 24.0433C48.5082 32.8432 37.3535 46.9821 37.3535 46.9821" stroke="#535461" stroke-width="0.294163" stroke-miterlimit="10"/>
<path d="M48.6078 4.86822C48.1562 6.81117 45.9956 7.9687 45.9956 7.9687C45.9956 7.9687 44.5689 5.97575 45.0205 4.0328C45.472 2.08985 46.6383 0.701405 47.6326 0.932323C48.6269 1.16324 49.0593 2.92528 48.6078 4.86822Z" fill="#8ED16F"/>
<path d="M47.1568 4.52972C47.2988 3.91973 47.2285 3.3821 46.9998 3.32889C46.7712 3.27569 46.4707 3.72705 46.3288 4.33704C46.1869 4.94703 46.2571 5.48466 46.4858 5.53787C46.7144 5.59108 47.0149 5.13971 47.1568 4.52972Z" fill="#8ED16F"/>
<path opacity="0.3" d="M47.1568 4.52972C47.2988 3.91973 47.2285 3.3821 46.9998 3.32889C46.7712 3.27569 46.4707 3.72705 46.3288 4.33704C46.1869 4.94703 46.2571 5.48466 46.4858 5.53787C46.7144 5.59108 47.0149 5.13971 47.1568 4.52972Z" fill="black"/>
<path d="M47.6257 13.5005C45.7489 14.1771 43.603 12.9916 43.603 12.9916C43.603 12.9916 44.5002 10.7103 46.3785 10.0352C48.2567 9.36014 50.0555 9.594 50.4011 10.5441C50.7468 11.4943 49.5025 12.8239 47.6257 13.5005Z" fill="#8ED16F"/>
<path d="M47.0987 12.0024C47.6874 11.7895 48.0999 11.438 48.0201 11.2173C47.9403 10.9966 47.3983 10.9904 46.8096 11.2033C46.2209 11.4162 45.8084 11.7678 45.8882 11.9884C45.968 12.2091 46.5099 12.2154 47.0987 12.0024Z" fill="#8ED16F"/>
<path opacity="0.3" d="M47.0987 12.0024C47.6874 11.7895 48.0999 11.438 48.0201 11.2173C47.9403 10.9966 47.3983 10.9904 46.8096 11.2033C46.2209 11.4162 45.8084 11.7678 45.8882 11.9884C45.968 12.2091 46.5099 12.2154 47.0987 12.0024Z" fill="black"/>
<path d="M47.1887 20.3795C45.3119 21.0561 43.166 19.8706 43.166 19.8706C43.166 19.8706 44.0632 17.5894 45.9414 16.9143C47.8197 16.2392 49.6185 16.473 49.9641 17.4232C50.3098 18.3733 49.0655 19.7044 47.1887 20.3795Z" fill="#8ED16F"/>
<path d="M46.6835 18.9853C47.2728 18.7732 47.686 18.4221 47.6065 18.2013C47.527 17.9804 46.9848 17.9733 46.3956 18.1855C45.8063 18.3976 45.3931 18.7486 45.4726 18.9695C45.5521 19.1904 46.0943 19.1975 46.6835 18.9853Z" fill="#8ED16F"/>
<path opacity="0.3" d="M46.6835 18.9853C47.2728 18.7732 47.686 18.4221 47.6065 18.2013C47.527 17.9804 46.9848 17.9733 46.3956 18.1855C45.8063 18.3976 45.3931 18.7486 45.4726 18.9695C45.5521 19.1904 46.0943 19.1975 46.6835 18.9853Z" fill="black"/>
<path d="M49.3816 28.4499C47.5048 29.1265 45.3589 27.941 45.3589 27.941C45.3589 27.941 46.2561 25.6598 48.1343 24.9847C50.0125 24.3096 51.8114 24.5435 52.157 25.4936C52.5026 26.4438 51.2583 27.7778 49.3816 28.4499Z" fill="#8ED16F"/>
<path d="M48.8764 27.0594C49.4657 26.8473 49.8789 26.4962 49.7994 26.2754C49.7199 26.0545 49.1777 26.0474 48.5884 26.2595C47.9992 26.4717 47.5859 26.8227 47.6655 27.0436C47.745 27.2645 48.2871 27.2716 48.8764 27.0594Z" fill="#8ED16F"/>
<path opacity="0.3" d="M48.8764 27.0594C49.4657 26.8473 49.8789 26.4962 49.7994 26.2754C49.7199 26.0545 49.1777 26.0474 48.5884 26.2595C47.9992 26.4717 47.5859 26.8227 47.6655 27.0436C47.745 27.2645 48.2871 27.2716 48.8764 27.0594Z" fill="black"/>
<path d="M47.9553 35.8304C46.0785 36.507 43.9326 35.3215 43.9326 35.3215C43.9326 35.3215 44.8298 33.0403 46.708 32.3652C48.5863 31.6901 50.3851 31.924 50.7307 32.8741C51.0764 33.8242 49.8335 35.1553 47.9553 35.8304Z" fill="#8ED16F"/>
<path d="M47.4541 34.3144C48.0428 34.1015 48.4554 33.75 48.3756 33.5293C48.2957 33.3087 47.7538 33.3024 47.1651 33.5153C46.5764 33.7283 46.1638 34.0798 46.2436 34.3004C46.3235 34.5211 46.8654 34.5274 47.4541 34.3144Z" fill="#8ED16F"/>
<path opacity="0.3" d="M47.4541 34.3144C48.0428 34.1015 48.4554 33.75 48.3756 33.5293C48.2957 33.3087 47.7538 33.3024 47.1651 33.5153C46.5764 33.7283 46.1638 34.0798 46.2436 34.3004C46.3235 34.5211 46.8654 34.5274 47.4541 34.3144Z" fill="black"/>
<path d="M39.1524 15.4552C40.5379 16.8907 42.9868 16.7789 42.9868 16.7789C42.9868 16.7789 43.1883 14.3359 41.8028 12.9004C40.4173 11.4649 38.7008 10.8736 37.9684 11.5767C37.2359 12.2797 37.7669 14.0197 39.1524 15.4552Z" fill="#8ED16F"/>
<path d="M41.318 14.9458C41.4869 14.7827 41.2712 14.2853 40.8362 13.8347C40.4013 13.3841 39.9117 13.151 39.7428 13.314C39.5739 13.4771 39.7896 13.9745 40.2246 14.4251C40.6596 14.8757 41.1491 15.1088 41.318 14.9458Z" fill="#8ED16F"/>
<path opacity="0.3" d="M41.318 14.9458C41.4869 14.7827 41.2712 14.2853 40.8362 13.8347C40.4013 13.3841 39.9117 13.151 39.7428 13.314C39.5739 13.4771 39.7896 13.9745 40.2246 14.4251C40.6596 14.8757 41.1491 15.1088 41.318 14.9458Z" fill="black"/>
<path d="M38.357 38.2513C39.7425 39.6869 42.1914 39.5751 42.1914 39.5751C42.1914 39.5751 42.3929 37.132 41.0074 35.6965C39.6219 34.261 37.9054 33.6697 37.173 34.3728C36.4405 35.0758 36.9715 36.8158 38.357 38.2513Z" fill="#8ED16F"/>
<path d="M40.5202 37.7439C40.6891 37.5808 40.4734 37.0834 40.0384 36.6328C39.6034 36.1822 39.1139 35.9491 38.945 36.1121C38.7761 36.2752 38.9918 36.7726 39.4268 37.2232C39.8617 37.6738 40.3513 37.9069 40.5202 37.7439Z" fill="#8ED16F"/>
<path opacity="0.3" d="M40.5202 37.7439C40.6891 37.5808 40.4734 37.0834 40.0384 36.6328C39.6034 36.1822 39.1139 35.9491 38.945 36.1121C38.7761 36.2752 38.9918 36.7726 39.4268 37.2232C39.8617 37.6738 40.3513 37.9069 40.5202 37.7439Z" fill="black"/>
<path d="M40.1938 23.5124C41.9794 24.4037 44.2488 23.4771 44.2488 23.4771C44.2488 23.4771 43.6237 21.1076 41.8396 20.2163C40.0555 19.325 38.2391 19.3338 37.7846 20.2516C37.3301 21.1694 38.4082 22.6211 40.1938 23.5124Z" fill="#8ED16F"/>
<path d="M42.06 22.3053C42.1648 22.0953 41.7955 21.6983 41.2351 21.4186C40.6747 21.139 40.1354 21.0826 40.0306 21.2926C39.9258 21.5027 40.2951 21.8997 40.8555 22.1793C41.4159 22.459 41.9551 22.5154 42.06 22.3053Z" fill="#8ED16F"/>
<path opacity="0.3" d="M42.06 22.3053C42.1648 22.0953 41.7955 21.6983 41.2351 21.4186C40.6747 21.139 40.1354 21.0826 40.0306 21.2926C39.9258 21.5027 40.2951 21.8997 40.8555 22.1793C41.4159 22.459 41.9551 22.5154 42.06 22.3053Z" fill="black"/>
<path d="M40.9424 31.5385C42.728 32.4298 44.9974 31.5032 44.9974 31.5032C44.9974 31.5032 44.3723 29.1337 42.5882 28.2424C40.8041 27.3511 38.9877 27.3599 38.5332 28.2777C38.0787 29.1955 39.1642 30.656 40.9424 31.5385Z" fill="#8ED16F"/>
<path d="M42.809 30.3325C42.9138 30.1225 42.5445 29.7255 41.9841 29.4459C41.4237 29.1662 40.8845 29.1098 40.7796 29.3199C40.6748 29.5299 41.0441 29.9269 41.6045 30.2065C42.1649 30.4862 42.7042 30.5426 42.809 30.3325Z" fill="#8ED16F"/>
<path opacity="0.3" d="M42.809 30.3325C42.9138 30.1225 42.5445 29.7255 41.9841 29.4459C41.4237 29.1662 40.8845 29.1098 40.7796 29.3199C40.6748 29.5299 41.0441 29.9269 41.6045 30.2065C42.1649 30.4862 42.7042 30.5426 42.809 30.3325Z" fill="black"/>
<path d="M18.6802 23.9211C18.6802 23.9211 29.0627 34.3036 23.2015 49.7104C17.3403 65.1172 33.2486 90.7373 33.2486 90.7373C33.2486 90.7373 33.078 90.7123 32.7618 90.6564C11.435 86.8926 0.845096 62.5036 12.6999 44.3861C17.102 37.6497 20.7276 29.7485 18.6802 23.9211Z" fill="#8ED16F"/>
<path d="M0.1875 65.9144C0.1875 65.9144 12.0349 64.0274 13.1145 74.6452C14.1941 85.263 35.896 86.7353 35.896 86.7353C35.896 86.7353 35.7489 86.8324 35.4885 87.0059C17.5696 98.7725 0.440481 94.4983 3.02176 78.8797C3.98368 73.0714 3.90425 67.2396 0.1875 65.9144Z" fill="#8ED16F"/>
<g opacity="0.3">
<path opacity="0.3" d="M0.1875 65.9144C0.1875 65.9144 12.0349 64.0274 13.1145 74.6452C14.1941 85.263 35.896 86.7353 35.896 86.7353C35.896 86.7353 35.7489 86.8324 35.4885 87.0059C17.5696 98.7725 0.440481 94.4983 3.02176 78.8797C3.98368 73.0714 3.90425 67.2396 0.1875 65.9144Z" fill="white"/>
</g>
<path d="M15.6812 65.7835C17.4805 65.7835 18.9391 61.978 18.9391 57.2837C18.9391 52.5893 17.4805 48.7838 15.6812 48.7838C13.8819 48.7838 12.4233 52.5893 12.4233 57.2837C12.4233 61.978 13.8819 65.7835 15.6812 65.7835Z" fill="#8ED16F"/>
<path opacity="0.3" d="M15.6812 65.7835C17.4805 65.7835 18.9391 61.978 18.9391 57.2837C18.9391 52.5893 17.4805 48.7838 15.6812 48.7838C13.8819 48.7838 12.4233 52.5893 12.4233 57.2837C12.4233 61.978 13.8819 65.7835 15.6812 65.7835Z" fill="black"/>
<path d="M15.3832 88.1534C16.2408 87.2959 15.3887 85.0534 13.48 83.1447C11.5713 81.236 9.32877 80.3839 8.47121 81.2414C7.61365 82.099 8.46576 84.3415 10.3745 86.2502C12.2831 88.1589 14.5256 89.011 15.3832 88.1534Z" fill="#8ED16F"/>
<path opacity="0.3" d="M15.3832 88.1534C16.2408 87.2959 15.3887 85.0534 13.48 83.1447C11.5713 81.236 9.32877 80.3839 8.47121 81.2414C7.61365 82.099 8.46576 84.3415 10.3745 86.2502C12.2831 88.1589 14.5256 89.011 15.3832 88.1534Z" fill="black"/>
<path d="M106.658 39.9517H29.5372C28.6053 39.9517 27.7116 40.3219 27.0526 40.9808C26.3936 41.6398 26.0234 42.5335 26.0234 43.4654V88.668C26.0234 89.5999 26.3936 90.4937 27.0526 91.1526C27.7116 91.8116 28.6053 92.1818 29.5372 92.1818H106.658C107.59 92.1818 108.484 91.8116 109.143 91.1526C109.802 90.4937 110.172 89.5999 110.172 88.668V43.4654C110.172 42.5335 109.802 41.6398 109.143 40.9808C108.484 40.3219 107.59 39.9517 106.658 39.9517Z" fill="url(#paint0_linear)"/>
<path d="M105.532 40.5664H30.6628C28.6474 40.5664 27.0137 42.2002 27.0137 44.2155V87.9178C27.0137 89.9332 28.6474 91.5669 30.6628 91.5669H105.532C107.547 91.5669 109.181 89.9332 109.181 87.9178V44.2155C109.181 42.2002 107.547 40.5664 105.532 40.5664Z" fill="white"/>
<path d="M109.181 49.4913H27.0137V58.8413H109.181V49.4913Z" fill="white"/>
<path opacity="0.3" d="M109.181 49.4913H27.0137V58.8413H109.181V49.4913Z" fill="black"/>
<path d="M101.39 65.7836H34.8062V70.3166H101.39V65.7836Z" fill="#D6D6E3"/>
<path d="M40.3302 88.1679C43.9295 88.1679 46.8474 85.2501 46.8474 81.6507C46.8474 78.0514 43.9295 75.1335 40.3302 75.1335C36.7308 75.1335 33.813 78.0514 33.813 81.6507C33.813 85.2501 36.7308 88.1679 40.3302 88.1679Z" fill="white"/>
<path opacity="0.3" d="M40.3302 88.1679C43.9295 88.1679 46.8474 85.2501 46.8474 81.6507C46.8474 78.0514 43.9295 75.1335 40.3302 75.1335C36.7308 75.1335 33.813 78.0514 33.813 81.6507C33.813 85.2501 36.7308 88.1679 40.3302 88.1679Z" fill="black"/>
<path d="M104.509 27.9909C104.614 28.3235 104.838 28.6061 105.137 28.7852C106.489 29.6779 109.428 29.4882 109.781 29.4882C109.856 29.4882 109.954 29.622 110.063 29.8471C110.582 30.9178 111.387 34.0566 111.441 34.7625C111.513 35.6171 112.308 39.6162 113.608 41.1062C113.647 41.1518 113.687 41.1944 113.725 41.2341C115.001 42.5152 116.496 41.1062 116.496 41.1062L116.711 40.3605C116.651 40.6546 116.583 40.9973 116.516 41.3812C116.482 41.5739 116.448 41.7783 116.415 41.9887C116.222 43.1738 116.12 44.3722 116.111 45.573C116.108 46.0091 116.126 46.445 116.167 46.8791C116.179 46.9997 116.192 47.1189 116.208 47.2351C116.275 47.7639 116.307 48.2964 116.305 48.8294C116.293 51.9946 115.486 55.932 115.486 55.932L115.517 55.9217C115.498 56.0202 115.486 56.0688 115.486 56.0688L115.533 56.0541C115.51 56.2002 115.489 56.3497 115.468 56.5027C115.195 58.4883 115.037 60.9592 114.962 62.3859C114.924 63.1385 114.957 63.893 115.062 64.6392L116.498 74.7452V79.4518C116.493 80.165 116.58 80.8759 116.757 81.5668C117.224 83.3451 116.839 89.5519 116.623 92.4965C116.563 93.2995 116.516 93.8614 116.502 94.0232V94.0717L116.543 94.0555C116.543 94.0894 116.543 94.107 116.543 94.107C116.605 94.0808 116.669 94.062 116.735 94.0511C116.165 94.9336 115.134 96.3927 114.342 96.6383C113.874 96.7806 113.459 97.0561 113.146 97.4311L113.125 97.459L113.096 97.5002C112.998 97.6313 112.938 97.7872 112.924 97.9503C112.912 97.9222 112.903 97.8931 112.897 97.8635C112.837 98.1915 113.034 98.4915 113.653 98.6371C114.014 98.706 114.382 98.7356 114.749 98.7254C116.896 98.7254 120.707 98.065 121.128 97.3546V94.9042L121.197 94.9262V94.9483L121.46 95.0351L122.183 92.6112C123.049 91.9699 122.33 80.4931 122.183 77.856C122.05 75.4526 123.537 65.8924 123.8 64.2083L123.765 64.1656L123.805 63.92C123.858 63.9584 123.907 64.0018 123.952 64.0494C124.038 64.1521 124.114 64.2635 124.177 64.3818C124.301 64.5923 124.408 64.8127 124.496 65.0408C125.949 68.6648 126.604 79.0282 126.604 79.9578V89.7034C126.601 90.6651 126.735 91.6224 127.001 92.5465C127.134 93.0328 127.238 93.527 127.31 94.0261C127.341 94.2217 127.367 94.4159 127.392 94.6012C127.417 94.7865 127.442 94.9983 127.461 95.1719C127.461 95.2175 127.472 95.2616 127.476 95.3028C127.48 95.344 127.476 95.3425 127.476 95.3631C127.516 95.747 127.536 95.9985 127.536 95.9985C127.542 95.9774 127.552 95.9578 127.566 95.9411L127.573 96.0338C127.583 95.9987 127.603 95.9671 127.63 95.9426C127.69 95.8839 127.755 95.8307 127.825 95.7837V97.0222L127.789 96.9957V97.209C129.287 98.3385 131.724 98.6798 133.595 98.6665C134.808 98.6665 135.791 98.5195 136.132 98.3488C136.62 98.1091 136.352 97.5502 135.908 97.1222C135.564 96.7898 135.115 96.5339 134.832 96.5662C134.358 96.6177 132.739 94.7836 131.89 93.779L131.986 93.7364L132.121 93.6775V77.428C132.121 77.428 132.339 71.0123 132.987 64.6672C133.295 61.4687 132.916 58.2414 131.877 55.201L131.856 55.1407L132.053 55.1716C132.262 55.2039 132.374 55.2231 132.374 55.2231C132.374 55.2231 132.374 55.173 132.361 55.076H132.374C132.374 55.076 132.121 52.3241 132.118 48.8677C132.118 44.9494 132.449 40.1722 133.818 37.4688C134.607 35.9127 134.87 34.6743 134.848 33.6977C134.882 32.8383 134.635 31.9913 134.143 31.2855C133.937 31.0014 133.657 30.7796 133.333 30.6443L133.305 30.6281H133.29C133.054 30.5324 132.801 30.4825 132.546 30.481H129.588C129.246 30.4813 128.909 30.3926 128.611 30.2236L127.454 29.5676C127.069 28.7249 127.013 27.6806 127.095 26.701C127.095 26.6231 127.11 26.5451 127.117 26.4686L127.201 26.3804C127.266 26.3112 127.326 26.2333 127.385 26.1671C127.383 26.2251 127.379 26.2831 127.372 26.3407C127.357 26.4333 127.332 26.4877 127.292 26.4995C127.925 26.4171 128.631 26.2921 129.019 25.8038C129.035 25.7847 129.05 25.7641 129.065 25.7435C129.179 25.5578 129.274 25.3606 129.348 25.1552C129.403 25.0148 129.475 24.8823 129.565 24.761C129.662 24.6345 129.788 24.5316 129.893 24.4109L129.91 24.3904C130.282 23.9491 130.303 23.3167 130.307 22.7401C130.315 21.3399 130.274 19.7985 129.337 18.7483C128.559 17.8746 127.317 17.5437 126.139 17.5055C124.961 17.4672 123.786 17.679 122.609 17.6849C121.809 17.6849 120.844 17.6717 120.403 18.3335C120.187 18.6586 120.16 19.0837 119.925 19.3955C119.79 19.5749 119.582 19.7293 119.57 19.9529C119.569 20.0561 119.595 20.1577 119.647 20.2471V20.2574C119.932 20.8192 120.538 21.1693 121.171 21.2796C121.064 21.4083 120.965 21.5439 120.876 21.6855C120.49 22.3028 120.286 23.0166 120.288 23.7447C120.288 23.83 120.288 23.9138 120.297 23.9976C120.363 24.9866 120.804 25.9131 121.53 26.5878C121.518 26.6701 121.506 26.7525 121.493 26.8334L121.519 26.8569C121.603 26.9324 121.689 27.004 121.78 27.0717L121.812 27.0967C121.812 27.1481 121.812 27.1996 121.812 27.2437C121.812 27.329 121.812 27.4158 121.803 27.4997C121.794 27.5835 121.803 27.635 121.794 27.7026L121.775 27.6865L120.338 26.4863L118.028 24.3477C118.028 24.3477 112.25 20.1426 111.96 22.1415C111.925 22.4965 112.023 22.8518 112.235 23.1387C113.296 24.7566 116.942 26.1333 116.942 26.1333C116.942 26.1333 119.116 28.4322 120.571 30.9105C120.519 30.9384 120.468 30.9649 120.413 30.9899C119.119 31.5915 117.23 31.337 117.23 31.337C115.049 31.6768 114.852 34.0669 114.864 35.0332C114.864 35.0788 114.864 35.1229 114.864 35.1626C114.864 35.2023 114.864 35.2111 114.864 35.2332L111.969 28.4366L111.96 28.416C111.866 28.1947 111.717 28.0008 111.528 27.8522C111.339 27.7036 111.115 27.6051 110.878 27.5658C108.942 27.2408 104.105 26.5628 104.509 27.9909ZM116.627 94.0305C116.67 94.0205 116.712 94.0126 116.755 94.007L116.742 94.0276L116.627 94.0305Z" fill="url(#paint1_linear)"/>
<path d="M131.09 92.6407C131.09 92.6407 133.832 96.0869 134.466 96.0163C135.1 95.9457 136.575 97.3518 135.732 97.7812C134.889 98.2107 130.037 98.4843 127.643 96.6561V93.9012L131.09 92.6407Z" fill="#ACA9C9"/>
<path d="M117.236 92.8511C117.236 92.8511 115.618 95.7339 114.495 96.0869C113.371 96.4399 112.386 97.7048 113.862 98.0563C115.339 98.4078 120.613 97.6342 121.104 96.7899V93.0614L117.236 92.8511Z" fill="#ACA9C9"/>
<path d="M115.205 64.5304L116.602 74.4996V79.1341C116.598 79.8372 116.683 80.5381 116.855 81.2198C117.311 82.9744 116.936 89.096 116.724 92.0008C116.655 92.948 116.602 93.554 116.602 93.554C117.516 93.1319 121.384 94.4674 121.384 94.4674L121.775 93.1363L122.087 92.0773C122.931 91.4449 122.234 80.124 122.087 77.5162C121.991 75.7351 122.785 69.9607 123.294 66.4998C123.441 65.5217 123.561 64.7349 123.633 64.2612C123.678 63.9671 123.703 63.8038 123.703 63.8038C123.858 63.9302 123.987 64.0856 124.083 64.2612C124.204 64.4691 124.308 64.6865 124.393 64.9114C125.808 68.4869 126.452 78.7091 126.452 79.6195V89.2328C126.449 90.1812 126.58 91.1254 126.839 92.0376C127.013 92.703 127.141 93.3797 127.22 94.0629C127.32 94.8263 127.367 95.4411 127.367 95.4411C127.438 95.0189 131.797 93.1201 131.797 93.1201V77.0882C131.797 77.0882 132.007 70.7637 132.641 64.501C132.914 61.6523 132.639 58.7777 131.832 56.032C131.657 55.4334 131.482 54.926 131.331 54.5245C131.074 53.8405 130.89 53.4625 130.89 53.4625H116.529C116.287 53.5081 116.087 53.9935 115.906 54.7304C115.789 55.2246 115.686 55.8305 115.596 56.4953C115.33 58.453 115.177 60.8901 115.103 62.2992C115.066 63.0445 115.1 63.7916 115.205 64.5304Z" fill="#618FD8"/>
<g opacity="0.1">
<path opacity="0.1" d="M131.544 93.1658V77.1339C131.544 77.1339 131.755 70.8094 132.389 64.5467C133.022 58.2839 130.624 53.5067 130.624 53.5067H130.904C130.904 53.5067 133.295 58.2883 132.669 64.5467C132.044 70.805 131.825 77.1339 131.825 77.1339V93.1658C131.825 93.1658 127.466 95.0646 127.395 95.4867C127.395 95.4867 127.395 95.3926 127.373 95.2308C128.323 94.5704 131.544 93.1658 131.544 93.1658Z" fill="black"/>
<path opacity="0.1" d="M117.025 93.5099C116.892 93.5127 116.761 93.5396 116.638 93.5894V93.5188C116.766 93.5059 116.896 93.5029 117.025 93.5099Z" fill="black"/>
<path opacity="0.1" d="M121.841 92.1126C122.685 91.4801 121.988 80.1593 121.841 77.5515C121.694 74.9438 123.459 63.8406 123.459 63.8406C123.551 63.9119 123.633 63.9961 123.701 64.0906C123.442 65.7497 121.995 75.182 122.123 77.5515C122.27 80.1534 122.967 91.4743 122.123 92.1126L121.42 94.5027L121.164 94.4174L121.841 92.1126Z" fill="black"/>
</g>
<path d="M118.08 36.1055L116.609 41.3092C116.609 41.3092 115.062 42.78 113.797 41.3092C112.532 39.8384 111.752 35.8951 111.676 35.0509C111.599 34.2066 110.48 29.8471 110.058 29.8471C109.636 29.8471 105.417 30.1281 104.925 28.3763C104.53 26.9673 109.24 27.6409 111.126 27.9571C111.358 27.9967 111.576 28.0943 111.761 28.2408C111.945 28.3874 112.089 28.5782 112.18 28.7955L115.072 35.701C115.072 35.701 116.603 33.9257 118.08 36.1055Z" fill="#F7C4A7"/>
<path d="M127.572 24.0109C127.572 24.0109 125.744 29.144 128.064 30.9722C130.385 32.8005 119.765 33.2932 119.765 33.2932L121.206 31.9224C121.206 31.9224 122.225 27.8791 121.522 24.5036L127.572 24.0109Z" fill="#F7C4A7"/>
<path opacity="0.1" d="M125.321 30.9722C125.321 30.9722 127.185 30.5148 127.185 30.0236L128.836 30.9722H132.986C132.986 30.9722 136.01 32.6593 133.478 37.7233C130.947 42.7873 132.072 55.226 132.072 55.226C132.072 55.226 123.072 53.6081 115.618 56.0702C115.618 56.0702 116.743 50.515 116.321 47.3512C115.899 44.1875 117.024 39.7574 117.024 39.7574L117.657 37.0849C117.657 37.0849 117.621 34.5846 115.019 35.8539C115.019 35.8539 114.633 32.2327 117.305 31.8106C117.305 31.8106 120.394 32.2327 121.313 30.6854C121.313 30.6913 123.353 31.8871 125.321 30.9722Z" fill="black"/>
<path d="M125.321 30.8325C125.321 30.8325 127.185 30.375 127.185 29.8838L128.395 30.5795C128.684 30.7452 129.012 30.8324 129.345 30.8325H132.247C132.551 30.8316 132.85 30.9029 133.12 31.0405C133.39 31.1781 133.624 31.378 133.802 31.6238C134.468 32.5607 135.065 34.408 133.478 37.5835C130.947 42.6461 132.072 55.0862 132.072 55.0862C132.072 55.0862 123.072 53.4683 115.618 55.9305C115.618 55.9305 116.743 50.3752 116.321 47.2115C115.899 44.0477 117.024 39.6279 117.024 39.6279L117.657 36.9555C117.657 36.9555 117.621 34.4551 115.02 35.7244C115.02 35.7244 114.643 32.2033 117.195 31.7002C117.266 31.6845 117.339 31.6795 117.411 31.6855C117.957 31.7429 120.5 31.9267 121.315 30.5486C121.313 30.5501 123.353 31.7458 125.321 30.8325Z" fill="#E14B5A"/>
<path opacity="0.1" d="M132.424 37.2306C132.424 37.2306 130.174 38.6367 126.517 37.2306C126.517 37.2306 122.509 35.7598 121.243 32.8711C119.976 29.9824 127.641 33.3638 127.641 33.3638C127.641 33.3638 129.259 33.3638 129.75 33.0123C130.241 32.6608 133.689 35.6833 132.424 37.2306Z" fill="black"/>
<path d="M132.424 36.9497C132.424 36.9497 130.174 38.3558 126.517 36.9497C126.517 36.9497 122.51 35.4789 121.243 32.5902C119.977 29.7015 117.025 26.5378 117.025 26.5378C117.025 26.5378 111.892 24.5683 112.171 22.6004C112.451 20.6324 118.078 24.7801 118.078 24.7801L120.328 26.8893L127.641 33.077C127.641 33.077 129.259 33.077 129.75 32.7255C130.242 32.374 133.689 35.4024 132.424 36.9497Z" fill="#F7C4A7"/>
<path opacity="0.1" d="M121.455 24.714L127.502 24.2213C127.191 25.1509 126.979 26.1108 126.871 27.085C126.168 27.8139 125.207 28.2377 124.194 28.2652C123.182 28.2927 122.2 27.9217 121.458 27.2321C121.612 26.3997 121.611 25.546 121.455 24.714Z" fill="black"/>
<path d="M124.163 28.0542C126.298 28.0542 128.029 26.323 128.029 24.1875C128.029 22.0519 126.298 20.3207 124.163 20.3207C122.027 20.3207 120.296 22.0519 120.296 24.1875C120.296 26.323 122.027 28.0542 124.163 28.0542Z" fill="#F7C4A7"/>
<path opacity="0.1" d="M126.285 25.0272C126.059 24.6537 126.519 24.1668 126.368 23.7579C126.228 23.3814 125.672 23.3167 125.485 22.9652C125.338 22.6813 125.485 22.3327 125.427 22.0194C125.343 21.615 124.907 21.3634 124.494 21.3429C124.081 21.3223 123.682 21.4767 123.289 21.6091C122.65 21.8253 121.976 21.9915 121.305 21.915C120.635 21.8385 119.965 21.4738 119.667 20.8751C119.618 20.7879 119.592 20.6897 119.592 20.5898C119.604 20.3692 119.807 20.2177 119.937 20.0412C120.167 19.7338 120.193 19.3146 120.402 18.994C120.829 18.3409 121.766 18.3571 122.545 18.3542C123.692 18.3542 124.834 18.1394 125.981 18.1777C127.128 18.2159 128.334 18.5409 129.095 19.4028C130.007 20.4398 130.048 21.9577 130.04 23.3402C130.04 23.9094 130.017 24.5286 129.654 24.9684C129.548 25.0964 129.418 25.2023 129.317 25.3332C129.096 25.6273 129.037 26.0039 128.83 26.3024C128.462 26.8334 127.745 26.9628 127.105 27.0481C127.293 27.0231 127.137 25.7627 127.105 25.6465C126.981 25.067 126.847 25.0787 126.285 25.0272Z" fill="black"/>
<path d="M126.285 24.8875C126.059 24.5139 126.519 24.027 126.368 23.6182C126.228 23.2416 125.672 23.1769 125.485 22.8254C125.338 22.5415 125.485 22.1929 125.427 21.8797C125.343 21.4752 124.907 21.2237 124.494 21.2031C124.081 21.1825 123.682 21.3369 123.289 21.4693C122.65 21.6855 121.976 21.8517 121.305 21.7752C120.635 21.6987 119.965 21.334 119.667 20.7354C119.618 20.6482 119.592 20.55 119.592 20.45C119.604 20.2294 119.807 20.0779 119.937 19.9014C120.167 19.594 120.193 19.1748 120.402 18.8542C120.829 18.2011 121.766 18.2173 122.545 18.2144C123.692 18.2144 124.834 17.9996 125.981 18.0379C127.128 18.0761 128.334 18.4012 129.095 19.2631C130.007 20.3 130.048 21.8179 130.04 23.2004C130.04 23.7697 130.017 24.3889 129.654 24.8286C129.548 24.9566 129.418 25.0625 129.317 25.1934C129.096 25.4876 129.037 25.8641 128.83 26.1627C128.462 26.6936 127.745 26.8231 127.105 26.9084C127.293 26.8834 127.137 25.6229 127.105 25.5067C126.981 24.9198 126.847 24.9375 126.285 24.8875Z" fill="#281C1C"/>
<path opacity="0.1" d="M132.389 37.4071C132.389 37.4071 130.49 32.4843 129.013 32.3446C127.537 32.2048 131.826 32.3446 131.826 32.3446L133.232 34.8758L132.389 37.4071Z" fill="black"/>
<path d="M132.53 37.4071C132.53 37.4071 130.631 32.4843 129.154 32.3446C127.677 32.2048 131.966 32.3446 131.966 32.3446L133.372 34.8758L132.53 37.4071Z" fill="#E14B5A"/>
<path d="M127.215 94.0746C127.315 94.838 127.362 95.4528 127.362 95.4528C127.433 95.0307 131.792 93.1318 131.792 93.1318V91.989C131.681 91.9849 131.57 91.9903 131.46 92.0052C130.614 92.1184 129.83 92.5288 129.106 92.9671C128.495 93.3683 127.864 93.7379 127.215 94.0746Z" fill="#618FD8"/>
<path opacity="0.3" d="M127.215 94.0746C127.315 94.838 127.362 95.4528 127.362 95.4528C127.433 95.0307 131.792 93.1318 131.792 93.1318V91.989C131.681 91.9849 131.57 91.9903 131.46 92.0052C130.614 92.1184 129.83 92.5288 129.106 92.9671C128.495 93.3683 127.864 93.7379 127.215 94.0746Z" fill="black"/>
<path d="M116.603 93.554C117.516 93.1319 121.384 94.4674 121.384 94.4674L121.775 93.1363C121.1 92.9995 120.43 92.8289 119.771 92.6259C119.463 92.5369 119.162 92.4258 118.871 92.2935C118.676 92.1895 118.475 92.0962 118.27 92.0141C117.766 91.8405 117.241 91.9141 116.723 92.0008C116.655 92.9481 116.603 93.554 116.603 93.554Z" fill="#618FD8"/>
<path opacity="0.3" d="M116.603 93.554C117.516 93.1319 121.384 94.4674 121.384 94.4674L121.775 93.1363C121.1 92.9995 120.43 92.8289 119.771 92.6259C119.463 92.5369 119.162 92.4258 118.871 92.2935C118.676 92.1895 118.475 92.0962 118.27 92.0141C117.766 91.8405 117.241 91.9141 116.723 92.0008C116.655 92.9481 116.603 93.554 116.603 93.554Z" fill="black"/>
<path opacity="0.4" d="M135.693 97.5619C135.752 97.5368 135.804 97.4985 135.846 97.4501C135.888 97.4017 135.918 97.3443 135.934 97.2825C135.96 97.3795 135.95 97.4827 135.906 97.5729C135.862 97.663 135.786 97.7339 135.693 97.7723C134.849 98.1944 129.998 98.4753 127.604 96.6471V96.4368C129.998 98.265 134.849 97.9841 135.693 97.5619Z" fill="white"/>
<path opacity="0.4" d="M113.825 97.8429C115.296 98.1944 120.576 97.4208 121.067 96.5765V96.7869C120.575 97.6311 115.302 98.4048 113.825 98.0532C113.222 97.9062 113.029 97.612 113.09 97.2899C113.137 97.5282 113.357 97.7252 113.825 97.8429Z" fill="white"/>
<path opacity="0.1" d="M122.404 46.6189C122.404 46.6189 120.856 46.1262 120.434 46.6189C120.012 47.1116 116.404 48.2662 116.404 48.2662" fill="black"/>
<path d="M104.897 27.2982H112.42V27.1394H104.897V27.2982Z" fill="#8ED16F"/>
<path d="M104.897 27.457H112.42V27.2982H104.897V27.457Z" fill="#8ED16F"/>
<path opacity="0.1" d="M104.897 27.457H112.42V27.2982H104.897V27.457Z" fill="black"/>
<path d="M104.897 27.6158H112.42V27.457H104.897V27.6158Z" fill="#8ED16F"/>
<path d="M104.897 27.7733H112.42V27.6145H104.897V27.7733Z" fill="#8ED16F"/>
<path opacity="0.1" d="M104.897 27.7733H112.42V27.6145H104.897V27.7733Z" fill="black"/>
<path d="M104.897 27.9321H112.42V27.7733H104.897V27.9321Z" fill="#8ED16F"/>
<path d="M104.897 28.0895H112.42V27.9306H104.897V28.0895Z" fill="#8ED16F"/>
<path opacity="0.1" d="M104.897 28.0895H112.42V27.9306H104.897V28.0895Z" fill="black"/>
<path d="M104.897 28.2483H112.42V28.0894H104.897V28.2483Z" fill="#8ED16F"/>
<path d="M104.897 28.4058H112.42V28.2469H104.897V28.4058Z" fill="#8ED16F"/>
<path opacity="0.1" d="M104.897 28.4058H112.42V28.2469H104.897V28.4058Z" fill="black"/>
<path d="M104.897 26.0333H112.42V25.8745H104.897V26.0333Z" fill="#8ED16F"/>
<path d="M110.218 22.2725L116.002 27.0831L116.104 26.961L110.319 22.1504L110.218 22.2725Z" fill="#8ED16F"/>
<path d="M104.944 19.7415L110.729 24.5521L110.83 24.43L105.046 19.6194L104.944 19.7415Z" fill="#8ED16F"/>
<path d="M104.897 26.1906H112.42V26.0317H104.897V26.1906Z" fill="#8ED16F"/>
<path opacity="0.1" d="M104.897 26.1906H112.42V26.0317H104.897V26.1906Z" fill="black"/>
<path d="M104.897 26.351H112.42V26.1921H104.897V26.351Z" fill="#8ED16F"/>
<path d="M104.897 26.5083H112.42V26.3495H104.897V26.5083Z" fill="#8ED16F"/>
<path opacity="0.1" d="M104.897 26.5083H112.42V26.3495H104.897V26.5083Z" fill="black"/>
<path d="M104.897 26.6658H112.42V26.5069H104.897V26.6658Z" fill="#8ED16F"/>
<path d="M104.897 26.8246H112.42V26.6657H104.897V26.8246Z" fill="#8ED16F"/>
<path opacity="0.1" d="M104.897 26.8246H112.42V26.6657H104.897V26.8246Z" fill="black"/>
<path d="M104.897 26.9821H112.42V26.8232H104.897V26.9821Z" fill="#8ED16F"/>
<path d="M104.897 27.1407H112.42V26.9819H104.897V27.1407Z" fill="#8ED16F"/>
<path opacity="0.1" d="M104.897 27.1407H112.42V26.9819H104.897V27.1407Z" fill="black"/>
<path d="M103.943 33.3084L106.639 33.809L107.614 28.5553L104.919 28.0547L103.943 33.3084Z" fill="#8ED16F"/>
<path d="M106.368 31.0512C106.481 30.4402 106.326 29.899 106.021 29.8423C105.716 29.7857 105.377 30.235 105.263 30.846C105.15 31.457 105.305 31.9982 105.61 32.0549C105.915 32.1115 106.254 31.6621 106.368 31.0512Z" fill="#8ED16F"/>
<path opacity="0.1" d="M106.368 31.0512C106.481 30.4402 106.326 29.899 106.021 29.8423C105.716 29.7857 105.377 30.235 105.263 30.846C105.15 31.457 105.305 31.9982 105.61 32.0549C105.915 32.1115 106.254 31.6621 106.368 31.0512Z" fill="black"/>
<path d="M104.404 44.3974L107.1 44.8979L108.075 39.6443L105.38 39.1437L104.404 44.3974Z" fill="#8ED16F"/>
<path d="M106.828 42.1389C106.941 41.528 106.786 40.9867 106.481 40.9301C106.176 40.8734 105.836 41.3228 105.723 41.9338C105.61 42.5447 105.765 43.086 106.07 43.1426C106.375 43.1993 106.714 42.7499 106.828 42.1389Z" fill="#8ED16F"/>
<path opacity="0.1" d="M106.828 42.1389C106.941 41.528 106.786 40.9867 106.481 40.9301C106.176 40.8734 105.836 41.3228 105.723 41.9338C105.61 42.5447 105.765 43.086 106.07 43.1426C106.375 43.1993 106.714 42.7499 106.828 42.1389Z" fill="black"/>
<path d="M94.6544 17.1408L93.3496 19.552L98.0491 22.0951L99.3539 19.6839L94.6544 17.1408Z" fill="#8ED16F"/>
<path d="M97.7998 20.2615C97.9487 19.9885 97.6262 19.5253 97.0793 19.227C96.5325 18.9287 95.9684 18.9083 95.8195 19.1814C95.6705 19.4544 95.9931 19.9176 96.54 20.2159C97.0868 20.5141 97.6509 20.5346 97.7998 20.2615Z" fill="#8ED16F"/>
<path opacity="0.1" d="M97.7998 20.2615C97.9487 19.9885 97.6262 19.5253 97.0793 19.227C96.5325 18.9287 95.9684 18.9083 95.8195 19.1814C95.6705 19.4544 95.9931 19.9176 96.54 20.2159C97.0868 20.5141 97.6509 20.5346 97.7998 20.2615Z" fill="black"/>
<path d="M84.3351 64.7253L83.0303 67.1365L87.7298 69.6796L89.0346 67.2684L84.3351 64.7253Z" fill="#8ED16F"/>
<path d="M87.0073 67.7701C87.155 67.4972 86.8316 67.0362 86.2851 66.7405C85.7386 66.4447 85.1758 66.4262 85.0281 66.6991C84.8805 66.972 85.2038 67.433 85.7503 67.7287C86.2968 68.0245 86.8596 68.043 87.0073 67.7701Z" fill="#8ED16F"/>
<path opacity="0.1" d="M87.0073 67.7701C87.155 67.4972 86.8316 67.0362 86.2851 66.7405C85.7386 66.4447 85.1758 66.4262 85.0281 66.6991C84.8805 66.972 85.2038 67.433 85.7503 67.7287C86.2968 68.0245 86.8596 68.043 87.0073 67.7701Z" fill="black"/>
<path d="M78.0221 25.457L76.7173 27.8682L81.4168 30.4113L82.7216 28.0001L78.0221 25.457Z" fill="#8ED16F"/>
<path d="M80.6923 28.4996C80.84 28.2267 80.5167 27.7657 79.9702 27.47C79.4237 27.1742 78.8609 27.1557 78.7132 27.4286C78.5655 27.7015 78.8888 28.1625 79.4354 28.4582C79.9819 28.754 80.5447 28.7725 80.6923 28.4996Z" fill="#8ED16F"/>
<path opacity="0.1" d="M80.6923 28.4996C80.84 28.2267 80.5167 27.7657 79.9702 27.47C79.4237 27.1742 78.8609 27.1557 78.7132 27.4286C78.5655 27.7015 78.8888 28.1625 79.4354 28.4582C79.9819 28.754 80.5447 28.7725 80.6923 28.4996Z" fill="black"/>
<path d="M85.9357 17.1402L84.6309 19.5514L89.3304 22.0945L90.6352 19.6833L85.9357 17.1402Z" fill="#8ED16F"/>
<path d="M88.6049 20.1828C88.7526 19.9099 88.4293 19.4489 87.8828 19.1532C87.3362 18.8574 86.7735 18.8389 86.6258 19.1118C86.4781 19.3847 86.8014 19.8457 87.348 20.1415C87.8945 20.4372 88.4573 20.4557 88.6049 20.1828Z" fill="#8ED16F"/>
<path opacity="0.1" d="M88.6049 20.1828C88.7526 19.9099 88.4293 19.4489 87.8828 19.1532C87.3362 18.8574 86.7735 18.8389 86.6258 19.1118C86.4781 19.3847 86.8014 19.8457 87.348 20.1415C87.8945 20.4372 88.4573 20.4557 88.6049 20.1828Z" fill="black"/>
<path d="M93.8357 26.9535L91.1104 27.2515L91.6912 32.5633L94.4165 32.2653L93.8357 26.9535Z" fill="#8ED16F"/>
<path d="M92.849 30.8814C93.1575 30.8477 93.3528 30.3195 93.2852 29.7018C93.2177 29.0841 92.9129 28.6106 92.6044 28.6444C92.296 28.6781 92.1007 29.2062 92.1682 29.824C92.2357 30.4417 92.5406 30.9151 92.849 30.8814Z" fill="#8ED16F"/>
<path opacity="0.1" d="M92.849 30.8814C93.1575 30.8477 93.3528 30.3195 93.2852 29.7018C93.2177 29.0841 92.9129 28.6106 92.6044 28.6444C92.296 28.6781 92.1007 29.2062 92.1682 29.824C92.2357 30.4417 92.5406 30.9151 92.849 30.8814Z" fill="black"/>
<path d="M112.521 56.0399L109.796 56.3379L110.377 61.6497L113.102 61.3517L112.521 56.0399Z" fill="#8ED16F"/>
<path d="M111.536 59.9678C111.844 59.9341 112.039 59.406 111.972 58.7882C111.904 58.1705 111.599 57.6971 111.291 57.7308C110.982 57.7645 110.787 58.2926 110.855 58.9104C110.922 59.5281 111.227 60.0015 111.536 59.9678Z" fill="#8ED16F"/>
<path opacity="0.1" d="M111.536 59.9678C111.844 59.9341 112.039 59.406 111.972 58.7882C111.904 58.1705 111.599 57.6971 111.291 57.7308C110.982 57.7645 110.787 58.2926 110.855 58.9104C110.922 59.5281 111.227 60.0015 111.536 59.9678Z" fill="black"/>
<path d="M83.1637 38.2372L81.8589 40.6484L86.5584 43.1916L87.8632 40.7804L83.1637 38.2372Z" fill="#8ED16F"/>
<path d="M85.8335 41.2818C85.9811 41.0089 85.6578 40.5479 85.1113 40.2522C84.5648 39.9564 84.002 39.9379 83.8543 40.2108C83.7066 40.4837 84.03 40.9447 84.5765 41.2405C85.123 41.5362 85.6858 41.5547 85.8335 41.2818Z" fill="#8ED16F"/>
<path opacity="0.1" d="M85.8335 41.2818C85.9811 41.0089 85.6578 40.5479 85.1113 40.2522C84.5648 39.9564 84.002 39.9379 83.8543 40.2108C83.7066 40.4837 84.03 40.9447 84.5765 41.2405C85.123 41.5362 85.6858 41.5547 85.8335 41.2818Z" fill="black"/>
<path d="M71.3048 34.8502L70 37.2614L74.6995 39.8045L76.0043 37.3933L71.3048 34.8502Z" fill="#8ED16F"/>
<path d="M74.3652 38.055C74.5142 37.7819 74.1916 37.3187 73.6448 37.0205C73.0979 36.7222 72.5339 36.7017 72.3849 36.9748C72.236 37.2479 72.5585 37.711 73.1054 38.0093C73.6522 38.3076 74.2163 38.328 74.3652 38.055Z" fill="#8ED16F"/>
<path opacity="0.1" d="M74.3652 38.055C74.5142 37.7819 74.1916 37.3187 73.6448 37.0205C73.0979 36.7222 72.5339 36.7017 72.3849 36.9748C72.236 37.2479 72.5585 37.711 73.1054 38.0093C73.6522 38.3076 74.2163 38.328 74.3652 38.055Z" fill="black"/>
<path d="M67.5065 91.8747L66.2017 94.2859L70.9011 96.829L72.206 94.4178L67.5065 91.8747Z" fill="#8ED16F"/>
<path d="M70.1767 94.9181C70.3244 94.6452 70.0011 94.1842 69.4546 93.8884C68.908 93.5927 68.3453 93.5741 68.1976 93.847C68.0499 94.12 68.3732 94.5809 68.9197 94.8767C69.4663 95.1724 70.029 95.191 70.1767 94.9181Z" fill="#8ED16F"/>
<path opacity="0.1" d="M70.1767 94.9181C70.3244 94.6452 70.0011 94.1842 69.4546 93.8884C68.908 93.5927 68.3453 93.5741 68.1976 93.847C68.0499 94.12 68.3732 94.5809 68.9197 94.8767C69.4663 95.1724 70.029 95.191 70.1767 94.9181Z" fill="black"/>
<path d="M64.0875 92.804L63.5874 95.4996L68.8412 96.4743L69.3413 93.7787L64.0875 92.804Z" fill="#8ED16F"/>
<path opacity="0.05" d="M64.0875 92.804L63.5874 95.4996L68.8412 96.4743L69.3413 93.7787L64.0875 92.804Z" fill="black"/>
<path d="M67.5651 94.8786C67.6217 94.5735 67.1723 94.2342 66.5613 94.1209C65.9503 94.0075 65.4091 94.163 65.3525 94.4681C65.2959 94.7732 65.7453 95.1124 66.3563 95.2257C66.9673 95.3391 67.5085 95.1837 67.5651 94.8786Z" fill="#8ED16F"/>
<path opacity="0.1" d="M67.5651 94.8786C67.6217 94.5735 67.1723 94.2342 66.5613 94.1209C65.9503 94.0075 65.4091 94.163 65.3525 94.4681C65.2959 94.7732 65.7453 95.1124 66.3563 95.2257C66.9673 95.3391 67.5085 95.1837 67.5651 94.8786Z" fill="black"/>
<path d="M64.5792 94.4206L64.0791 97.1162L69.3329 98.0909L69.833 95.3953L64.5792 94.4206Z" fill="#8ED16F"/>
<path d="M68.0558 96.4951C68.1124 96.19 67.663 95.8508 67.052 95.7375C66.441 95.6241 65.8998 95.7796 65.8432 96.0847C65.7866 96.3898 66.236 96.729 66.847 96.8423C67.458 96.9557 67.9992 96.8002 68.0558 96.4951Z" fill="#8ED16F"/>
<path opacity="0.1" d="M68.0558 96.4951C68.1124 96.19 67.663 95.8508 67.052 95.7375C66.441 95.6241 65.8998 95.7796 65.8432 96.0847C65.7866 96.3898 66.236 96.729 66.847 96.8423C67.458 96.9557 67.9992 96.8002 68.0558 96.4951Z" fill="black"/>
<path d="M73.0494 98.805L71.7446 101.216L76.4441 103.759L77.7489 101.348L73.0494 98.805Z" fill="#8ED16F"/>
<path d="M75.7216 101.848C75.8693 101.575 75.546 101.114 74.9995 100.819C74.453 100.523 73.8902 100.504 73.7425 100.777C73.5948 101.05 73.9181 101.511 74.4647 101.807C75.0112 102.103 75.574 102.121 75.7216 101.848Z" fill="#8ED16F"/>
<path opacity="0.1" d="M75.7216 101.848C75.8693 101.575 75.546 101.114 74.9995 100.819C74.453 100.523 73.8902 100.504 73.7425 100.777C73.5948 101.05 73.9181 101.511 74.4647 101.807C75.0112 102.103 75.574 102.121 75.7216 101.848Z" fill="black"/>
<path d="M69.6314 99.7324L69.1313 102.428L74.3852 103.403L74.8853 100.707L69.6314 99.7324Z" fill="#8ED16F"/>
<path opacity="0.05" d="M69.6314 99.7324L69.1313 102.428L74.3852 103.403L74.8853 100.707L69.6314 99.7324Z" fill="black"/>
<path d="M73.1076 101.807C73.1642 101.502 72.7147 101.163 72.1038 101.049C71.4928 100.936 70.9516 101.091 70.895 101.397C70.8384 101.702 71.2878 102.041 71.8988 102.154C72.5098 102.268 73.051 102.112 73.1076 101.807Z" fill="#8ED16F"/>
<path opacity="0.1" d="M73.1076 101.807C73.1642 101.502 72.7147 101.163 72.1038 101.049C71.4928 100.936 70.9516 101.091 70.895 101.397C70.8384 101.702 71.2878 102.041 71.8988 102.154C72.5098 102.268 73.051 102.112 73.1076 101.807Z" fill="black"/>
<path d="M70.1241 101.351L69.624 104.046L74.8779 105.021L75.3779 102.325L70.1241 101.351Z" fill="#8ED16F"/>
<path d="M73.6012 103.425C73.6578 103.12 73.2084 102.781 72.5974 102.667C71.9864 102.554 71.4452 102.709 71.3886 103.015C71.332 103.32 71.7814 103.659 72.3924 103.772C73.0034 103.886 73.5446 103.73 73.6012 103.425Z" fill="#8ED16F"/>
<path opacity="0.1" d="M73.6012 103.425C73.6578 103.12 73.2084 102.781 72.5974 102.667C71.9864 102.554 71.4452 102.709 71.3886 103.015C71.332 103.32 71.7814 103.659 72.3924 103.772C73.0034 103.886 73.5446 103.73 73.6012 103.425Z" fill="black"/>
<path d="M81.3668 94.3387L80.062 96.7499L84.7615 99.293L86.0663 96.8818L81.3668 94.3387Z" fill="#8ED16F"/>
<path d="M84.0356 97.3814C84.1833 97.1085 83.86 96.6475 83.3134 96.3518C82.7669 96.056 82.2041 96.0375 82.0565 96.3104C81.9088 96.5833 82.2321 97.0443 82.7786 97.3401C83.3252 97.6358 83.8879 97.6543 84.0356 97.3814Z" fill="#8ED16F"/>
<path opacity="0.1" d="M84.0356 97.3814C84.1833 97.1085 83.86 96.6475 83.3134 96.3518C82.7669 96.056 82.2041 96.0375 82.0565 96.3104C81.9088 96.5833 82.2321 97.0443 82.7786 97.3401C83.3252 97.6358 83.8879 97.6543 84.0356 97.3814Z" fill="black"/>
<path d="M77.9478 95.267L77.4478 97.9626L82.7016 98.9373L83.2017 96.2417L77.9478 95.267Z" fill="#8ED16F"/>
<path opacity="0.05" d="M77.9478 95.267L77.4478 97.9626L82.7016 98.9373L83.2017 96.2417L77.9478 95.267Z" fill="black"/>
<path d="M81.4245 97.3417C81.4811 97.0366 81.0316 96.6974 80.4206 96.584C79.8097 96.4707 79.2685 96.6261 79.2119 96.9312C79.1553 97.2363 79.6047 97.5755 80.2157 97.6889C80.8267 97.8022 81.3679 97.6468 81.4245 97.3417Z" fill="#8ED16F"/>
<path opacity="0.1" d="M81.4245 97.3417C81.4811 97.0366 81.0316 96.6974 80.4206 96.584C79.8097 96.4707 79.2685 96.6261 79.2119 96.9312C79.1553 97.2363 79.6047 97.5755 80.2157 97.6889C80.8267 97.8022 81.3679 97.6468 81.4245 97.3417Z" fill="black"/>
<path d="M78.44 96.8851L77.9399 99.5807L83.1938 100.555L83.6939 97.8598L78.44 96.8851Z" fill="#8ED16F"/>
<path d="M81.9176 98.9599C81.9742 98.6548 81.5248 98.3155 80.9138 98.2022C80.3028 98.0888 79.7616 98.2443 79.705 98.5494C79.6484 98.8545 80.0978 99.1937 80.7088 99.307C81.3198 99.4204 81.861 99.265 81.9176 98.9599Z" fill="#8ED16F"/>
<path opacity="0.1" d="M81.9176 98.9599C81.9742 98.6548 81.5248 98.3155 80.9138 98.2022C80.3028 98.0888 79.7616 98.2443 79.705 98.5494C79.6484 98.8545 80.0978 99.1937 80.7088 99.307C81.3198 99.4204 81.861 99.265 81.9176 98.9599Z" fill="black"/>
</g>
<defs>
<linearGradient id="paint0_linear" x1="68.0976" y1="92.1818" x2="68.0976" y2="39.9517" gradientUnits="userSpaceOnUse">
<stop stop-color="#808080" stop-opacity="0.25"/>
<stop offset="0.54" stop-color="#808080" stop-opacity="0.12"/>
<stop offset="1" stop-color="#808080" stop-opacity="0.1"/>
</linearGradient>
<linearGradient id="paint1_linear" x1="-94499.5" y1="61569.3" x2="-94499.5" y2="16717.7" gradientUnits="userSpaceOnUse">
<stop stop-color="#808080" stop-opacity="0.25"/>
<stop offset="0.54" stop-color="#808080" stop-opacity="0.12"/>
<stop offset="1" stop-color="#808080" stop-opacity="0.1"/>
</linearGradient>
<clipPath id="clip0">
<rect width="143.257" height="105.093" fill="white" transform="translate(0.1875 0.907227)"/>
</clipPath>
</defs>
</svg>
