<svg width="24" height="24" viewBox="0 0 24 24" fill="none" xmlns="http://www.w3.org/2000/svg">
<g filter="url(#filter0_d)">
<path d="M12.1664 3C8.75738 3 5.84604 5.07333 4.66649 8C5.84604 10.9267 8.75738 13 12.1664 13C15.5756 13 18.4868 10.9267 19.6665 8C18.4868 5.07333 15.5756 3 12.1664 3ZM12.1664 11.3333C10.2846 11.3333 8.75738 9.84 8.75738 8C8.75738 6.16 10.2846 4.66667 12.1664 4.66667C14.0482 4.66667 15.5756 6.16 15.5756 8C15.5756 9.84 14.0482 11.3333 12.1664 11.3333ZM12.1664 6C11.0347 6 10.121 6.89333 10.121 8C10.121 9.10667 11.0347 10 12.1664 10C13.2983 10 14.2119 9.10667 14.2119 8C14.2119 6.89333 13.2983 6 12.1664 6Z" fill="white"/>
</g>
<defs>
<filter id="filter0_d" x="0.666489" y="3" width="23" height="18" filterUnits="userSpaceOnUse" color-interpolation-filters="sRGB">
<feFlood flood-opacity="0" result="BackgroundImageFix"/>
<feColorMatrix in="SourceAlpha" type="matrix" values="0 0 0 0 0 0 0 0 0 0 0 0 0 0 0 0 0 0 127 0"/>
<feOffset dy="4"/>
<feGaussianBlur stdDeviation="2"/>
<feColorMatrix type="matrix" values="0 0 0 0 0 0 0 0 0 0 0 0 0 0 0 0 0 0 0.25 0"/>
<feBlend mode="normal" in2="BackgroundImageFix" result="effect1_dropShadow"/>
<feBlend mode="normal" in="SourceGraphic" in2="effect1_dropShadow" result="shape"/>
</filter>
</defs>
</svg>
