<svg width="24" height="24" viewBox="0 0 24 24" fill="none" xmlns="http://www.w3.org/2000/svg">
<g filter="url(#filter0_d)">
<rect x="4.5" y="0.5" width="15" height="15" rx="3.5" stroke="white"/>
</g>
<g clip-path="url(#clip0)">
<path d="M11.9998 4.875C9.9165 4.875 8.13734 6.17083 7.4165 8C8.13734 9.82917 9.9165 11.125 11.9998 11.125C14.0832 11.125 15.8623 9.82917 16.5832 8C15.8623 6.17083 14.0832 4.875 11.9998 4.875ZM11.9998 10.0833C10.8498 10.0833 9.9165 9.15 9.9165 8C9.9165 6.85 10.8498 5.91667 11.9998 5.91667C13.1498 5.91667 14.0832 6.85 14.0832 8C14.0832 9.15 13.1498 10.0833 11.9998 10.0833ZM11.9998 6.75C11.3082 6.75 10.7498 7.30833 10.7498 8C10.7498 8.69167 11.3082 9.25 11.9998 9.25C12.6915 9.25 13.2498 8.69167 13.2498 8C13.2498 7.30833 12.6915 6.75 11.9998 6.75Z" fill="white"/>
</g>
<defs>
<filter id="filter0_d" x="0" y="0" width="24" height="24" filterUnits="userSpaceOnUse" color-interpolation-filters="sRGB">
<feFlood flood-opacity="0" result="BackgroundImageFix"/>
<feColorMatrix in="SourceAlpha" type="matrix" values="0 0 0 0 0 0 0 0 0 0 0 0 0 0 0 0 0 0 127 0"/>
<feOffset dy="4"/>
<feGaussianBlur stdDeviation="2"/>
<feColorMatrix type="matrix" values="0 0 0 0 0 0 0 0 0 0 0 0 0 0 0 0 0 0 0.25 0"/>
<feBlend mode="normal" in2="BackgroundImageFix" result="effect1_dropShadow"/>
<feBlend mode="normal" in="SourceGraphic" in2="effect1_dropShadow" result="shape"/>
</filter>
<clipPath id="clip0">
<rect width="10" height="10" fill="white" transform="translate(7 3.5)"/>
</clipPath>
</defs>
</svg>

