<?xml version="1.0" encoding="utf-8"?>
<!-- Generator: Adobe Illustrator 21.0.2, SVG Export Plug-In . SVG Version: 6.00 Build 0)  -->
<svg version="1.1" id="Layer_1" xmlns="http://www.w3.org/2000/svg" xmlns:xlink="http://www.w3.org/1999/xlink" x="0px" y="0px"
	 width="140px" height="58px" viewBox="0 0 140 58" style="enable-background:new 0 0 140 58;" xml:space="preserve">
<style type="text/css">
	.st0{fill:#1D1D1B;}
</style>
<polygon class="st0" points="138.4,56.4 138.4,54.9 3.2,54.9 3.2,3.1 136.8,3.1 136.8,56.4 138.4,56.4 138.4,54.9 138.4,56.4 
	140,56.4 140,0 0,0 0,58 140,58 140,56.4 "/>
<g>
	<path class="st0" d="M16.9,31l3.7,9.4h0.1l3.5-9.4h4.2l0.7,1.7l-0.6,0.1c-0.4,0-0.7,0.3-0.6,0.7l0.7,10.7l1.2,0.1l0.7,1.8h-5.7
		v-1.7l0.7-0.1c0.5,0,0.5-0.2,0.5-0.8L25.3,35h0l-3.7,8.7l-2.1,0.7L16,35h0l-0.5,9.1l1.2,0.1V46H11l0.7-1.7l0.7-0.1
		c0.4-0.1,0.6-0.2,0.6-0.8l0.7-10.6l-1.2-0.1l0.7-1.8H16.9z"/>
	<path class="st0" d="M31.4,46l0.7-1.7l0.5-0.1c0.5-0.1,0.6-0.3,0.8-0.7L37,32.9l-1.2-0.1l0.7-1.8h4.3l4.7,13.2l0.8,0.1L47,46h-5.7
		v-1.7l0.7-0.1c0.4,0,0.6-0.3,0.4-0.7l-0.6-1.8h-5.2l-0.8,2.4l1.2,0.1V46H31.4z M37.1,39.8h4.2l-2.1-6.4h-0.1L37.1,39.8z"/>
	<path class="st0" d="M56.6,43.6V40l-1.1-0.1l-0.7-1.8h5.9l-0.3,1.7l-0.6,0.1c-0.4,0.1-0.6,0.2-0.6,0.7v4.3
		c-1.3,0.9-3.1,1.4-5.1,1.4c-4.4,0-6.8-2.5-6.8-7.8c0-5.8,3.4-7.8,7.3-7.8c1.8,0,3.5,0.4,4.5,0.9v2L57,34.4v-0.7
		c0-0.4,0-0.6-0.4-0.7c-0.4-0.1-1.2-0.2-1.8-0.2c-3.2,0-4.6,2.1-4.6,5.4c0,3.6,1.2,5.7,4,5.7C55,44.1,56,43.9,56.6,43.6"/>
	<path class="st0" d="M75.6,45.3L73,46l-6.6-10.9h0v9.1l1.2,0.1V46h-5.5l0.7-1.7l0.4-0.1c0.4-0.1,0.5-0.2,0.5-0.6V32.8l-1.5-0.1
		l0.7-1.8h3.7L73,41.7h0v-8.9l-1.2-0.1V31h5.4l-0.7,1.7l-0.4,0.1c-0.4,0.1-0.6,0.2-0.6,0.7V45.3z"/>
	<path class="st0" d="M77.3,46l0.7-1.7l0.2-0.1c0.5-0.1,0.6-0.3,0.8-0.7l3.7-10.6l-1.2-0.1l0.7-1.8h4.3L91,44.1l0.8,0.1l0.7,1.8
		h-5.7v-1.7l0.7-0.1c0.4,0,0.6-0.3,0.4-0.7l-0.6-1.8h-5.2l-0.8,2.4l1.2,0.1V46H77.3z M82.6,39.8h4.2l-2.1-6.4h-0.1L82.6,39.8z"/>
	<path class="st0" d="M96.5,33h-2.1c-0.5,0-0.6,0.2-0.6,0.6v0.8l-2.2-0.7V31h12.4v2.7l-2.2,0.7v-0.8c0-0.4-0.1-0.6-0.6-0.6h-2v11.2
		l1.3,0.1l0.7,1.8h-6.7l0.7-1.7l0.7-0.1c0.5,0,0.6-0.2,0.6-0.7V33z"/>
	<path class="st0" d="M106.4,44.3l0.2-0.1c0.6-0.1,0.7-0.2,0.7-0.8V32.8l-0.9-0.1l-0.7-1.8h10.6v2.7l-2.2,0.7v-1.1
		c0-0.4-0.1-0.3-0.6-0.3h-3.5v4.3h5.4v2.1h-5.4V44h3.8c0.5,0,0.5-0.2,0.5-0.6v-0.2l2.2-0.6V46h-10.9L106.4,44.3z"/>
	<path class="st0" d="M126.1,41.9c0-1.4-1.2-2-2.8-2.5c-2.1-0.6-4.3-1.5-4.2-4.4c0.1-2.8,2.2-4.4,5.4-4.3c1.4,0,3.1,0.3,4.2,0.9
		l0,2.2l-2.2,0.7l0-0.7c0-0.4,0-0.6-0.4-0.7c-0.3-0.1-1.1-0.2-1.6-0.2c-1.2,0-2.4,0.4-2.5,1.9c0,1.4,1.2,1.9,2.9,2.5
		c2.1,0.7,4.2,1.5,4.1,4.5c-0.1,3-2.1,4.6-5.7,4.5c-1.6,0-3.2-0.3-4.5-0.9l0-2.2l2.2-0.7l0,0.7c0,0.4,0.1,0.6,0.4,0.7
		c0.4,0.1,1.1,0.2,1.8,0.2C124.8,44.1,126.1,43.6,126.1,41.9"/>
	<polygon class="st0" points="12.9,12 22.7,12 22.7,13 14,13 14,18.5 21.2,18.5 21.2,19.5 14,19.5 14,26.7 12.9,26.7 	"/>
	<rect x="30" y="12" class="st0" width="1.1" height="14.7"/>
	<polygon class="st0" points="39.4,12 40.4,12 50.3,24.9 50.3,12 51.3,12 51.3,26.7 50.4,26.7 40.5,13.8 40.5,26.7 39.4,26.7 	"/>
	<path class="st0" d="M64.8,11.9h1l6.6,14.8h-1.1l-1.9-4.3h-8.2l-1.9,4.3h-1.1L64.8,11.9z M69,21.5l-3.7-8.2l-3.7,8.2H69z"/>
	<polygon class="st0" points="79.2,12 80.1,12 90,24.9 90,12 91.1,12 91.1,26.7 90.2,26.7 80.2,13.8 80.2,26.7 79.2,26.7 	"/>
	<path class="st0" d="M98.7,19.3c0-4.4,3.2-7.6,7.4-7.6c1.6,0,3,0.4,4.2,1.2V14c-1.2-0.8-2.6-1.3-4.2-1.3c-3.6,0-6.4,2.8-6.4,6.6
		c0,3.8,2.8,6.6,6.4,6.6c1.8,0,3.3-0.5,4.5-1.5v1.2c-1.2,0.9-2.7,1.4-4.5,1.4C102,26.9,98.7,23.8,98.7,19.3"/>
	<polygon class="st0" points="117.8,12 127.7,12 127.7,13 118.9,13 118.9,18.3 126.2,18.3 126.2,19.3 118.9,19.3 118.9,25.7 
		128,25.7 128,26.7 117.8,26.7 	"/>
</g>
</svg>
