<svg width="698" height="100" viewBox="0 0 698 100" fill="none" xmlns="http://www.w3.org/2000/svg">
<g clip-path="url(#clip0)">
<path d="M168.9 41.7998L167.7 47.6998H167.4C165.9 44.3998 161.7 39.7998 152.4 39.7998C137.4 39.7998 122.1 51.3998 118.7 69.6998C115.8 85.6998 123.5 99.7998 141.3 99.7998C147.8 99.7998 155.3 97.2998 159.2 91.7998H159.5L158.4 97.7998H175L185.4 41.7998H168.9V41.7998ZM163.5 69.6998C162.4 75.1998 157.2 84.0998 146.8 84.0998C136.6 84.0998 134.5 75.0998 135.4 69.8998C136.6 63.4998 142.3 55.4998 152 55.4998C161.5 55.5998 164.7 63.0998 163.5 69.6998Z" fill="black"/>
<path d="M194.8 41.7998H210.4L209.3 47.6998H209.6C211.6 44.9998 215.5 39.7998 225.1 39.7998L222 56.7998C214.1 56.8998 208.4 58.4998 206.9 67.0998L201.2 97.7998H184.4L194.8 41.7998Z" fill="black"/>
<path d="M236.4 19.8999H253.2L245.3 62.0999H245.6L265 41.7999H284.7L259.1 66.3999L273.8 97.7999H254.8L244 70.7999H243.7L238.8 97.7999H221.9L236.4 19.8999Z" fill="black"/>
<path d="M311.6 39.7998C294.6 39.7998 279.5 54.3998 276.7 69.9998C273.6 86.5998 284.8 99.6998 300.9 99.6998C306.6 99.6998 312.5 97.9998 317.7 94.5998C323 91.3998 327.9 86.5998 331.7 80.2998H314.6C311.8 83.1998 308.6 85.4998 303.4 85.4998C296.9 85.4998 292 81.5998 292.3 74.8998H334.3C334.8 73.5998 335.1 72.5998 335.5 70.4998C338.7 53.3998 328.7 39.7998 311.6 39.7998ZM294.6 63.5998C295.9 60.2998 300.5 53.9998 309.2 53.9998C317.9 53.9998 320 60.2998 320 63.5998H294.6Z" fill="black"/>
<path d="M96.5 19.8999L66.9 64.2999H66.7V19.8999H52.4L0 97.7999H20.3L49.7 53.3999H50V97.7999H64.4L93.8 53.3999H94.1V97.7999H110.9V19.8999H96.5Z" fill="black"/>
<path d="M378 41.7999H367.4L370.5 25.2H355.8L354.6 31.6C353.3 38.9 348.7 41.0999 342.6 41.7999H342.5L340 54.5H348.3L340.3 97.8H357L365 54.5H375.7L378 41.7999Z" fill="black"/>
<path d="M637.2 76.6C631.7 89.3 618.6 99.7 603.5 99.7C586.5 99.7 576 86.3 579 69.6C582.1 53.2 597.3 39.8 614.1 39.8C628.9 39.8 639.1 49.7 639.4 63.4H622.4C621.3 59.5 618.8 55.5 611.7 55.5C603.8 55.1 597.3 61.6 595.8 69.7C594.3 77.9 598.5 84 606.5 84C613.4 84 617.6 80 620 76.5H637.2V76.6ZM498.4 0L465.8 19.9H475L445.5 64.3H445.2V19.9H430.8L401.3 64.3H401V19.9H384.2V97.8H398.8L428.3 53.4H428.6V97.8H443L495.2 19.9H503.5L498.4 0ZM530.2 97.8H513.6L514.7 91.8H514.4C510.5 97.3 503 99.8 496.5 99.8C478.7 99.8 471 85.8 473.9 69.7C477.2 51.4 492.6 39.8 507.6 39.8C516.8 39.8 521.1 44.3 522.6 47.7H522.9L524.1 41.8H540.7L530.2 97.8ZM502 84.2C512.4 84.2 517.6 75.2 518.7 69.8C519.9 63.1 516.7 55.6 507.2 55.6C497.6 55.6 491.8 63.6 490.6 70C489.7 75.2 491.8 84.2 502 84.2ZM582.5 41.8H572L575.1 25.2H560.4L559.2 31.6C557.9 38.9 553.3 41.1 547.2 41.8H547L544.6 54.5H552.9L544.9 97.8H561.6L569.6 54.5H580.3L582.5 41.8ZM653 19.9H669.7L664.6 47.7H664.9C668.5 42.5 673.3 39.8 680.7 39.8C686 39.8 692.1 41.8 694.9 46.1C698.5 51.6 698.1 56.5 696.2 66.5L690.5 97.8H673.8L679.4 67.3C679.9 64.6 681.5 55.5 672.6 55.5C663.2 55.5 661.6 63.9 661.1 66.7L655.4 97.7H638.7L653 19.9Z" fill="#00AC4E"/>
</g>
<defs>
<clipPath id="clip0">
<rect width="697.5" height="99.8" fill="white"/>
</clipPath>
</defs>
</svg>
