<svg width="153" height="152" fill="none" xmlns="http://www.w3.org/2000/svg">
  <g clip-path="url(#clip0)" filter="url(#filter0_d)">
    <path d="M76.004 81c6.627 0 12-5.373 12-12s-5.373-12-12-12c-6.628 0-12 5.373-12 12s5.372 12 12 12z" fill="#F0F0F0"/>
    <path d="M88.004 69c0-5.16-3.257-9.558-7.826-11.254v22.507c4.57-1.695 7.826-6.094 7.826-11.253zM64.004 69c0 5.16 3.256 9.558 7.826 11.253V57.746C67.26 59.442 64.004 63.84 64.004 69z" fill="#008751"/>
  </g>
  <defs>
    <filter id="filter0_d" x=".004" y="0" width="152" height="152" filterUnits="userSpaceOnUse" color-interpolation-filters="sRGB">
      <feFlood flood-opacity="0" result="BackgroundImageFix"/>
      <feColorMatrix in="SourceAlpha" values="0 0 0 0 0 0 0 0 0 0 0 0 0 0 0 0 0 0 127 0"/>
      <feOffset dy="7"/>
      <feGaussianBlur stdDeviation="32"/>
      <feColorMatrix values="0 0 0 0 0 0 0 0 0 0 0 0 0 0 0 0 0 0 0.07 0"/>
      <feBlend in2="BackgroundImageFix" result="effect1_dropShadow"/>
      <feBlend in="SourceGraphic" in2="effect1_dropShadow" result="shape"/>
    </filter>
    <clipPath id="clip0">
      <path fill="#fff" transform="translate(64.004 57)" d="M0 0h24v24H0z"/>
    </clipPath>
  </defs>
</svg>
