<svg width="22" height="23" fill="none" xmlns="http://www.w3.org/2000/svg">
  <path fill-rule="evenodd" clip-rule="evenodd" d="M21.656 11.55c0 1.92-.48 3.696-1.44 5.329a10.768 10.768 0 0 1-3.888 3.888A10.33 10.33 0 0 1 11 22.207c-1.92 0-3.695-.48-5.328-1.44a10.767 10.767 0 0 1-3.889-3.888 10.33 10.33 0 0 1-1.44-5.328c0-1.92.48-3.696 1.44-5.328a10.768 10.768 0 0 1 3.889-3.889A10.33 10.33 0 0 1 11 .894c1.92 0 3.695.48 5.328 1.44a10.768 10.768 0 0 1 3.889 3.889 10.33 10.33 0 0 1 1.44 5.328zM11 13.7c-.544 0-1.01.193-1.396.58-.387.386-.58.852-.58 1.396 0 .544.193 1.01.58 1.396.386.387.852.58 1.396.58.544 0 1.01-.193 1.396-.58.387-.386.58-.852.58-1.396 0-.544-.193-1.01-.58-1.397A1.904 1.904 0 0 0 11 13.7zM9.11 6.61l.343 5.843c0 .115.05.222.15.322.1.1.223.15.366.15h2.062c.143 0 .265-.05.365-.15.1-.1.15-.207.15-.322l.345-5.844a.551.551 0 0 0-.15-.408.497.497 0 0 0-.366-.15h-2.75a.497.497 0 0 0-.365.15c-.1.1-.15.236-.15.408z" fill="#FFA26B"/>
</svg>
