<svg width="14" height="14" fill="none" xmlns="http://www.w3.org/2000/svg">
  <g clip-path="url(#clip0)">
    <path d="M7 14A7 7 0 1 0 7 0a7 7 0 0 0 0 14z" fill="#F0F0F0"/>
    <path d="M6.695 7H14c0-.632-.085-1.244-.242-1.826H6.696V7zM6.695 3.348h6.277a7.037 7.037 0 0 0-1.615-1.827H6.695v1.827zM7 14a6.97 6.97 0 0 0 4.357-1.521H2.643A6.97 6.97 0 0 0 7 14zM1.026 10.652h11.946c.344-.561.61-1.175.786-1.826H.24a6.96 6.96 0 0 0 .786 1.826z" fill="#D80027"/>
    <path d="M3.243 1.093h.637l-.593.431.227.698-.594-.431-.593.43.196-.602c-.523.435-.98.945-1.358 1.513h.205l-.378.275a6.985 6.985 0 0 0-.17.299l.18.555-.336-.245c-.083.178-.16.359-.229.544l.2.611h.733l-.594.431.227.698-.593-.431-.356.258A7.068 7.068 0 0 0 0 7h7V0a6.967 6.967 0 0 0-3.757 1.093zm.27 5.207l-.593-.431-.593.431.227-.698-.594-.43h.734l.226-.698.227.697h.733l-.593.431.227.698zm-.226-2.737l.227.698-.594-.431-.593.43.227-.697-.594-.43h.734l.226-.698.227.697h.733l-.593.431zM6.025 6.3l-.594-.431-.593.431.227-.698-.594-.43h.734l.226-.698.227.697h.733l-.593.431.227.698zm-.227-2.737l.227.698-.594-.431-.593.43.227-.697-.594-.43h.734l.226-.698.227.697h.733l-.593.431zm0-2.039l.227.698-.594-.431-.593.43.227-.697-.594-.43h.734L5.43.395l.227.697h.733l-.593.431z" fill="#0052B4"/>
  </g>
  <defs>
    <clipPath id="clip0">
      <path fill="#fff" d="M0 0h14v14H0z"/>
    </clipPath>
  </defs>
</svg>
