<?xml version="1.0" standalone="no"?>
<!DOCTYPE svg PUBLIC "-//W3C//DTD SVG 20010904//EN"
 "http://www.w3.org/TR/2001/REC-SVG-20010904/DTD/svg10.dtd">
<svg version="1.0" xmlns="http://www.w3.org/2000/svg"
 width="494.000000pt" height="494.000000pt" viewBox="0 0 494.000000 494.000000"
 preserveAspectRatio="xMidYMid meet">
<metadata>
Created by potrace 1.11, written by Peter Selinger 2001-2013
</metadata>
<g transform="translate(0.000000,494.000000) scale(0.100000,-0.100000)"
fill="#000000" stroke="none">
<path d="M2440 4149 c-215 -133 -416 -309 -560 -488 -19 -24 -40 -48 -45 -55
-54 -59 -239 -400 -223 -410 2 -1 27 -16 56 -34 29 -18 57 -32 62 -32 5 0 10
-3 12 -7 2 -5 26 -24 54 -43 160 -110 333 -291 464 -485 57 -85 96 -154 163
-289 l49 -99 31 69 c60 130 180 335 240 410 181 226 346 375 532 479 28 16 52
30 54 31 7 6 -122 240 -181 327 -119 178 -319 405 -463 527 -64 54 -172 140
-176 139 -2 0 -33 -18 -69 -40z"/>
<path d="M427 3264 c-1 -1 -49 -5 -107 -8 -134 -9 -217 -20 -227 -30 -5 -5
-47 -210 -57 -276 -22 -155 -28 -415 -13 -549 37 -326 167 -634 374 -891 59
-72 171 -184 263 -263 77 -65 264 -186 374 -242 99 -50 297 -132 337 -140 11
-2 23 -6 27 -9 16 -9 209 -56 292 -70 200 -34 404 -38 560 -11 69 12 70 12 65
63 -5 55 -5 467 -1 532 5 67 17 192 21 220 21 132 26 162 51 290 l17 85 -38
110 c-171 503 -504 847 -1002 1039 -76 30 -236 78 -306 92 -30 6 -184 32 -227
38 -75 11 -395 27 -403 20z"/>
<path d="M4367 3264 c-1 -1 -49 -4 -107 -8 -58 -3 -116 -8 -130 -10 -14 -3
-43 -7 -65 -11 -40 -5 -131 -21 -170 -29 -38 -8 -173 -46 -222 -62 -597 -202
-972 -610 -1133 -1232 -6 -24 -13 -55 -16 -70 -2 -15 -11 -65 -19 -112 -23
-129 -30 -236 -30 -455 0 -209 15 -420 31 -446 5 -8 155 -49 198 -55 17 -2 54
-6 81 -10 59 -8 261 -8 325 0 50 6 109 15 155 23 17 2 39 6 50 7 11 2 29 6 40
9 11 3 31 8 45 11 151 26 462 151 650 262 197 116 406 302 541 481 32 43 62
83 67 88 31 40 111 192 151 288 98 236 131 429 127 732 -3 180 -9 244 -42 420
-8 44 -32 136 -37 141 -10 10 -79 19 -225 30 -85 6 -261 11 -265 8z"/>
</g>
</svg>
