<svg width="165" height="123" viewBox="0 0 165 123" fill="none" xmlns="http://www.w3.org/2000/svg">
<rect y="0.261719" width="164.752" height="122.024" fill="#505050"/>
<mask id="mask0" mask-type="alpha" maskUnits="userSpaceOnUse" x="0" y="0" width="165" height="123">
<rect y="0.261719" width="164.752" height="122.024" fill="white"/>
</mask>
<g mask="url(#mask0)">
<path fill-rule="evenodd" clip-rule="evenodd" d="M164.752 -1.48145V122.286H56.6607L164.752 -1.48145Z" fill="#2C2A23"/>
<path fill-rule="evenodd" clip-rule="evenodd" d="M-0.871826 -0.609375H74.9665L-0.871826 97.8813V-0.609375Z" fill="#2E2E2F"/>
<path fill-rule="evenodd" clip-rule="evenodd" d="M12.204 7.23438H151.677C151.677 9.64123 153.628 11.5924 156.035 11.5924V109.211C153.628 109.211 151.677 111.163 151.677 113.569H12.204C12.204 111.163 10.2526 109.211 7.84546 109.211V11.5924C10.2526 11.5924 12.204 9.64123 12.204 7.23438Z" fill="white"/>
<path fill-rule="evenodd" clip-rule="evenodd" d="M132.756 21.6731C131.867 20.5855 130.788 19.7318 129.602 19.118C130.491 16.9565 132.15 15.1851 134.237 14.1055C136.299 15.2512 137.894 17.0785 138.712 19.2576C137.628 19.8586 136.642 20.6661 135.819 21.6731C135.155 22.4864 134.646 23.3706 134.288 24.2917C133.929 23.3706 133.42 22.4864 132.756 21.6731Z" fill="#2E2E2F"/>
<path fill-rule="evenodd" clip-rule="evenodd" d="M121.706 21.7637V21.6812C121.71 20.7302 121.852 19.7806 122.131 18.8652C125.543 17.9411 129.34 18.9017 131.897 21.6826C132.756 22.6177 133.397 23.6745 133.826 24.7919C133.234 26.7257 133.265 28.7878 133.883 30.6843C133.879 30.6685 133.877 30.6527 133.873 30.6368C133.914 30.806 133.957 30.9743 134.008 31.1404C134.015 31.1421 134.021 31.1435 134.027 31.1452C130.62 32.0605 126.832 31.0996 124.28 28.3234C122.566 26.4592 121.716 24.1098 121.706 21.7637Z" fill="#2E2E2F"/>
<path fill-rule="evenodd" clip-rule="evenodd" d="M147.183 18.8662C147.468 19.7914 147.612 20.7514 147.613 21.7125C147.61 24.0903 146.749 26.4519 145.006 28.3243C143.062 30.4128 140.409 31.4746 137.745 31.4823H137.686C136.822 31.4798 135.958 31.3665 135.116 31.1414C134.13 27.9416 134.834 24.3249 137.293 21.6836C139.241 19.5915 141.899 18.5297 144.568 18.5254C145.468 18.5268 146.337 18.6401 147.183 18.8662Z" fill="#2E2E2F"/>
</g>
</svg>
