<svg width="165" height="123" viewBox="0 0 165 123" fill="none" xmlns="http://www.w3.org/2000/svg">
<rect width="164.754" height="122.025" fill="#D5C681"/>
<mask id="mask0" mask-type="alpha" maskUnits="userSpaceOnUse" x="0" y="0" width="165" height="123">
<rect width="164.754" height="122.025" fill="white"/>
</mask>
<g mask="url(#mask0)">
<path fill-rule="evenodd" clip-rule="evenodd" d="M164.753 -1.74316V122.025H56.6612L164.753 -1.74316Z" fill="#7F5E30"/>
<path fill-rule="evenodd" clip-rule="evenodd" d="M-0.871826 -0.871094H74.9671L-0.871826 97.6204V-0.871094Z" fill="#C5AA62"/>
<path fill-rule="evenodd" clip-rule="evenodd" d="M12.204 6.97266H151.678C151.678 9.37953 153.629 11.3307 156.037 11.3307V108.951C153.629 108.951 151.678 110.902 151.678 113.309H12.204C12.204 110.902 10.2526 108.951 7.84546 108.951V11.3307C10.2526 11.3307 12.204 9.37953 12.204 6.97266Z" fill="white"/>
<path fill-rule="evenodd" clip-rule="evenodd" d="M132.756 20.6223C131.867 19.5348 130.788 18.681 129.602 18.0672C130.491 15.9057 132.15 14.1344 134.237 13.0547C136.299 14.2004 137.894 16.0277 138.712 18.2068C137.628 18.8078 136.642 19.6153 135.819 20.6223C135.155 21.4356 134.646 22.3198 134.288 23.2409C133.929 22.3198 133.42 21.4356 132.756 20.6223Z" fill="#E0C670"/>
<path fill-rule="evenodd" clip-rule="evenodd" d="M121.706 20.7129V20.6304C121.71 19.6794 121.852 18.7298 122.131 17.8144C125.543 16.8904 129.34 17.8509 131.897 20.6318C132.756 21.5669 133.397 22.6237 133.826 23.7411C133.234 25.6749 133.265 27.737 133.883 29.6335C133.879 29.6177 133.877 29.6019 133.873 29.586C133.914 29.7552 133.957 29.9235 134.008 30.0896C134.015 30.0914 134.021 30.0927 134.027 30.0944C130.62 31.0097 126.832 30.0488 124.28 27.2726C122.566 25.4085 121.716 23.059 121.706 20.7129Z" fill="#E0C670"/>
<path fill-rule="evenodd" clip-rule="evenodd" d="M144.568 17.4746H144.6C145.468 17.476 146.337 17.5893 147.183 17.8154C147.468 18.7406 147.612 19.7006 147.613 20.6617V20.6835C147.61 23.0395 146.749 25.4011 145.006 27.2735C143.062 29.3621 140.409 30.4238 137.745 30.4316H137.686C136.822 30.4291 135.958 30.3157 135.116 30.0906C134.13 26.8908 134.834 23.2741 137.293 20.6328C139.241 18.5407 141.899 17.4789 144.568 17.4746V17.4746Z" fill="#E0C670"/>
</g>
</svg>
