<svg width="165" height="122" viewBox="0 0 165 122" fill="none" xmlns="http://www.w3.org/2000/svg">
<rect width="164.75" height="121.646" fill="#C0D2D5"/>
<mask id="mask0" mask-type="alpha" maskUnits="userSpaceOnUse" x="0" y="0" width="165" height="122">
<rect width="164.75" height="121.646" fill="white"/>
</mask>
<g mask="url(#mask0)">
<path fill-rule="evenodd" clip-rule="evenodd" d="M164.75 -1.73828V121.645H56.6601L164.75 -1.73828Z" fill="#7D8989"/>
<path fill-rule="evenodd" clip-rule="evenodd" d="M-0.871582 -0.869141H74.9657L-0.871582 97.3165V-0.869141Z" fill="#9AAFB4"/>
<path fill-rule="evenodd" clip-rule="evenodd" d="M156.033 11.2954C153.626 11.2954 151.675 9.35043 151.675 6.95117H12.2038C12.2036 9.35047 10.2523 11.2954 7.84529 11.2954H7.84521V108.612H7.84529C10.2524 108.612 12.2038 110.557 12.2038 112.957V112.957L151.675 112.957C151.675 110.557 153.626 108.612 156.033 108.612V11.2954Z" fill="white"/>
<path fill-rule="evenodd" clip-rule="evenodd" d="M132.692 21.6526C131.803 20.5683 130.724 19.7173 129.538 19.1054C130.427 16.9506 132.086 15.1847 134.173 14.1084C136.234 15.2505 137.83 17.0722 138.648 19.2445C137.564 19.8437 136.578 20.6487 135.755 21.6526C135.091 22.4633 134.582 23.3447 134.223 24.263C133.865 23.3447 133.356 22.4633 132.692 21.6526Z" fill="#C1D0D3"/>
<path fill-rule="evenodd" clip-rule="evenodd" d="M121.642 21.7429V21.6606C121.646 20.7126 121.788 19.766 122.067 18.8534C125.479 17.9322 129.276 18.8898 131.832 21.6621C132.692 22.5942 133.333 23.6478 133.761 24.7617C133.17 26.6895 133.201 28.7452 133.819 30.6358C133.815 30.6201 133.812 30.6043 133.808 30.5885C133.85 30.7571 133.893 30.9249 133.944 31.0905C133.95 31.0922 133.957 31.0935 133.963 31.0953C130.556 32.0077 126.768 31.0498 124.216 28.2822C122.502 26.4239 121.652 24.0817 121.642 21.7429Z" fill="#C1D0D3"/>
<path fill-rule="evenodd" clip-rule="evenodd" d="M144.504 18.5146H144.536C145.404 18.516 146.273 18.629 147.118 18.8544C147.404 19.7767 147.548 20.7337 147.549 21.6919V21.7136C147.546 24.0623 146.685 26.4165 144.942 28.2832C142.998 30.3652 140.345 31.4237 137.681 31.4314H137.622C136.758 31.4289 135.894 31.3159 135.052 31.0915C134.066 27.9016 134.77 24.2961 137.229 21.6631C139.176 19.5774 141.835 18.5189 144.504 18.5146V18.5146Z" fill="#C1D0D3"/>
</g>
</svg>
