<svg width="97" height="126" viewBox="0 0 97 126" fill="none" xmlns="http://www.w3.org/2000/svg">
<rect width="97" height="126" fill="white"/>
<path d="M19.6367 96H21.5527L18.6172 87.5449H16.5371L13.6016 96H15.377L16.0273 93.9844H18.998L19.6367 96ZM17.4688 89.3027H17.5742L18.623 92.6191H16.4082L17.4688 89.3027ZM24.5703 87.5449H22.8008V93.082C22.8008 94.957 24.1777 96.2168 26.3398 96.2168C28.5078 96.2168 29.8848 94.957 29.8848 93.082V87.5449H28.1152V92.9004C28.1152 93.9668 27.4766 94.6465 26.3398 94.6465C25.209 94.6465 24.5703 93.9668 24.5703 92.9004V87.5449ZM31.5664 93.6504C31.6309 95.2266 32.9375 96.2168 34.9531 96.2168C37.0742 96.2168 38.3809 95.1738 38.3809 93.4688C38.3809 92.1562 37.6484 91.4238 35.9492 91.0664L34.9297 90.8496C33.9395 90.6387 33.5352 90.3398 33.5352 89.8184C33.5352 89.1738 34.1211 88.7637 35.0059 88.7637C35.8613 88.7637 36.4824 89.209 36.5645 89.877H38.2285C38.1758 88.3711 36.8574 87.3281 34.9941 87.3281C33.043 87.3281 31.7598 88.377 31.7598 89.9707C31.7598 91.2598 32.5156 92.0625 34.0566 92.3848L35.1582 92.6191C36.1953 92.8418 36.6172 93.1523 36.6172 93.6914C36.6172 94.3301 35.9668 94.7754 35.0469 94.7754C34.0508 94.7754 33.3594 94.3359 33.2773 93.6504H31.5664ZM43.877 96V89.0566H46.4141V87.5449H39.5703V89.0566H42.1074V96H43.877ZM49.748 88.9746H51.2832C52.1621 88.9746 52.7129 89.4785 52.7129 90.2812C52.7129 91.0957 52.1914 91.5762 51.3008 91.5762H49.748V88.9746ZM49.748 92.9355H51.1953L52.7715 96H54.7754L52.9941 92.6602C53.9668 92.2734 54.5293 91.3359 54.5293 90.2578C54.5293 88.5762 53.3867 87.5449 51.5293 87.5449H47.9785V96H49.748V92.9355ZM61.7422 96H63.6582L60.7227 87.5449H58.6426L55.707 96H57.4824L58.1328 93.9844H61.1035L61.7422 96ZM59.5742 89.3027H59.6797L60.7285 92.6191H58.5137L59.5742 89.3027ZM70.6309 94.459H66.8691V87.5449H65.0996V96H70.6309V94.459ZM74.0059 96V87.5449H72.2363V96H74.0059ZM81.4883 96H83.4043L80.4688 87.5449H78.3887L75.4531 96H77.2285L77.8789 93.9844H80.8496L81.4883 96ZM79.3203 89.3027H79.4258L80.4746 92.6191H78.2598L79.3203 89.3027Z" fill="#8A939A"/>
<path d="M68 47C68 58.0456 59.0456 67 48 67C36.9544 67 28 58.0456 28 47C28 47.0047 48 27.0023 48 27C59.0456 27 68 35.9544 68 47Z" fill="#0052B4"/>
<path d="M47.9999 27C47.9988 27 47.9977 27.001 47.9966 27.001L47.9999 27Z" fill="#F0F0F0"/>
<path d="M47.9463 47H47.9998C47.9998 46.9819 47.9998 46.9646 47.9998 46.9465C47.982 46.9644 47.9642 46.9822 47.9463 47Z" fill="#F0F0F0"/>
<path d="M48 37.4357C48 33.9166 48 31.6106 48 27.001H47.9966C36.9525 27.0028 28 35.9563 28 47.0009H38.4348V41.125L44.3107 47.0009H47.9466C47.9645 46.9831 47.9823 46.9653 48.0001 46.9474C48.0001 45.6 48.0001 44.3977 48.0001 43.3118L42.1241 37.4357H48Z" fill="#F0F0F0"/>
<path d="M38.1186 29.6087C34.9905 31.3899 32.3901 33.9903 30.6089 37.1184V47H35.8263V34.8262V34.8261H48.0002C48.0002 33.1806 48.0002 31.6129 48.0002 29.6087H38.1186V29.6087Z" fill="#D80027"/>
<path d="M48.0002 44.5406L40.8945 37.435H38.4351C38.4351 37.4349 38.4351 37.435 38.4351 37.435L48.0001 47.0001H48.0002C48.0002 47.0001 48.0002 45.3043 48.0002 44.5406Z" fill="#D80027"/>
<path d="M40.0626 50.4783L41.1603 52.7735L43.639 52.2006L42.529 54.4898L44.5222 56.0705L42.0404 56.6299L42.0474 59.174L40.0626 57.5823L38.0779 59.174L38.0849 56.6299L35.603 56.0705L37.5964 54.4898L36.4862 52.2006L38.9651 52.7735L40.0626 50.4783Z" fill="#F0F0F0"/>
<path d="M57.9451 54.8262L58.4939 55.9737L59.7333 55.6873L59.1782 56.8319L60.1749 57.6223L58.934 57.902L58.9374 59.174L57.9451 58.3781L56.9528 59.174L56.9562 57.902L55.7153 57.6223L56.712 56.8319L56.157 55.6873L57.3963 55.9737L57.9451 54.8262Z" fill="#F0F0F0"/>
<path d="M52.8387 42.6523L53.3875 43.7999L54.6269 43.5134L54.0719 44.658L55.0685 45.4484L53.8276 45.7281L53.831 47.0001L52.8387 46.2042L51.8464 47.0001L51.8497 45.7281L50.6089 45.4484L51.6055 44.658L51.0505 43.5134L52.2899 43.7999L52.8387 42.6523Z" fill="#F0F0F0"/>
<path d="M57.9451 35.6957L58.4939 36.8433L59.7333 36.5569L59.1783 37.7015L60.1749 38.4918L58.934 38.7715L58.9374 40.0436L57.9451 39.2477L56.9528 40.0436L56.9562 38.7715L55.7153 38.4918L56.7119 37.7015L56.157 36.5569L57.3963 36.8433L57.9451 35.6957Z" fill="#F0F0F0"/>
<path d="M62.4047 40.9131L62.9534 42.0608L64.1928 41.7742L63.6378 42.9188L64.6344 43.7092L63.3935 43.989L63.3969 45.261L62.4047 44.4652L61.4123 45.261L61.4157 43.989L60.1748 43.7092L61.1714 42.9188L60.6164 41.7742L61.8557 42.0608L62.4047 40.9131Z" fill="#F0F0F0"/>
<path d="M59.2154 47L59.647 48.3286H61.0441L59.9138 49.1498L60.3456 50.4783L59.2154 49.6572L58.0852 50.4783L58.5169 49.1498L57.3867 48.3286H58.7837L59.2154 47Z" fill="#F0F0F0"/>
</svg>
