<svg width="97" height="126" viewBox="0 0 97 126" fill="none" xmlns="http://www.w3.org/2000/svg">
<rect width="97" height="126" fill="white"/>
<path d="M24.9199 96C26.7246 96 27.8438 95.0625 27.8438 93.5801C27.8438 92.4902 27.0293 91.6465 25.9102 91.5645V91.459C26.7773 91.3301 27.4395 90.5508 27.4395 89.6543C27.4395 88.3477 26.4609 87.5449 24.8203 87.5449H21.123V96H24.9199ZM22.8926 88.8984H24.3691C25.2129 88.8984 25.6992 89.3027 25.6992 89.9766C25.6992 90.6562 25.1777 91.0488 24.2227 91.0488H22.8926V88.8984ZM22.8926 94.6465V92.2441H24.4277C25.4707 92.2441 26.0391 92.6543 26.0391 93.4277C26.0391 94.2188 25.4883 94.6465 24.4688 94.6465H22.8926ZM35.0449 94.4883H31.2129V92.4316H34.8281V91.0312H31.2129V89.0566H35.0449V87.5449H29.4434V96H35.0449V94.4883ZM42.4395 94.459H38.6777V87.5449H36.9082V96H42.4395V94.459ZM51.2402 92.5488V91.4707H47.6895V92.8008H49.5234L49.5176 92.9531C49.4824 93.9727 48.6797 94.6582 47.5195 94.6582C46.125 94.6582 45.2461 93.5566 45.2461 91.7461C45.2461 89.9707 46.084 88.8867 47.4492 88.8867C48.4336 88.8867 49.1426 89.3848 49.4062 90.2402H51.1641C50.918 88.4824 49.4473 87.3281 47.4492 87.3281C44.9883 87.3281 43.4355 89.0391 43.4355 91.7637C43.4355 94.5293 44.9766 96.2168 47.4902 96.2168C49.7988 96.2168 51.2402 94.8105 51.2402 92.5488ZM54.709 96V87.5449H52.9395V96H54.709ZM58.5469 87.5449H56.7773V93.082C56.7773 94.957 58.1543 96.2168 60.3164 96.2168C62.4844 96.2168 63.8613 94.957 63.8613 93.082V87.5449H62.0918V92.9004C62.0918 93.9668 61.4531 94.6465 60.3164 94.6465C59.1855 94.6465 58.5469 93.9668 58.5469 92.9004V87.5449ZM74.877 96V87.5449H72.7969L70.4531 93.2285H70.3477L68.0098 87.5449H65.9238V96H67.5645V90.3457H67.6582L69.8145 95.5137H70.9922L73.1426 90.3457H73.2363V96H74.877Z" fill="#8A939A"/>
<path d="M54.9563 28.244C52.7897 27.4401 50.4462 27 47.9998 27C45.5534 27 43.21 27.4401 41.0433 28.244L39.3042 47L41.0433 65.756C43.21 66.56 45.5534 67 47.9998 67C50.4462 67 52.7897 66.56 54.9563 65.756L56.6955 47L54.9563 28.244Z" fill="#FFDA44"/>
<path d="M68.0001 47.0002C68.0001 38.401 62.5726 31.07 54.9565 28.2443V65.7564C62.5726 62.9304 68.0001 55.5996 68.0001 47.0002Z" fill="#D80027"/>
<path d="M28 47.0002C28 55.5996 33.4275 62.9304 41.0435 65.7563V28.2443C33.4275 31.07 28 38.401 28 47.0002Z" fill="black"/>
</svg>
