<svg width="97" height="126" viewBox="0 0 97 126" fill="none" xmlns="http://www.w3.org/2000/svg">
<rect width="97" height="126" fill="white"/>
<path d="M31.0684 96C32.873 96 33.9922 95.0625 33.9922 93.5801C33.9922 92.4902 33.1777 91.6465 32.0586 91.5645V91.459C32.9258 91.3301 33.5879 90.5508 33.5879 89.6543C33.5879 88.3477 32.6094 87.5449 30.9688 87.5449H27.2715V96H31.0684ZM29.041 88.8984H30.5176C31.3613 88.8984 31.8477 89.3027 31.8477 89.9766C31.8477 90.6562 31.3262 91.0488 30.3711 91.0488H29.041V88.8984ZM29.041 94.6465V92.2441H30.5762C31.6191 92.2441 32.1875 92.6543 32.1875 93.4277C32.1875 94.2188 31.6367 94.6465 30.6172 94.6465H29.041ZM37.3613 88.9746H38.8965C39.7754 88.9746 40.3262 89.4785 40.3262 90.2812C40.3262 91.0957 39.8047 91.5762 38.9141 91.5762H37.3613V88.9746ZM37.3613 92.9355H38.8086L40.3848 96H42.3887L40.6074 92.6602C41.5801 92.2734 42.1426 91.3359 42.1426 90.2578C42.1426 88.5762 41 87.5449 39.1426 87.5449H35.5918V96H37.3613V92.9355ZM49.3555 96H51.2715L48.3359 87.5449H46.2559L43.3203 96H45.0957L45.7461 93.9844H48.7168L49.3555 96ZM47.1875 89.3027H47.293L48.3418 92.6191H46.127L47.1875 89.3027ZM52.4785 96H59.0059V94.4883H54.6465V94.3828L58.8887 88.7344V87.5449H52.5781V89.0566H56.7324V89.1621L52.4785 94.8047V96ZM62.5918 96V87.5449H60.8223V96H62.5918ZM70.1738 94.459H66.4121V87.5449H64.6426V96H70.1738V94.459Z" fill="#8A939A"/>
<path d="M48 67C59.0457 67 68 58.0457 68 47C68 35.9543 59.0457 27 48 27C36.9543 27 28 35.9543 28 47C28 58.0457 36.9543 67 48 67Z" fill="#6DA544"/>
<path d="M48.0002 34.8263L64.5219 47.0002L48.0002 59.1741L31.4785 47.0002L48.0002 34.8263Z" fill="#FFDA44"/>
<path d="M47.9999 53.9564C51.8419 53.9564 54.9564 50.8419 54.9564 46.9999C54.9564 43.158 51.8419 40.0435 47.9999 40.0435C44.158 40.0435 41.0435 43.158 41.0435 46.9999C41.0435 50.8419 44.158 53.9564 47.9999 53.9564Z" fill="#F0F0F0"/>
<path d="M44.5214 46.5651C43.3117 46.5651 42.1443 46.7491 41.0454 47.0905C41.0941 50.8905 44.1881 53.9565 47.9997 53.9565C50.3566 53.9565 52.4381 52.7832 53.6965 50.9902C51.5436 48.2951 48.231 46.5651 44.5214 46.5651Z" fill="#0052B4"/>
<path d="M54.8276 48.3328C54.9113 47.9012 54.9566 47.456 54.9566 46.9999C54.9566 43.1579 51.842 40.0435 48.0001 40.0435C45.1334 40.0435 42.6724 41.7779 41.6074 44.2543C42.5488 44.0592 43.5235 43.9565 44.5219 43.9565C48.5623 43.9564 52.2174 45.636 54.8276 48.3328Z" fill="#0052B4"/>
</svg>
