<svg width="97" height="126" viewBox="0 0 97 126" fill="none" xmlns="http://www.w3.org/2000/svg">
<rect width="97" height="126" fill="white"/>
<path d="M26.7207 96.2168C28.7598 96.2168 30.248 94.957 30.3945 93.1289H28.6719C28.502 94.0605 27.7402 94.6582 26.7266 94.6582C25.3906 94.6582 24.5645 93.5508 24.5645 91.7695C24.5645 89.9883 25.3906 88.8867 26.7207 88.8867C27.7285 88.8867 28.4961 89.5254 28.666 90.498H30.3887C30.2598 88.6582 28.7246 87.3281 26.7207 87.3281C24.2656 87.3281 22.7539 89.0215 22.7539 91.7695C22.7539 94.5234 24.2715 96.2168 26.7207 96.2168ZM37.1855 96H39.1016L36.166 87.5449H34.0859L31.1504 96H32.9258L33.5762 93.9844H36.5469L37.1855 96ZM35.0176 89.3027H35.123L36.1719 92.6191H33.957L35.0176 89.3027ZM42.2363 96V90.709H42.3418L46.2441 96H47.709V87.5449H46.0156V92.8125H45.9102L42.0195 87.5449H40.543V96H42.2363ZM55.1973 96H57.1133L54.1777 87.5449H52.0977L49.1621 96H50.9375L51.5879 93.9844H54.5586L55.1973 96ZM53.0293 89.3027H53.1348L54.1836 92.6191H51.9688L53.0293 89.3027ZM58.5547 87.5391V96H61.8828C64.4141 96 65.8496 94.459 65.8496 91.7109C65.8496 89.0625 64.3965 87.5391 61.8828 87.5391H58.5547ZM60.3242 89.0508H61.6016C63.1367 89.0508 64.0449 90.0293 64.0449 91.7402C64.0449 93.5273 63.166 94.4883 61.6016 94.4883H60.3242V89.0508ZM72.5645 96H74.4805L71.5449 87.5449H69.4648L66.5293 96H68.3047L68.9551 93.9844H71.9258L72.5645 96ZM70.3965 89.3027H70.502L71.5508 92.6191H69.3359L70.3965 89.3027Z" fill="#8A939A"/>
<g clip-path="url(#clip0)">
<path d="M48 67C59.0457 67 68 58.0457 68 47C68 35.9543 59.0457 27 48 27C36.9543 27 28 35.9543 28 47C28 58.0457 36.9543 67 48 67Z" fill="#F0F0F0"/>
<path d="M68.0002 47.0001C68.0002 39.0709 63.3857 32.2197 56.6958 28.9847V65.0155C63.3857 61.7806 68.0002 54.9294 68.0002 47.0001Z" fill="#D80027"/>
<path d="M28 47.0001C28 54.9294 32.6145 61.7806 39.3044 65.0156V28.9847C32.6145 32.2197 28 39.0709 28 47.0001Z" fill="#D80027"/>
<path d="M51.4782 49.6088L54.9564 47.8696L53.2174 47.0001V45.261L49.7391 47.0001L51.4782 43.5218H49.7391L47.9999 40.9131L46.2608 43.5218H44.5217L46.2608 47.0001L42.7825 45.261V47.0001L41.0435 47.8696L44.5217 49.6088L43.6521 51.3479H47.1304V53.9566H48.8695V51.3479H52.3478L51.4782 49.6088Z" fill="#D80027"/>
</g>
<defs>
<clipPath id="clip0">
<rect width="40" height="40" fill="white" transform="translate(28 27)"/>
</clipPath>
</defs>
</svg>
