<svg width="97" height="126" viewBox="0 0 97 126" fill="none" xmlns="http://www.w3.org/2000/svg">
<rect width="97" height="126" fill="white"/>
<path d="M33.0547 96.2168C35.0938 96.2168 36.582 94.957 36.7285 93.1289H35.0059C34.8359 94.0605 34.0742 94.6582 33.0605 94.6582C31.7246 94.6582 30.8984 93.5508 30.8984 91.7695C30.8984 89.9883 31.7246 88.8867 33.0547 88.8867C34.0625 88.8867 34.8301 89.5254 35 90.498H36.7227C36.5938 88.6582 35.0586 87.3281 33.0547 87.3281C30.5996 87.3281 29.0879 89.0215 29.0879 91.7695C29.0879 94.5234 30.6055 96.2168 33.0547 96.2168ZM45.7051 96V87.5449H43.9355V90.9551H40.127V87.5449H38.3574V96H40.127V92.4668H43.9355V96H45.7051ZM49.5254 96V87.5449H47.7559V96H49.5254ZM53.2695 96V90.709H53.375L57.2773 96H58.7422V87.5449H57.0488V92.8125H56.9434L53.0527 87.5449H51.5762V96H53.2695ZM66.2305 96H68.1465L65.2109 87.5449H63.1309L60.1953 96H61.9707L62.6211 93.9844H65.5918L66.2305 96ZM64.0625 89.3027H64.168L65.2168 92.6191H63.002L64.0625 89.3027Z" fill="#8A939A"/>
<path d="M48 67C59.0457 67 68 58.0457 68 47C68 35.9543 59.0457 27 48 27C36.9543 27 28 35.9543 28 47C28 58.0457 36.9543 67 48 67Z" fill="#D80027"/>
<path d="M38.9453 39.1721L40.6719 44.4846H46.2578L41.7422 47.7736L43.4688 53.0861L38.9453 49.8049L34.4219 53.0861L36.1562 47.7736L31.6328 44.4846H37.2188L38.9453 39.1721Z" fill="#FFDA44"/>
<path d="M51.7109 57.9767L50.3906 56.3517L48.4375 57.1095L49.5703 55.3517L48.25 53.7188L50.2734 54.2579L51.4141 52.5001L51.5234 54.5938L53.5547 55.1329L51.5937 55.8829L51.7109 57.9767Z" fill="#FFDA44"/>
<path d="M54.3359 53.211L54.9609 51.211L53.25 50.0001L55.3437 49.9688L55.9609 47.9688L56.6406 49.9532L58.7344 49.9298L57.0547 51.1798L57.7266 53.1642L56.0156 51.9532L54.3359 53.211Z" fill="#FFDA44"/>
<path d="M57.875 41.6801L56.9531 43.5629L58.4531 45.0238L56.3828 44.7269L55.4609 46.6019L55.1016 44.5394L53.0234 44.2426L54.8828 43.266L54.5234 41.1957L56.0234 42.6566L57.875 41.6801Z" fill="#FFDA44"/>
<path d="M51.7656 35.9767L51.6094 38.0626L53.5547 38.8517L51.5156 39.3517L51.3672 41.4454L50.2656 39.6642L48.2266 40.1642L49.5781 38.5626L48.4688 36.7892L50.4141 37.5782L51.7656 35.9767Z" fill="#FFDA44"/>
</svg>
