<svg width="97" height="126" viewBox="0 0 97 126" fill="none" xmlns="http://www.w3.org/2000/svg">
<rect width="97" height="126" fill="white"/>
<path d="M20.6484 94.4883H16.8164V92.4316H20.4316V91.0312H16.8164V89.0566H20.6484V87.5449H15.0469V96H20.6484V94.4883ZM24.2988 87.5449H22.5293V93.082C22.5293 94.957 23.9062 96.2168 26.0684 96.2168C28.2363 96.2168 29.6133 94.957 29.6133 93.082V87.5449H27.8438V92.9004C27.8438 93.9668 27.2051 94.6465 26.0684 94.6465C24.9375 94.6465 24.2988 93.9668 24.2988 92.9004V87.5449ZM33.4453 88.9746H34.9805C35.8594 88.9746 36.4102 89.4785 36.4102 90.2812C36.4102 91.0957 35.8887 91.5762 34.998 91.5762H33.4453V88.9746ZM33.4453 92.9355H34.8926L36.4688 96H38.4727L36.6914 92.6602C37.6641 92.2734 38.2266 91.3359 38.2266 90.2578C38.2266 88.5762 37.084 87.5449 35.2266 87.5449H31.6758V96H33.4453V92.9355ZM43.7051 87.3281C41.2207 87.3281 39.6328 89.0273 39.6328 91.7695C39.6328 94.5117 41.1973 96.2168 43.7051 96.2168C46.207 96.2168 47.7656 94.5117 47.7656 91.7695C47.7656 89.0332 46.2012 87.3281 43.7051 87.3281ZM43.7051 88.8809C45.082 88.8809 45.9609 90 45.9609 91.7695C45.9609 93.5332 45.082 94.6641 43.7051 94.6641C42.3164 94.6641 41.4434 93.5332 41.4434 91.7695C41.4434 90 42.334 88.8809 43.7051 88.8809ZM49.4414 87.5449V96H51.2109V93.375H52.8809C54.6621 93.375 55.8984 92.209 55.8984 90.4688C55.8984 88.7109 54.709 87.5449 52.9688 87.5449H49.4414ZM51.2109 88.998H52.5C53.5195 88.998 54.0996 89.5137 54.0996 90.4746C54.0996 91.4238 53.5078 91.9395 52.4941 91.9395H51.2109V88.998ZM63.1289 94.4883H59.2969V92.4316H62.9121V91.0312H59.2969V89.0566H63.1289V87.5449H57.5273V96H63.1289V94.4883ZM70.4238 96H72.3398L69.4043 87.5449H67.3242L64.3887 96H66.1641L66.8145 93.9844H69.7852L70.4238 96ZM68.2559 89.3027H68.3613L69.4102 92.6191H67.1953L68.2559 89.3027ZM75.4746 96V90.709H75.5801L79.4824 96H80.9473V87.5449H79.2539V92.8125H79.1484L75.2578 87.5449H73.7812V96H75.4746ZM30.3809 102.545H28.6113V108.082C28.6113 109.957 29.9883 111.217 32.1504 111.217C34.3184 111.217 35.6953 109.957 35.6953 108.082V102.545H33.9258V107.9C33.9258 108.967 33.2871 109.646 32.1504 109.646C31.0195 109.646 30.3809 108.967 30.3809 107.9V102.545ZM39.4512 111V105.709H39.5566L43.459 111H44.9238V102.545H43.2305V107.812H43.125L39.2344 102.545H37.7578V111H39.4512ZM48.75 111V102.545H46.9805V111H48.75ZM54.498 102.328C52.0137 102.328 50.4258 104.027 50.4258 106.77C50.4258 109.512 51.9902 111.217 54.498 111.217C57 111.217 58.5586 109.512 58.5586 106.77C58.5586 104.033 56.9941 102.328 54.498 102.328ZM54.498 103.881C55.875 103.881 56.7539 105 56.7539 106.77C56.7539 108.533 55.875 109.664 54.498 109.664C53.1094 109.664 52.2363 108.533 52.2363 106.77C52.2363 105 53.127 103.881 54.498 103.881ZM61.9277 111V105.709H62.0332L65.9355 111H67.4004V102.545H65.707V107.812H65.6016L61.7109 102.545H60.2344V111H61.9277Z" fill="#8A939A"/>
<path d="M48 67C59.0457 67 68 58.0457 68 47C68 35.9543 59.0457 27 48 27C36.9543 27 28 35.9543 28 47C28 58.0457 36.9543 67 48 67Z" fill="#0052B4"/>
<path d="M48.0003 34.8262L48.6479 36.8191H50.7432L49.0479 38.0507L49.6955 40.0436L48.0003 38.8119L46.305 40.0436L46.9526 38.0507L45.2573 36.8191H47.3527L48.0003 34.8262Z" fill="#FFDA44"/>
<path d="M39.3921 38.3918L41.2592 39.343L42.7409 37.8615L42.413 39.931L44.2801 40.8823L42.2105 41.2101L41.8827 43.2798L40.9313 41.4127L38.8618 41.7406L40.3435 40.259L39.3921 38.3918Z" fill="#FFDA44"/>
<path d="M35.8262 47.0001L37.8191 46.3525V44.2571L39.0506 45.9525L41.0436 45.3049L39.8118 47.0001L41.0436 48.6954L39.0506 48.0479L37.8191 49.7431V47.6477L35.8262 47.0001Z" fill="#FFDA44"/>
<path d="M39.3921 55.6084L40.3434 53.7412L38.8618 52.2596L40.9314 52.5876L41.8826 50.7205L42.2105 52.7901L44.28 53.1179L42.4131 54.0692L42.7409 56.1387L41.2592 54.6571L39.3921 55.6084Z" fill="#FFDA44"/>
<path d="M48.0003 59.174L47.3526 57.1811H45.2573L46.9526 55.9495L46.305 53.9567L48.0003 55.1883L49.6955 53.9567L49.0479 55.9495L50.7432 57.1811H48.6478L48.0003 59.174Z" fill="#FFDA44"/>
<path d="M56.6081 55.6084L54.741 54.6572L53.2593 56.1388L53.5872 54.0691L51.7202 53.1179L53.7897 52.7901L54.1176 50.7205L55.0688 52.5876L57.1383 52.2596L55.6567 53.7414L56.6081 55.6084Z" fill="#FFDA44"/>
<path d="M60.1738 47.0001L58.1809 47.6477V49.7431L56.9493 48.0478L54.9565 48.6954L56.1882 47.0001L54.9565 45.3049L56.9494 45.9525L58.1809 44.2571V46.3526L60.1738 47.0001Z" fill="#FFDA44"/>
<path d="M56.6081 38.3917L55.6568 40.2589L57.1384 41.7406L55.0687 41.4126L54.1176 43.2797L53.7897 41.2101L51.7202 40.8822L53.5872 39.931L53.2593 37.8615L54.7411 39.3431L56.6081 38.3917Z" fill="#FFDA44"/>
</svg>
