<svg width="97" height="126" viewBox="0 0 97 126" fill="none" xmlns="http://www.w3.org/2000/svg">
<rect width="97" height="126" fill="white"/>
<path d="M25.8574 96V92.707H29.2969V91.2598H25.8574V89.0566H29.625V87.5449H24.0879V96H25.8574ZM33.0293 88.9746H34.5645C35.4434 88.9746 35.9941 89.4785 35.9941 90.2812C35.9941 91.0957 35.4727 91.5762 34.582 91.5762H33.0293V88.9746ZM33.0293 92.9355H34.4766L36.0527 96H38.0566L36.2754 92.6602C37.248 92.2734 37.8105 91.3359 37.8105 90.2578C37.8105 88.5762 36.668 87.5449 34.8105 87.5449H31.2598V96H33.0293V92.9355ZM45.0234 96H46.9395L44.0039 87.5449H41.9238L38.9883 96H40.7637L41.4141 93.9844H44.3848L45.0234 96ZM42.8555 89.3027H42.9609L44.0098 92.6191H41.7949L42.8555 89.3027ZM50.0742 96V90.709H50.1797L54.082 96H55.5469V87.5449H53.8535V92.8125H53.748L49.8574 87.5449H48.3809V96H50.0742ZM61.1953 96.2168C63.2344 96.2168 64.7227 94.957 64.8691 93.1289H63.1465C62.9766 94.0605 62.2148 94.6582 61.2012 94.6582C59.8652 94.6582 59.0391 93.5508 59.0391 91.7695C59.0391 89.9883 59.8652 88.8867 61.1953 88.8867C62.2031 88.8867 62.9707 89.5254 63.1406 90.498H64.8633C64.7344 88.6582 63.1992 87.3281 61.1953 87.3281C58.7402 87.3281 57.2285 89.0215 57.2285 91.7695C57.2285 94.5234 58.7461 96.2168 61.1953 96.2168ZM72.0996 94.4883H68.2676V92.4316H71.8828V91.0312H68.2676V89.0566H72.0996V87.5449H66.498V96H72.0996V94.4883Z" fill="#8A939A"/>
<path d="M48 67C59.0457 67 68 58.0457 68 47C68 35.9543 59.0457 27 48 27C36.9543 27 28 35.9543 28 47C28 58.0457 36.9543 67 48 67Z" fill="#F0F0F0"/>
<path d="M68.0001 47.0002C68.0001 38.4009 62.5726 31.0701 54.9565 28.2442V65.7563C62.5726 62.9304 68.0001 55.5995 68.0001 47.0002Z" fill="#D80027"/>
<path d="M28 47.0002C28 55.5995 33.4276 62.9304 41.0435 65.7562V28.2442C33.4276 31.0701 28 38.4009 28 47.0002Z" fill="#0052B4"/>
</svg>
