<svg width="97" height="126" viewBox="0 0 97 126" fill="none" xmlns="http://www.w3.org/2000/svg">
<rect width="97" height="126" fill="white"/>
<path d="M48 69C59.0457 69 68 60.0457 68 49C68 37.9543 59.0457 29 48 29C36.9543 29 28 37.9543 28 49C28 60.0457 36.9543 69 48 69Z" fill="#F0F0F0"/>
<path d="M28 49C28 37.9544 36.9544 29 48 29C59.0456 29 68 37.9544 68 49" fill="#A2001D"/>
<path d="M16.8711 96V87.5449H15.1016V96H16.8711ZM20.6152 96V90.709H20.7207L24.623 96H26.0879V87.5449H24.3945V92.8125H24.2891L20.3984 87.5449H18.9219V96H20.6152ZM28.1445 87.5391V96H31.4727C34.0039 96 35.4395 94.459 35.4395 91.7109C35.4395 89.0625 33.9863 87.5391 31.4727 87.5391H28.1445ZM29.9141 89.0508H31.1914C32.7266 89.0508 33.6348 90.0293 33.6348 91.7402C33.6348 93.5273 32.7559 94.4883 31.1914 94.4883H29.9141V89.0508ZM40.8066 87.3281C38.3223 87.3281 36.7344 89.0273 36.7344 91.7695C36.7344 94.5117 38.2988 96.2168 40.8066 96.2168C43.3086 96.2168 44.8672 94.5117 44.8672 91.7695C44.8672 89.0332 43.3027 87.3281 40.8066 87.3281ZM40.8066 88.8809C42.1836 88.8809 43.0625 90 43.0625 91.7695C43.0625 93.5332 42.1836 94.6641 40.8066 94.6641C39.418 94.6641 38.5449 93.5332 38.5449 91.7695C38.5449 90 39.4355 88.8809 40.8066 88.8809ZM48.2363 96V90.709H48.3418L52.2441 96H53.709V87.5449H52.0156V92.8125H51.9102L48.0195 87.5449H46.543V96H48.2363ZM61.3672 94.4883H57.5352V92.4316H61.1504V91.0312H57.5352V89.0566H61.3672V87.5449H55.7656V96H61.3672V94.4883ZM62.8496 93.6504C62.9141 95.2266 64.2207 96.2168 66.2363 96.2168C68.3574 96.2168 69.6641 95.1738 69.6641 93.4688C69.6641 92.1562 68.9316 91.4238 67.2324 91.0664L66.2129 90.8496C65.2227 90.6387 64.8184 90.3398 64.8184 89.8184C64.8184 89.1738 65.4043 88.7637 66.2891 88.7637C67.1445 88.7637 67.7656 89.209 67.8477 89.877H69.5117C69.459 88.3711 68.1406 87.3281 66.2773 87.3281C64.3262 87.3281 63.043 88.377 63.043 89.9707C63.043 91.2598 63.7988 92.0625 65.3398 92.3848L66.4414 92.6191C67.4785 92.8418 67.9004 93.1523 67.9004 93.6914C67.9004 94.3301 67.25 94.7754 66.3301 94.7754C65.334 94.7754 64.6426 94.3359 64.5605 93.6504H62.8496ZM73.1094 96V87.5449H71.3398V96H73.1094ZM80.5918 96H82.5078L79.5723 87.5449H77.4922L74.5566 96H76.332L76.9824 93.9844H79.9531L80.5918 96ZM78.4238 89.3027H78.5293L79.5781 92.6191H77.3633L78.4238 89.3027Z" fill="#8A939A"/>
</svg>
