<svg width="97" height="126" viewBox="0 0 97 126" fill="none" xmlns="http://www.w3.org/2000/svg">
<rect width="97" height="126" fill="white"/>
<path d="M48 67C59.0457 67 68 58.0457 68 47C68 35.9543 59.0457 27 48 27C36.9543 27 28 35.9543 28 47C28 58.0457 36.9543 67 48 67Z" fill="#F0F0F0"/>
<path d="M47.9998 55.6956C52.8023 55.6956 56.6955 51.8024 56.6955 47C56.6955 42.1975 52.8023 38.3043 47.9998 38.3043C43.1974 38.3043 39.3042 42.1975 39.3042 47C39.3042 51.8024 43.1974 55.6956 47.9998 55.6956Z" fill="#D80027"/>
<path d="M27.791 93.5156C27.791 95.1738 28.9277 96.2168 30.6621 96.2168C32.4551 96.2168 33.5332 95.1973 33.5332 93.375V87.5449H31.7637V93.3633C31.7637 94.1953 31.3652 94.6348 30.6387 94.6348C29.959 94.6348 29.5137 94.1953 29.502 93.5156H27.791ZM40.8105 96H42.7266L39.791 87.5449H37.7109L34.7754 96H36.5508L37.2012 93.9844H40.1719L40.8105 96ZM38.6426 89.3027H38.748L39.7969 92.6191H37.582L38.6426 89.3027ZM44.168 87.5449V96H45.9375V93.375H47.6074C49.3887 93.375 50.625 92.209 50.625 90.4688C50.625 88.7109 49.4355 87.5449 47.6953 87.5449H44.168ZM45.9375 88.998H47.2266C48.2461 88.998 48.8262 89.5137 48.8262 90.4746C48.8262 91.4238 48.2344 91.9395 47.2207 91.9395H45.9375V88.998ZM57.0996 96H59.0156L56.0801 87.5449H54L51.0645 96H52.8398L53.4902 93.9844H56.4609L57.0996 96ZM54.9316 89.3027H55.0371L56.0859 92.6191H53.8711L54.9316 89.3027ZM62.1504 96V90.709H62.2559L66.1582 96H67.623V87.5449H65.9297V92.8125H65.8242L61.9336 87.5449H60.457V96H62.1504Z" fill="#8A939A"/>
</svg>
