<svg width="97" height="126" viewBox="0 0 97 126" fill="none" xmlns="http://www.w3.org/2000/svg">
<rect width="97" height="126" fill="white"/>
<path d="M48 67C59.0457 67 68 58.0457 68 47C68 35.9543 59.0457 27 48 27C36.9543 27 28 35.9543 28 47C28 58.0457 36.9543 67 48 67Z" fill="#F0F0F0"/>
<path d="M68.0001 47.0002C68.0001 38.4009 62.5726 31.0701 54.9565 28.2442V65.7563C62.5726 62.9304 68.0001 55.5995 68.0001 47.0002Z" fill="#008751"/>
<path d="M28 47.0002C28 55.5995 33.4276 62.9304 41.0435 65.7562V28.2442C33.4276 31.0701 28 38.4009 28 47.0002Z" fill="#008751"/>
<path d="M25.7188 96V90.709H25.8242L29.7266 96H31.1914V87.5449H29.498V92.8125H29.3926L25.502 87.5449H24.0254V96H25.7188ZM35.0176 96V87.5449H33.248V96H35.0176ZM44.498 92.5488V91.4707H40.9473V92.8008H42.7812L42.7754 92.9531C42.7402 93.9727 41.9375 94.6582 40.7773 94.6582C39.3828 94.6582 38.5039 93.5566 38.5039 91.7461C38.5039 89.9707 39.3418 88.8867 40.707 88.8867C41.6914 88.8867 42.4004 89.3848 42.6641 90.2402H44.4219C44.1758 88.4824 42.7051 87.3281 40.707 87.3281C38.2461 87.3281 36.6934 89.0391 36.6934 91.7637C36.6934 94.5293 38.2344 96.2168 40.748 96.2168C43.0566 96.2168 44.498 94.8105 44.498 92.5488ZM51.7988 94.4883H47.9668V92.4316H51.582V91.0312H47.9668V89.0566H51.7988V87.5449H46.1973V96H51.7988V94.4883ZM55.4316 88.9746H56.9668C57.8457 88.9746 58.3965 89.4785 58.3965 90.2812C58.3965 91.0957 57.875 91.5762 56.9844 91.5762H55.4316V88.9746ZM55.4316 92.9355H56.8789L58.4551 96H60.459L58.6777 92.6602C59.6504 92.2734 60.2129 91.3359 60.2129 90.2578C60.2129 88.5762 59.0703 87.5449 57.2129 87.5449H53.6621V96H55.4316V92.9355ZM63.7637 96V87.5449H61.9941V96H63.7637ZM71.2461 96H73.1621L70.2266 87.5449H68.1465L65.2109 96H66.9863L67.6367 93.9844H70.6074L71.2461 96ZM69.0781 89.3027H69.1836L70.2324 92.6191H68.0176L69.0781 89.3027Z" fill="#8A939A"/>
</svg>
