<svg width="97" height="126" viewBox="0 0 97 126" fill="none" xmlns="http://www.w3.org/2000/svg">
<rect width="97" height="126" fill="white"/>
<path d="M28.1328 88.9746H29.668C30.5469 88.9746 31.0977 89.4785 31.0977 90.2812C31.0977 91.0957 30.5762 91.5762 29.6855 91.5762H28.1328V88.9746ZM28.1328 92.9355H29.5801L31.1562 96H33.1602L31.3789 92.6602C32.3516 92.2734 32.9141 91.3359 32.9141 90.2578C32.9141 88.5762 31.7715 87.5449 29.9141 87.5449H26.3633V96H28.1328V92.9355ZM36.4824 87.5449H34.7129V93.082C34.7129 94.957 36.0898 96.2168 38.252 96.2168C40.4199 96.2168 41.7969 94.957 41.7969 93.082V87.5449H40.0273V92.9004C40.0273 93.9668 39.3887 94.6465 38.252 94.6465C37.1211 94.6465 36.4824 93.9668 36.4824 92.9004V87.5449ZM43.4785 93.6504C43.543 95.2266 44.8496 96.2168 46.8652 96.2168C48.9863 96.2168 50.293 95.1738 50.293 93.4688C50.293 92.1562 49.5605 91.4238 47.8613 91.0664L46.8418 90.8496C45.8516 90.6387 45.4473 90.3398 45.4473 89.8184C45.4473 89.1738 46.0332 88.7637 46.918 88.7637C47.7734 88.7637 48.3945 89.209 48.4766 89.877H50.1406C50.0879 88.3711 48.7695 87.3281 46.9062 87.3281C44.9551 87.3281 43.6719 88.377 43.6719 89.9707C43.6719 91.2598 44.4277 92.0625 45.9688 92.3848L47.0703 92.6191C48.1074 92.8418 48.5293 93.1523 48.5293 93.6914C48.5293 94.3301 47.8789 94.7754 46.959 94.7754C45.9629 94.7754 45.2715 94.3359 45.1895 93.6504H43.4785ZM51.5879 93.6504C51.6523 95.2266 52.959 96.2168 54.9746 96.2168C57.0957 96.2168 58.4023 95.1738 58.4023 93.4688C58.4023 92.1562 57.6699 91.4238 55.9707 91.0664L54.9512 90.8496C53.9609 90.6387 53.5566 90.3398 53.5566 89.8184C53.5566 89.1738 54.1426 88.7637 55.0273 88.7637C55.8828 88.7637 56.5039 89.209 56.5859 89.877H58.25C58.1973 88.3711 56.8789 87.3281 55.0156 87.3281C53.0645 87.3281 51.7812 88.377 51.7812 89.9707C51.7812 91.2598 52.5371 92.0625 54.0781 92.3848L55.1797 92.6191C56.2168 92.8418 56.6387 93.1523 56.6387 93.6914C56.6387 94.3301 55.9883 94.7754 55.0684 94.7754C54.0723 94.7754 53.3809 94.3359 53.2988 93.6504H51.5879ZM61.8477 96V87.5449H60.0781V96H61.8477ZM69.3301 96H71.2461L68.3105 87.5449H66.2305L63.2949 96H65.0703L65.7207 93.9844H68.6914L69.3301 96ZM67.1621 89.3027H67.2676L68.3164 92.6191H66.1016L67.1621 89.3027Z" fill="#8A939A"/>
<g clip-path="url(#clip0)">
<path d="M48 67C59.0457 67 68 58.0457 68 47C68 35.9543 59.0457 27 48 27C36.9543 27 28 35.9543 28 47C28 58.0457 36.9543 67 48 67Z" fill="#F0F0F0"/>
<path d="M66.756 53.9564C67.56 51.7898 68 49.4463 68 46.9999C68 44.5535 67.56 42.2101 66.756 40.0435H29.244C28.4401 42.2101 28 44.5535 28 46.9999C28 49.4463 28.4401 51.7898 29.244 53.9564L48 55.6956L66.756 53.9564Z" fill="#0052B4"/>
<path d="M48.0002 67.0001C56.5995 67.0001 63.9303 61.5726 66.7562 53.9565H29.2441C32.07 61.5726 39.4009 67.0001 48.0002 67.0001Z" fill="#D80027"/>
</g>
<defs>
<clipPath id="clip0">
<rect width="40" height="40" fill="white" transform="translate(28 27)"/>
</clipPath>
</defs>
</svg>
