<svg width="97" height="126" viewBox="0 0 97 126" fill="none" xmlns="http://www.w3.org/2000/svg">
<rect width="97" height="126" fill="white"/>
<path d="M26.6309 93.6504C26.6953 95.2266 28.002 96.2168 30.0176 96.2168C32.1387 96.2168 33.4453 95.1738 33.4453 93.4688C33.4453 92.1562 32.7129 91.4238 31.0137 91.0664L29.9941 90.8496C29.0039 90.6387 28.5996 90.3398 28.5996 89.8184C28.5996 89.1738 29.1855 88.7637 30.0703 88.7637C30.9258 88.7637 31.5469 89.209 31.6289 89.877H33.293C33.2402 88.3711 31.9219 87.3281 30.0586 87.3281C28.1074 87.3281 26.8242 88.377 26.8242 89.9707C26.8242 91.2598 27.5801 92.0625 29.1211 92.3848L30.2227 92.6191C31.2598 92.8418 31.6816 93.1523 31.6816 93.6914C31.6816 94.3301 31.0312 94.7754 30.1113 94.7754C29.1152 94.7754 28.4238 94.3359 28.3418 93.6504H26.6309ZM38.8184 87.3281C36.334 87.3281 34.7461 89.0273 34.7461 91.7695C34.7461 94.5117 36.3105 96.2168 38.8184 96.2168C41.3203 96.2168 42.8789 94.5117 42.8789 91.7695C42.8789 89.0332 41.3145 87.3281 38.8184 87.3281ZM38.8184 88.8809C40.1953 88.8809 41.0742 90 41.0742 91.7695C41.0742 93.5332 40.1953 94.6641 38.8184 94.6641C37.4297 94.6641 36.5566 93.5332 36.5566 91.7695C36.5566 90 37.4473 88.8809 38.8184 88.8809ZM46.3418 87.5449H44.5723V93.082C44.5723 94.957 45.9492 96.2168 48.1113 96.2168C50.2793 96.2168 51.6562 94.957 51.6562 93.082V87.5449H49.8867V92.9004C49.8867 93.9668 49.248 94.6465 48.1113 94.6465C46.9805 94.6465 46.3418 93.9668 46.3418 92.9004V87.5449ZM57.5391 96V89.0566H60.0762V87.5449H53.2324V89.0566H55.7695V96H57.5391ZM68.9883 96V87.5449H67.2188V90.9551H63.4102V87.5449H61.6406V96H63.4102V92.4668H67.2188V96H68.9883ZM31.6934 111H33.6094L30.6738 102.545H28.5938L25.6582 111H27.4336L28.084 108.984H31.0547L31.6934 111ZM29.5254 104.303H29.6309L30.6797 107.619H28.4648L29.5254 104.303ZM36.8203 111V107.707H40.2598V106.26H36.8203V104.057H40.5879V102.545H35.0508V111H36.8203ZM43.9922 103.975H45.5273C46.4062 103.975 46.957 104.479 46.957 105.281C46.957 106.096 46.4355 106.576 45.5449 106.576H43.9922V103.975ZM43.9922 107.936H45.4395L47.0156 111H49.0195L47.2383 107.66C48.2109 107.273 48.7734 106.336 48.7734 105.258C48.7734 103.576 47.6309 102.545 45.7734 102.545H42.2227V111H43.9922V107.936ZM52.3242 111V102.545H50.5547V111H52.3242ZM57.9668 111.217C60.0059 111.217 61.4941 109.957 61.6406 108.129H59.918C59.748 109.061 58.9863 109.658 57.9727 109.658C56.6367 109.658 55.8105 108.551 55.8105 106.77C55.8105 104.988 56.6367 103.887 57.9668 103.887C58.9746 103.887 59.7422 104.525 59.9121 105.498H61.6348C61.5059 103.658 59.9707 102.328 57.9668 102.328C55.5117 102.328 54 104.021 54 106.77C54 109.523 55.5176 111.217 57.9668 111.217ZM68.4316 111H70.3477L67.4121 102.545H65.332L62.3965 111H64.1719L64.8223 108.984H67.793L68.4316 111ZM66.2637 104.303H66.3691L67.418 107.619H65.2031L66.2637 104.303Z" fill="#8A939A"/>
<g clip-path="url(#clip0)">
<path d="M48 67C59.0457 67 68 58.0457 68 47C68 35.9543 59.0457 27 48 27C36.9543 27 28 35.9543 28 47C28 58.0457 36.9543 67 48 67Z" fill="#F0F0F0"/>
<path d="M33.8574 61.1422C26.0469 53.3317 26.0469 40.6684 33.8574 32.8578C33.8568 32.8587 45.3909 47 45.3909 47L33.8574 61.1422Z" fill="black"/>
<path d="M45.3917 47L30.6529 37.0401C30.196 37.8344 29.793 38.6634 29.4468 39.5216L36.9084 47.0001L29.447 54.479C29.7929 55.3365 30.1955 56.165 30.6522 56.9587L45.3917 47Z" fill="#FFDA44"/>
<path d="M67.8303 44.3913H45.3904L33.8572 32.8581C32.6144 34.1009 31.5346 35.5065 30.6521 37.0402L40.5927 47L30.6514 56.9586C31.5339 58.4927 32.6141 59.8987 33.8572 61.1418L45.3904 49.6087H67.8303C67.9414 48.7548 67.9996 47.8841 67.9996 47C67.9996 46.1159 67.9414 45.2452 67.8303 44.3913Z" fill="#6DA544"/>
<path d="M35.8237 62.8654C39.1963 65.4577 43.4179 67 48.0004 67C57.241 67 65.0165 60.7327 67.3115 52.2174H46.4718L35.8237 62.8654Z" fill="#0052B4"/>
<path d="M67.3115 41.7826C65.0165 33.2673 57.241 27 48.0004 27C43.4179 27 39.1963 28.5423 35.8237 31.1346L46.4717 41.7826H67.3115Z" fill="#D80027"/>
</g>
<defs>
<clipPath id="clip0">
<rect width="40" height="40" fill="white" transform="translate(28 27)"/>
</clipPath>
</defs>
</svg>
