<svg width="97" height="126" viewBox="0 0 97 126" fill="none" xmlns="http://www.w3.org/2000/svg">
<rect width="97" height="126" fill="white"/>
<path d="M27.8906 96V89.0566H30.4277V87.5449H23.584V89.0566H26.1211V96H27.8906ZM33.7793 87.5449H32.0098V93.082C32.0098 94.957 33.3867 96.2168 35.5488 96.2168C37.7168 96.2168 39.0938 94.957 39.0938 93.082V87.5449H37.3242V92.9004C37.3242 93.9668 36.6855 94.6465 35.5488 94.6465C34.418 94.6465 33.7793 93.9668 33.7793 92.9004V87.5449ZM42.9258 88.9746H44.4609C45.3398 88.9746 45.8906 89.4785 45.8906 90.2812C45.8906 91.0957 45.3691 91.5762 44.4785 91.5762H42.9258V88.9746ZM42.9258 92.9355H44.373L45.9492 96H47.9531L46.1719 92.6602C47.1445 92.2734 47.707 91.3359 47.707 90.2578C47.707 88.5762 46.5645 87.5449 44.707 87.5449H41.1562V96H42.9258V92.9355ZM51.2578 96V93.4512L52.0957 92.4609L54.5508 96H56.6719L53.373 91.2539L56.4551 87.5449H54.4863L51.3633 91.3125H51.2578V87.5449H49.4883V96H51.2578ZM63.6094 94.4883H59.7773V92.4316H63.3926V91.0312H59.7773V89.0566H63.6094V87.5449H58.0078V96H63.6094V94.4883ZM69.5859 96V92.8887L72.5273 87.5449H70.6113L68.7539 91.084H68.6484L66.7852 87.5449H64.8691L67.8164 92.8887V96H69.5859Z" fill="#8A939A"/>
<path d="M48 67C59.0457 67 68 58.0457 68 47C68 35.9543 59.0457 27 48 27C36.9543 27 28 35.9543 28 47C28 58.0457 36.9543 67 48 67Z" fill="#D80027"/>
<path d="M47.1809 43.3427L48.8219 45.604L51.4795 44.7423L49.8359 47.0016L51.4766 49.2629L48.82 48.3979L47.1765 50.6573L47.1782 47.8634L44.5215 46.9984L47.1791 46.1367L47.1809 43.3427Z" fill="#F0F0F0"/>
<path d="M42.7027 52.6521C39.5811 52.6521 37.0505 50.1215 37.0505 47C37.0505 43.8784 39.5811 41.3478 42.7027 41.3478C43.6759 41.3478 44.5917 41.5939 45.3913 42.0271C44.137 40.8004 42.4216 40.0434 40.5287 40.0434C36.6867 40.0434 33.5723 43.1579 33.5723 46.9999C33.5723 50.8418 36.6868 53.9564 40.5287 53.9564C42.4217 53.9564 44.137 53.1993 45.3913 51.9726C44.5917 52.406 43.6759 52.6521 42.7027 52.6521Z" fill="#F0F0F0"/>
</svg>
