<svg width="97" height="126" viewBox="0 0 97 126" fill="none" xmlns="http://www.w3.org/2000/svg">
<rect width="97" height="126" fill="white"/>
<path d="M48 69C59.0457 69 68 60.0457 68 49C68 37.9543 59.0457 29 48 29C36.9543 29 28 37.9543 28 49C28 60.0457 36.9543 69 48 69Z" fill="#F0F0F0"/>
<path d="M32.4454 36.8236C30.8744 38.8676 29.6898 41.2235 29 43.7827H39.4045L32.4454 36.8236Z" fill="#0052B4"/>
<path d="M67.6226 43.7828C66.9329 41.2236 65.7482 38.8677 64.1772 36.8237L57.2183 43.7828H67.6226Z" fill="#0052B4"/>
<path d="M29 54.2176C29.6898 56.7768 30.8745 59.1327 32.4454 61.1766L39.4043 54.2176H29Z" fill="#0052B4"/>
<path d="M60.4874 33.1345C58.4434 31.5635 56.0876 30.3789 53.5283 29.689V40.0935L60.4874 33.1345Z" fill="#0052B4"/>
<path d="M36.1343 64.8656C38.1783 66.4366 40.5341 67.6212 43.0933 68.3111V57.9067L36.1343 64.8656Z" fill="#0052B4"/>
<path d="M43.0933 29.689C40.534 30.3789 38.1782 31.5635 36.1343 33.1344L43.0933 40.0934V29.689Z" fill="#0052B4"/>
<path d="M53.5283 68.3111C56.0875 67.6212 58.4434 66.4366 60.4873 64.8657L53.5283 57.9067V68.3111Z" fill="#0052B4"/>
<path d="M57.2183 54.2176L64.1772 61.1767C65.7482 59.1327 66.9329 56.7768 67.6226 54.2176H57.2183Z" fill="#0052B4"/>
<path d="M67.8307 46.3913H50.6088H50.6087V29.1693C49.7548 29.0581 48.8841 29 48 29C47.1157 29 46.2452 29.0581 45.3913 29.1693V46.3912V46.3913H28.1693C28.0581 47.2452 28 48.1159 28 49C28 49.8843 28.0581 50.7548 28.1693 51.6087H45.3912H45.3913V68.8307C46.2452 68.9419 47.1157 69 48 69C48.8841 69 49.7548 68.942 50.6087 68.8307V51.6088V51.6087H67.8307C67.9419 50.7548 68 49.8843 68 49C68 48.1159 67.9419 47.2452 67.8307 46.3913Z" fill="#D80027"/>
<path d="M53.2173 54.2175L62.142 63.1422C62.5524 62.7319 62.944 62.3029 63.3176 61.8583L55.6768 54.2175H53.2173V54.2175Z" fill="#D80027"/>
<path d="M42.7822 54.2175H42.782L33.8574 63.1421C34.2677 63.5526 34.6967 63.9442 35.1414 64.3178L42.7822 56.6768V54.2175Z" fill="#D80027"/>
<path d="M42.7829 43.7828V43.7826L33.8582 34.8578C33.4478 35.2682 33.0562 35.6971 32.6826 36.1418L40.3235 43.7827H42.7829V43.7828Z" fill="#D80027"/>
<path d="M53.2173 43.7828L62.1421 34.8579C61.7317 34.4475 61.3028 34.0559 60.8581 33.6824L53.2173 41.3232V43.7828Z" fill="#D80027"/>
<path d="M28.0332 82.5449H26.2637V88.082C26.2637 89.957 27.6406 91.2168 29.8027 91.2168C31.9707 91.2168 33.3477 89.957 33.3477 88.082V82.5449H31.5781V87.9004C31.5781 88.9668 30.9395 89.6465 29.8027 89.6465C28.6719 89.6465 28.0332 88.9668 28.0332 87.9004V82.5449ZM37.1035 91V85.709H37.209L41.1113 91H42.5762V82.5449H40.8828V87.8125H40.7773L36.8867 82.5449H35.4102V91H37.1035ZM46.4023 91V82.5449H44.6328V91H46.4023ZM52.2734 91V84.0566H54.8105V82.5449H47.9668V84.0566H50.5039V91H52.2734ZM61.9766 89.4883H58.1445V87.4316H61.7598V86.0312H58.1445V84.0566H61.9766V82.5449H56.375V91H61.9766V89.4883ZM63.8398 82.5391V91H67.168C69.6992 91 71.1348 89.459 71.1348 86.7109C71.1348 84.0625 69.6816 82.5391 67.168 82.5391H63.8398ZM65.6094 84.0508H66.8867C68.4219 84.0508 69.3301 85.0293 69.3301 86.7402C69.3301 88.5273 68.4512 89.4883 66.8867 89.4883H65.6094V84.0508ZM21.248 106V103.451L22.0859 102.461L24.541 106H26.6621L23.3633 101.254L26.4453 97.5449H24.4766L21.3535 101.312H21.248V97.5449H19.4785V106H21.248ZM29.7676 106V97.5449H27.998V106H29.7676ZM33.5117 106V100.709H33.6172L37.5195 106H38.9844V97.5449H37.291V102.812H37.1855L33.2949 97.5449H31.8184V106H33.5117ZM48.4707 102.549V101.471H44.9199V102.801H46.7539L46.748 102.953C46.7129 103.973 45.9102 104.658 44.75 104.658C43.3555 104.658 42.4766 103.557 42.4766 101.746C42.4766 99.9707 43.3145 98.8867 44.6797 98.8867C45.6641 98.8867 46.373 99.3848 46.6367 100.24H48.3945C48.1484 98.4824 46.6777 97.3281 44.6797 97.3281C42.2188 97.3281 40.666 99.0391 40.666 101.764C40.666 104.529 42.207 106.217 44.7207 106.217C47.0293 106.217 48.4707 104.811 48.4707 102.549ZM50.1699 97.5391V106H53.498C56.0293 106 57.4648 104.459 57.4648 101.711C57.4648 99.0625 56.0117 97.5391 53.498 97.5391H50.1699ZM51.9395 99.0508H53.2168C54.752 99.0508 55.6602 100.029 55.6602 101.74C55.6602 103.527 54.7812 104.488 53.2168 104.488H51.9395V99.0508ZM62.832 97.3281C60.3477 97.3281 58.7598 99.0273 58.7598 101.77C58.7598 104.512 60.3242 106.217 62.832 106.217C65.334 106.217 66.8926 104.512 66.8926 101.77C66.8926 99.0332 65.3281 97.3281 62.832 97.3281ZM62.832 98.8809C64.209 98.8809 65.0879 100 65.0879 101.77C65.0879 103.533 64.209 104.664 62.832 104.664C61.4434 104.664 60.5703 103.533 60.5703 101.77C60.5703 100 61.4609 98.8809 62.832 98.8809ZM77.5215 106V97.5449H75.4414L73.0977 103.229H72.9922L70.6543 97.5449H68.5684V106H70.209V100.346H70.3027L72.459 105.514H73.6367L75.7871 100.346H75.8809V106H77.5215Z" fill="#8A939A"/>
</svg>
