<svg width="97" height="126" viewBox="0 0 97 126" fill="none" xmlns="http://www.w3.org/2000/svg">
<rect width="97" height="126" fill="white"/>
<path d="M38.2812 87.5449H36.5117V93.082C36.5117 94.957 37.8887 96.2168 40.0508 96.2168C42.2188 96.2168 43.5957 94.957 43.5957 93.082V87.5449H41.8262V92.9004C41.8262 93.9668 41.1875 94.6465 40.0508 94.6465C38.9199 94.6465 38.2812 93.9668 38.2812 92.9004V87.5449ZM45.2773 93.6504C45.3418 95.2266 46.6484 96.2168 48.6641 96.2168C50.7852 96.2168 52.0918 95.1738 52.0918 93.4688C52.0918 92.1562 51.3594 91.4238 49.6602 91.0664L48.6406 90.8496C47.6504 90.6387 47.2461 90.3398 47.2461 89.8184C47.2461 89.1738 47.832 88.7637 48.7168 88.7637C49.5723 88.7637 50.1934 89.209 50.2754 89.877H51.9395C51.8867 88.3711 50.5684 87.3281 48.7051 87.3281C46.7539 87.3281 45.4707 88.377 45.4707 89.9707C45.4707 91.2598 46.2266 92.0625 47.7676 92.3848L48.8691 92.6191C49.9062 92.8418 50.3281 93.1523 50.3281 93.6914C50.3281 94.3301 49.6777 94.7754 48.7578 94.7754C47.7617 94.7754 47.0703 94.3359 46.9883 93.6504H45.2773ZM59.1992 96H61.1152L58.1797 87.5449H56.0996L53.1641 96H54.9395L55.5898 93.9844H58.5605L59.1992 96ZM57.0312 89.3027H57.1367L58.1855 92.6191H55.9707L57.0312 89.3027Z" fill="#8A939A"/>
<g clip-path="url(#clip0)">
<path d="M48 67C59.0457 67 68 58.0457 68 47C68 35.9543 59.0457 27 48 27C36.9543 27 28 35.9543 28 47C28 58.0457 36.9543 67 48 67Z" fill="#F0F0F0"/>
<path d="M47.1304 47H67.9999C67.9999 45.1948 67.7593 43.446 67.3109 41.7825H47.1304V47Z" fill="#D80027"/>
<path d="M47.1304 36.5653H65.0644C63.8401 34.5674 62.2747 32.8016 60.4496 31.3478H47.1304V36.5653Z" fill="#D80027"/>
<path d="M47.9995 67.0001C52.7064 67.0001 57.0328 65.3732 60.4492 62.6523H35.5498C38.9662 65.3732 43.2925 67.0001 47.9995 67.0001Z" fill="#D80027"/>
<path d="M30.935 57.4348H65.064C66.0469 55.8309 66.8092 54.0778 67.3105 52.2173H28.6885C29.1898 54.0778 29.9521 55.8309 30.935 57.4348Z" fill="#D80027"/>
<path d="M37.2644 30.1233H39.087L37.3916 31.3549L38.0392 33.3478L36.344 32.1162L34.6487 33.3478L35.2081 31.6262C33.7155 32.8695 32.4072 34.3263 31.3291 35.9494H31.913L30.8339 36.7334C30.6658 37.0138 30.5045 37.2987 30.35 37.5879L30.8653 39.1739L29.9039 38.4754C29.6649 38.9817 29.4463 39.4995 29.2498 40.028L29.8176 41.7755H31.913L30.2177 43.0071L30.8653 45L29.1701 43.7684L28.1546 44.5062C28.053 45.3232 28 46.1554 28 47H48C48 35.9544 48 34.6522 48 27C44.0491 27 40.366 28.1461 37.2644 30.1233ZM38.0392 45L36.344 43.7684L34.6487 45L35.2963 43.0071L33.601 41.7755H35.6965L36.344 39.7826L36.9915 41.7755H39.087L37.3916 43.0071L38.0392 45ZM37.3916 37.181L38.0392 39.1739L36.344 37.9423L34.6487 39.1739L35.2963 37.181L33.601 35.9494H35.6965L36.344 33.9565L36.9915 35.9494H39.087L37.3916 37.181ZM45.2131 45L43.5179 43.7684L41.8227 45L42.4702 43.0071L40.7749 41.7755H42.8704L43.5179 39.7826L44.1654 41.7755H46.2609L44.5655 43.0071L45.2131 45ZM44.5655 37.181L45.2131 39.1739L43.5179 37.9423L41.8227 39.1739L42.4702 37.181L40.7749 35.9494H42.8704L43.5179 33.9565L44.1654 35.9494H46.2609L44.5655 37.181ZM44.5655 31.3549L45.2131 33.3478L43.5179 32.1162L41.8227 33.3478L42.4702 31.3549L40.7749 30.1233H42.8704L43.5179 28.1304L44.1654 30.1233H46.2609L44.5655 31.3549Z" fill="#0052B4"/>
</g>
<defs>
<clipPath id="clip0">
<rect width="40" height="40" fill="white" transform="translate(28 27)"/>
</clipPath>
</defs>
</svg>
